<?xml version="1.0" encoding="utf-8"?>
<!-- Generator: Adobe Illustrator 17.0.0, SVG Export Plug-In . SVG Version: 6.00 Build 0)  -->
<!DOCTYPE svg PUBLIC "-//W3C//DTD SVG 1.1//EN" "http://www.w3.org/Graphics/SVG/1.1/DTD/svg11.dtd">
<svg version="1.1" xmlns="http://www.w3.org/2000/svg" xmlns:xlink="http://www.w3.org/1999/xlink" x="0px" y="0px" width="595.3px"
	 height="595.3px" viewBox="0 0 595.3 595.3" style="enable-background:new 0 0 595.3 595.3;" xml:space="preserve">
<style type="text/css">
	.st0{fill-rule:evenodd;clip-rule:evenodd;fill:#140F10;}
	.st1{fill-rule:evenodd;clip-rule:evenodd;fill:#FFFFFF;}
	.st2{fill-rule:evenodd;clip-rule:evenodd;fill:#120A7A;}
</style>
<g id="Guías_para_la_mesa_de_trabajo">
</g>
<g id="Capa_1">
	<g>
		<path class="st0" d="M0.1,288.6v18.4c0.1,0.2,0.9,15.2,1.1,16.9c0.5,5.7,1.1,10.8,1.9,16.3c6.8,49.6,28.3,100.3,59.2,139.6
			c3.8,4.9,8.2,10.5,12.4,15c0.9,0.9,1.2,1.5,2,2.4l10.9,11.4l10.5,10l6.1,5.2c17.4,14.8,25.7,20.1,44.9,31.8
			c7.4,4.5,15.6,8.3,23.7,12.3c16.2,7.9,36.1,14.3,53.6,18.8c9.5,2.4,19.8,4.3,30.3,5.8c5.5,0.8,10.8,1.3,16.3,1.8
			c2,0.2,16.5,0.9,16.8,1h15.7c0.3-0.1,14.8-0.8,16.8-1c5.5-0.5,10.8-1,16.3-1.8c10.6-1.5,20.4-3.4,30.3-5.8
			c13.9-3.4,27.6-7.8,40.7-13.2c11.2-4.6,26.5-11.8,36.4-17.7c3.9-2.3,7.5-4.5,11.1-6.7c1.9-1.2,3.6-2.3,5.4-3.5l10.7-7.5
			c7.7-5.7,10.8-8.3,17.6-14l7.3-6.4c6.9-6.4,11.3-10.4,18-18l6.4-7c0.9-0.9,1.3-1.7,2.1-2.6c9.3-10.1,24-32,29.9-42.1
			c42.7-73.2,39.3-137,40.6-140v-20.9c-0.1-0.2-1-15-1.2-16.9c-1.4-15.5-4.2-31.7-8-46.5c-4.2-16.5-11.7-38.3-19.3-53.4
			c-2-4-4-8.2-6.1-12.1c-3.4-6.6-9.4-16.9-13.5-22.8c-3.3-4.8-5.7-8.7-9.3-13.6l-9.9-12.7L517.5,97c-0.9-0.9-1.5-1.5-2.2-2.3
			c-3.9-4.3-7.1-7.5-11.2-11.4c-6.3-6-9.9-9.3-16.6-14.9c-19.3-16.2-42.9-31-66.9-42C389.3,12.3,353.8,3.2,319.1,0.8
			c-1.9-0.1-16.6-0.7-16.9-0.8h-9c-0.2,0.1-15.7,0.7-17.5,0.9C239,3.6,207.8,12,174.4,26.7c-4.2,1.9-8.5,3.9-12.5,6
			c-4.8,2.5-13,6.9-17.6,9.8c-11.2,7-16.2,10.5-26.9,18.3c-2.9,2.1-7.4,6-10.1,8.1c-3.3,2.5-6.5,5.8-8.6,7.5
			c-6,4.9-14.7,14-19.5,19.1l-4.4,4.9c-4.1,4.4-10.9,12.7-14.4,17.5c-10,13.7-18.6,26.4-26.4,41.5c-15.5,29.9-26.5,62.5-31,96.1
			c-0.8,5.5-1.3,10.6-1.9,16.3C1,273.2,0.2,288.5,0.1,288.6z"/>
		<path class="st1" d="M290,10c-45,1.6-80.3,11.3-116.1,27.8c-17.4,8-40.8,22.5-55.3,34.6c-2.8,2.4-7.5,5.9-9.9,8.2
			c-2.3,2.3-6.8,6-9.4,8.5c-3.5,3.5-5.9,6.2-9,9.1l-8.6,9.3c-9.5,11.8-13.3,15.4-23.4,30.5C26.1,186.1,8.4,243.9,10,305.6
			c4.2,156.1,134.1,284.1,295.6,279.7c182.1-5,316.2-176.9,270.9-358.7c-4.4-17.8-11.6-38-19.1-52.9c-11.2-22.1-19.5-36.2-34.6-55.3
			c-7.5-9.5-17.3-20.3-25.9-28.3c-7.1-6.6-10.6-10.2-18.9-16.8c-6.6-5.3-13.3-10.3-20.8-15.3C443,48.7,428,40.6,410.6,32.9
			C376.6,18,332,8.5,290,10z"/>
		<path class="st2" d="M309.8,304.8v203.1c7.9,0.3,22.3-2.2,29.9-3.8c42.9-8.8,78.8-29.2,108.9-59.5c1.5-1.5,2.5-2.9,4-4.4
			c2.8-2.9,5.2-5.8,7.8-8.9c48.5-58.7,62.1-142.5,31.7-214.5c-1.7-3.9-9.4-21-11.2-22.6c-3.4,1.9-17.6,11.1-21.3,13.7
			c-7,4.7-14.3,9.3-21.4,13.7c-14.5,9.1-28.4,18.6-42.9,27.6c-21.2,13.3-43,28.1-64.2,41.4c-3.5,2.2-7.3,4.6-10.7,6.9
			C318.6,298.7,310.4,303.5,309.8,304.8z"/>
		<path class="st2" d="M87.1,297.9c0.1,49.7,17,94.8,46.6,131.9c27.4,34.3,65,58.8,107.7,70.9c11.7,3.3,31.3,7.3,44.1,7.2l0-203.1
			c-0.5-1-1.3-1.3-2.3-1.9c-0.9-0.6-1.8-1.2-2.7-1.7l-16.2-10.3c-7-4.7-14.4-9-21.4-13.7c-13.4-8.9-29.3-18.8-43-27.5
			c-14.4-9.2-28.6-18.1-42.9-27.4c-11.5-7.4-26-16.9-37.6-24c-1.5-0.9-4.1-2.9-5.7-3.4c-0.6,1.6-1.8,3.5-2.8,5.3
			c-1,1.8-1.7,3.5-2.7,5.4c-1.9,3.7-3.5,7.3-5.1,11.3c-3.2,7.8-6,15.6-8.3,24.1C89.8,259,87,277.9,87.1,297.9z"/>
		<path class="st2" d="M127.1,174.5c1.5,0.7,59.9,38.2,63.8,40.6c32,20.2,63.9,41,95.9,61.2c2.3,1.4,9,5.9,10.8,6.8
			c3-1.5,39.4-25.3,42.4-27.2l63.7-41.1c7.2-4.7,14.2-9,21.4-13.8c6.9-4.6,14.2-8.9,21.2-13.6c2-1.3,20.3-12.8,21.3-13.9
			c-2-4-13.1-16.3-16.2-19.6c-3-3.3-8.8-9.3-12.1-12c-0.9-0.8-1.4-1.1-2.2-1.9c-2.5-2.4-5.9-5.1-8.7-7.3c-3-2.4-5.9-4.7-9.2-6.9
			c-20.8-14.2-39.6-23.9-65.4-31c-62.1-17.2-128.8-4.4-178.5,31.6c-4.1,3-9.8,7.2-13.5,10.6c-1.3,1.2-3.1,2.5-4.3,3.7l-8.3,7.8
			c-2.6,2.6-5.4,5.4-7.8,8.3C138.3,160.1,128.1,171.4,127.1,174.5z"/>
		<path class="st1" d="M123.7,389.4l-2.6,8.2c1.6,0.7,46.8,29.5,49.5,31.3c2.9,1.8,5.4,3.5,8.2,5.2c2.5,1.5,6,4.2,8.5,5.3
			c0.8-1,2.7-7.3,2.8-8.3c-1.7-0.7-15.3-11.9-15-16.2c0.2-2.7,6.9-9.9,8.8-12.1c1.7-1.9,3.3-3.6,4.8-5.6c2.5-3.1,7.4-8.2,9.6-11.2
			c1.1,0.4,9.1,5.6,10.6,6.6l21.1,13.4c0.7,0.4,10.2,6,10.4,7c0.4,1.8-0.7,29.3-1.5,33.5c-1.1,5.9-2.5,8.3-9.5,6.8
			c-5.9-1.3-10.2-4.3-12.7-4.9l-2.7,8.1c8.3,5.2,16.7,10.5,25,15.8c1.9,1.2,23.6,15.2,25,15.8l2.7-8.1c-4.6-3.5-8.4-6.5-11.4-12.1
			c-5.3-9.9-4.5-21.8-4.4-33.1l0-138.4c-3-1.4-15-9.9-17.3-10.7l-12.5,14.9c-5.2,6.4-13.3,15.9-19,22.4
			c-10,11.5-21.3,25.3-31.4,37.3c-4.2,5-22,26.4-25.6,29.4C136.8,396.5,128.4,390.9,123.7,389.4z"/>
		<path class="st1" d="M342,299.1l0.1,152.4c0,6.9-1.6,13.6-4.4,18.9c-2.2,4.1-8,10.6-11.3,12c0.1,0.8,2,7.3,2.8,8.3
			c3.7-1.9,31.6-20.1,37.3-23.6c2.5-1.5,10.7-7,12.4-7.8l-2.7-8.2c-4.1,1.7-7.5,3.7-12.3,4.9c-7.3,1.7-8.8-0.8-9.9-6.9
			c-1-5.7-1.8-27.8-1.5-33.9c1.3-0.4,19.7-12.3,21-13.2c1.3-0.9,19.8-12.8,21-13.2l19.3,22.3c5,5.9,5.6,7.1,0.1,13.1
			c-3.3,3.6-7.9,7-11,9.8c0.1,1.5,2,6.9,2.7,8.1c1.6-0.7,31.2-19.7,33-20.9c8.2-5.1,16.7-10.8,24.7-15.7c1.8-1.1,7.2-4.3,8.3-5.4
			l-2.6-8c-4.6,1.4-12.7,7-20.9,0.5c-3.3-2.6-6.8-7.3-9.9-10.7c-1.3-1.4-2.1-2.4-3.3-3.8c-2.2-2.6-4.1-4.8-6.3-7.4
			c-2.1-2.5-4-4.9-6.3-7.4c-1-1.1-2-2.5-3.1-3.7c-1.1-1.2-2-2.4-3.1-3.7c-6-6.9-12.6-15.3-18.9-22.5l-34.8-41.1
			c-1.1-1.2-2.1-2.7-3.3-3.8C357.5,288.8,344.8,297.5,342,299.1z"/>
		<path class="st1" d="M350.6,219.4c-1.3-1.1-5.9-4.5-7.2-5c-3.1,5.2-4,7.9-8.1,13.3c-3.3,4.4-6.2,7.7-10.7,11
			c-8.8,6.6-23.1,8.7-34.2,2.8c-18.5-9.9-22.6-38.1-22.1-64.6c0.5-24.6,6.5-54.7,29-57.7c25.4-3.4,34.9,25.1,40.8,45.7l7.4,0.1
			l-0.7-51.8c-1.5-0.1-2.9,0-4.4-0.1c-2.1,0-2.6-0.4-3.7,0.8c-0.8,0.8-1.5,1.4-2.3,2.2c-0.8,0.9-1.4,1.7-2.3,2.4
			c-6.7-3.3-9.8-5.5-18-7.6c-21.3-5.4-44.3,2.3-58,16.1c-36.7,37-28,122.5,31.5,131.1c23.1,3.4,41.7-4.6,53.9-21.8
			C343.5,233.7,350.1,222.9,350.6,219.4z"/>
		<path class="st2" d="M352.4,402.6c2.4-1.1,34.5-21.7,35-22.2c-1.4-2-27.7-33.3-31.3-37.3c-0.8-0.9-3.5-4.6-4.5-5.1L352.4,402.6z"
			/>
		<path class="st2" d="M205.5,377.7c0.7,0.8,26.7,17.2,30.4,19.5c1.4,0.9,3.3,2.2,4.6,2.8l0.8-64.7c-0.3,0.3-0.7,0.6-1.1,1l-3.4,4.1
			c-6.7,8.3-15.3,18.2-22.4,26.7C211.4,370.7,208.5,374.1,205.5,377.7z"/>
		<g>
			<path d="M545,267.5c5.6-0.1,10,1.4,13.2,4.5c3.2,3.1,4.8,7.4,4.9,13c0.1,5.7-1.4,10.2-4.4,13.4c-3,3.2-7.3,4.8-12.9,4.9
				c-4,0.1-7.3-0.6-9.9-1.9c-2.6-1.3-4.6-3.2-6.1-5.8c-1.5-2.5-2.3-5.7-2.3-9.5c-0.1-3.9,0.5-7.1,1.7-9.7c1.2-2.6,3.1-4.7,5.8-6.3
				C537.6,268.4,541,267.5,545,267.5L545,267.5z M545.1,278.1c-3.5,0.1-6,0.7-7.5,2.1c-1.5,1.3-2.2,3.1-2.2,5.3
				c0,2.3,0.8,4.1,2.3,5.3c1.5,1.2,4.2,1.8,8.1,1.7c3.3-0.1,5.6-0.8,7.1-2.1c1.5-1.3,2.2-3.1,2.1-5.4c0-2.1-0.8-3.9-2.4-5.1
				C551.2,278.7,548.6,278.1,545.1,278.1z"/>
			<path d="M530.9,230.9l2.9,9.7c-1.6,0.6-2.7,1.3-3.4,2.2c-1.1,1.4-1.4,3.1-1,5.1c0.3,1.5,1,2.5,1.8,3.2c0.9,0.6,1.8,0.8,2.7,0.6
				c0.9-0.2,1.6-0.8,2.1-1.7c0.5-0.9,0.8-2.8,0.7-5.8c0-4.8,0.6-8.4,1.8-10.7c1.2-2.3,3.2-3.8,5.8-4.4c1.7-0.4,3.5-0.3,5.2,0.4
				c1.8,0.6,3.3,1.9,4.7,3.7c1.3,1.8,2.4,4.5,3.2,8c1,4.3,1,7.8-0.1,10.4c-1.1,2.6-3.3,4.5-6.7,5.8l-2.8-9.7
				c1.5-0.6,2.4-1.4,2.9-2.4c0.5-1,0.6-2.2,0.2-3.7c-0.3-1.2-0.7-2.1-1.4-2.6c-0.6-0.5-1.3-0.7-2.1-0.5c-0.5,0.1-1,0.5-1.3,1.1
				c-0.3,0.6-0.5,1.8-0.4,3.8c0.1,4.8-0.2,8.2-0.7,10.4c-0.5,2.2-1.5,3.9-2.7,5.1c-1.3,1.2-2.8,2.1-4.7,2.5
				c-2.2,0.5-4.3,0.4-6.4-0.4c-2.1-0.8-3.9-2.1-5.3-4c-1.4-1.9-2.5-4.5-3.3-7.8c-1.3-5.7-1.1-9.9,0.6-12.6
				C525.1,233.9,527.6,232,530.9,230.9z"/>
			<path d="M546.5,205.4l4,9.9l-19.1,7.7c-1.9,0.8-3.8,1.2-5.7,1.3c-1.9,0.1-3.8-0.2-5.5-1c-1.8-0.7-3.2-1.7-4.3-2.9
				c-1.5-1.6-2.8-3.8-3.9-6.5c-0.6-1.6-1.2-3.3-1.7-5.2c-0.5-1.9-0.7-3.6-0.6-5.1c0.1-1.5,0.6-3,1.4-4.5c0.8-1.5,1.7-2.7,2.8-3.6
				c1.8-1.4,3.5-2.5,5-3.1l19.1-7.7l4,9.9l-19.5,7.9c-1.7,0.7-2.9,1.7-3.5,3.1c-0.6,1.4-0.5,2.9,0.2,4.6c0.7,1.7,1.7,2.8,3.1,3.4
				c1.3,0.6,2.9,0.5,4.7-0.2L546.5,205.4z"/>
			<path d="M498.1,160.2l5.6,8.5c-1.3,1-2.2,2-2.6,3c-0.7,1.6-0.5,3.4,0.5,5.1c0.8,1.3,1.7,2.2,2.7,2.5c1,0.4,1.9,0.3,2.8-0.2
				c0.8-0.4,1.3-1.2,1.5-2.2c0.2-1-0.1-2.9-1-5.7c-1.4-4.6-1.9-8.2-1.4-10.7c0.5-2.6,1.9-4.6,4.3-5.9c1.5-0.9,3.2-1.3,5.1-1.2
				c1.9,0.1,3.7,0.8,5.5,2.2c1.8,1.3,3.6,3.6,5.4,6.7c2.2,3.8,3.2,7.1,2.9,10c-0.3,2.8-1.8,5.3-4.7,7.5l-5.5-8.4
				c1.2-1,1.9-2.1,2.1-3.2c0.2-1.1-0.1-2.3-0.9-3.6c-0.6-1.1-1.3-1.8-2.1-2c-0.8-0.3-1.5-0.2-2.1,0.1c-0.5,0.3-0.8,0.7-0.9,1.4
				c-0.1,0.7,0.1,1.9,0.7,3.7c1.5,4.5,2.2,7.9,2.4,10.2c0.1,2.3-0.2,4.2-1.1,5.7c-0.9,1.6-2.1,2.8-3.7,3.7c-1.9,1.1-4,1.6-6.2,1.5
				c-2.2-0.1-4.3-0.9-6.2-2.3c-1.9-1.4-3.7-3.6-5.4-6.5c-2.9-5.1-4-9.2-3.2-12.2C493.4,164.7,495.2,162.2,498.1,160.2z"/>
			<path d="M475.2,131.7l6.7,7.6c-1.2,1.2-1.9,2.3-2.1,3.4c-0.4,1.7,0,3.4,1.3,5c0.9,1.2,1.9,1.9,3,2.1c1.1,0.2,2,0,2.7-0.6
				c0.7-0.5,1.1-1.3,1.2-2.4c0.1-1.1-0.5-2.9-1.8-5.5c-2-4.3-3-7.8-2.9-10.5c0.1-2.7,1.3-4.8,3.4-6.5c1.4-1.1,3-1.7,4.9-1.9
				c1.9-0.2,3.8,0.3,5.8,1.4c2,1.1,4.1,3,6.3,5.9c2.7,3.5,4.1,6.6,4.3,9.5c0.1,2.8-1.1,5.5-3.6,8.1l-6.6-7.6
				c1.1-1.2,1.6-2.3,1.6-3.4c0-1.1-0.4-2.2-1.3-3.4c-0.8-1-1.5-1.6-2.3-1.7c-0.8-0.2-1.5,0-2.1,0.4c-0.4,0.3-0.7,0.8-0.7,1.5
				c-0.1,0.7,0.4,1.9,1.2,3.6c2.1,4.3,3.3,7.5,3.8,9.8c0.4,2.2,0.3,4.2-0.3,5.8c-0.6,1.7-1.7,3.1-3.2,4.2c-1.7,1.4-3.7,2.1-5.9,2.3
				c-2.2,0.2-4.4-0.3-6.5-1.4c-2.1-1.1-4.2-3-6.3-5.7c-3.6-4.6-5.2-8.5-4.8-11.7C471.1,136.9,472.6,134.1,475.2,131.7z"/>
			<path d="M458.9,124.4l-9.3-7.8l-4.9,3.3l-8.3-7l32.1-18.1l8.9,7.5L465.1,137l-8.5-7.2L458.9,124.4L458.9,124.4z M462,117.3
				l5-11.9l-10.9,7.1L462,117.3z"/>
			<path d="M435.1,94.7l6.4,7.3c-1.9,1.9-3.9,3.2-6,4c-2.1,0.8-4.2,1-6.4,0.7c-2.2-0.3-4.6-1.3-7.2-2.9c-3.2-2-5.5-4.1-6.9-6.2
				c-1.4-2.2-2.2-4.9-2.2-8.1c0-3.2,1.1-6.7,3.4-10.3c3-4.8,6.6-7.8,10.8-8.7c4.2-1,8.7,0,13.4,2.9c3.7,2.3,6.1,4.9,7.3,7.7
				c1.2,2.8,1.3,6.1,0.4,9.8l-9.1-3.2c0.3-1.1,0.4-1.9,0.3-2.5c-0.1-1-0.4-1.9-0.9-2.8c-0.5-0.8-1.2-1.5-2.1-2.1
				c-2-1.3-4.1-1.4-6.2-0.5c-1.6,0.7-3.2,2.4-4.8,5c-2,3.2-2.9,5.8-2.7,7.6c0.2,1.8,1.2,3.3,3,4.4c1.7,1.1,3.3,1.4,4.8,1
				C432,97.3,433.5,96.3,435.1,94.7z"/>
			<path d="M396.3,82.6l-11.1-4.9l-3.8,4.5l-9.9-4.4l25.9-26.2l10.6,4.7L405.7,93l-10.2-4.5L396.3,82.6L396.3,82.6z M397.3,74.8
				l1.6-12.9l-8.5,9.8L397.3,74.8z"/>
			<path d="M321,50.4c0.9-5.6,3.1-9.6,6.7-12.2c3.6-2.6,8.2-3.5,13.7-2.6c5.7,0.9,9.8,3.1,12.4,6.6c2.6,3.5,3.4,8,2.6,13.5
				c-0.6,4-1.8,7.1-3.6,9.5c-1.7,2.3-4,4-6.7,5c-2.8,1-6,1.2-9.8,0.6c-3.8-0.6-6.9-1.7-9.2-3.3c-2.3-1.6-4.1-3.9-5.2-6.8
				C320.7,57.9,320.4,54.4,321,50.4L321,50.4z M331.5,52.1c-0.5,3.4-0.3,6,0.7,7.7c1,1.7,2.7,2.7,4.9,3.1c2.3,0.4,4.1-0.1,5.6-1.4
				c1.5-1.3,2.5-3.8,3.1-7.6c0.5-3.2,0.2-5.7-0.8-7.3c-1.1-1.7-2.7-2.7-4.9-3c-2.1-0.3-3.9,0.1-5.5,1.4
				C333.1,46.3,332.1,48.7,331.5,52.1z"/>
			<path d="M305.2,53l9.3,2.8c-0.6,2.6-1.6,4.8-3,6.6c-1.3,1.8-3,3.1-5,4c-2,0.9-4.5,1.3-7.6,1.3c-3.7,0-6.8-0.5-9.2-1.6
				c-2.4-1.1-4.4-3-6.2-5.8c-1.7-2.7-2.6-6.3-2.6-10.5c0-5.7,1.5-10.1,4.6-13.2c3-3.1,7.3-4.6,12.9-4.6c4.3,0,7.8,0.9,10.2,2.6
				c2.5,1.8,4.3,4.5,5.5,8.1l-9.4,2.1c-0.3-1.1-0.7-1.8-1-2.3c-0.6-0.8-1.3-1.4-2.2-1.9c-0.9-0.4-1.8-0.7-2.9-0.7
				c-2.4,0-4.3,1-5.5,2.9c-1,1.4-1.5,3.7-1.5,6.8c0,3.8,0.6,6.4,1.7,7.9c1.2,1.4,2.8,2.1,4.9,2.1c2,0,3.6-0.6,4.6-1.7
				C304,56.9,304.7,55.2,305.2,53z"/>
			<rect x="261.4" y="34.4" transform="matrix(-0.9903 0.1391 -0.1391 -0.9903 538.0854 65.6433)" width="10.7" height="34.5"/>
			<polygon points="220,43.3 251.7,36.5 253.5,44.9 242.9,47.1 248.3,72.5 237.8,74.7 232.4,49.3 221.8,51.6 			"/>
			<polygon points="184.7,56.8 211.3,46.5 214,53.4 197.3,59.8 199.2,64.9 214.7,59 217.2,65.6 201.8,71.5 204.2,77.8 221.4,71.3 
				224.2,78.5 197,89 			"/>
			<polygon points="152.3,75.2 161.6,70 174.2,92.8 188.8,84.7 192.9,92.1 169,105.4 			"/>
			<polygon points="118.5,100.9 144,81 149.3,87.7 140.7,94.4 156.7,114.8 148.3,121.4 132.3,100.9 123.7,107.6 			"/>
			<path d="M128.9,132.5l-8.4,8.7l2.9,5.2l-7.6,7.8L100,121l8.1-8.4l33.8,14.6l-7.7,8L128.9,132.5L128.9,132.5z M122,129l-11.6-5.9
				l6.3,11.3L122,129z"/>
			<path d="M59.7,179.7l10-17.3c1.7-2.9,3.7-4.7,6-5.4c2.3-0.7,4.5-0.5,6.6,0.7c1.8,1,3,2.4,3.6,4.3c0.4,1.2,0.5,2.7,0.1,4.4
				c1.8-1.8,3.6-2.9,5.4-3.2c1.8-0.3,3.7,0.1,5.6,1.2c1.6,0.9,2.7,2.1,3.6,3.5c0.8,1.4,1.2,3,1.2,4.7c0,1-0.3,2.4-1,4.1
				c-0.9,2.2-1.6,3.7-2,4.4L89.6,197L59.7,179.7L59.7,179.7z M76.8,177.2l2.3-4c0.8-1.4,1.2-2.6,1-3.4c-0.2-0.9-0.7-1.5-1.7-2.1
				c-0.9-0.5-1.7-0.6-2.5-0.3c-0.8,0.3-1.6,1.1-2.4,2.5l-2.4,4.1L76.8,177.2L76.8,177.2z M88.5,184l2.7-4.7c0.9-1.6,1.3-2.9,1.1-3.8
				c-0.2-1-0.8-1.7-1.7-2.3c-0.9-0.5-1.8-0.6-2.7-0.3c-0.9,0.3-1.8,1.3-2.8,2.9l-2.7,4.7L88.5,184z"/>
			<path d="M50,201.9l3.5-10.1l19.4,6.7c1.9,0.7,3.6,1.6,5.1,2.8c1.5,1.2,2.7,2.6,3.5,4.4c0.8,1.7,1.3,3.4,1.3,5
				c0,2.2-0.4,4.7-1.3,7.4c-0.5,1.6-1.2,3.3-2.1,5.1c-0.9,1.8-1.8,3.2-2.9,4.2c-1.1,1-2.4,1.9-4,2.5c-1.6,0.6-3.1,0.9-4.5,0.9
				c-2.3-0.1-4.2-0.4-5.8-1l-19.4-6.7l3.5-10.1l19.9,6.9c1.8,0.6,3.3,0.6,4.7,0c1.3-0.6,2.3-1.8,2.9-3.6c0.6-1.7,0.6-3.3-0.1-4.6
				c-0.6-1.3-1.9-2.3-3.7-2.9L50,201.9z"/>
			<polygon points="35.4,258.5 37.3,248 62.9,252.5 65.8,236.2 74.1,237.6 69.4,264.5 			"/>
			<path d="M53.3,278.8l3-9.3c2.6,0.7,4.8,1.7,6.5,3.1c1.7,1.4,3,3.1,3.9,5.1c0.9,2,1.3,4.6,1.2,7.7c-0.1,3.7-0.7,6.8-1.8,9.2
				c-1.1,2.4-3.1,4.4-5.9,6.1c-2.8,1.7-6.3,2.5-10.6,2.4c-5.7-0.1-10.1-1.7-13.1-4.8c-3-3.1-4.5-7.4-4.4-13c0.1-4.3,1-7.7,2.8-10.2
				c1.8-2.5,4.5-4.3,8.2-5.4l1.9,9.4c-1.1,0.3-1.8,0.6-2.3,1c-0.8,0.6-1.5,1.3-1.9,2.2c-0.5,0.9-0.7,1.8-0.7,2.9
				c0,2.4,0.9,4.3,2.8,5.6c1.4,1,3.7,1.5,6.8,1.6c3.8,0.1,6.5-0.5,7.9-1.6c1.4-1.1,2.2-2.8,2.2-4.9c0-2-0.5-3.6-1.6-4.7
				C57.2,280.1,55.5,279.4,53.3,278.8z"/>
		</g>
		<g>
			<path d="M446.6,502.4c-3.7-4.2-5.4-8.6-5.1-13c0.3-4.4,2.6-8.5,6.8-12.1c4.3-3.8,8.7-5.5,13.1-5.2c4.4,0.3,8.4,2.5,12,6.7
				c2.6,3,4.3,6,5,8.8c0.7,2.8,0.5,5.6-0.5,8.4c-1,2.8-2.9,5.4-5.8,7.9c-2.9,2.5-5.8,4.2-8.5,4.9c-2.7,0.7-5.6,0.6-8.5-0.4
				C452.1,507.5,449.2,505.5,446.6,502.4L446.6,502.4z M454.7,495.5c2.3,2.6,4.4,4.1,6.4,4.4c2,0.3,3.8-0.3,5.5-1.7
				c1.7-1.5,2.6-3.2,2.5-5.2c0-1.9-1.3-4.4-3.8-7.3c-2.1-2.5-4.2-3.8-6.2-4.1c-2-0.3-3.8,0.3-5.5,1.8c-1.6,1.4-2.4,3.1-2.4,5.1
				C451.2,490.5,452.4,492.8,454.7,495.5z"/>
			<path d="M421.2,537.7l-17.2-29.9l15.4-8.9c2.9-1.6,5.2-2.7,7-3c1.8-0.4,3.5-0.2,5.2,0.6c1.7,0.8,3.1,2.1,4.2,4
				c1,1.7,1.4,3.3,1.4,4.9c0,1.6-0.4,3.1-1.2,4.6c-0.5,0.9-1.4,1.9-2.6,3c1.3-0.3,2.3-0.4,3-0.3c0.5,0.1,1.3,0.3,2.4,0.7
				c1.1,0.4,1.9,0.8,2.4,1.1l9.5,6.1l-10.4,6l-10.2-6.3c-1.3-0.8-2.3-1.3-3-1.3c-0.9-0.1-1.8,0.1-2.7,0.6l-0.8,0.5l7,12.1
				L421.2,537.7L421.2,537.7z M420.2,514.5l3.9-2.2c0.4-0.2,1.2-0.8,2.2-1.8c0.5-0.5,0.9-1.1,1-1.8c0.1-0.7,0-1.4-0.4-2.1
				c-0.6-1-1.3-1.5-2.2-1.7c-0.9-0.2-2.2,0.2-3.9,1.2l-4.1,2.3L420.2,514.5z"/>
			<path d="M366.5,523.5l14.7-5.9c2.9-1.2,5.4-1.7,7.5-1.7c2.1,0.1,4,0.6,5.8,1.6c1.8,1,3.3,2.4,4.6,4.1c1.3,1.7,2.4,3.7,3.3,5.9
				c1.4,3.4,2.1,6.2,2,8.4c0,2.2-0.5,4.2-1.3,6c-0.9,1.8-2,3.3-3.4,4.3c-1.9,1.5-3.8,2.5-5.5,3.2l-14.7,5.9L366.5,523.5L366.5,523.5
				z M379.3,526.7l7.1,17.5l2.4-1c2.1-0.8,3.4-1.7,4.1-2.5c0.7-0.8,1-1.9,1.1-3.2c0-1.3-0.5-3.3-1.5-5.9c-1.4-3.4-2.9-5.5-4.5-6.3
				c-1.6-0.8-3.7-0.7-6.3,0.3L379.3,526.7z"/>
			<rect x="349.7" y="526.5" transform="matrix(-0.9744 0.225 -0.225 -0.9744 823.3364 993.6277)" width="10.7" height="34.5"/>
			<path d="M307.9,555.9l10-1.5c0.4,1.6,0.9,2.8,1.7,3.6c1.2,1.3,2.8,1.8,4.9,1.7c1.5-0.1,2.6-0.6,3.4-1.4c0.8-0.8,1.1-1.6,1-2.6
				c-0.1-0.9-0.5-1.7-1.4-2.3c-0.8-0.6-2.7-1.1-5.6-1.5c-4.7-0.6-8.2-1.7-10.3-3.3c-2.2-1.6-3.3-3.7-3.6-6.4
				c-0.2-1.8,0.2-3.5,1.1-5.1c0.9-1.7,2.3-3,4.3-4.1c2-1.1,4.8-1.8,8.3-2.1c4.4-0.4,7.8,0.1,10.3,1.6c2.4,1.4,4,3.9,4.8,7.4l-10,1.5
				c-0.4-1.5-1.1-2.6-2-3.2c-0.9-0.6-2.1-0.9-3.6-0.7c-1.2,0.1-2.1,0.4-2.7,1c-0.6,0.6-0.8,1.2-0.8,2c0,0.5,0.3,1,0.9,1.4
				c0.5,0.4,1.8,0.7,3.7,1c4.7,0.6,8.1,1.3,10.2,2.2c2.1,0.8,3.7,2,4.7,3.4c1,1.4,1.7,3.1,1.8,5c0.2,2.2-0.2,4.3-1.3,6.2
				c-1.1,2-2.6,3.5-4.7,4.7c-2.1,1.2-4.8,1.9-8.1,2.2c-5.8,0.5-10-0.3-12.4-2.3C310,562.1,308.5,559.4,307.9,555.9z"/>
			
				<rect x="285.1" y="532.8" transform="matrix(-0.9994 -3.493638e-02 3.493638e-02 -0.9994 561.5801 1109.8918)" width="10.7" height="34.5"/>
			<polygon points="222.7,520.8 232.3,523.6 239.5,545.5 244.8,527.1 254.5,529.9 244.9,563.1 235.3,560.3 228.1,538.5 222.9,556.7 
				213.2,554 			"/>
			<path d="M193.1,540.4l-11-5.1l-3.9,4.5l-9.9-4.6l26.3-25.8l10.5,4.9l-2.8,36.7l-10.1-4.7L193.1,540.4L193.1,540.4z M194.3,532.7
				l1.8-12.8l-8.7,9.6L194.3,532.7z"/>
			<path d="M140,503.4l8.9,5c-0.7,1.5-1,2.8-0.9,3.9c0.2,1.8,1.1,3.2,2.8,4.3c1.3,0.8,2.4,1.2,3.5,1c1.1-0.2,1.9-0.6,2.4-1.4
				c0.5-0.7,0.6-1.6,0.3-2.7c-0.3-1-1.4-2.6-3.5-4.7c-3.3-3.4-5.4-6.4-6.1-9c-0.7-2.6-0.4-5,1.1-7.2c1-1.5,2.3-2.6,4-3.4
				c1.7-0.8,3.7-1,5.9-0.6c2.2,0.4,4.8,1.5,7.8,3.5c3.7,2.4,6.1,4.9,7.1,7.6c1,2.6,0.8,5.6-0.8,8.8l-8.7-5c0.6-1.4,0.8-2.7,0.4-3.8
				c-0.3-1-1.1-2-2.4-2.8c-1-0.7-2-1-2.8-0.9c-0.8,0.1-1.4,0.5-1.8,1.1c-0.3,0.5-0.3,1-0.2,1.7c0.2,0.7,0.9,1.7,2.3,3
				c3.4,3.4,5.6,6,6.7,8c1.1,2,1.7,3.8,1.6,5.6c-0.1,1.8-0.6,3.5-1.6,5c-1.2,1.9-2.8,3.2-4.9,4.1c-2,0.9-4.2,1.2-6.6,0.8
				c-2.4-0.4-4.9-1.5-7.7-3.3c-4.9-3.2-7.7-6.3-8.4-9.5C137.8,509.6,138.3,506.5,140,503.4z"/>
		</g>
	</g>
</g>
</svg>
