<?xml version="1.0" encoding="utf-8"?>
<!-- Generator: Adobe Illustrator 17.0.0, SVG Export Plug-In . SVG Version: 6.00 Build 0)  -->
<!DOCTYPE svg PUBLIC "-//W3C//DTD SVG 1.1//EN" "http://www.w3.org/Graphics/SVG/1.1/DTD/svg11.dtd">
<svg version="1.1" xmlns="http://www.w3.org/2000/svg" xmlns:xlink="http://www.w3.org/1999/xlink" x="0px" y="0px" width="595.3px"
	 height="595.3px" viewBox="0 0 595.3 595.3" style="enable-background:new 0 0 595.3 595.3;" xml:space="preserve">
<style type="text/css">
	.st0{fill:#004204;}
	.st1{fill:#FFFFFF;}
	.st2{fill:#FF0001;}
</style>
<g id="Capa_1">
</g>
<g id="Capa_2">
	<g>
		<path class="st0" d="M549.8,0c26.9,0,28.3,17.4,28.3,23.1s-5.7,20.7-20.3,20.7c-9.9,0-12,4.2-12,15.6c0,0,0,329.2,0,382.4
			s-58.4,104.5-108.9,104.5s-45.9,0.9-80.3,0.9s-55.7,48.1-59,48.1c-3.3,0-24.6-48.1-59-48.1s-29.9-0.9-80.3-0.9
			S49.5,495,49.5,441.8s0-382.4,0-382.4c0-11.3-2.1-15.6-12-15.6c-14.6,0-20.3-15.1-20.3-20.7S18.6,0,45.5,0L549.8,0z"/>
		<path class="st1" d="M515.4,28.7v403.8c0,50.1-45.9,85.4-90.6,85.4c-48,0-61.9,0-61.9,0c-47.3,0-66.4,29.8-66.4,29.8
			s-19-29.8-66.4-29.8c0,0-13.9,0-61.9,0c-44.8,0-90.6-35.3-90.6-85.4V28.7H515.4z"/>
		<path class="st0" d="M499.8,44.5v384.2c0,46.6-37.2,74-78.8,74c-44.6,0-62.8,0-62.8,0c-44,0-61.7,26.7-61.7,26.7
			s-17.7-26.7-61.7-26.7c0,0-18.3,0-62.8,0c-41.6,0-78.8-27.5-78.8-74V44.5H499.8z"/>
		<rect x="108.8" y="59.5" class="st2" width="375.8" height="157.1"/>
		<path class="st1" d="M201.8,149.7l27.2,8.4c-1.8,7.8-4.7,14.4-8.6,19.6c-3.9,5.3-8.8,9.2-14.6,11.9c-5.8,2.7-13.2,4-22.2,4
			c-10.9,0-19.8-1.6-26.7-4.9c-6.9-3.3-12.9-9-17.9-17.2c-5-8.2-7.5-18.7-7.5-31.5c0-17.1,4.4-30.2,13.3-39.3
			c8.8-9.2,21.3-13.7,37.5-13.7c12.6,0,22.6,2.6,29.8,7.9c7.2,5.3,12.6,13.3,16.1,24.2l-27.4,6.3c-1-3.1-2-5.4-3-6.9
			c-1.7-2.4-3.9-4.3-6.4-5.6c-2.5-1.3-5.3-2-8.4-2c-7,0-12.4,2.9-16.2,8.7c-2.8,4.3-4.2,11.1-4.2,20.3c0,11.4,1.7,19.3,5.1,23.5
			c3.4,4.2,8.1,6.4,14.2,6.4c5.9,0,10.4-1.7,13.5-5.1C198.2,161.2,200.4,156.3,201.8,149.7z"/>
		<path class="st1" d="M311,174.9h-35.2l-4.9,17h-31.7l37.7-103.1h33.8l37.7,103.1H316L311,174.9z M304.5,152.6l-11.1-37.1l-11,37.1
			H304.5z"/>
		<path class="st1" d="M432,174.9h-35.2l-4.9,17h-31.7l37.7-103.1h33.8l37.7,103.1H437L432,174.9z M425.6,152.6l-11.1-37.1l-11,37.1
			H425.6z"/>
		<g>
			<path class="st2" d="M160.2,231.7v254.4c4.1,0.6,8.3,0.9,12.5,0.9c19.5,0,33.9,0,44,0V231.7H160.2z"/>
			<path class="st2" d="M268.9,231.7v260.1c19.8,6.3,28.3,16.5,28.3,16.5s8.5-10.2,28.3-16.5V231.7H268.9z"/>
			<path class="st2" d="M377.7,231.7V487c10.1,0,24.5,0,44,0c4.2,0,8.4-0.3,12.5-0.9V231.7H377.7z"/>
		</g>
	</g>
</g>
</svg>
