<?xml version="1.0" encoding="utf-8"?>
<!-- Generator: Adobe Illustrator 17.0.0, SVG Export Plug-In . SVG Version: 6.00 Build 0)  -->
<!DOCTYPE svg PUBLIC "-//W3C//DTD SVG 1.1//EN" "http://www.w3.org/Graphics/SVG/1.1/DTD/svg11.dtd">
<svg version="1.1" id="Capa_1" xmlns="http://www.w3.org/2000/svg" xmlns:xlink="http://www.w3.org/1999/xlink" x="0px" y="0px"
	 width="595.3px" height="595.3px" viewBox="0 0 595.3 595.3" style="enable-background:new 0 0 595.3 595.3;" xml:space="preserve"
	>
<style type="text/css">
	.st0{fill-rule:evenodd;clip-rule:evenodd;}
	.st1{fill-rule:evenodd;clip-rule:evenodd;fill:#FFFF00;}
	.st2{fill-rule:evenodd;clip-rule:evenodd;fill:#FFFFFF;}
</style>
<g>
	<path class="st0" d="M297.6,592.7c35.1-27.6,69.1-48.1,105.8-48c57.4-0.1,109.6-26.3,109.6-65.1c0-126.5,0-253,0-379.5H297.6H82.2
		c0,126.5,0,253,0,379.5c0,38.8,52.2,65,109.6,65.1C228.5,544.6,262.6,565.1,297.6,592.7z"/>
	<path class="st1" d="M87.9,104.9v81.1v289.5c0,27.4,26.5,48.3,62.3,57.8V104.9H87.9z"/>
	<path class="st1" d="M207.5,104.9v434.9c21.3,2.8,41.8,12.4,62.3,25.8V104.9H207.5z"/>
	<path class="st1" d="M325.2,104.9v460.9c20.5-13.5,41-23.1,62.3-25.9v-435H325.2z"/>
	<path class="st1" d="M445,104.9v428.4c35.8-9.6,62.3-30.5,62.3-57.8V185.9v-81.1H445z"/>
	<path class="st0" d="M85.3,85.2h424.6c4.1,0,7.5,3.8,7.5,8.5v0c0,4.7-3.4,8.5-7.5,8.5H85.3c-4.1,0-7.5-3.8-7.5-8.5v0
		C77.9,89,81.2,85.2,85.3,85.2z"/>
	<path class="st1" d="M87.7,87.7h419.9c3.6,0,6.5,2.5,6.5,5.5v1.5c0,3-2.9,5.5-6.5,5.5H87.7c-3.6,0-6.5-2.5-6.5-5.5v-1.5
		C81.2,90.1,84.1,87.7,87.7,87.7z"/>
	<path class="st0" d="M505.4,30.3c3.6-9.1,7.3-18.6,10.9-27.7c-145.8,0-291.6,0-437.4,0c4.1,9.2,8.2,18.3,12.3,27.5
		c3.7-1.6,7.6-2.6,11.7-2.5c130.4,0,260.8,0,391.2,0C497.9,27.7,501.7,28.7,505.4,30.3z"/>
	<path class="st1" d="M500.3,30.6l10.2-23.9H85l11,23.9c3.6-1.5,5.7-1.5,9.6-1.4c126.3,0,259.3,0,385.6,0
		C495,29.3,496.7,29,500.3,30.6z"/>
	<path class="st0" d="M102,87.7h391.2c15.8,0,28.8-13.5,28.8-30v0c0-16.5-13-30-28.8-30H102c-15.8,0-28.8,13.5-28.8,30v0
		C73.2,74.1,86.2,87.7,102,87.7z"/>
	<path class="st2" d="M105,84.4h385.3c15.6,0,28.4-12,28.4-26.7v0c0-14.7-12.8-26.7-28.4-26.7H105c-15.6,0-28.4,12-28.4,26.7v0
		C76.6,72.4,89.4,84.4,105,84.4z"/>
	<path class="st0" d="M120.5,69.3h-8.9l-1.2,5.7h-8l9.5-34.5h8.5l9.5,34.5h-8.2L120.5,69.3L120.5,69.3z M118.9,61.8l-2.8-12.4
		l-2.8,12.4H118.9L118.9,61.8z M132.4,40.4h7.8v26h12.2V75h-20V40.4L132.4,40.4z M155.9,40.4h10.3l4,21l3.9-21h10.2V75h-6.4V48.6
		L173,75h-5.8l-4.9-26.3V75h-6.4V40.4L155.9,40.4z M189.6,40.4h7.8V75h-7.8V40.4L189.6,40.4z M203.2,75V40.4h13
		c2.4,0,4.3,0.3,5.5,0.9c1.3,0.6,2.3,1.6,3.1,3.1c0.8,1.5,1.2,3.4,1.2,5.6c0,1.9-0.3,3.6-0.9,5c-0.6,1.4-1.4,2.5-2.5,3.4
		c-0.7,0.5-1.6,1-2.7,1.4c0.9,0.4,1.6,0.9,2,1.3c0.3,0.3,0.7,0.9,1.2,1.8c0.5,0.9,0.9,1.6,1.1,2.1l3.8,10h-8.8L215,64.4
		c-0.5-1.4-1-2.3-1.4-2.7c-0.6-0.5-1.2-0.8-1.9-0.8H211v14H203.2L203.2,75z M211,54.4h3.3c0.4,0,1-0.2,2.1-0.5
		c0.5-0.1,0.9-0.5,1.3-1.1c0.3-0.6,0.5-1.2,0.5-2c0-1.1-0.3-2-0.8-2.6c-0.5-0.6-1.5-0.9-2.9-0.9H211V54.4L211,54.4z M246.1,69.3
		l1.2,5.7h8.2L246,40.4h-8.5L228,75h8l1.2-5.7H246.1L246.1,69.3z M244.4,61.8h-5.6l2.8-12.4L244.4,61.8L244.4,61.8z M258,40.4h7.3
		l9.5,19.1V40.4h7.4V75h-7.4l-9.5-19v19H258V40.4L258,40.4z M285.6,40.4h23.7V49h-8v26h-7.8V49h-8V40.4L285.6,40.4z M312.9,40.4
		h20.9v7.4h-13.1v5.5h12.2v7h-12.2v6.8h13.5V75h-21.3V40.4L312.9,40.4z M350.2,40.4h14.6c2.4,0,4.3,0.8,5.6,2.5c1.3,1.6,2,3.7,2,6.1
		c0,2-0.5,3.8-1.4,5.3c-0.6,1-1.5,1.7-2.7,2.3c1.8,0.6,3.1,1.6,4,3.1c0.9,1.5,1.3,3.3,1.3,5.5c0,1.8-0.3,3.4-0.9,4.8
		c-0.6,1.4-1.4,2.6-2.5,3.4c-0.7,0.5-1.6,0.9-3,1.1c-1.8,0.3-2.9,0.5-3.5,0.5h-13.5V40.4L350.2,40.4z M358.1,54h3.4
		c1.2,0,2.1-0.3,2.5-0.9c0.5-0.6,0.7-1.4,0.7-2.5c0-1-0.2-1.8-0.7-2.4c-0.5-0.6-1.3-0.9-2.5-0.9h-3.4V54L358.1,54z M358.1,67.5h4
		c1.3,0,2.3-0.3,2.8-1c0.6-0.7,0.8-1.5,0.8-2.6c0-1-0.3-1.8-0.8-2.5c-0.5-0.6-1.5-0.9-2.9-0.9h-4V67.5L358.1,67.5z M377.8,75V40.4
		h13c2.4,0,4.3,0.3,5.5,0.9c1.3,0.6,2.3,1.6,3.1,3.1c0.8,1.5,1.2,3.4,1.2,5.6c0,1.9-0.3,3.6-0.9,5c-0.6,1.4-1.4,2.5-2.5,3.4
		c-0.7,0.5-1.6,1-2.7,1.4c0.9,0.4,1.6,0.9,2,1.3c0.3,0.3,0.7,0.9,1.2,1.8c0.5,0.9,0.9,1.6,1.1,2.1l3.8,10h-8.8l-4.2-10.6
		c-0.5-1.4-1-2.3-1.4-2.7c-0.6-0.5-1.2-0.8-1.9-0.8h-0.7v14H377.8L377.8,75z M385.6,54.4h3.3c0.4,0,1-0.2,2.1-0.5
		c0.5-0.1,0.9-0.5,1.3-1.1c0.3-0.6,0.5-1.2,0.5-2c0-1.1-0.3-2-0.8-2.6c-0.5-0.6-1.5-0.9-2.9-0.9h-3.4V54.4L385.6,54.4z M403.6,57.7
		c0-5.6,1.2-10,3.4-13.2c2.3-3.1,5.5-4.7,9.6-4.7c4.2,0,7.5,1.5,9.7,4.6c2.3,3.1,3.4,7.4,3.4,13c0,4-0.5,7.3-1.5,9.9
		c-1,2.6-2.4,4.6-4.3,6c-1.9,1.4-4.2,2.2-7,2.2c-2.9,0-5.2-0.6-7.1-1.9c-1.9-1.2-3.4-3.2-4.5-5.9C404.2,65.1,403.6,61.8,403.6,57.7
		L403.6,57.7z M411.4,57.8c0,3.5,0.5,6,1.4,7.5c0.9,1.5,2.2,2.3,3.9,2.3c1.7,0,3-0.7,3.9-2.2c0.9-1.5,1.4-4.2,1.4-8
		c0-3.3-0.5-5.6-1.4-7.1c-1-1.5-2.3-2.2-3.9-2.2c-1.6,0-2.8,0.8-3.8,2.3C411.9,51.7,411.4,54.3,411.4,57.8L411.4,57.8z M430.8,40.4
		h7.4l2.7,19.3l3.9-19.3h7.4l3.9,19.3l2.7-19.3h7.4L460.6,75h-7.7l-4.4-21.7L444.1,75h-7.7L430.8,40.4L430.8,40.4z M468.7,40.4h7.3
		l9.5,19.1V40.4h7.4V75h-7.4l-9.5-19v19h-7.3V40.4z"/>
</g>
</svg>
