<?xml version="1.0" encoding="utf-8"?>
<!-- Generator: Adobe Illustrator 17.0.0, SVG Export Plug-In . SVG Version: 6.00 Build 0)  -->
<!DOCTYPE svg PUBLIC "-//W3C//DTD SVG 1.1//EN" "http://www.w3.org/Graphics/SVG/1.1/DTD/svg11.dtd">
<svg version="1.1" id="Capa_1" xmlns="http://www.w3.org/2000/svg" xmlns:xlink="http://www.w3.org/1999/xlink" x="0px" y="0px"
	 width="595.3px" height="595.3px" viewBox="0 0 595.3 595.3" style="enable-background:new 0 0 595.3 595.3;" xml:space="preserve"
	>
<style type="text/css">
	.st0{fill-rule:evenodd;clip-rule:evenodd;fill:#FF0000;}
	.st1{fill-rule:evenodd;clip-rule:evenodd;fill:#FFFFFF;}
	.st2{fill-rule:evenodd;clip-rule:evenodd;fill:#259232;}
</style>
<g>
	<path class="st0" d="M93.8,202.5v0.7c1.3,0.8,3.7,3.5,5,4.8c1.5,1.5,3,3.5,4.4,5.4c16.1,21.3,19,53.9,14,79.6
		c-1.1,5.5-2.6,10.4-3.8,15.7c-1.3,5.4-2.5,10.7-3.7,16.1c-10.3,44.7-13.7,90.4,8.6,132c4.6,8.5,9.5,17,15,24.1l13.2,16.1
		c1.5,1.9,3.3,3.2,4.8,5c3,3.7,4.9,4.8,7.4,7.3c3.9,3.9,8.6,8.1,12.8,11.6c8.2,6.7,13.2,10.7,22.2,17.2c23,16.4,48.2,30.7,74.1,43.5
		c8.4,4.2,17.8,8.8,26.8,12.6c4.2,1.8,2.6,1.5,6.9-0.3c2.3-1,4.4-2,6.7-3.1c23.5-11.2,41.3-20.9,63.3-34.3
		c13.8-8.4,35.7-24,48.2-35.2c5.4-4.9,7.1-6.2,12.7-11.8c15.8-15.8,27.5-29.8,38.3-50.2c22.2-41.8,21-83.5,11.7-132.6
		c-4.7-24.6-9.6-43.5-6.3-70.2c2.2-18.2,8-35.3,20.2-48.2c0.8-0.8,4.4-4.4,5.3-4.7v-0.8c-0.8-0.7-23.9-37.9-25.1-39.8
		c-4.1-6.7-8.2-13.4-12.5-20c-4.2-6.6-8.1-13.5-12.5-20.1l-15.7,0l-12.1,0.1l-1.5-0.1l-2.1,0l-0.8,0l-8.6-0.1l-14.8,0.1l-7.2,0.1
		c-9,0.4-19.1,0-28.2,0l-41.9,0c-3.1,0-3.6-0.5-5.2,1.6c-1.7,2.2-14.8,17.7-16,18.7c-0.8-1.2-2.1-2.4-3.2-3.7l-9.6-11.3
		c-5.3-5.8-2.8-5.3-8.5-5.3c-22.7,0.1-47.4,0.5-69.7,0l-7.2,0l-15.6-0.2c-2,0.4-6.5,0.4-8.5,0.1l-0.8,0l-2.2,0l-1.5,0l-12.1,0
		l-14.3,0c-1.4,0.3-12.3,18.8-12.9,19.8C121,159,110.5,176.7,100,192.8C98.9,194.6,95,201.5,93.8,202.5z"/>
	<path class="st1" d="M275.5,577.2c2.6,1.3,20.9,10.2,22.3,10.1c1.3-0.1,19.6-9.2,22-10.5l0-446.8c-2.5,0-3.3,2.4-6.1,5.4
		c-1.1,1.2-1.4,1.7-2.6,3c-2,2.3-12.4,14.5-13.1,15.8c-1.6-0.8-13.9-16-16.2-18.6c-1.1-1.2-1.8-1.9-2.8-3.2
		c-1.1-1.3-1.2-2.4-3.5-2.4L275.5,577.2z"/>
	<path class="st0" d="M231.2,553.5c1.4,1.3,8.2,4.9,10.5,6.2c3.7,2.1,7.3,4,11.1,6c7,3.8,15.3,8.2,22.7,11.5l0-447.1l-44.3,0
		L231.2,553.5z"/>
	<path class="st0" d="M319.8,576.8c7.7-3.6,15.2-7.9,22.6-11.9c3.7-2,7.1-4,10.9-6.2c2.9-1.6,8.7-4.7,10.8-6.6l0-422.1l-44.3,0
		L319.8,576.8z"/>
	<path class="st1" d="M187,523.9c2.6,2.6,7.2,5.5,10.5,8c3.6,2.6,7.1,5,10.9,7.6c3.6,2.4,7.3,4.9,11.2,7.2c2.5,1.5,9.6,6.1,11.6,6.9
		l0-423.4l-44.2,0L187,523.9z"/>
	<path class="st1" d="M364.1,552.2c1.9-0.8,4.3-2.5,5.9-3.6c2-1.3,3.8-2.4,5.7-3.7c4.9-3.2,30.4-20.8,32.5-24l0-390.9l-44.2,0
		L364.1,552.2z"/>
	<path class="st0" d="M142.6,138.7l0,342.3c1.9,4,16.9,19.2,20.8,22.8l5.6,5.2c2.3,2.3,16.3,14.2,18,14.8l0-393.8l-38.8,0
		C147.2,130.6,142.9,137.5,142.6,138.7z"/>
	<path class="st0" d="M408.3,521c3.4-1.6,21.5-19.1,23.8-21.5c3.6-3.8,7.2-7.8,10.7-12c1.9-2.3,9-11,9.9-13.2l0-335.6
		c-0.7-2.3-3.9-6.2-5.1-8.7l-39.3,0L408.3,521z"/>
	<path class="st1" d="M206.5,122.9c22.3,0.5,47,0.1,69.7,0c5.8,0,3.3-0.6,8.5,5.3l9.6,11.3c1.1,1.3,2.4,2.6,3.2,3.7
		c1.2-1,14.3-16.5,16-18.7c1.6-2.1,2.1-1.6,5.2-1.6l41.9,0c9.1,0,19.2,0.4,28.2,0c0.5-15.2-1.3-27.5-6.5-40.3
		c-4.6-11.3-11.6-21.8-18.6-28.5c-4.4-4.3-6.9-7-12.4-11c-4.4-3.2-9.3-6.2-14.9-8.8c-37.8-17.3-80.3-7.1-104.7,19.6
		c-8.3,9.1-13.6,16.3-18.6,28.5C207.9,94.8,205.9,108,206.5,122.9z"/>
	<path class="st1" d="M142.6,481l0-342.3c-1.2,1.3-18.3,29-19.9,31.5L107.8,194c-1.4,2.4-3.8,5.6-4.8,7.9c1.3,2,5,5,9.5,12.4
		c16.1,26.3,17.6,62.8,9,91.8c-2.2,7.6-6.6,27.9-8.2,36.2c-9.8,51.5-5.2,91.1,24.3,132.5C139.1,476.6,141,479.5,142.6,481z"/>
	<path class="st1" d="M452.7,474.3c4-4.2,12.9-20.7,15.5-26.7c16-37.3,15.8-69.5,8.9-109.6c-4.5-26-11-47.1-8.9-75.4
		c0.9-12.7,3.3-24,7.5-35c3-7.7,6.6-14,11.5-20.2c1.2-1.6,4.3-4.6,5-5.9l-39.5-62.9L452.7,474.3z"/>
	<path class="st2" d="M420.1,122.8l2.1,0l1.3-10.8c0.3-1.6-0.6,0.3,2.9-1.8c3.2-1.9,5.9-4.3,7.6-8.1c1.8-3.9,3.2-13.5,1.1-17.7
		c-3.6,1.2-8.2,6.1-10.1,9.5c-0.7,1.3-1.3,3.1-2,4.3l-1.9-12.4c13.6-10.8,5.1-28.3,2.9-29.4c-2.9,4.8-6.8,7.8-6.9,16.5
		c-1.8-3.5-3.3-7.2-5.2-10.8c2.6-4.1,5.7-6.8,4.9-14.8c-0.6-5.7-3.3-10.6-5.7-14.1c-1.9,1.6-3.8,5.7-4.6,8.1
		c-1.4,4.1-1.3,6.6-0.7,11.1l-8.2-9.8c3.4-8,4.7-13.3-1.3-22.6c-1-1.5-3.3-4.6-4.4-5.3c-1.4,2-2.9,6.6-3.3,9.6
		c-0.6,5.2,0.4,6.9,1.5,11.3c-2-1.4-3.7-2.8-5.7-4.2c-2-1.4-4-2.5-6-3.9c2.1-6,3.4-9.8,0.7-16.2c-1-2.3-2.3-4.5-3.6-6.2
		c-1.1-1.4-3.8-3.7-4.9-5.2h-0.4c-1.6,4.5-2.8,8.3-2.1,13.6c0.7,5.5,2.7,7.5,4.8,11.1c-5.2-2.2-3.1-1.4-5.3-4
		c-0.7-0.8-0.9-1-1.4-1.7c-7-8.3-23.9-7.7-28.2-4.7c2.8,5.1,10.3,11.4,18.9,12.2c7.7,0.8,10.4-2,12.8-1.1c2.9,1.1,7.9,3.9,9.9,5.6
		c-5.7-0.1-12.9,0.4-16.9,3.5c1.5,2.9,8.4,6.6,12.4,7.5c7.6,1.8,11-0.8,15.9-2.5c0.9,0.9,1.7,1.5,2.7,2.4c1.5,1.5,6.9,6.9,7.4,8.3
		c-3.5-1.7-5.9-2.8-10.4-2.9c-3.2-0.1-8.5,0.6-11.1,1.8c0.6,1.5,3.5,4.4,4.6,5.3c9.1,6.9,12.8,6,22.9,3.8c1.7,3,5,8,6.2,11.8
		c-0.8-0.4-1.6-1.2-2.3-1.6c-0.8-0.6-1.3-0.9-2.2-1.3c-4.8-2.4-15.1-3.2-17.7-1.3c1.3,3.6,5.8,7.9,9.4,10c5.8,3.5,9.2,2.7,16,2.3
		c1.6,2.4,3.7,14,4.1,17.4c-2.3-4.8-3.9-7.2-8-9.8c-3.4-2.1-8.7-4.1-13.4-4.1c-0.5,4.2,5,11.9,6.8,13.5c3.4,3,8.7,5.6,15,5.7
		C422.3,108.2,421,115.8,420.1,122.8z"/>
	<path class="st2" d="M172.3,122.8l2.2,0c-0.9-5.7-2.2-16.1-1.2-21.9c6.8,0,11.2-2.5,15-5.7c1.9-1.6,7.2-9.1,6.9-13.4
		c-10.3,0.1-18.9,6.3-21.4,14c0-3.4,2.5-15.3,4.1-17.6c6.2,0.7,11,0.9,16-2.2c3.4-2.1,7.8-6.2,9.3-10.1c-2.1-1.6-10-1-12.8-0.4
		c-5.5,1.2-6.3,2.6-9.6,4.8c0.9-2.7,4.7-10,6.5-12c3.1,0.5,4.4,1.5,8.4,1.5c6.7,0,9.8-1.9,14.6-5.5c1.3-1,3.6-3.5,4.5-5.1
		c-5.8-3.1-16.9-2.1-21.7,1.2c1.6-3.1,8.2-8.6,10.3-10.8c5.1,2.3,9.6,4.1,16.2,2.4c3.6-0.9,11-4.8,12-7.5c-4.5-3-10.7-3.7-16.8-3.5
		c1.4-1.4,9.1-5.4,10.1-5.7c2.3-0.7,5.3,2,13,1.2c7.2-0.8,15.8-6.7,18.5-12.2c-4.3-3-16.2-2.3-21.2-0.2c-3.1,1.3-5.7,3.4-7.4,5.2
		c-2.2,2.6-2.4,4.2-6.6,5.4c1.9-1.8,4.5-7,5-10.8c0.8-5.6-0.5-9.2-2-13.8h-0.4c-2.3,3.2-5.3,3.9-8.5,11.4
		c-3.2,7.6-0.7,11.7,0.6,16.2c-1,0.9-4.5,3-5.9,3.9c-2.2,1.5-3.7,2.8-5.8,4.2c2.8-9.2,2.1-12.9-1.7-20.9c-1.3,0.7-3.4,3.7-4.6,5.4
		c-5.9,8.8-4.4,14.8-1.1,22.4l-8.1,9.7c0.1-4.6,0.7-6.4-0.8-11c-1-2.9-2.6-6.4-4.5-8c-2.5,2.2-5.5,9.6-5.8,13.9
		c-0.4,4.6,0.5,8.4,2.8,12c0.7,1.1,1.5,1.8,2,2.9c-1.4,3.3-3.8,7.1-5.1,10.7c-0.7-6.8-1.9-9.9-6-15c-0.8-1-0.7-1-1.5-1.4
		c-2.6,3.4-4.6,11.3-4,16.4c0.3,2.9,1.2,5.6,2.6,7.8c1.9,2.9,2.5,3.3,4.9,5.2c-0.3,2-1.7,10.8-2.1,12.2c-0.8-1.3-1.3-3.1-2.1-4.5
		c-1.8-3.2-6.6-8.1-10-9.1c-1.3,6-1.2,12.1,1.2,17.6c1.6,3.7,6.3,8.7,10.6,9.5L172.3,122.8z"/>
	<path class="st2" d="M175.2,122.8c2.1,0.3,6.5,0.3,8.5-0.1c6-4.8,9.5-9.1,10-19.9c-4.3,0.1-10.6,4.7-12.6,6.6
		C178.2,112.1,175.4,116.7,175.2,122.8z"/>
	<path class="st2" d="M410.8,122.7l8.6,0.1c-0.6-6.1-2.7-10.5-6-13.4c-2.2-1.9-8.1-6.4-12.6-6.6
		C400.9,116.9,408.4,120.1,410.8,122.7z"/>
	<path class="st2" d="M158.7,122.8l12.1,0c-0.8-2-3.7-4.4-5.5-5.6c-1.6-1-5.3-3.5-7.5-3.4C157.6,117.2,158.2,119.6,158.7,122.8z"/>
	<path class="st2" d="M423.7,122.9l12.1-0.1c0.6-3.5,1-5.3,0.9-9.1C431.9,114.6,424.9,119.8,423.7,122.9z"/>
	<g>
		<path class="st0" d="M199.3,122.9l7.2,0c-0.6-14.9,1.5-28.1,6.6-40.6c5-12.1,10.3-19.4,18.6-28.5c24.4-26.7,66.8-36.9,104.7-19.6
			c5.6,2.6,10.5,5.6,14.9,8.8c5.5,4,7.9,6.7,12.4,11c6.9,6.7,13.9,17.2,18.6,28.5c5.2,12.7,7,25.1,6.5,40.3l7.2-0.1
			c0-8.6,0.1-15.2-1.4-23.5c-3.7-20.1-12.7-36.8-25.7-50.3c-29.3-30.4-74-39.2-112.8-21.3c-10,4.6-22.2,13-29.4,21.1
			c-1,1.1-2.3,2.2-3.2,3.4c-3.4,4.5-4.2,5-8.1,10.7C204.5,78.6,197.3,103.2,199.3,122.9z"/>
		<polygon class="st0" points="295.2,81.1 239.6,81.1 239.6,85.8 295.2,85.9 295.2,121.1 300,121.2 300,86 358.4,85.9 358.4,81.2 
			300.1,81.1 300,45.7 295.2,45.7 		"/>
		<path class="st0" d="M260.3,118.4c9.5,0,25.5,2.7,24.6-9.2c-0.3-3.6-2.4-5.3-5.3-6.3c1.8-1.6,3.7-2.7,3.9-6.3
			c0.3-9.9-13.9-7.6-23.1-7.6L260.3,118.4z"/>
		<path class="st0" d="M309.8,77.6l6.1,0.1l2.6-6.7l11.6,0l2.7,6.6l6.3,0c-0.5-2.5-11.2-28.4-11.7-29.4l-6.1,0L309.8,77.6z"/>
		<path class="st0" d="M337.2,110.5l-5.5-1.7c-0.9,1.6-2.3,7.6-8.6,5.9c-7.1-1.9-7.1-16.9-0.8-19.4c4.4-1.8,8.3,0.6,9,4.3l5.8-1.3
			c-2.3-12.3-25.7-13-25.4,7.2C311.9,123.6,334.2,124.4,337.2,110.5z"/>
		<path class="st0" d="M283,69.8c-1.4-0.9-3.5-1.4-5.4-1.8l-0.3,0.5c-0.8,1.8-0.7,2.5-2.5,4.2c-2.8,2.5-10.8,3.1-11.2-8
			c-0.3-10.3,6.3-12.2,10.4-10.1c2.1,1.1,2.1,2,3.2,4.1l5.7-1.2c-2.5-12.6-25.8-12.9-25.5,7.2C257.8,83.1,280.5,83.3,283,69.8z"/>
		<path class="st1" d="M266.3,113.4h5.4c3.7,0,7.5,0,7.1-4.3c-0.3-3.9-4.6-3.6-8.2-3.6h-4.3L266.3,113.4z"/>
		<path class="st1" d="M266.3,100.6c3.7,0.7,11.4,0.9,11.4-3.2c0-2.6-1.5-3.3-4-3.4c-1.8-0.1-5.7-0.2-7.4,0.1L266.3,100.6z"/>
		<polygon class="st1" points="319,67.7 326.9,67.8 323.1,57.3 		"/>
	</g>
</g>
</svg>
