<?xml version="1.0" encoding="utf-8"?>
<!-- Generator: Adobe Illustrator 17.0.0, SVG Export Plug-In . SVG Version: 6.00 Build 0)  -->
<!DOCTYPE svg PUBLIC "-//W3C//DTD SVG 1.1//EN" "http://www.w3.org/Graphics/SVG/1.1/DTD/svg11.dtd">
<svg version="1.1" id="Capa_1" xmlns="http://www.w3.org/2000/svg" xmlns:xlink="http://www.w3.org/1999/xlink" x="0px" y="0px"
	 width="595.3px" height="595.3px" viewBox="0 0 595.3 595.3" style="enable-background:new 0 0 595.3 595.3;" xml:space="preserve"
	>
<style type="text/css">
	.Arqueado:_x0020_verde{fill:url(#SVGID_1_);stroke:#FFFFFF;stroke-width:0.25;stroke-miterlimit:1;}
	.st0{fill-rule:evenodd;clip-rule:evenodd;fill:#1D1D1B;}
	.st1{fill-rule:evenodd;clip-rule:evenodd;fill:#FFFFFF;}
	.st2{fill-rule:evenodd;clip-rule:evenodd;fill:#009CD4;}
	.st3{fill:#1D1D1B;}
</style>
<linearGradient id="SVGID_1_" gradientUnits="userSpaceOnUse" x1="-52.3623" y1="552.6377" x2="-51.6552" y2="551.9306">
	<stop  offset="0" style="stop-color:#1EAB4B"/>
	<stop  offset="0.9831" style="stop-color:#19361A"/>
</linearGradient>
<g>
	<circle class="st0" cx="297.6" cy="297.6" r="297.6"/>
	<circle class="st1" cx="297.6" cy="297.6" r="279.1"/>
	<circle class="st2" cx="297.6" cy="298.6" r="201.1"/>
	<path class="st3" d="M170,516.3l-4.5,3.8c-4-0.6-8.1-2.4-12.3-5.5c-2-1.4-4.1-3.4-6.5-5.9c-1.4-1.6-2.7-3.9-3.9-6.9
		c-0.7-2.1-1.1-4.3-1.1-6.6c-0.1-4.7,1.4-9,4.4-13.1c2.4-3.3,4.9-5.8,7.7-7.6c2.7-1.8,6-2.9,9.6-3.2c6.1-0.5,12.4,1.6,18.7,6.2
		c4.1,2.9,7.1,6.4,9.1,10.5c-0.6,0.5-1.4,1.2-2.4,2.1c-1,0.9-1.9,1.7-2.8,2.5l-0.7-0.5c0-2.2-0.4-4.3-1.4-6.3c-1-2.1-2.4-3.7-4.1-5
		c-2.8-2-5.7-3-8.7-2.8c-3,0.2-5.9,1.2-8.5,3c-2.7,1.8-5,4.1-7,6.8c-3.2,4.4-4.8,8.8-4.8,13.2c0.1,2.3,0.7,4.4,1.9,6.5
		c1.2,2,2.7,3.7,4.5,5.1c1.6,1.2,3.6,2.1,5.9,2.6c2.3,0.6,4.6,0.7,6.6,0.5L170,516.3L170,516.3z M249.5,535.9
		c-0.7-2-1.1-3.2-1.3-3.7c-0.1-0.3-0.3-0.5-0.4-0.5c-0.2,0-0.3,0.1-0.4,0.3c-0.2,1.3-0.6,3.2-1,5.8c-0.4,2.6-0.8,4.5-1,5.8l-0.3,1.8
		c-0.3,1.8-0.5,4.1-0.8,6.9c-0.6-0.2-1.5-0.4-2.6-0.7c-1.2-0.3-2-0.5-2.6-0.6c-0.6-0.1-1.5-0.2-2.7-0.4c-1.2-0.2-2.1-0.3-2.7-0.3
		l0.3-1.2c0.1-0.5,0.2-1,0.4-1.6c0.1-0.5,0.3-1,0.3-1.3c0.1-0.3,0.2-0.8,0.4-1.4c0.7-2.8,1.7-7,2.8-12.8c0.3-1.3,0.6-3.3,1.1-5.9
		c0.5-2.7,0.9-4.6,1.1-5.9c0.6-3.1,1.4-7.9,2.4-14.5l4.5,1.1c1,0.2,2.6,0.5,4.7,0.8c2.1,0.4,3.7,0.6,4.7,0.8c5.2,1,8.6,2.1,10.3,3.4
		c3.4,3,4.7,6.5,3.9,10.7c-0.6,3.1-2,5.5-4.2,7.2c-2.2,1.7-5,2.5-8.2,2.6c1.1,3.3,3.7,10.2,8,20.6l1.6,4.2c-0.6-0.2-1.6-0.4-2.9-0.7
		c-1.3-0.3-2.3-0.6-2.9-0.7c-1.9-0.4-3.9-0.7-6-0.8l-4.9-14.8L249.5,535.9L249.5,535.9z M250.1,519l-1,5.1c-0.4,2.1-0.7,3.6-1,4.7
		c3.6,0.7,6.3,0.4,8.2-0.8c1.9-1.2,3.2-3.4,3.8-6.6c0.2-1.3,0.4-2.4,0.3-3.4c0-1.3-0.3-2.4-0.8-3.2c-0.5-0.8-1.1-1.4-1.9-1.9
		c-0.8-0.4-1.8-0.8-2.9-1c-1.1-0.3-2.2-0.5-3.3-0.7L250.1,519L250.1,519z M285.4,512.8c0.7,0,1.9-0.1,3.4-0.2
		c1.5-0.1,2.7-0.2,3.5-0.2c3.2-0.1,5.6-0.1,7.3,0c3.9,0.2,7,0.7,9.3,1.5c2.6,0.9,4.7,2.3,6.4,4.2c3.8,3.9,5.7,8.9,6,15
		c0.1,3.8-0.4,7.1-1.5,10.1c-1.1,3-3.1,5.8-5.8,8.4c-2.3,2.2-4.8,3.8-7.4,4.7c-2.6,0.9-5.8,1.4-9.4,1.6c-4.8,0.2-8.3,0.3-10.7,0.3
		c-0.3-0.1-0.9-0.1-1.6,0c-1.3,0-3.2,0.2-5.8,0.4c0.1-7.8,0.1-15.5-0.2-23.2l-0.2-6.7c0-1.1-0.1-2.7-0.3-4.8
		c-0.2-2.1-0.3-3.8-0.3-4.9c-0.1-1-0.2-2-0.3-2.9c-0.1-1-0.2-1.9-0.3-2.9C280.9,512.9,283.6,512.9,285.4,512.8L285.4,512.8z
		 M293.9,553.9c3.3-0.1,5.9-0.6,8-1.5c2-0.9,3.9-2.5,5.4-5c2.3-3.7,3.4-8.4,3.2-14.2c-0.1-2.4-0.5-4.8-1.3-7.1
		c-0.8-2.4-1.9-4.3-3.4-5.9c-1.6-1.7-3.5-2.9-5.5-3.4c-2-0.5-4.5-0.8-7.3-0.7c-0.5,0-1.3,0.1-2.3,0.2c-1,0.1-1.8,0.2-2.4,0.3
		c0,7.4,0.3,18.5,0.8,33.2l0.1,4.2C290.2,554,291.8,554,293.9,553.9L293.9,553.9z M373.7,541.4c-3.8,5.2-9.3,8.6-16.4,10.2
		c-7.4,1.7-13.8,0.9-19.1-2.4c-5.2-3.1-8.6-8.2-10.2-15.2c-1.7-7.2-0.4-13.5,3.7-19.1c3.9-5.1,9.4-8.5,16.4-10.1
		c6-1.4,11.3-1.1,16.1,0.9c4,1.7,6.9,3.9,8.9,6.8c2.1,2.8,3.5,6.1,4.4,9.8c0.8,3.3,0.8,6.6,0.2,10
		C376.9,535.6,375.6,538.7,373.7,541.4L373.7,541.4z M366.6,537.6c1.1-3.9,1-8.6-0.3-14c-0.7-2.9-1.8-5.7-3.4-8.3
		c-1.6-2.6-3.6-4.5-6.1-5.7c-2.5-1.3-5.2-1.6-8.3-0.9c-2.8,0.7-5.1,1.9-6.8,3.9c-1.7,1.9-2.8,4-3.3,6.4c-0.9,3.8-0.6,8.6,0.7,14.4
		c0.7,3,1.8,5.7,3.4,8.1c1.6,2.4,3.5,4.2,6,5.4c2.4,1.2,5.2,1.4,8.2,0.7C361.5,546.5,364.9,543.1,366.6,537.6L366.6,537.6z
		 M401.2,509.9l-0.2-0.4c2.6-1.7,4.4-3.9,5.5-6.4c1.1-2.5,1-5.2-0.2-7.8c-1.1-2.3-2.4-3.8-4.2-4.7c-1.8-0.9-3.7-1.2-5.7-1
		c-2.1,0.2-4.2,0.9-6.4,1.9c-0.9,0.4-2.4,1.1-4.3,2.1c-1.9,1-3.3,1.7-4.3,2.1c-1.4,0.7-3.7,1.7-6.9,3c4.6,9,7.3,14.4,8.1,16.2
		c1.7,3.7,4.2,9.3,7.5,16.6c1.6,3.8,2.7,6.6,3.4,8.6c2.3-1.2,4-2.1,5.2-2.6c1-0.5,2.5-1.1,4.5-2c2-0.9,3.5-1.5,4.4-1.9
		c1.7-0.8,3-1.5,4-2.2c3.1-2.3,5-4.6,5.7-6.8c1-3.4,0.9-6.6-0.5-9.6c-1.3-2.9-3.6-4.8-6.7-5.7C407,508.4,404.1,508.6,401.2,509.9
		L401.2,509.9z M398.2,507.7c-0.6,1.1-1.4,1.9-2.3,2.6c-0.9,0.6-2.3,1.4-3.9,2.1l-2.9-6.2c-0.9-1.8-2.1-4.6-3.6-8.2
		c0.6-0.4,1.6-1,2.8-1.5c1.7-0.8,3.5-1,5.3-0.6c0.7,0.1,1.6,0.7,2.5,1.7c0.9,1,1.5,1.9,2,2.7C399.1,502.9,399.2,505.4,398.2,507.7
		L398.2,507.7z M404.1,530.9c-0.3,0.1-0.8,0.4-1.5,0.6c-0.7,0.3-1.2,0.5-1.5,0.7c-0.4-0.9-1-2.1-1.8-3.8c-0.8-1.7-1.4-2.9-1.8-3.8
		c-1.8-3.9-3.1-6.8-4-8.8c0.5-0.3,1.1-0.6,2-1c5.3-2.5,9.3-0.9,12,4.8c0.8,1.8,1.1,3.8,0.8,6.1C408,528.1,406.6,529.8,404.1,530.9
		L404.1,530.9z M431,521.9l-2.7-12.1c-3-13.8-6-25.7-8.8-35.6c0.2-0.1,0.4-0.3,0.7-0.4c0.3-0.1,0.6-0.3,0.8-0.4
		c0.3-0.1,0.5-0.3,0.7-0.4c0.3-0.2,0.6-0.5,0.9-0.8c0.3-0.3,0.6-0.6,0.9-0.9l1.1,0.6c12.9,8.5,26.1,16.7,39.5,24.9l0.7,0.3l0.4,0.5
		c-0.5,0.4-1.3,0.9-2.4,1.5c-1.1,0.7-1.9,1.2-2.4,1.6c-1.5,1.1-2.9,2.3-4.3,3.5c-5.1-3.8-9-6.6-11.7-8.3c-0.7,0.5-1.7,1.2-3,2.1
		c-1.4,0.9-2.4,1.6-3.1,2.1c-1.4,1-3.5,2.6-6.4,4.9l0.3,0.9c0.6,2.1,1.3,4.3,1.9,6.6c0.7,2.3,1.4,4.3,2.1,6.1
		c-0.9,0.4-1.8,1-2.7,1.6c-0.8,0.6-1.6,1.3-2.3,2.1L431,521.9L431,521.9z M431.1,500.7l9.9-7.2c-3.6-2.4-8.2-5.4-13.9-9.1
		c1.3,5.8,2.6,11,3.9,15.6L431.1,500.7z"/>
	<path class="st3" d="M85.5,361l5.8-0.7c3,2.7,5.5,6.5,7.3,11.3c0.9,2.3,1.6,5.1,2.3,8.4c0.3,2.1,0.2,4.7-0.5,8
		c-0.5,2.1-1.4,4.2-2.7,6.2c-2.5,3.9-6.1,6.8-10.8,8.6c-3.8,1.5-7.3,2.2-10.6,2.2c-3.3,0-6.5-0.8-9.8-2.6
		c-5.4-2.9-9.5-8.1-12.4-15.4c-1.8-4.7-2.4-9.3-1.9-13.7c0.8-0.1,1.8-0.2,3.1-0.4c1.3-0.2,2.6-0.4,3.7-0.6l0.3,0.9
		c-1.2,1.8-1.9,3.8-2.2,6.1c-0.3,2.3,0,4.4,0.7,6.4c1.2,3.2,3.2,5.6,5.8,7.1c2.6,1.5,5.6,2.2,8.8,2.1c3.2-0.1,6.4-0.7,9.6-1.9
		c5.1-2,8.8-4.8,11.2-8.5c1.2-2,1.8-4.1,2-6.5c0.1-2.4-0.2-4.6-1-6.7c-0.7-1.9-1.9-3.7-3.6-5.4c-1.7-1.8-3.4-3.1-5.3-4L85.5,361
		L85.5,361z M45.8,358.9c-0.2-2.6-0.4-4.4-0.5-5.4c-0.2-1-0.6-2.7-1.3-5.3c1.3-0.2,3.2-0.4,5.8-0.7c2.5-0.3,4.6-0.6,6.1-0.8
		c1.7-0.2,4.2-0.6,7.7-1.2l12.4-2.2c0.9-0.2,2.2-0.4,4.1-0.8c1.8-0.4,3.2-0.6,4.1-0.8l-0.8-3.6c-0.3-1.8-1.2-5.5-2.7-11.3
		c0.6,0,1.5,0,2.8-0.3c1.3-0.2,2.2-0.5,2.8-0.7l1.6,11.2c0.2,1,0.5,2.5,0.9,4.4c0.4,2,0.7,3.4,0.9,4.4c0.2,1.2,0.6,3,1.2,5.4
		c-5.7,0.6-12.8,1.6-21.3,3.1c-0.9,0.2-2.2,0.4-4,0.6c-1.7,0.3-3,0.5-3.9,0.6c-1.6,0.3-4,0.8-7.2,1.4c-3.2,0.7-5.5,1.2-7.1,1.5
		L45.8,358.9L45.8,358.9z M49.7,276.1c0.7,0,1.8,0.1,3.3,0.2c1.5,0.1,2.6,0.1,3.3,0.2c0.8,0,2,0.1,3.7,0.2c1.6,0.1,2.9,0.2,3.7,0.2
		c5.1,0.3,9.1,0.9,11.8,1.7c2.7,0.8,5.1,2.8,7.2,6c2.2,3.3,3.2,7.5,3,12.7c-0.1,2.9-0.5,5.6-1.3,8.2c-0.8,2.6-2,4.8-3.7,6.7
		c-1.7,1.9-4,3.2-6.8,3.9c-0.8,0.2-1.9,0.4-3.6,0.5c-1,0.1-2.5,0.1-4.6,0c-1.4,0-2.8-0.1-4.4-0.1c-1.6,0-2.8,0-3.8-0.1l-8.4-0.3
		c-0.8,0-2.1-0.1-3.8-0.1c-1.7,0-3-0.1-3.8-0.1c-0.3,0-0.8,0-1.4,0c-0.6,0-1.1,0-1.5,0c0.4-2.6,0.6-4.4,0.6-5.5c0-1.1,0-2.9-0.2-5.3
		c0.3,0,0.9,0.1,1.6,0.2c0.7,0.1,1.3,0.2,1.7,0.2c5.8,0.5,11,0.9,15.5,1c6,0.2,10.2,0.2,12.6,0c2-0.3,3.5-0.7,4.5-1.1
		c1.1-0.4,2.1-1.2,3.1-2.2c2-1.9,3-4.4,3.1-7.5c0.1-3.1-0.4-5.5-1.6-7.4c-1.2-1.9-3.2-3.5-6-4.7c-1.9-0.8-6.5-1.4-13.7-1.6
		c-8.9-0.3-15.6-0.4-20-0.2c0.3-1.6,0.5-2.7,0.5-3.3c0-0.7-0.1-1.8-0.3-3.4c0.5,0.1,1.1,0.2,2,0.3c0.9,0.1,1.7,0.2,2.7,0.3
		c0.9,0.1,1.7,0.1,2.4,0.2C47.7,276,48.6,276,49.7,276.1L49.7,276.1z M67.6,241.5c0.7-3.1,2.3-5.5,4.9-7.4c2.7-1.9,5.5-2.5,8.6-1.8
		c3.2,0.7,5.9,2.6,7.9,5.5c1.3,1.9,2,4.8,1.9,8.7c-0.1,1.2-0.3,2.7-0.7,4.5c-0.2,1-0.6,2.6-1.2,4.7c-0.6,2.1-1,3.7-1.2,4.7
		c-0.3,1.2-0.7,3.2-1.1,5.7c-1.9-0.7-4.9-1.6-8.9-2.7c-7.8-1.9-13.7-3.4-17.7-4.3c-1.9-0.4-7.9-1.6-17.8-3.6
		c0.9-3.3,1.5-5.7,1.9-7.2c0.2-1.1,0.6-2.6,1-4.7c0.4-2.1,0.7-3.7,1-4.7c0.5-2.4,1.4-4.4,2.5-6.2c1.1-1.8,2.5-3.1,4.3-3.9
		c1.8-0.8,3.9-1,6.3-0.4c2.9,0.7,5,2.2,6.3,4.6c1.3,2.4,1.9,5.2,1.6,8.3L67.6,241.5L67.6,241.5z M63.9,242.5c-1.1-2.2-3.1-3.6-6-4.3
		c-0.9-0.2-2-0.3-3.4-0.1c-1.3,0.1-2.2,0.4-2.8,0.9c-1.4,1.1-2.4,2.6-2.8,4.5c-0.3,1.3-0.5,2.4-0.5,3.1c3.8,1,6.7,1.8,8.7,2.2
		l6.7,1.5c0.4-1.8,0.7-3.3,0.7-4.4C64.6,244.8,64.4,243.7,63.9,242.5L63.9,242.5z M86,252.1c0.6-2.7,0.1-4.8-1.5-6.5
		c-1.6-1.6-3.3-2.7-5.3-3.1c-6.1-1.4-9.8,0.7-11.1,6.5c-0.2,0.9-0.4,1.7-0.4,2.2c2,0.5,5.2,1.3,9.3,2.3c0.9,0.2,2.2,0.5,4.1,0.9
		c1.8,0.4,3.2,0.7,4.1,0.9c0.1-0.4,0.2-0.9,0.4-1.6C85.7,253,85.9,252.5,86,252.1L86,252.1z M102.6,209.7l-7.4-9.9
		c-8.4-11.4-15.9-21.1-22.5-28.9c0.1-0.2,0.3-0.4,0.5-0.7c0.2-0.2,0.4-0.5,0.6-0.7c0.2-0.3,0.4-0.5,0.5-0.7c0.2-0.3,0.4-0.7,0.5-1.1
		c0.2-0.4,0.3-0.8,0.5-1.2l1.2,0.1c15.2,2.5,30.6,4.7,46.2,6.6l0.8,0l0.5,0.3c-0.4,0.5-0.9,1.3-1.6,2.4c-0.7,1-1.2,1.8-1.5,2.4
		c-0.9,1.6-1.8,3.3-2.5,4.9c-6.2-1.4-10.9-2.3-14.1-2.8c-0.4,0.7-1.1,1.8-1.9,3.1c-0.9,1.4-1.5,2.4-1.9,3.2
		c-0.9,1.5-2.1,3.8-3.9,7.1l0.6,0.7c1.4,1.7,2.9,3.4,4.4,5.2c1.5,1.8,3,3.4,4.4,4.7c-0.7,0.8-1.3,1.6-1.9,2.6
		c-0.5,0.9-0.9,1.8-1.3,2.8L102.6,209.7L102.6,209.7z M94,190.4l6.1-10.6c-4.2-0.8-9.7-1.6-16.4-2.6c3.5,4.8,6.8,9,9.9,12.7
		L94,190.4L94,190.4z M113.9,130.7c1.4,1.2,3.5,3.1,6.2,5.5c2.7,2.5,4.8,4.3,6.2,5.5c0.7,0.6,1.8,1.5,3.2,2.7
		c1.4,1.2,2.5,2.1,3.3,2.8c0.9,0.7,2.2,1.9,4.1,3.4c1.9,1.5,3.3,2.6,4.1,3.4c-0.4,0.4-1,1-1.8,1.9c-0.9,0.9-1.5,1.6-1.9,2
		c-0.4,0.4-0.9,1.1-1.6,2.1c-0.7,1-1.3,1.7-1.7,2.2c-0.8-0.7-1.9-1.8-3.4-3.3c-1.5-1.5-2.7-2.5-3.4-3.2c-7-6.5-12.6-11.5-16.8-15.1
		c-1.5-1.3-3.7-3.1-6.5-5.4c-0.9,1-2.1,2.5-3.7,4.5c-1.5,2-2.7,3.8-3.7,5.3c-0.3-0.6-1-1.2-1.9-2c-0.8-0.7-1.4-1.2-1.8-1.5
		c-0.1,0-0.2-0.1-0.4-0.2c-0.2-0.1-0.3-0.2-0.4-0.2c1.5-1.6,2.7-2.8,3.4-3.7c3.3-3.5,6-6.5,8.1-9l4.5-5.2c0.7-0.9,1.8-2.2,3.1-3.9
		c1.3-1.7,2.4-3.1,3.3-4.2c0.6,0.8,1.2,1.4,1.8,2c0.8,0.7,1.7,1.3,2.6,1.9c-3,2.6-5.9,5.3-8.4,8.3L113.9,130.7L113.9,130.7z
		 M125,105.3l0.9,1c1,1.2,2.6,3.1,4.7,5.6c2.1,2.5,3.6,4.4,4.7,5.7c0.6,0.7,1.4,1.8,2.4,3.2c1.1,1.4,1.9,2.5,2.4,3.2
		c5.3,6.8,9.6,12.6,12.8,17.4c1.9-1.6,3.3-2.8,4.3-3.6c0.8-0.6,1.9-1.5,3.5-2.8c1.6-1.3,2.7-2.2,3.5-2.8l9.1-6.6
		c-0.5-0.4-1.1-1.1-1.9-2.1c-0.8-1-1.3-1.8-1.6-2.4c-4.4,4-7.3,6.6-8.7,7.7l-2.8,2.4c-0.6-0.7-1.5-1.8-2.6-3.3
		c-1.2-1.5-2-2.5-2.6-3.2l-7.8-9.9c-2.1-2.7-3.7-4.8-4.7-6.2c-1-1.3-2.2-2.9-3.6-5c-1.4-2.1-2.5-3.7-3.3-4.7c-1.9,1.8-3.2,3-4,3.7
		C128.7,103,127.2,104,125,105.3L125,105.3z M157.4,80.6c1.1-0.5,2.6-1.3,4.5-2.3c2-1,3.6-1.8,4.8-2.5c2-1.1,4.3-2.4,6.9-4
		c2.7-1.6,4.7-2.8,6.1-3.6c0.5,1,1.2,2.4,2.3,4.4c0.2,0.1,0.3,0.4,0.5,0.7c-5.9,2.7-10.5,4.9-13.7,6.6c0.7,1.4,1.8,3.4,3.3,6.1
		c0.4,0.7,1,1.8,1.7,3.2c0.8,1.4,1.3,2.5,1.7,3.2l13-7.8c0.4,1.3,0.8,2.3,1.1,2.9c0.3,0.5,0.8,1.2,1.6,2c-4,1.8-7.6,3.6-10.6,5.3
		c-0.3,0.2-0.8,0.4-1.4,0.7c-0.7,0.3-1.1,0.6-1.5,0.8l4.1,7.4l4,7.3c3.6-2,7.9-4.7,13-8.2c0.5,1,1.2,2.4,2.3,4.3
		c0.2,0.1,0.3,0.4,0.5,0.7c-1.2,0.6-3,1.5-5.4,2.7c-2.4,1.2-4.2,2.1-5.3,2.8c-0.8,0.4-1.9,1.1-3.4,2c-1.5,0.9-2.6,1.6-3.4,2
		c-1.1,0.6-2.8,1.6-5.1,3.1c-0.2-0.4-0.4-1-0.8-1.7c-0.4-0.8-0.7-1.3-0.8-1.7c-0.6-1.1-1.5-2.9-2.8-5.4c-1.3-2.5-2.3-4.4-3-5.6
		c-0.5-1-1.3-2.4-2.4-4.4c-1.1-2-1.9-3.5-2.4-4.4l-3.8-6.8c-0.6-1-1.4-2.5-2.7-4.5c-1.2-2-2.2-3.5-2.7-4.5L157.4,80.6L157.4,80.6z
		 M213.4,64.7l-1.5-4.5c3.6-1.4,7.4-2.5,11.3-3.4c-0.6-1-1.1-2-1.4-2.9c-0.3-0.8-0.5-1.7-0.7-2.6c-1.3,0.5-2.9,1.2-4.9,2.1
		c-2,0.9-3.5,1.6-4.6,2l-6.4,2.5c-3,1.2-6.8,2.5-11.3,4.1c-1.1,0.4-2.6,1-4.7,1.6c0.1,0.1,0.1,0.2,0.2,0.3c0.1,0.2,0.2,0.3,0.2,0.3
		c0.2,0.4,0.5,1.1,0.9,2.2c0.4,1.1,0.7,2,0.7,2.7c1.6-0.9,3.5-1.9,5.8-3c2.4-1.1,4.2-1.8,5.4-2.3c1.5,3.4,2.5,6,3.2,7.9
		c2,5.2,4.6,12.3,7.7,21.2c0.4,0.9,0.9,2.4,1.5,4.4c0.6,2,1.1,3.5,1.5,4.5c0.6-0.3,1.4-0.6,2.5-1.1c1.1-0.5,1.9-0.9,2.4-1.1
		c0.6-0.2,1.5-0.5,2.7-0.9c1.2-0.4,2-0.6,2.5-0.8c-0.4-1.1-1.1-2.7-2-4.9c-1-2.2-1.6-3.8-2-4.9c-0.4-0.9-0.9-2.3-1.6-4
		c-0.7-1.7-1.2-3-1.6-3.9c-0.7-1.7-1.6-4.3-2.9-7.8C215,69,214.1,66.4,213.4,64.7L213.4,64.7z M246.9,54c0.3,1.4,0.6,3.4,1.1,6.1
		c0.4,2.7,0.8,4.9,1.2,6.6c0.4,1.9,1,4.2,1.7,7c0.7,2.8,1.2,4.9,1.6,6.4c0.3,1.1,0.7,2.7,1.3,4.8c0.6,2.1,1,3.7,1.3,4.7
		c-0.6,0.1-1.4,0.2-2.6,0.4c-1.2,0.2-2,0.3-2.6,0.4c-2,0.4-3.9,0.9-5.7,1.5c-0.9-7.1-2.3-15.1-4.2-24.1l-0.7-3.5
		c-0.3-1.4-0.6-2.9-1-4.5c-0.4-1.6-0.7-2.9-0.9-3.7c-0.9-3.8-1.7-6.7-2.4-8.7c2.6-0.3,4.4-0.5,5.4-0.7c1-0.2,2.7-0.7,5.2-1.5
		C246.1,49.1,246.6,52.1,246.9,54L246.9,54z M301,76.4l-1,5.8c-3.4,2.1-7.8,3.3-13,3.7c-2.4,0.2-5.3,0.1-8.7-0.3
		c-2.1-0.3-4.6-1.2-7.5-2.8c-1.9-1.1-3.6-2.6-5.1-4.4c-3.1-3.5-4.8-7.8-5.1-12.8c-0.3-4,0-7.6,1-10.8c0.9-3.1,2.7-6,5.3-8.6
		c4.4-4.3,10.5-6.8,18.3-7.3c5-0.3,9.6,0.4,13.7,2.2c-0.1,0.8-0.3,1.8-0.5,3.1c-0.2,1.3-0.4,2.6-0.5,3.7l-0.9,0.1
		c-1.4-1.7-3.1-3-5.1-3.9c-2.1-0.9-4.2-1.3-6.3-1.2c-3.5,0.2-6.3,1.4-8.5,3.5c-2.2,2.1-3.7,4.7-4.6,7.8c-0.9,3.1-1.2,6.4-1,9.7
		c0.4,5.5,2,9.9,4.8,13.2c1.5,1.7,3.4,2.9,5.6,3.8c2.2,0.8,4.5,1.2,6.7,1c2-0.1,4.1-0.7,6.2-1.8c2.2-1.1,4-2.4,5.3-3.9L301,76.4
		L301,76.4z M350.3,85.8c-5.5,3.2-11.9,4.2-19.1,3c-7.5-1.3-13.1-4.6-16.7-9.7c-3.6-4.9-4.7-10.9-3.5-18c1.3-7.2,4.9-12.6,10.9-16.2
		c5.6-3.2,12-4.1,19.1-2.9c6,1.1,10.8,3.4,14.4,7.1c3,3.1,4.8,6.3,5.6,9.7c0.8,3.4,0.8,7,0.2,10.7c-0.6,3.3-1.8,6.4-3.7,9.2
		C355.5,81.8,353.1,84.1,350.3,85.8L350.3,85.8z M345.2,79.5c2.5-3.2,4.3-7.5,5.2-13c0.5-3,0.5-6,0.1-8.9c-0.5-3-1.6-5.5-3.4-7.7
		c-1.8-2.1-4.2-3.5-7.3-4c-2.9-0.5-5.5-0.2-7.7,0.9c-2.3,1.1-4.1,2.6-5.6,4.6c-2.3,3.1-3.9,7.7-5,13.6c-0.5,3-0.6,5.9-0.1,8.8
		c0.5,2.8,1.6,5.3,3.4,7.3c1.8,2,4.2,3.3,7.3,3.9C337.1,85.8,341.5,84,345.2,79.5L345.2,79.5z M413.4,91.1c2.8,1.4,4.8,3.6,6,6.5
		c1.2,3,1.1,6-0.4,8.8c-1.5,3-3.9,5.1-7.2,6.3c-2.2,0.8-5.1,0.7-8.9-0.3c-1.1-0.3-2.5-0.9-4.2-1.8c-0.9-0.5-2.4-1.2-4.3-2.3
		c-1.9-1-3.3-1.8-4.3-2.3c-1.1-0.6-2.9-1.4-5.3-2.5c1.2-1.7,2.7-4.3,4.7-7.9c3.8-7.1,6.6-12.5,8.4-16.1c0.9-1.8,3.5-7.2,7.8-16.4
		c3,1.7,5.2,2.9,6.6,3.6c1,0.5,2.4,1.2,4.4,2.1c1.9,0.9,3.4,1.6,4.3,2.1c2.2,1.1,3.9,2.4,5.4,3.9c1.5,1.5,2.4,3.2,2.8,5.1
		c0.4,1.9,0,4-1.1,6.2c-1.3,2.6-3.3,4.3-6,5c-2.7,0.7-5.5,0.6-8.5-0.4L413.4,91.1L413.4,91.1z M413.3,87.2c2.4-0.6,4.3-2.2,5.6-4.8
		c0.4-0.9,0.7-1.9,1-3.2c0.2-1.3,0.1-2.3-0.2-3c-0.8-1.7-2-2.9-3.7-3.8c-1.2-0.6-2.2-1-2.9-1.3c-1.9,3.5-3.3,6.1-4.3,7.9l-3.1,6.1
		c1.6,0.8,3,1.4,4.1,1.8C410.9,87.3,412.1,87.4,413.3,87.2L413.3,87.2z M398.7,106.3c2.4,1.2,4.6,1.3,6.6,0.1c2-1.1,3.4-2.6,4.3-4.4
		c2.8-5.6,1.7-9.7-3.6-12.4c-0.8-0.4-1.5-0.7-2.1-0.9c-1,1.9-2.5,4.7-4.5,8.5c-0.4,0.8-1,2.1-1.9,3.7c-0.8,1.7-1.4,2.9-1.9,3.8
		c0.3,0.2,0.8,0.4,1.5,0.8C397.9,105.9,398.4,106.1,398.7,106.3L398.7,106.3z M447.8,86.9l-0.6,0.7c-0.7,0.9-1.7,2.4-3.1,4.3
		c-1.4,1.9-2.4,3.4-3.1,4.3l-4.8,6.1c-0.7,0.9-1.7,2.2-3.1,3.9c-1.4,1.7-2.4,3-3.1,3.9c-0.9,1.1-2.2,2.8-4,4.9
		c-1.8,2.2-3.1,3.7-3.9,4.7c-0.3,0.3-0.7,0.8-1.2,1.4c-0.6,0.7-1,1.1-1.3,1.4c2.2,1.6,3.8,2.7,4.8,3.5c0.7,0.5,1.7,1.3,3.1,2.3
		c1.4,1,2.5,1.8,3.2,2.4c1,0.8,2.6,2.1,4.6,3.8c2,1.7,3.6,3,4.6,3.9c0.2-0.3,0.4-0.5,0.4-0.7c1.3-1.7,2.4-3,3.1-3.8
		c-5.2-3.3-9.4-6.2-12.7-8.8l5.1-6.6l5.2-6.7c0.3,0.2,0.7,0.6,1.3,1.1c0.6,0.5,1,0.8,1.2,1c2.8,2.2,5.8,4.7,9,7.7
		c0.5-1,0.9-1.8,1.3-2.3c0.4-0.5,1.2-1.3,2.2-2.2l-12.2-8.9c0.5-0.6,1.3-1.6,2.3-2.9c1-1.3,1.8-2.2,2.3-2.9c1.9-2.4,3.4-4.2,4.4-5.4
		c2.8,2.2,6.7,5.6,11.5,10c0.2-0.3,0.3-0.5,0.4-0.7c1.3-1.7,2.4-3,3.1-3.8c-1.3-1-3.2-2.4-5.7-4.2c-2.5-1.8-4.6-3.4-6.4-4.8
		c-1.1-0.9-2.5-2.1-4.2-3.5C450,88.7,448.7,87.6,447.8,86.9L447.8,86.9z M478.2,113.1c1.6,2,2.7,3.4,3.5,4.2c0.7,0.7,2,1.9,4.1,3.6
		c-1,0.9-2.4,2.2-4.4,3.8c-1.9,1.6-3.5,3-4.6,4.1c-1.3,1.1-3.1,2.9-5.6,5.3l-9.1,8.7c-0.6,0.6-1.6,1.6-2.9,2.9c-1.3,1.3-2.3,2.3-3,3
		l2.7,2.5c1.2,1.3,4.1,3.9,8.5,7.8c-0.5,0.3-1.3,0.9-2.2,1.8c-0.9,0.9-1.6,1.6-1.9,2.1l-7.5-8.4c-0.7-0.7-1.8-1.8-3.2-3.2
		c-1.4-1.4-2.5-2.5-3.2-3.1c-0.9-0.9-2.2-2.2-4-3.9c4.4-3.6,9.7-8.5,15.9-14.5c0.6-0.6,1.6-1.5,2.9-2.7c1.3-1.2,2.3-2.1,2.9-2.7
		c1.2-1.1,2.9-2.9,5.2-5.2c2.2-2.3,3.9-4.1,5.1-5.2L478.2,113.1L478.2,113.1z M519.5,181.8l0.5,0.8c1.5-0.6,3.7-1.3,6.6-2.1
		c-0.3-5.4-2.1-10.6-5.4-15.5c-2.1-3.2-4.5-6-7.2-8.2c-2.7-2.2-5.6-3.8-8.7-4.8c-3.1-1-6.3-1.2-9.7-0.7c-3.4,0.5-6.7,1.9-10,4
		c-3.1,2-5.5,4.4-7.1,7.1c-1.6,2.7-2.5,5.6-2.7,8.7c-0.2,3.1,0.2,6.2,1.2,9.4c1,3.2,2.4,6.3,4.4,9.3c2.5,3.9,6.5,8.2,11.9,13
		c2.7-1.9,4.7-3.3,6.1-4.2c3.5-2.3,6.6-4.1,9.4-5.5c-1.1-1.3-2.2-2.8-3.2-4.3c-0.9-1.4-1.7-2.9-2.5-4.4c-3.5,2.6-6.3,4.6-8.4,6
		l-4.3,2.8c0,0-0.1,0-0.3,0.1c-0.2,0.1-0.3,0.1-0.3,0.1c-0.2,0-0.5-0.3-1-0.8c-0.5-0.5-0.9-0.8-1-1.1c-1.3-1.3-2.2-2.5-2.9-3.5
		c-0.4-0.7-1-1.7-1.5-3.1c-0.6-1.6-0.9-2.9-1-3.8c-0.1-0.9-0.1-2.1,0-3.6c0.3-2.5,1.3-4.9,3-7.2c1.7-2.3,3.8-4.3,6.1-5.8
		c4.6-3,9.1-4.5,13.5-4.4c5.7,0.2,10.1,2.6,13,7.2C520.9,172,521.5,176.9,519.5,181.8L519.5,181.8z M515.2,219.8
		c1.4-1.6,2.3-2.6,2.6-2.9c0.2-0.2,0.3-0.5,0.2-0.6c-0.1-0.2-0.2-0.2-0.5-0.2c-1.2,0.4-3.1,1.1-5.5,2c-2.5,0.9-4.3,1.6-5.5,2
		l-1.7,0.6c-1.7,0.6-3.8,1.6-6.4,2.8c-0.2-0.6-0.4-1.5-0.7-2.6c-0.3-1.2-0.6-2-0.7-2.6c-0.2-0.5-0.5-1.4-1-2.5c-0.5-1.1-0.8-2-1-2.5
		l1.2-0.3c0.5-0.2,1-0.3,1.6-0.5c0.5-0.2,1-0.3,1.3-0.4c0.3-0.1,0.8-0.2,1.4-0.3c2.8-0.7,6.9-2.1,12.5-4c1.3-0.4,3.1-1.1,5.7-2
		c2.6-0.9,4.4-1.6,5.7-2c2.9-1,7.5-2.7,13.8-5.2l1.3,4.4c0.3,1,0.9,2.5,1.6,4.4c0.7,2,1.3,3.5,1.6,4.5c1.7,5,2.5,8.6,2.2,10.6
		c-0.9,4.4-3.3,7.3-7.3,8.7c-3,1-5.7,1-8.3-0.1c-2.6-1.1-4.7-3-6.4-5.8c-2.3,2.6-7,8.3-13.8,17.2l-2.8,3.4c-0.2-0.6-0.5-1.6-0.8-2.9
		c-0.4-1.3-0.6-2.3-0.9-2.9c-0.6-1.9-1.4-3.7-2.2-5.6l10.4-11.7L515.2,219.8L515.2,219.8z M530.2,211.9l-4.9,1.7
		c-2,0.7-3.5,1.2-4.6,1.5c1.2,3.4,2.8,5.7,4.8,6.7c2,1.1,4.5,1.1,7.6,0c1.2-0.4,2.3-0.9,3.1-1.4c1.1-0.7,1.9-1.4,2.4-2.3
		c0.5-0.8,0.7-1.7,0.7-2.6c0-0.9-0.2-1.9-0.6-3c-0.3-1.1-0.7-2.2-1-3.2L530.2,211.9L530.2,211.9z M506.8,248.3l11.9,3.3
		c13.7,3.8,25.5,6.8,35.5,8.9c0,0.2,0,0.5,0,0.8c0,0.3,0,0.6,0,0.9c0,0.3,0,0.6,0,0.8c0,0.4,0.1,0.8,0.3,1.2
		c0.1,0.4,0.3,0.8,0.4,1.2l-1,0.7c-13.5,7.4-27,15.2-40.5,23.2l-0.6,0.5l-0.6,0.1c-0.1-0.6-0.1-1.6-0.2-2.8
		c-0.1-1.2-0.2-2.2-0.3-2.9c-0.3-1.8-0.6-3.6-1.1-5.4c5.8-2.7,10-4.9,12.8-6.5c-0.1-0.8-0.3-2-0.4-3.6c-0.2-1.6-0.3-2.8-0.4-3.7
		c-0.2-1.7-0.7-4.3-1.3-8l-1-0.2c-2.2-0.5-4.4-0.9-6.7-1.4c-2.3-0.5-4.4-0.8-6.4-1c0.1-1,0-2.1-0.1-3.2c-0.1-1-0.4-2-0.7-3
		L506.8,248.3L506.8,248.3z M525.5,258.2l1.7,12.1c3.8-2,8.7-4.7,14.5-8.1c-5.7-1.6-10.9-2.9-15.6-3.9L525.5,258.2L525.5,258.2z
		 M511.1,302.4c0.2-0.9,0.3-1.8,0.4-2.6c0.1-1,0-2-0.1-3.1c4.7,0.8,9.6,1.5,14.7,2c5.1,0.5,10.7,1,16.7,1.4c1.2,0.1,3,0.2,5.3,0.3
		c2.4,0.1,4.2,0.2,5.4,0.3c1.4,0.1,2.4,0.1,3.2,0.1c-0.4,1.4-0.6,2.4-0.6,2.9c0,0.6,0,1.6,0.2,3.1c-3.1,2.4-5.9,4.7-8.5,6.8
		c-2.6,2.1-5.5,4.5-8.7,7.1c-3.2,2.6-6,4.8-8.3,6.7c-2.3,1.8-4.9,3.8-7.7,6l14.6,1l7.4,0.5c1.1,0.1,2.5,0.1,4.2,0.1c1.7,0,3,0,3.8,0
		l1.4,0c-0.4,1.4-0.6,2.4-0.6,2.9c0,0.4,0,1,0,1.6c0,0.6,0.1,1.1,0.1,1.5c-1.7-0.3-2.9-0.4-3.7-0.5c-3.2-0.5-6-0.9-8.3-1.1
		c-1.4-0.1-2.5-0.2-3.4-0.3c-0.9-0.1-1.9-0.2-3.1-0.4c-1.2-0.1-2.4-0.3-3.4-0.3c-1-0.1-1.9-0.2-2.6-0.2l-6.7-0.5l-14-1
		c0.1-0.1,0.1-0.4,0.2-0.7c0.1-0.4,0.2-1,0.2-1.8c0.1-1.2,0.1-2.2,0-2.9c10.1-7.4,18.7-14.1,25.9-20.1l8-6.6c-4.1-0.4-7-0.7-8.8-0.8
		l-6.1-0.4c-7.5-0.5-13.2-0.8-17-0.8L511.1,302.4z"/>
	<path class="st3" d="M498,388.4c-2.4-5.9-2.5-12.4-0.3-19.4c2.4-7.3,6.3-12.3,11.9-15.2c5.4-2.8,11.4-3.2,18.3-0.9
		c7,2.3,11.8,6.6,14.5,13c2.4,6,2.4,12.4,0.2,19.3c-1.9,5.8-4.9,10.2-9.1,13.3c-3.5,2.5-6.9,3.9-10.4,4.2c-3.5,0.3-7.1-0.1-10.7-1.3
		c-3.2-1-6.1-2.7-8.6-4.9C501.3,394.1,499.3,391.4,498,388.4L498,388.4z M504.9,384.3c2.8,2.9,6.9,5.3,12.1,7
		c2.9,0.9,5.8,1.4,8.8,1.3c3-0.1,5.7-0.8,8.1-2.3c2.4-1.5,4-3.7,5-6.7c0.9-2.8,1-5.4,0.2-7.8c-0.8-2.4-2-4.5-3.8-6.2
		c-2.8-2.7-7-5-12.7-6.8c-2.9-0.9-5.8-1.4-8.7-1.3c-2.9,0.1-5.4,0.9-7.7,2.3c-2.3,1.5-3.9,3.7-4.8,6.7
		C499.9,375.4,501,379.9,504.9,384.3z"/>
	<circle class="st0" cx="110.4" cy="440.5" r="11.8"/>
	<circle class="st0" cx="494.5" cy="440.5" r="11.8"/>
	<path class="st1" d="M206,376.8c-18-21.1-28.9-48.4-28.9-78.3c0-64.1,50-116.4,113.1-120.3c0,65.4,0,130.9,0,196.3h-37.3v-61.1
		h-37.2c2.7,14.8,9.2,28.2,18.6,39.1L206,376.8L206,376.8z M252.9,283.6v-55.3c-19.2,12.2-33,32.1-37.2,55.3H252.9z"/>
	<path class="st1" d="M429.4,347.2c0.8-2.5,1.2-5.1,1.2-7.9c0-14.2-11.5-25.8-25.8-25.8h-62.5v118.2
		C382.6,418.1,414.7,386.9,429.4,347.2L429.4,347.2z M305.1,121.1c65.3,2.7,121.5,40.6,150.1,95.3c4.4,8.4,10.4,21.6,11.9,31.1
		c4.2,26.8-14.6,51.1-36.3,51.1c22.2,0,40.4,24.3,36.3,51.1c-1.1,7.2-5.2,17.3-8.3,23.9c-27.3,58.5-85.5,99.6-153.6,102.4
		C305.1,357.7,305.1,239.4,305.1,121.1L305.1,121.1z M342.4,165.4v118.2h62.4c14.2,0,25.8-11.6,25.8-25.8c0-2.8-0.4-5.4-1.2-7.9
		C414.7,210.2,382.6,179,342.4,165.4L342.4,165.4z M290.2,476C195.5,472.1,120,394.2,120,298.6c0-95.6,75.5-173.6,170.2-177.5v37.3
		c-74.1,3.9-132.9,65.2-132.9,140.2c0,75,58.9,136.3,132.9,140.2V476z"/>
	<path class="st3" d="M217.1,540.4c-6.1,2.1-12.5,1.8-19.3-0.9c-7.1-2.8-11.9-7-14.4-12.8c-2.5-5.5-2.5-11.6,0.1-18.3
		c2.7-6.8,7.3-11.4,13.8-13.7c6.1-2,12.5-1.7,19.3,0.9c5.7,2.2,9.9,5.5,12.7,9.8c2.3,3.6,3.5,7.1,3.5,10.6c0.1,3.5-0.6,7-1.9,10.6
		c-1.2,3.2-3.1,5.9-5.4,8.3C223.1,537.4,220.3,539.2,217.1,540.4L217.1,540.4z M213.4,533.2c3.1-2.6,5.6-6.5,7.7-11.7
		c1.1-2.8,1.7-5.7,1.8-8.7c0.1-3-0.5-5.7-1.8-8.2c-1.3-2.5-3.4-4.2-6.4-5.4c-2.7-1.1-5.3-1.3-7.8-0.6c-2.5,0.6-4.6,1.8-6.4,3.4
		c-2.9,2.6-5.4,6.7-7.6,12.3c-1.1,2.9-1.7,5.7-1.8,8.6c-0.1,2.9,0.6,5.5,1.9,7.8c1.3,2.3,3.5,4.1,6.4,5.2
		C204.2,537.7,208.9,536.8,213.4,533.2z"/>
</g>
</svg>
