<?xml version="1.0" encoding="utf-8"?>
<!-- Generator: Adobe Illustrator 17.0.0, SVG Export Plug-In . SVG Version: 6.00 Build 0)  -->
<!DOCTYPE svg PUBLIC "-//W3C//DTD SVG 1.1//EN" "http://www.w3.org/Graphics/SVG/1.1/DTD/svg11.dtd">
<svg version="1.1" id="Layer_1" xmlns="http://www.w3.org/2000/svg" xmlns:xlink="http://www.w3.org/1999/xlink" x="0px" y="0px"
	 width="595.3px" height="595.3px" viewBox="0 0 595.3 595.3" enable-background="new 0 0 595.3 595.3" xml:space="preserve">
<g>
	<g>
		<g id="_x23_ff0000ff">
			<path fill="#FA0F0C" d="M517.351,169.645c-1.106-55.348-0.516-110.695-1.291-166.043H76.894h-2.618l0.069,480.281l0.299,0.184
				c70.503,33.776,141.485,66.631,211.95,100.481c4.978,1.659,10.546,6.379,15.819,2.839
				c72.678-34.33,145.319-68.77,218.034-102.988V252.464C516.392,225.03,518.162,197.264,517.351,169.645z M303.446,568.73
				c-5.826,3.909-12.058-0.479-17.515-2.766c-64.861-31.158-130.238-61.247-195.062-92.479c0.59-151.182,0.59-302.365,0.811-453.547
				c137.281-0.332,274.562-0.148,411.843-0.111c0,151.33,0.479,302.66,0.737,454.026
				C437.335,505.455,370.335,536.982,303.446,568.73z"/>
			<path fill="#FA0F0C" d="M107.868,453.942c0.664-139.346,0.332-278.729,0.922-418.075c125.813,0.037,251.663,0.147,377.513-0.074
				c1.032,66.668-0.701,133.372,1.438,200.003c0.184,75.591,0,151.182,0.553,226.774c-59.44,29.573-120.098,56.712-179.87,85.695
				c-4.757,1.807-9.919,5.9-15.044,2.802c-61.727-28.762-123.048-58.445-184.885-86.985
				C108.347,461.538,108.016,456.486,107.868,453.942"/>
			<path fill="#FA0F0C" d="M259.899,246.822c0.295-23.673-0.627-47.752,4.167-71.019c20.907-0.774,43.88-1.475,61.727,11.283
				c19.764,14.676,29.093,39.75,31.085,63.644c-40.008,6.305-68.216,44.322-68.253,83.851c-14.418,0.147-30.052-8.038-30.384-24.226
				c-0.184-19.137-3.061-39.639,2.471-58.002c17.146-9.513,35.288-23.009,38.681-43.695c-7.19,4.499-10.878,12.39-16.077,18.769
				C277.155,235.649,268.195,241.033,259.899,246.822z"/>
			<path fill="#FA0F0C" d="M315.578,331.3c0.111-29.204,11.91-62.722,41.188-74.19C356.434,286.683,342.238,316.809,315.578,331.3z"
				/>
		</g>
		<g id="_x23_e00000e0">
			<path opacity="0.88" fill="#DF1408" enable-background="new    " d="M516.06,3.603h4.388v248.861
				c-4.056-27.434-2.286-55.2-3.097-82.818C516.245,114.298,516.835,58.95,516.06,3.603z"/>
		</g>
		<g id="_x23_ffffffff">
			<path fill="#FFFFFF" d="M91.68,19.938c137.281-0.332,274.562-0.147,411.843-0.111c0,151.33,0.479,302.66,0.737,454.026
				c-66.926,31.601-133.925,63.128-200.814,94.876c-5.826,3.909-12.058-0.479-17.515-2.766
				c-64.861-31.158-130.238-61.247-195.062-92.479C91.459,322.303,91.459,171.12,91.68,19.938 M107.868,453.942
				c0.147,2.544,0.479,7.596,0.627,10.14c61.837,28.54,123.158,58.224,184.885,86.985c5.125,3.097,10.288-0.996,15.044-2.802
				c59.772-28.983,120.43-56.122,179.87-85.695c-0.553-75.591-0.369-151.182-0.553-226.774
				c-2.139-66.631-0.406-133.335-1.438-200.003c-125.85,0.221-251.7,0.111-377.513,0.074
				C108.2,175.213,108.532,314.596,107.868,453.942z"/>
		</g>
	</g>
	<g>
		
			<path fill-rule="evenodd" clip-rule="evenodd" fill="#FFFFFF" stroke="#FFFFFF" stroke-width="0.216" stroke-miterlimit="22.9256" d="
			M237.316,251.185c8.113-0.038,15.647-1.114,22.527-3.228c6.882-2.115,13.148-4.998,18.838-8.612
			c5.689-3.652,10.842-7.765,15.376-12.378c4.536-4.612,8.536-9.456,11.994-14.531c0.347-0.577,0.423-1.001,0.309-1.308
			c-0.155-0.307-0.384-0.537-0.77-0.768l-2.997-2.307c-0.349-0.345-0.654-0.461-0.922-0.345c-0.27,0.115-0.578,0.46-0.924,1.037
			c-2.651,3.768-5.882,7.42-9.728,10.918c-3.803,3.46-8.11,6.574-12.953,9.341c-4.844,2.767-10.149,4.959-15.876,6.574
			c-5.768,1.614-11.879,2.422-18.414,2.46c-3.845,0.039-7.573-0.154-11.225-0.576c-3.652-0.386-7.266-1.23-10.841-2.538
			c-3.575-1.307-7.189-3.228-10.841-5.843c-3.69-2.614-7.457-6.073-11.379-10.417c-4.458-4.998-8.149-10.265-11.032-15.762
			c-2.922-5.498-5.151-10.918-6.805-16.3c-1.615-5.381-2.729-10.417-3.382-15.108c-0.654-4.69-0.962-8.726-0.924-12.11
			c-0.077-6.803,0.577-13.531,1.961-20.258c1.346-6.69,3.46-13.07,6.344-19.068c2.883-5.997,6.612-11.301,11.148-15.953
			c4.574-4.651,9.995-8.342,16.338-10.995c6.344-2.652,13.647-4.036,21.873-4.074c6.074,0.038,11.495,0.846,16.339,2.383
			c4.882,1.577,9.225,3.691,13.147,6.344c3.883,2.69,7.457,5.689,10.648,9.033c3.228,3.346,5.959,6.69,8.265,10.111
			c2.268,3.421,4.229,6.728,5.768,9.879c1.574,3.191,2.921,6.036,3.961,8.612c0.344,0.883,0.652,1.46,0.998,1.691
			c0.306,0.231,0.768,0.307,1.307,0.154l3.459-0.924c0.462-0.115,0.771-0.383,0.883-0.807c0.156-0.423,0.156-0.922,0.04-1.499
			c-0.194-1.115-0.461-2.882-0.809-5.266c-0.383-2.383-0.768-5.112-1.19-8.227c-0.423-3.114-0.885-6.342-1.307-9.649
			c-0.464-3.344-0.847-6.497-1.232-9.495c-0.344-2.998-0.653-5.574-0.883-7.726c-0.232-2.153-0.346-3.614-0.346-4.383
			c0.039-1.576-0.154-2.576-0.499-3.076c-0.345-0.461-1.037-0.653-2.038-0.615c-0.999-0.038-1.691,0.039-2.115,0.154
			c-0.384,0.154-0.693,0.576-0.885,1.23l-1.845,6.69c-0.192,0.806-0.654,1.23-1.346,1.307c-0.692,0.038-1.768-0.423-3.267-1.307
			c-2.075-1.231-4.689-2.577-7.842-4.037c-3.114-1.423-6.689-2.806-10.686-4.113c-3.998-1.307-8.382-2.383-13.109-3.23
			c-4.69-0.846-9.689-1.268-14.955-1.307c-8.419,0.039-16.261,1.153-23.527,3.267c-7.227,2.115-13.762,4.959-19.528,8.458
			c-5.805,3.498-10.648,7.343-14.609,11.57c-5.536,5.882-9.994,12.148-13.492,18.875c-3.46,6.689-5.998,13.608-7.612,20.758
			c-1.614,7.151-2.422,14.301-2.422,21.49c0,5.574,0.5,11.301,1.537,17.221c1.001,5.92,2.538,11.725,4.575,17.492
			c2.038,5.768,4.613,11.186,7.688,16.261c3.114,5.112,6.728,9.65,10.88,13.609c4.574,4.267,9.649,7.958,15.222,11.148
			c5.575,3.152,11.917,5.611,18.99,7.381C220.249,250.262,228.283,251.147,237.316,251.185z"/>
		
			<path fill-rule="evenodd" clip-rule="evenodd" fill="#FFFFFF" stroke="#FFFFFF" stroke-width="0.216" stroke-miterlimit="22.9256" d="
			M232.601,244.021c0,3.093-0.039,6.921-0.077,11.522c-0.039,4.602-0.116,9.551-0.194,14.926c-0.077,5.373-0.154,10.709-0.27,16.084
			c-0.117,5.375-0.233,10.361-0.349,15.003c-0.116,4.64-0.232,8.505-0.387,11.638c-0.116,3.132-0.232,5.104-0.349,5.993
			c-0.231,1.855-0.965,3.248-2.241,4.175c-1.237,0.927-2.977,1.393-5.181,1.393h-15.543c-0.581,0-1.045,0.115-1.353,0.346
			c-0.348,0.232-0.504,0.581-0.504,1.044v6.031c0,0.581,0.116,1.004,0.388,1.238c0.232,0.271,0.656,0.386,1.236,0.386
			c1.045,0,2.861-0.078,5.452-0.193c2.553-0.117,6.071-0.193,10.518-0.31c4.485-0.117,10.053-0.192,16.743-0.192
			c3.557,0,7.694,0.074,12.45,0.192c4.755,0.117,9.782,0.193,15.002,0.31c5.22,0.115,10.284,0.193,15.233,0.193
			c4.525,0.078,9.744-0.078,15.699-0.386c5.915-0.309,12.14-1.198,18.714-2.706c6.573-1.47,13.108-3.906,19.602-7.269
			c6.457-3.403,12.526-8.159,18.135-14.229c5.101-5.53,9.356-11.29,12.759-17.322c3.402-6.032,5.954-12.605,7.655-19.72
			c1.702-7.152,2.554-15.117,2.554-23.972c-0.04-8.97-1.162-17.089-3.325-24.398c-2.168-7.346-5.184-13.88-9.05-19.642
			c-3.867-5.76-8.313-10.787-13.377-15.119c-5.105-4.329-10.478-7.849-16.163-10.593c-5.722-2.745-11.677-4.872-17.977-6.38
			c-6.267-1.508-12.838-2.513-19.722-3.093c-6.88-0.581-14.034-0.85-21.535-0.813c-1.121,0-2.784,0.039-5.065,0.078
			c-2.243,0.038-4.833,0.077-7.656,0.154c-2.861,0.078-5.722,0.155-8.621,0.233c-2.861,0.038-5.491,0.115-7.811,0.154
			c-2.357,0.039-4.175,0.078-5.412,0.078c-6.922,0-12.76-0.078-17.438-0.194c-4.717-0.116-8.391-0.232-11.135-0.309
			c-2.707-0.116-4.524-0.194-5.53-0.194c-0.464,0-0.85,0.078-1.16,0.232c-0.309,0.155-0.464,0.465-0.464,0.928v6.264
			c0,0.656,0.155,1.12,0.503,1.314c0.309,0.232,0.774,0.31,1.353,0.31h12.759c2.089-0.039,3.829,0.116,5.221,0.425
			c1.391,0.348,2.474,0.966,3.247,1.895c0.774,0.966,1.276,2.319,1.508,4.175c0.078,0.697,0.155,2.088,0.232,4.137
			c0.116,2.05,0.194,4.523,0.271,7.385c0.078,2.9,0.193,5.954,0.271,9.163c0.077,3.17,0.116,6.303,0.194,9.28
			c0.077,3.015,0.116,5.644,0.154,7.965c0.039,2.28,0.039,3.944,0.039,4.988V244.021L232.601,244.021z M253.945,232.653
			c0-0.811,0-2.474,0-5.065c0-2.553,0-5.606,0-9.163c0.039-3.558,0.039-7.23,0.039-11.059c0.037-3.788,0.037-7.345,0.077-10.632
			c0.039-3.287,0.077-5.916,0.116-7.927c0.077-2.551,0.425-4.756,1.082-6.573c0.619-1.856,1.74-3.286,3.326-4.33
			c1.391-0.774,3.17-1.315,5.412-1.624c2.243-0.348,4.562-0.541,6.96-0.619c2.359-0.077,4.408-0.116,6.186-0.077
			c8.623,0.038,16.55,0.966,23.856,2.821c7.31,1.857,13.844,4.447,19.642,7.813c5.801,3.324,10.712,7.19,14.732,11.638
			c2.784,3.093,5.376,6.651,7.696,10.632c2.28,4.021,4.29,8.275,5.991,12.837c1.703,4.523,3.017,9.163,3.944,13.88
			c0.93,4.718,1.395,9.358,1.395,13.919c-0.04,7.077-0.775,13.804-2.205,20.224c-1.469,6.418-3.48,12.372-5.993,17.786
			c-2.553,5.412-5.452,10.129-8.739,14.19c-3.868,4.987-8.546,9.356-14.035,13.107c-5.451,3.751-11.601,6.65-18.406,8.739
			c-6.805,2.125-14.151,3.17-22.077,3.209c-3.867,0-7.464-0.272-10.71-0.852c-3.248-0.539-6.07-1.391-8.43-2.474
			c-2.396-1.121-4.175-2.474-5.451-4.097c-1.469-2.282-2.514-4.446-3.093-6.496c-0.58-2.051-0.889-4.214-0.85-6.496
			c-0.039-2.435-0.077-5.452-0.116-9.009c-0.039-3.519-0.078-7.345-0.116-11.443c-0.039-4.098-0.077-8.159-0.077-12.218
			c-0.039-4.061-0.079-7.811-0.079-11.29c-0.037-3.442-0.037-6.341-0.076-8.624c0-2.28,0-3.71,0-4.253V232.653z"/>
		
			<path fill-rule="evenodd" clip-rule="evenodd" fill="#FFFFFF" stroke="#FFFFFF" stroke-width="0.216" stroke-miterlimit="22.9256" d="
			M366.276,424.832c8.111-0.039,15.645-1.115,22.526-3.228c6.882-2.116,13.148-4.999,18.836-8.61
			c5.689-3.654,10.842-7.766,15.377-12.379c4.538-4.613,8.535-9.457,11.995-14.532c0.347-0.577,0.423-0.999,0.305-1.307
			c-0.153-0.307-0.382-0.537-0.766-0.769l-2.999-2.306c-0.347-0.346-0.653-0.461-0.922-0.346c-0.27,0.116-0.576,0.461-0.925,1.038
			c-2.65,3.767-5.879,7.418-9.723,10.916c-3.806,3.46-8.113,6.574-12.957,9.343c-4.844,2.768-10.149,4.959-15.876,6.573
			c-5.766,1.616-11.878,2.422-18.412,2.462c-3.846,0.037-7.575-0.156-11.228-0.578c-3.651-0.384-7.265-1.23-10.84-2.535
			c-3.575-1.309-7.189-3.231-10.84-5.844c-3.692-2.616-7.457-6.074-11.38-10.419c-4.46-4.996-8.149-10.262-11.034-15.76
			c-2.921-5.498-5.15-10.918-6.803-16.301c-1.614-5.381-2.728-10.417-3.382-15.105c-0.654-4.691-0.962-8.729-0.922-12.111
			c-0.078-6.803,0.576-13.531,1.96-20.259c1.344-6.689,3.46-13.07,6.343-19.068c2.883-5.994,6.612-11.301,11.147-15.952
			c4.575-4.651,9.995-8.342,16.339-10.995c6.342-2.652,13.647-4.036,21.874-4.074c6.074,0.038,11.494,0.846,16.336,2.383
			c4.882,1.576,9.227,3.691,13.149,6.344c3.88,2.69,7.455,5.689,10.647,9.033c3.228,3.346,5.959,6.69,8.265,10.111
			c2.269,3.42,4.229,6.728,5.766,9.878c1.576,3.192,2.923,6.036,3.958,8.612c0.346,0.885,0.656,1.462,1,1.691
			c0.309,0.232,0.769,0.307,1.308,0.154l3.46-0.921c0.46-0.116,0.767-0.384,0.883-0.808c0.155-0.423,0.155-0.924,0.038-1.502
			c-0.192-1.113-0.461-2.88-0.808-5.264c-0.384-2.384-0.768-5.112-1.192-8.228c-0.422-3.113-0.883-6.341-1.306-9.648
			c-0.461-3.344-0.846-6.497-1.23-9.495c-0.347-2.998-0.654-5.574-0.883-7.726c-0.232-2.153-0.348-3.615-0.348-4.383
			c0.039-1.576-0.152-2.576-0.499-3.076c-0.346-0.461-1.04-0.654-2.038-0.615c-1.001-0.039-1.691,0.039-2.113,0.154
			c-0.385,0.154-0.693,0.576-0.886,1.23l-1.845,6.69c-0.19,0.806-0.652,1.229-1.345,1.307c-0.692,0.038-1.769-0.423-3.267-1.307
			c-2.077-1.231-4.69-2.577-7.843-4.037c-3.115-1.421-6.687-2.806-10.686-4.113c-3.998-1.307-8.382-2.383-13.109-3.23
			c-4.69-0.846-9.688-1.268-14.954-1.307c-8.42,0.039-16.262,1.154-23.527,3.267c-7.228,2.115-13.763,4.959-19.529,8.458
			c-5.805,3.498-10.649,7.343-14.607,11.57c-5.537,5.882-9.995,12.148-13.495,18.875c-3.46,6.689-5.997,13.607-7.611,20.757
			c-1.614,7.152-2.422,14.302-2.422,21.491c0,5.573,0.5,11.301,1.539,17.221c0.999,5.92,2.537,11.725,4.573,17.492
			c2.038,5.766,4.614,11.186,7.69,16.259c3.113,5.114,6.725,9.649,10.877,13.609c4.575,4.268,9.651,7.958,15.224,11.148
			c5.575,3.153,11.918,5.611,18.99,7.381C349.206,423.91,357.241,424.793,366.276,424.832z"/>
	</g>
</g>
</svg>
