<?xml version="1.0" encoding="utf-8"?>
<!-- Generator: Adobe Illustrator 17.0.0, SVG Export Plug-In . SVG Version: 6.00 Build 0)  -->
<!DOCTYPE svg PUBLIC "-//W3C//DTD SVG 1.1//EN" "http://www.w3.org/Graphics/SVG/1.1/DTD/svg11.dtd">
<svg version="1.1" id="Layer_1" xmlns="http://www.w3.org/2000/svg" xmlns:xlink="http://www.w3.org/1999/xlink" x="0px" y="0px"
	 width="595.3px" height="595.3px" viewBox="0 0 595.3 595.3" style="enable-background:new 0 0 595.3 595.3;" xml:space="preserve"
	>
<style type="text/css">
	.st0{fill:#FFFFFF;}
</style>
<g>
	<path class="st0" d="M62.6,0h467.6h5.1v5.1V433v0.4l-0.1,0.5c-10.2,60.4-59.4,71.3-112.4,82.9c-46.8,10.3-96.7,21.4-121.9,70.1
		l-4.6,8.9l-4.5-8.9c-24.8-48.7-75-59.8-121.9-70.1C116.6,505,67.3,494.2,57.3,433.7l-0.1-0.5v-0.4V5.2V0.1h5.3V0z"/>
	<path d="M62.6,0h467.6h5.1v5.1V433v0.4l-0.1,0.5c-10.2,60.4-59.4,71.3-112.4,82.9c-46.8,10.3-96.7,21.4-121.9,70.1l-4.6,8.9
		l-4.5-8.9c-24.8-48.7-75-59.8-121.9-70.1C116.6,505,67.3,494.2,57.3,433.7l-0.1-0.5v-0.4V5.2V0.1h5.3V0z M525.1,10.3H67.8v422.3
		c9,53.1,54.9,63.3,104.4,74.1c46.6,10.2,96.1,21.2,124.3,67.3c28.3-46.1,77.7-57,124.2-67.3c49.3-10.9,95.2-21,104.4-74.3V10.3
		H525.1z"/>
	<path d="M493.7,37L99.2,437.9c36,65.4,148.2,28.5,197.6,98.7c49.3-70.1,161.6-33.4,196.9-98.7L493.7,37L493.7,37z"/>
	<path d="M163.3,102.5l22.6,6.9c-1.5,6.3-3.9,11.6-7.1,15.9c-3.2,4.3-7.4,7.5-12.1,9.6c-4.9,2.1-11.1,3.2-18.5,3.2
		c-9,0-16.5-1.3-22.2-3.9c-5.8-2.6-10.7-7.2-15-13.9c-4.2-6.7-6.3-15.2-6.3-25.5c0-13.8,3.7-24.5,11.1-32s17.8-11.2,31.3-11.2
		c10.6,0,18.8,2.1,24.8,6.4c6.1,4.3,10.6,10.8,13.4,19.6l-22.8,5.1c-0.8-2.5-1.7-4.4-2.5-5.6c-1.4-2-3.2-3.6-5.3-4.5
		c-2.1-1.1-4.4-1.5-7-1.5c-5.8,0-10.3,2.4-13.4,7.1c-2.4,3.4-3.6,9-3.6,16.5c0,9.3,1.4,15.7,4.3,19.1c2.9,3.4,6.8,5.1,11.9,5.1
		c5,0,8.7-1.4,11.2-4.2C160.4,111.9,162.3,107.8,163.3,102.5L163.3,102.5L163.3,102.5z M250.1,122.9h-29.5l-4,13.8h-26.4L221.7,53
		h28.2l31.5,83.7h-27.1L250.1,122.9L250.1,122.9z M244.6,104.8l-9.3-30.1l-9.1,30.1H244.6L244.6,104.8z"/>
	<path class="st0" d="M348.8,397.5l24.5,7.4c-1.7,6.9-4.3,12.6-7.7,17.2c-3.6,4.6-8,8.1-13.2,10.5c-5.2,2.4-11.9,3.6-20.1,3.6
		c-9.9,0-17.8-1.4-24.1-4.3c-6.2-2.9-11.6-7.8-16.2-15.1c-4.5-7.2-6.8-16.4-6.8-27.7c0-15,4-26.5,11.9-34.5
		c8-8.1,19.3-12.1,33.7-12.1c11.4,0,20.3,2.3,26.9,6.9c6.5,4.6,11.4,11.6,14.5,21.3l-24.7,5.5c-0.8-2.7-1.8-4.8-2.7-6.1
		c-1.5-2.1-3.4-3.8-5.7-5c-2.3-1.2-4.8-1.8-7.6-1.8c-6.3,0-11.2,2.6-14.6,7.6c-2.5,3.8-3.8,9.7-3.8,17.8c0,10,1.5,16.9,4.5,20.7
		c3.1,3.7,7.4,5.6,12.8,5.6c5.3,0,9.4-1.5,12.1-4.5C345.6,407.6,347.6,403.2,348.8,397.5L348.8,397.5L348.8,397.5z M387.1,344h26.1
		l34.1,50v-50h26.4v90.4h-26.4l-33.9-49.7v49.7h-26.3V344H387.1z"/>
</g>
</svg>
