<?xml version="1.0" encoding="utf-8"?>
<!-- Generator: Adobe Illustrator 17.0.0, SVG Export Plug-In . SVG Version: 6.00 Build 0)  -->
<!DOCTYPE svg PUBLIC "-//W3C//DTD SVG 1.1//EN" "http://www.w3.org/Graphics/SVG/1.1/DTD/svg11.dtd">
<svg version="1.1" id="Layer_1" xmlns="http://www.w3.org/2000/svg" xmlns:xlink="http://www.w3.org/1999/xlink" x="0px" y="0px"
	 width="595.3px" height="595.3px" viewBox="0 0 595.3 595.3" enable-background="new 0 0 595.3 595.3" xml:space="preserve">
<g>
	<g>
		<g>
			<defs>
				<path id="SVGID_1_" d="M39.213,153.298c-15.374,21.812-0.485,103.595-2.21,99.785c2.219,11.623,0.751,60.581-2.181,147.771
					c-10.068,96.891,17.933,49.624,74.279,10.926c28.263-22.368,76.148,7.817,112.914,24.211c13.791,6.149,29.14,7.957,43.958,5.047
					c28.338-5.566,64.144-20.674,89.213-29.863c17.733-3.501,28.557,2.294,38.545,8.089c16.339,9.479,30.444,18.959,68.904-12.259
					c57.006-46.272,91.293,17.555,112.519-86.293c-55.856,10.497-34.855-11.268-12.116-36.248c2.865-3.147,6.057-6.306,8.789-9.385
					c8.894-10.022,17.004-22.442,17.528-28.551c-13.39,7.222-25.482,12.081-36.671,14.978c-2.805,0.726-5.553,1.329-8.251,1.814
					c-3.462,0.623-6.84,1.053-10.149,1.305c-40.685,3.087-70.768-20.962-114.647-47.393c-41.147-23.279-64.162-14.055-102.588-7.442
					c-41.993,3.236-82.238-14.757-122.075-32.75c-36.678-16.566-73.002-33.132-110.037-33.13
					C69.839,143.913,54.616,146.667,39.213,153.298"/>
			</defs>
			<clipPath id="SVGID_2_">
				<use xlink:href="#SVGID_1_"  overflow="visible"/>
			</clipPath>
			
				<radialGradient id="SVGID_3_" cx="-661.875" cy="837.153" r="0.5118" gradientTransform="matrix(458.803 0 0 -458.803 303981.0312 384389.3125)" gradientUnits="userSpaceOnUse">
				<stop  offset="0" style="stop-color:#292D91"/>
				<stop  offset="0.0512" style="stop-color:#292D91"/>
				<stop  offset="0.2561" style="stop-color:#2B1E7D"/>
				<stop  offset="0.5262" style="stop-color:#271A78"/>
				<stop  offset="0.8413" style="stop-color:#1C0E6A"/>
				<stop  offset="1" style="stop-color:#140660"/>
			</radialGradient>
			<rect x="23.839" y="143.909" clip-path="url(#SVGID_2_)" fill="url(#SVGID_3_)" width="565.516" height="353.836"/>
		</g>
		<g>
			<g opacity="0.5">
				<g>
					<defs>
						<rect id="SVGID_4_" x="175.174" y="241.139" width="245.193" height="136.722"/>
					</defs>
					<clipPath id="SVGID_5_">
						<use xlink:href="#SVGID_4_"  overflow="visible"/>
					</clipPath>
					<g clip-path="url(#SVGID_5_)">
						<defs>
							<rect id="SVGID_6_" x="175.174" y="241.139" width="245.191" height="136.722"/>
						</defs>
						<clipPath id="SVGID_7_">
							<use xlink:href="#SVGID_6_"  overflow="visible"/>
						</clipPath>
						<g clip-path="url(#SVGID_7_)">
							
								<image overflow="visible" width="1996" height="1113" xlink:href="4659DA8BCB279FA4.png"  transform="matrix(0.1228 0 0 0.1228 175.1738 241.1389)">
							</image>
						</g>
					</g>
				</g>
			</g>
		</g>
		<polygon fill="#BB0015" points="179.61,303.135 298.909,245.59 415.963,309.689 297.787,373.445 		"/>
		<g>
			<path fill="#E2E22C" d="M346.609,320.066c-2.151,13.349-11.321,21.988-23.151,21.988c-13.367,0-24.678-11.994-24.678-32.149
				c0-19.888,9.905-31.498,24.501-31.498c12.752,0,22.936,10.995,23.936,22.841h-10.679c-1.458-6.63-7.005-13.506-12.076-13.506
				c-8.834,0-13.274,8.64-13.274,21.457c0,12.995,3.336,22.984,11.632,22.984c6.299,0,11.653-4.778,13.112-12.116H346.609z"/>
			<path fill="none" stroke="#0B0741" stroke-width="0.25" stroke-miterlimit="10" d="M346.609,320.066
				c-2.151,13.349-11.321,21.988-23.151,21.988c-13.367,0-24.678-11.994-24.678-32.149c0-19.888,9.905-31.498,24.501-31.498
				c12.752,0,22.936,10.995,23.936,22.841h-10.679c-1.458-6.63-7.005-13.506-12.076-13.506c-8.834,0-13.274,8.64-13.274,21.457
				c0,12.995,3.336,22.984,11.632,22.984c6.299,0,11.653-4.778,13.112-12.116H346.609z"/>
			<path fill="#E2E22C" d="M292.983,320.066c-2.151,13.349-11.321,21.988-23.151,21.988c-13.367,0-24.678-11.994-24.678-32.149
				c0-19.888,9.905-31.498,24.5-31.498c12.753,0,22.937,10.995,23.936,22.841h-10.678c-1.458-6.63-7.006-13.506-12.076-13.506
				c-8.834,0-13.273,8.64-13.273,21.457c0,12.995,3.336,22.984,11.632,22.984c6.299,0,11.653-4.778,13.112-12.116H292.983z"/>
			<path fill="none" stroke="#0B0741" stroke-width="0.25" stroke-miterlimit="10" d="M292.983,320.066
				c-2.151,13.349-11.321,21.988-23.151,21.988c-13.367,0-24.678-11.994-24.678-32.149c0-19.888,9.905-31.498,24.5-31.498
				c12.753,0,22.937,10.995,23.936,22.841h-10.678c-1.458-6.63-7.006-13.506-12.076-13.506c-8.834,0-13.273,8.64-13.273,21.457
				c0,12.995,3.336,22.984,11.632,22.984c6.299,0,11.653-4.778,13.112-12.116H292.983z"/>
		</g>
		<g>
			<path fill="#C7D416" d="M45.464,179.907c3.666,14.45,6.923,37.25,6.527,81.137c-0.248,27.464,0.335,11.972-0.626,46.906
				c-1.431,51.999-4.084,76.572-5.609,76.617c-3.989,0.119-0.191-118.847-7.534-177.258c-0.797-6.344-3.698-27.635,1.341-30.079
				C41.711,176.189,45.103,178.484,45.464,179.907"/>
			<path fill="#201275" d="M47.338,150.398l-0.801,304.678v38.41c0,1.472-0.378,2.919-1.096,4.204l-0.242,0.433
				c-1.399,2.02-3.709,3.215-6.167,3.187l-4.421-0.049c-2.259-0.025-4.382-1.082-5.766-2.867l-0.286-0.369
				c-1.218-1.572-1.855-3.508-1.802-5.497c0.395-14.635,1.009-35.799,1.904-61.285c1.295-36.881,1.817-44.049,2.384-60.975
				c1.858-55.496,0.305-99.456-1.192-141.812c-0.682-19.308-1.81-46.036-3.774-77.212L47.338,150.398z"/>
			<path fill="#201275" d="M65.414,124.487c0,16.157-12.972,29.255-28.973,29.255S7.468,140.644,7.468,124.487
				c0-16.157,12.971-29.255,28.973-29.255S65.414,108.331,65.414,124.487"/>
			<path fill="#E1F11C" d="M52.698,124.884c0,9.066-7.279,16.416-16.257,16.416c-8.979,0-16.258-7.349-16.258-16.416
				c0-9.066,7.278-16.415,16.258-16.415C45.419,108.469,52.698,115.819,52.698,124.884"/>
		</g>
	</g>
</g>
</svg>
