<?xml version="1.0" encoding="utf-8"?>
<!-- Generator: Adobe Illustrator 17.0.0, SVG Export Plug-In . SVG Version: 6.00 Build 0)  -->
<!DOCTYPE svg PUBLIC "-//W3C//DTD SVG 1.1//EN" "http://www.w3.org/Graphics/SVG/1.1/DTD/svg11.dtd">
<svg version="1.1" id="Layer_1" xmlns="http://www.w3.org/2000/svg" xmlns:xlink="http://www.w3.org/1999/xlink" x="0px" y="0px"
	 width="595.3px" height="595.3px" viewBox="0 0 595.3 595.3" style="enable-background:new 0 0 595.3 595.3;" xml:space="preserve"
	>
<style type="text/css">
	.st0{fill:#FFFFFF;}
</style>
<g>
	<path class="st0" d="M546.5,26.8l0-4.5l-4.4,1.2C515.9,30.5,488.2,34,459.8,34c0,0,0,0,0,0C369.7,34,300,1.2,299.3,0.9L297.6,0
		L296,0.9C295.3,1.2,225.5,34,135.5,34c-28.4,0-56-3.6-82.3-10.6l-4.4-1.2l0,4.5c-1.3,121,16.5,223.4,54.3,313.2
		c39.8,94.5,102.7,177.4,192.3,253.4l2.3,1.9l2.3-1.9c89.5-76,152.4-158.8,192.3-253.4C530.1,250.2,547.8,147.7,546.5,26.8z"/>
	<g>
		<path d="M96.3,73.5c-0.8-1.5-2.3-2.3-4.4-2.3c-1.2,0-2.1,0.3-2.9,0.9c-0.8,0.6-1.4,1.7-1.8,3.1c-0.4,1.4-0.7,3.3-0.9,5.6
			c-0.2,2.3-0.3,5.1-0.3,8.4c0,3.5,0.1,6.4,0.4,8.6c0.2,2.2,0.6,3.9,1.1,5.1c0.5,1.2,1.1,2,1.9,2.4c0.8,0.4,1.6,0.6,2.6,0.6
			c0.8,0,1.6-0.1,2.3-0.4c0.7-0.3,1.3-0.8,1.9-1.7c0.5-0.8,0.9-2,1.2-3.6c0.3-1.5,0.5-3.6,0.5-6.1h9.4c0,2.5-0.2,4.9-0.6,7.2
			c-0.4,2.3-1.1,4.2-2.2,5.9c-1.1,1.7-2.6,3-4.5,4c-1.9,1-4.5,1.4-7.5,1.4c-3.5,0-6.3-0.6-8.4-1.7c-2.1-1.1-3.7-2.8-4.8-4.9
			c-1.1-2.1-1.8-4.7-2.2-7.6c-0.3-3-0.5-6.2-0.5-9.8c0-3.5,0.2-6.8,0.5-9.8c0.3-3,1-5.5,2.2-7.7c1.1-2.1,2.7-3.8,4.8-5
			c2.1-1.2,4.9-1.8,8.4-1.8c3.4,0,6,0.5,7.9,1.6c1.9,1.1,3.4,2.5,4.3,4.2c1,1.7,1.6,3.5,1.8,5.4c0.2,1.9,0.4,3.8,0.4,5.5h-9.4
			C97.5,77.5,97.1,75.1,96.3,73.5z"/>
		<path d="M122.1,65.2V83h11V65.2h9.4v46.7h-9.4V91.1h-11v20.7h-9.4V65.2H122.1z"/>
		<path d="M169.7,65.2l12.4,46.7h-9.8l-2.2-9.9h-12.4l-2.2,9.9h-9.8l12.4-46.7H169.7z M168.5,94.3l-4.5-21h-0.1l-4.5,21H168.5z"/>
		<path d="M204.1,73.5c-0.8-1.5-2.3-2.3-4.4-2.3c-1.2,0-2.1,0.3-2.9,0.9c-0.8,0.6-1.4,1.7-1.8,3.1c-0.4,1.4-0.7,3.3-0.9,5.6
			c-0.2,2.3-0.3,5.1-0.3,8.4c0,3.5,0.1,6.4,0.4,8.6c0.2,2.2,0.6,3.9,1.1,5.1c0.5,1.2,1.1,2,1.9,2.4c0.8,0.4,1.6,0.6,2.6,0.6
			c0.8,0,1.6-0.1,2.3-0.4c0.7-0.3,1.3-0.8,1.9-1.7c0.5-0.8,0.9-2,1.2-3.6c0.3-1.5,0.5-3.6,0.5-6.1h9.4c0,2.5-0.2,4.9-0.6,7.2
			c-0.4,2.3-1.1,4.2-2.2,5.9c-1.1,1.7-2.6,3-4.5,4c-1.9,1-4.5,1.4-7.5,1.4c-3.5,0-6.3-0.6-8.4-1.7c-2.1-1.1-3.7-2.8-4.8-4.9
			c-1.1-2.1-1.8-4.7-2.2-7.6c-0.3-3-0.5-6.2-0.5-9.8c0-3.5,0.2-6.8,0.5-9.8c0.3-3,1-5.5,2.2-7.7c1.1-2.1,2.7-3.8,4.8-5
			c2.1-1.2,4.9-1.8,8.4-1.8c3.4,0,6,0.5,7.9,1.6c1.9,1.1,3.4,2.5,4.3,4.2c1,1.7,1.6,3.5,1.8,5.4c0.2,1.9,0.4,3.8,0.4,5.5h-9.4
			C205.3,77.5,204.9,75.1,204.1,73.5z"/>
		<path d="M220,78.7c0.3-3,1-5.5,2.2-7.7c1.1-2.1,2.7-3.8,4.8-5c2.1-1.2,4.9-1.8,8.4-1.8c3.5,0,6.3,0.6,8.4,1.8
			c2.1,1.2,3.7,2.9,4.8,5c1.1,2.1,1.8,4.7,2.2,7.7c0.3,3,0.5,6.2,0.5,9.8c0,3.6-0.2,6.8-0.5,9.8c-0.3,3-1,5.5-2.2,7.6
			c-1.1,2.1-2.7,3.8-4.8,4.9c-2.1,1.1-4.9,1.7-8.4,1.7c-3.5,0-6.3-0.6-8.4-1.7c-2.1-1.1-3.7-2.8-4.8-4.9c-1.1-2.1-1.8-4.7-2.2-7.6
			c-0.3-3-0.5-6.2-0.5-9.8C219.5,85,219.6,81.7,220,78.7z M229.1,96.5c0.2,2.2,0.5,4,0.9,5.4c0.5,1.4,1.1,2.4,2,3
			c0.8,0.6,2,0.9,3.4,0.9c1.4,0,2.5-0.3,3.4-0.9c0.8-0.6,1.5-1.6,2-3c0.5-1.4,0.8-3.2,0.9-5.4c0.2-2.2,0.2-4.9,0.2-8
			c0-3.1-0.1-5.8-0.2-8c-0.2-2.2-0.5-4-0.9-5.4c-0.5-1.4-1.1-2.4-2-3c-0.9-0.6-2-0.9-3.4-0.9c-1.4,0-2.5,0.3-3.4,0.9
			c-0.8,0.6-1.5,1.6-2,3c-0.5,1.4-0.8,3.2-0.9,5.4c-0.2,2.2-0.2,4.8-0.2,8C228.9,91.7,229,94.3,229.1,96.5z"/>
		<path d="M298.6,65.2v7.7h-16.7v11h15.7v7.7h-15.7v20.3h-9.4V65.2H298.6z"/>
		<path d="M302.2,78.7c0.3-3,1-5.5,2.2-7.7c1.1-2.1,2.7-3.8,4.8-5c2.1-1.2,4.9-1.8,8.4-1.8c3.5,0,6.3,0.6,8.4,1.8
			c2.1,1.2,3.7,2.9,4.8,5c1.1,2.1,1.8,4.7,2.2,7.7c0.3,3,0.5,6.2,0.5,9.8c0,3.6-0.2,6.8-0.5,9.8c-0.3,3-1,5.5-2.2,7.6
			c-1.1,2.1-2.7,3.8-4.8,4.9c-2.1,1.1-4.9,1.7-8.4,1.7c-3.5,0-6.3-0.6-8.4-1.7c-2.1-1.1-3.7-2.8-4.8-4.9c-1.1-2.1-1.8-4.7-2.2-7.6
			c-0.3-3-0.5-6.2-0.5-9.8C301.8,85,301.9,81.7,302.2,78.7z M311.4,96.5c0.2,2.2,0.5,4,0.9,5.4c0.5,1.4,1.1,2.4,2,3
			c0.9,0.6,2,0.9,3.4,0.9c1.4,0,2.5-0.3,3.4-0.9c0.9-0.6,1.5-1.6,2-3c0.5-1.4,0.8-3.2,0.9-5.4c0.2-2.2,0.2-4.9,0.2-8
			c0-3.1-0.1-5.8-0.2-8c-0.2-2.2-0.5-4-0.9-5.4c-0.5-1.4-1.1-2.4-2-3c-0.8-0.6-2-0.9-3.4-0.9c-1.4,0-2.5,0.3-3.4,0.9
			c-0.8,0.6-1.5,1.6-2,3c-0.5,1.4-0.8,3.2-0.9,5.4c-0.2,2.2-0.2,4.8-0.2,8C311.2,91.7,311.2,94.3,311.4,96.5z"/>
		<path d="M356.5,65.2c3.9,0,7,1,9.2,3c2.2,2,3.3,5,3.3,9.1c0,3.1-0.6,5.7-1.9,7.7c-1.3,2-3.2,3.3-5.9,3.8v0.1
			c2.4,0.3,4.1,1.1,5.2,2.3c1.1,1.2,1.8,3.1,2,5.7c0.1,0.9,0.2,1.8,0.2,2.8c0,1,0.1,2.2,0.1,3.4c0.1,2.5,0.2,4.4,0.4,5.7
			c0.3,1.3,0.8,2.2,1.7,2.7v0.4h-10.2c-0.5-0.7-0.8-1.4-0.9-2.3c-0.1-0.8-0.2-1.7-0.3-2.6l-0.3-9c-0.1-1.8-0.5-3.3-1.4-4.3
			c-0.8-1-2.2-1.6-4.2-1.6h-5v19.7h-9.4V65.2H356.5z M352.4,85.6c2.3,0,4-0.5,5.2-1.6c1.2-1.1,1.8-2.9,1.8-5.4
			c0-4.3-2.2-6.5-6.5-6.5h-4.4v13.5H352.4z"/>
		<path d="M417.2,72.9h-16.7v11h15.7v7.7h-15.7v12.5h17.3v7.7h-26.7V65.2h26.1V72.9z"/>
		<path d="M436.1,99.7h0.2l6.9-34.5h9.7l-10.7,46.7h-12.1l-10.7-46.7h10.1L436.1,99.7z"/>
		<path d="M482.6,72.9h-16.7v11h15.7v7.7h-15.7v12.5h17.3v7.7h-26.7V65.2h26.1V72.9z"/>
		<path d="M505.3,65.2c3.9,0,7,1,9.2,3c2.2,2,3.3,5,3.3,9.1c0,3.1-0.6,5.7-1.9,7.7c-1.3,2-3.2,3.3-5.9,3.8v0.1
			c2.4,0.3,4.1,1.1,5.2,2.3c1.1,1.2,1.8,3.1,2,5.7c0.1,0.9,0.2,1.8,0.2,2.8c0,1,0.1,2.2,0.1,3.4c0.1,2.5,0.2,4.4,0.4,5.7
			c0.3,1.3,0.8,2.2,1.7,2.7v0.4h-10.2c-0.5-0.7-0.8-1.4-0.9-2.3s-0.2-1.7-0.3-2.6l-0.3-9c-0.1-1.8-0.5-3.3-1.4-4.3
			c-0.8-1-2.2-1.6-4.2-1.6h-5v19.7h-9.4V65.2H505.3z M501.2,85.6c2.3,0,4-0.5,5.2-1.6c1.2-1.1,1.8-2.9,1.8-5.4
			c0-4.3-2.2-6.5-6.5-6.5h-4.4v13.5H501.2z"/>
	</g>
	<path d="M546.5,26.8l0-4.5l-4.4,1.2C515.9,30.5,488.2,34,459.8,34c0,0,0,0,0,0C369.7,34,300,1.2,299.3,0.9L297.6,0L296,0.9
		C295.3,1.2,225.5,34,135.5,34c-28.4,0-56-3.6-82.3-10.6l-4.4-1.2l0,4.5c-1.3,121,16.5,223.4,54.3,313.2
		c39.8,94.5,102.7,177.4,192.3,253.4l2.3,1.9l2.3-1.9c89.5-76,152.4-158.8,192.3-253.4C530.1,250.2,547.8,147.7,546.5,26.8z
		 M109.5,337.1V141.3h53.4v295.4c-21-31.7-38.8-64.8-53.4-99.4C109.5,337.2,109.5,337.2,109.5,337.1z M216.4,506.3v-365h53.4v419.9
		C250.6,543.3,232.8,525,216.4,506.3z M323.2,563.3v-422h53.4v367.6C360.2,527.4,342.4,545.6,323.2,563.3z M483.5,342.4
		c-14.7,34-32.4,66.4-53.4,97.6V141.3h53.4V342.4z M535.1,134.2H60.2c-3.2-32.7-4.7-67-4.4-102.9c25.5,6.5,52.3,9.7,79.7,9.7
		c84.2,0,151-27.7,162.2-33.2c11.2,5.5,78,33.2,162.2,33.2c0,0,0,0,0,0c27.4,0,54.2-3.3,79.7-9.7
		C539.8,67.2,538.3,101.5,535.1,134.2z"/>
</g>
</svg>
