<?xml version="1.0" encoding="utf-8"?>
<!-- Generator: Adobe Illustrator 17.0.0, SVG Export Plug-In . SVG Version: 6.00 Build 0)  -->
<!DOCTYPE svg PUBLIC "-//W3C//DTD SVG 1.1//EN" "http://www.w3.org/Graphics/SVG/1.1/DTD/svg11.dtd">
<svg version="1.1" id="Capa_1" xmlns="http://www.w3.org/2000/svg" xmlns:xlink="http://www.w3.org/1999/xlink" x="0px" y="0px"
	 width="595.3px" height="595.3px" viewBox="0 0 595.3 595.3" style="enable-background:new 0 0 595.3 595.3;" xml:space="preserve"
	>
<style type="text/css">
	.st0{fill:#FFFFFF;}
	.st1{fill:#2F9D2D;}
</style>
<g>
	<path class="st0" d="M505.3,8.4l-3.2-8.4l-8.9,0l-19.4,0l-13,0v13c0,0.1,0,0.3,0,0.4c-0.1,25.9-19.6,45.4-45.4,45.4
		c-25.7,0-45.9-19.9-46-45.4c0-0.1,0-0.2,0-0.3L369.4,0h-13.1H239h-13.1l0.1,13.1c0,0.1,0,0.2,0,0.3c-0.1,25.5-20.1,45.4-45.7,45.4
		c-25.6,0-45.6-19.9-45.7-45.4c0-0.1,0-0.2,0-0.3L134.6,0l-13.1,0l-19.4,0l-8.9,0L90,8.4C69.1,63.1,58.5,120.8,58.5,179.8
		c0,42.8,5.6,85.2,16.7,126.1c10.8,39.7,26.7,77.9,47.3,113.6c40.6,70.4,98.8,129.8,168.4,171.7l6.7,4.1l6.7-4.1
		c69.6-42,127.8-101.4,168.4-171.7c20.6-35.7,36.5-73.9,47.3-113.6c11.1-40.9,16.7-83.3,16.7-126.1
		C536.8,120.8,526.2,63.1,505.3,8.4"/>
	<path d="M118.3,214.7c-6.3,0-8.6-5.3-8.6-10.6c0-5.5,2.4-10.9,8.6-10.9c3.5,0,6.5,2.4,6.9,5.5h6.7c-0.8-7.3-6.7-11.4-13.7-11.4
		c-9.8,0-15.6,7.3-15.6,16.7c0,9.1,5.8,16.5,15.6,16.5c7.8,0,13.2-5.1,13.9-13h-6.7C125,211.7,122.6,214.7,118.3,214.7"/>
	<polygon points="144,188.1 137,188.1 137,219.8 159.4,219.8 159.4,213.9 144,213.9 	"/>
	<path d="M183.3,207.8c0,4.7-1.6,6.9-6.6,6.9c-5.6,0-6.5-3.4-6.5-6.9v-19.7h-7v19.7c0,8.6,5,12.7,13.5,12.7
		c8.5,0,13.5-4.2,13.5-12.7v-19.7h-7V207.8z"/>
	<path d="M216.9,202.5c2.8-1.3,4.3-3.5,4.3-6.6c0-5.9-4.1-7.9-10.1-7.9h-14.9v31.7h15.4c5.7,0,11.2-2.8,11.2-9.2
		C222.8,206.6,220.8,203.6,216.9,202.5 M203.2,193.5h6.5c2.5,0,4.8,0.6,4.8,3.6c0,2.7-1.8,3.8-4.3,3.8h-7.1V193.5z M210.6,214.3
		h-7.5v-8.7h7.6c3,0,5,1.3,5,4.5C215.8,213.5,213.4,214.3,210.6,214.3"/>
	<path d="M254,214.7c-6.3,0-8.6-5.3-8.6-10.6c0-5.5,2.4-10.9,8.6-10.9c3.5,0,6.5,2.4,6.9,5.5h6.7c-0.8-7.3-6.7-11.4-13.7-11.4
		c-9.8,0-15.6,7.3-15.6,16.7c0,9.1,5.8,16.5,15.6,16.5c7.8,0,13.2-5.1,13.9-13h-6.7C260.7,211.7,258.3,214.7,254,214.7"/>
	<rect x="272.7" y="188.1" width="7" height="31.7"/>
	<path d="M300.1,188.1h-14.3v31.7h7v-11.4h7.3c7.9,0,11-5,11-10.2C311,193.1,308,188.1,300.1,188.1 M298.2,203h-5.4v-9.5h5.4
		c3.2,0,6.1,0.7,6.1,4.7C304.3,202.3,301.4,203,298.2,203"/>
	<path d="M329.6,187.3c-9.8,0-15.6,7.3-15.6,16.7c0,9.1,5.8,16.5,15.6,16.5c9.8,0,15.6-7.3,15.6-16.5
		C345.2,194.6,339.4,187.3,329.6,187.3 M329.6,214.7c-6.3,0-8.6-5.3-8.6-10.6c0-5.5,2.4-10.9,8.6-10.9c6.3,0,8.6,5.3,8.6,10.9
		C338.2,209.3,335.9,214.7,329.6,214.7"/>
	<polygon points="356.9,188.1 349.9,188.1 349.9,219.8 372.3,219.8 372.3,213.9 356.9,213.9 	"/>
	<polygon points="383.2,188.1 376.2,188.1 376.2,219.8 398.7,219.8 398.7,213.9 383.2,213.9 	"/>
	<polygon points="409.5,206.1 424.9,206.1 424.9,200.7 409.5,200.7 409.5,193.9 426.3,193.9 426.3,188.1 402.6,188.1 402.6,219.8 
		426.6,219.8 426.6,213.9 409.5,213.9 	"/>
	<polygon points="428.8,193.9 438.3,193.9 438.3,219.8 445.3,219.8 445.3,193.9 454.8,193.9 454.8,188.1 428.8,188.1 	"/>
	<polygon points="456,193.9 465.5,193.9 465.5,219.8 472.4,219.8 472.4,193.9 481.9,193.9 481.9,188.1 456,188.1 	"/>
	<rect x="485.6" y="188.1" width="7" height="31.7"/>
	<path d="M266.4,520.9v3.3h5.5v17h4.6v-24.5h-3.4C272.2,520,269.6,520.9,266.4,520.9"/>
	<path d="M289.4,516.6c-5.3,0-6.8,3.2-6.8,9.3c0,5,1.7,7.7,5.5,7.7c2.1,0,2.8-0.8,3.6-1.6v1.6c-0.1,1.5,0.2,4.6-2.4,4.6h-0.2
		c-1.7,0-1.8-1.1-1.8-1.9h-4.2v0.3c0,3.7,2.5,5.2,6,5.2c4.8,0,7-2.1,7-9.9v-5.9v-0.4C296.2,520,294.7,516.6,289.4,516.6
		 M291.7,525.5c0,2,0,4.4-2.3,4.4c-2.1,0-2.2-1.9-2.2-3.5v-2.5c0-2.3,0.2-3.8,2.1-3.8h0.3c1.9,0,2.1,1.9,2.1,4.2V525.5z"/>
	<path d="M309.5,529.6c1.9-1.9,2.9-4,2.9-6.7c0-3.9-2.7-6.3-6.6-6.3h-0.1c-6.7,0-6.8,5.1-6.8,7.4v0.9h4.3v-1c0-0.8,0-1.7,0.4-2.5
		c0.3-0.9,1.2-1.2,2.1-1.2c1.3,0,2.2,0.7,2.2,2.9c0,2.3-0.8,3.1-2.2,4.7l-2.2,2.3c-2.8,3-4,5.2-4.3,6.9c-0.2,1.4-0.4,3.1-0.4,4.1
		H312v-3.6h-8.5c0-1.7,1.4-3.3,2.4-4.2L309.5,529.6z"/>
	<path d="M323.4,524.7c-2.1,0-2.8,0.8-3.6,1.6v-1.6c0.1-1.5-0.2-4.4,2.4-4.6h0.3c0.8,0,1.2,0.3,1.4,0.7c0.2,0.4,0.3,0.9,0.3,1.3h4.2
		v-0.3c0-3.7-2.5-5.2-6-5.2c-4.8,0-7.1,2.1-7.1,9.9v5.9v0.4c0,5.5,1.5,8.9,6.9,8.9c5.3,0,6.8-3.2,6.8-9.3
		C328.9,527.3,327.3,524.7,323.4,524.7 M324.3,534.3c0,2.3-0.2,3.8-2.1,3.8h-0.3c-1.9,0-2.1-1.9-2.1-4.2v-1.1c0-2,0-4.4,2.3-4.4
		c2.1,0,2.2,1.9,2.2,3.5V534.3z"/>
	<path class="st1" d="M454.2,238.2v3.3c0.1-1.1,0.2-2.2,0.3-3.3H454.2z"/>
	<path class="st1" d="M141.1,238.2h-0.3c0.1,1.4,0.2,2.7,0.3,4.1V238.2z"/>
	<path class="st1" d="M336.4,508.2c14.9,8.9,27.9-0.3,39-10.9C360.3,493.8,344.7,491.9,336.4,508.2"/>
	<path class="st1" d="M344.6,492.2c2.3-2.6,3.8-5.7,4.7-9c0.9-3.3,1.3-6.9,1.3-10.6c0-3.7-0.4-7.5-0.9-11.3c-3,2.5-5.9,5-8.5,7.7
		c-2.6,2.7-4.8,5.5-6.4,8.6c-1.6,3-2.5,6.3-2.6,9.8c0,3.5,0.9,7.2,2.9,11.3C339.3,497,342.4,494.8,344.6,492.2"/>
	<path class="st1" d="M365.5,483.9c14.6,7.5,26.3-1.9,36.2-12.6C387.2,469,372.4,468,365.5,483.9"/>
	<path class="st1" d="M363.9,475c3.7-1.8,6.4-4,8.4-6.6c2-2.6,3.2-5.6,3.9-8.8c0.7-3.2,0.8-6.6,0.6-10.1c-0.2-3.5-0.8-7.1-1.5-10.6
		c-2.7,2.5-5.3,5.1-7.5,7.8c-2.3,2.7-4.2,5.5-5.5,8.4c-1.3,3-2,6.1-1.8,9.4C360.6,467.8,361.7,471.3,363.9,475"/>
	<path class="st1" d="M392.1,456.5c14.3,6.1,24.7-3.5,33.3-14.2C411.6,440.9,397.6,441,392.1,456.5"/>
	<path class="st1" d="M390,448.1c3.4-1.9,5.8-4.2,7.5-6.8c1.7-2.6,2.7-5.5,3.1-8.5c0.4-3,0.3-6.3-0.1-9.6c-0.4-3.3-1.2-6.6-2.1-9.9
		c-2.3,2.5-4.6,5.2-6.6,7.8c-2,2.7-3.6,5.5-4.6,8.3c-1,2.9-1.5,5.9-1.1,9C386.4,441.5,387.7,444.8,390,448.1"/>
	<path class="st1" d="M415.9,426.6c13.9,4.8,23.1-5.1,30.5-15.8C433.2,410.6,419.9,411.6,415.9,426.6"/>
	<path class="st1" d="M413.3,418.9c3.1-2,5.2-4.4,6.6-7c1.4-2.6,2.1-5.4,2.3-8.3c0.2-2.9-0.2-6-0.8-9c-0.7-3.1-1.6-6.2-2.7-9.3
		c-2,2.6-4,5.2-5.6,7.9c-1.6,2.7-3,5.4-3.8,8.2c-0.8,2.8-1,5.6-0.4,8.6C409.4,412.9,410.8,415.9,413.3,418.9"/>
	<path class="st1" d="M436.7,395.2c13.6,3.4,21.5-6.6,27.6-17.4C451.8,378.6,439.3,380.7,436.7,395.2"/>
	<path class="st1" d="M433.6,388.1c2.7-2.2,4.6-4.6,5.7-7.1c1.1-2.6,1.6-5.3,1.5-8c-0.1-2.8-0.7-5.6-1.5-8.5
		c-0.9-2.9-2.1-5.7-3.3-8.6c-1.7,2.6-3.4,5.3-4.7,7.9c-1.3,2.7-2.4,5.4-2.9,8.1c-0.5,2.7-0.5,5.4,0.3,8.2
		C429.4,382.8,431,385.5,433.6,388.1"/>
	<path class="st1" d="M454.2,363.1c13.3,2.1,19.9-8.2,24.8-19.1C467,345.9,455.3,349,454.2,363.1"/>
	<path class="st1" d="M450.5,356.6c2.4-2.3,3.9-4.8,4.8-7.3c0.8-2.5,1-5.1,0.7-7.8c-0.3-2.6-1.1-5.3-2.2-8c-1.1-2.7-2.5-5.3-4-7.9
		c-1.4,2.6-2.7,5.3-3.8,8c-1,2.7-1.8,5.3-2,8c-0.2,2.6,0,5.2,1.1,7.8C446.1,351.8,447.9,354.3,450.5,356.6"/>
	<path class="st1" d="M468.2,331c13,0.7,18.3-9.8,21.9-20.7C478.8,313.2,467.8,317.3,468.2,331"/>
	<path class="st1" d="M464,325.1c2.1-2.5,3.3-5,3.9-7.5c0.6-2.5,0.5-5-0.1-7.6c-0.6-2.5-1.6-5-2.9-7.5c-1.3-2.4-2.9-4.8-4.6-7.2
		c-1.1,2.7-2.1,5.4-2.8,8c-0.7,2.7-1.2,5.3-1.2,7.9c0,2.6,0.6,5,1.8,7.4C459.3,320.9,461.2,323.1,464,325.1"/>
	<path class="st1" d="M478.3,299.7c12.7-0.6,16.7-11.4,19.1-22.3C486.8,281.3,476.6,286.4,478.3,299.7"/>
	<path class="st1" d="M473.7,294.4c1.8-2.6,2.7-5.2,3-7.7c0.3-2.5-0.1-4.9-0.9-7.3c-1.6-4.8-5.1-9.2-8.9-13.4
		c-0.8,2.7-1.5,5.4-1.9,8.1c-0.4,2.7-0.6,5.3-0.3,7.7C465.3,286.7,467.8,291.1,473.7,294.4"/>
	<path class="st1" d="M486.2,238.2c-7.4,10.9-13.7,22.5-3.3,34.2C494.5,263.4,491.2,250.3,486.2,238.2"/>
	<path class="st1" d="M219.8,497.3c11.2,10.6,24.2,19.8,39,10.9C250.5,491.9,235,493.8,219.8,497.3"/>
	<path class="st1" d="M254,469c-2.6-2.7-5.5-5.3-8.5-7.7c-0.5,3.8-0.9,7.6-0.9,11.3c0,3.7,0.4,7.3,1.3,10.6c0.9,3.3,2.4,6.4,4.7,9
		c2.3,2.6,5.3,4.8,9.3,6.4c2.1-4.1,3-7.8,2.9-11.3c0-3.5-1-6.7-2.6-9.8C258.8,474.6,256.6,471.7,254,469"/>
	<path class="st1" d="M193.5,471.4c9.9,10.7,21.6,20.1,36.2,12.6C222.9,468,208.1,469,193.5,471.4"/>
	<path class="st1" d="M223,468.4c2,2.6,4.7,4.9,8.4,6.6c2.2-3.7,3.3-7.2,3.4-10.5c0.2-3.3-0.5-6.4-1.8-9.4c-1.3-3-3.2-5.8-5.5-8.4
		c-2.3-2.7-4.9-5.3-7.5-7.8c-0.7,3.5-1.3,7.1-1.5,10.6c-0.2,3.5-0.1,6.9,0.6,10.1C219.8,462.8,221,465.8,223,468.4"/>
	<path class="st1" d="M203.1,456.5c-5.4-15.4-19.4-15.5-33.3-14.2C178.4,453,188.9,462.6,203.1,456.5"/>
	<path class="st1" d="M197.8,441.3c1.7,2.6,4.1,4.9,7.5,6.8c2.3-3.4,3.6-6.6,3.9-9.7c0.4-3.1-0.1-6.1-1.1-9c-1-2.9-2.7-5.6-4.6-8.3
		c-2-2.7-4.2-5.3-6.6-7.8c-0.9,3.3-1.7,6.7-2.1,9.9c-0.4,3.3-0.6,6.5-0.1,9.6C195.1,435.9,196.1,438.8,197.8,441.3"/>
	<path class="st1" d="M179.3,426.6c-4-15-17.2-16.1-30.5-15.8C156.2,421.6,165.4,431.4,179.3,426.6"/>
	<path class="st1" d="M175.4,411.9c1.4,2.6,3.5,4.9,6.6,7c2.5-3,3.9-6,4.4-8.9c0.6-2.9,0.4-5.8-0.4-8.6c-0.8-2.8-2.1-5.5-3.8-8.2
		c-1.6-2.7-3.6-5.3-5.6-7.9c-1.1,3.1-2.1,6.2-2.7,9.3c-0.7,3.1-1,6.1-0.8,9C173.3,406.6,174,409.4,175.4,411.9"/>
	<path class="st1" d="M158.6,395.2c-2.5-14.5-15-16.6-27.6-17.4C137,388.6,144.9,398.7,158.6,395.2"/>
	<path class="st1" d="M161.7,388.1c2.6-2.7,4.1-5.4,4.9-8.1c0.8-2.7,0.9-5.4,0.3-8.2c-0.5-2.7-1.5-5.4-2.9-8.1
		c-1.3-2.7-3-5.3-4.7-7.9c-1.3,2.8-2.5,5.7-3.3,8.6c-0.9,2.9-1.5,5.7-1.5,8.5c-0.1,2.8,0.4,5.5,1.5,8
		C157.1,383.5,159,385.9,161.7,388.1"/>
	<path class="st1" d="M141.1,363.1c-1.1-14.1-12.8-17.2-24.8-19.1C121.1,354.9,127.8,365.2,141.1,363.1"/>
	<path class="st1" d="M144.7,356.6c2.7-2.3,4.4-4.7,5.5-7.2c1-2.5,1.3-5.1,1.1-7.8c-0.2-2.6-1-5.3-2-8c-1-2.7-2.4-5.3-3.8-8
		c-1.5,2.6-2.9,5.2-4,7.9c-1.1,2.7-1.9,5.3-2.2,8c-0.3,2.6-0.2,5.3,0.7,7.8C140.8,351.8,142.3,354.3,144.7,356.6"/>
	<path class="st1" d="M127.1,331c0.3-13.7-10.6-17.8-21.9-20.7C108.8,321.1,114.1,331.7,127.1,331"/>
	<path class="st1" d="M127.5,310c-0.6,2.5-0.7,5-0.1,7.6c0.6,2.5,1.8,5,3.9,7.5c2.8-2,4.7-4.1,5.9-6.4c1.2-2.3,1.8-4.8,1.8-7.4
		c0-2.5-0.4-5.2-1.2-7.8c-0.7-2.7-1.7-5.4-2.8-8c-1.7,2.3-3.3,4.7-4.6,7.2C129.1,305,128.1,307.5,127.5,310"/>
	<path class="st1" d="M116.9,299.7c1.8-13.2-8.4-18.3-19.1-22.3C100.2,288.2,104.3,299,116.9,299.7"/>
	<path class="st1" d="M121.6,294.4c5.9-3.2,8.4-7.6,9-12.6c0.3-2.5,0.1-5.1-0.3-7.7c-0.4-2.7-1.1-5.4-1.9-8.1
		c-3.8,4.2-7.2,8.7-8.9,13.4c-0.8,2.4-1.2,4.8-0.9,7.3C118.9,289.2,119.8,291.8,121.6,294.4"/>
	<path class="st1" d="M112.4,272.4c10.4-11.6,4.1-23.3-3.3-34.2C104.1,250.3,100.8,263.4,112.4,272.4"/>
	<path d="M501.6,9.9l-2.2-5.8l-6.3,0l-19.4,0l-9.1,0v9.1c0,0.1,0,0.2,0,0.3c-0.1,28.1-21.2,49.3-49.3,49.3
		c-27.9,0-49.8-21.7-49.9-49.3c0-0.1,0-0.2,0-0.3l0-9.2h-9.2H239h-9.2l0,9.2c0,0.1,0,0.2,0,0.3c-0.1,27.7-21.8,49.3-49.6,49.3
		c-27.8,0-49.5-21.7-49.6-49.3c0-0.1,0-0.2,0-0.3l0-9.2l-9.2,0l-19.4,0l-6.3,0l-2.2,5.8c-20.7,54.2-31.3,111.5-31.3,170
		c0,42.4,5.6,84.5,16.6,125.1c10.7,39.3,26.4,77.2,46.9,112.6c40.3,69.8,98,128.7,167.1,170.4l4.7,2.8l4.7-2.8
		c69-41.7,126.8-100.6,167.1-170.4c20.4-35.4,36.2-73.3,46.9-112.6c11-40.6,16.6-82.6,16.6-125.1C532.9,121.4,522.4,64.2,501.6,9.9
		 M235.8,32.7l42.3,0l0,29.4h-64.9C223.7,55.2,231.7,44.9,235.8,32.7 M95.1,32.9h29.6c4.2,12.1,12.1,22.3,22.5,29.2H86.5
		C89.1,52.3,92,42.5,95.1,32.9 M78.1,101.2h199.9v29.3l-203.9,0C75.2,120.7,76.5,110.9,78.1,101.2 M297.6,580.2
		C162.1,498.4,71.5,349.7,71.5,179.9c0-3.4,0-6.8,0.1-10.2l206.4,0v0h39.2V13.1h29.3v156.6h39.2V64.2c8.6,4.8,18.6,7.6,29.3,7.7
		v97.8h39.2V57.5v0c0,0,0,0,0.1-0.1c12-10.6,19.5-26.3,19.5-44.1c0-0.1,0-0.1,0-0.2l9.8,0v156.6l40.1,0c0.1,3.4,0.1,6.8,0.1,10.2
		C523.8,349.7,433.1,498.4,297.6,580.2"/>
	<path d="M346.5,445.8c14.2-12.9,27.4-27.1,39.2-42.3V238.1h-39.2L346.5,445.8z"/>
	<path d="M415,358.2c19.8-36.4,33.8-77,39.2-120.1H415V358.2z"/>
	<path d="M180.3,358.3V238.1h-39.2C146.5,281.2,160.5,321.9,180.3,358.3"/>
	<path d="M278.1,468.8c6.6,4.8,13.3,9.3,20.3,13.6v0c6.4-3.9,12.6-8.1,18.8-12.5l0.1-231.8h-39.2L278.1,468.8z"/>
	<path d="M209.6,403c11.8,15.3,25,29.5,39.2,42.4l0-207.3h-39.2V403z"/>
</g>
</svg>
