<?xml version="1.0" encoding="utf-8"?>
<!-- Generator: Adobe Illustrator 17.0.0, SVG Export Plug-In . SVG Version: 6.00 Build 0)  -->
<!DOCTYPE svg PUBLIC "-//W3C//DTD SVG 1.1//EN" "http://www.w3.org/Graphics/SVG/1.1/DTD/svg11.dtd">
<svg version="1.1" id="Layer_1" xmlns="http://www.w3.org/2000/svg" xmlns:xlink="http://www.w3.org/1999/xlink" x="0px" y="0px"
	 width="595.3px" height="595.3px" viewBox="0 0 595.3 595.3" enable-background="new 0 0 595.3 595.3" xml:space="preserve">
<g>
	<path fill-rule="evenodd" clip-rule="evenodd" fill="#FAF202" d="M246.858,21.192c15.419,3.465,32.402,5.515,51.607,5.516
		c19.204-0.001,36.189-2.054,51.608-5.516c15.159-3.403,28.852-8.197,41.689-13.762c5.981-2.957,13.324-0.842,16.773,4.996
		c8.041,13.589,17.659,24.101,29.372,31.013c11.543,6.811,25.434,10.308,42.225,10.025c0.993-0.054,2.007,0.007,3.028,0.194
		c6.981,1.279,11.603,7.976,10.324,14.958c-5.699,30.816-6.335,63.117-1.236,95.764c4.861,31.125,14.964,62.644,30.888,93.58
		l-0.016,0.007c0.918,1.776,1.434,3.795,1.427,5.934c-0.028,7.092-5.801,12.819-12.893,12.792
		c-11.748-0.077-20.047,0.397-24.775,2.498c-2.101,0.934-3.356,2.948-3.927,6.587c0.336,2.587,2.235,4.692,4.937,6.378
		c6.547,4.08,16.664,5.983,25.906,6.653l-0.003,0.031c6.606,0.459,11.86,5.923,11.938,12.661c0.311,21.556,0.454,50.742-5.88,81.288
		c-6.515,31.424-19.784,63.959-46.397,90.787c-21.077,21.248-52.584,33.432-83.427,45.359c-35.944,13.9-70.868,27.411-79.184,52.511
		c-1.129,4.01-4.182,7.395-8.445,8.763c-6.758,2.169-13.997-1.551-16.165-8.309c-8.195-25.491-43.237-39.025-79.313-52.958
		c-30.815-11.899-62.305-24.06-83.438-45.365c-26.613-26.828-39.881-59.363-46.397-90.787c-6.252-30.145-6.193-58.965-5.892-80.435
		c-0.384-7.004,4.924-13.05,11.947-13.544c9.243-0.67,19.359-2.573,25.906-6.653c2.702-1.685,4.6-3.79,4.937-6.378
		c-0.571-3.64-1.825-5.653-3.927-6.587c-4.631-2.058-12.688-2.555-24.055-2.502c-2.233,0.135-4.531-0.308-6.663-1.407
		c-6.314-3.252-8.793-11.01-5.54-17.322c15.923-30.937,26.025-62.455,30.888-93.58c5.099-32.647,4.463-64.948-1.236-95.764
		l0.005-0.002c-0.152-0.832-0.223-1.689-0.206-2.567c0.138-7.091,6.001-12.729,13.093-12.59
		c16.998,0.354,31.036-3.144,42.684-10.018c11.712-6.911,21.33-17.424,29.371-31.013l0.012,0.007
		c3.251-5.517,10.185-7.868,16.204-5.245C217.609,12.856,231.479,17.739,246.858,21.192z"/>
	<g>
		<path fill-rule="evenodd" clip-rule="evenodd" fill="#070606" d="M298.465,39.543c-40.51-0.005-71.637-8.649-98.989-20.577
			c-18.268,30.872-44.348,48.141-83.387,47.326c11.625,62.842,3.077,131.619-30.861,197.553c26.931-0.178,39.355,2.76,41.649,21.102
			c-0.013,18.807-23.458,25.291-42.834,26.699c-0.605,41.886-0.568,113.344,48.55,162.859
			c44.578,44.939,148.162,48.364,165.873,103.46c17.48-54.927,121.401-58.633,165.87-103.46
			c49.117-49.516,49.155-120.973,48.55-162.859c-19.376-1.408-42.821-7.892-42.834-26.699c2.293-18.342,14.718-21.28,41.648-21.102
			c-33.937-65.934-42.485-134.711-30.86-197.553c-39.039,0.815-65.118-16.453-83.387-47.326
			C370.102,30.894,338.974,39.538,298.465,39.543L298.465,39.543z M298.466,173.01c-9.918,0-19.566,1.156-28.82,3.332V49.931
			c9.045,0.926,18.619,1.414,28.819,1.415c10.881-0.001,21.049-0.556,30.624-1.608v127.044
			C319.288,174.323,309.03,173.01,298.466,173.01L298.466,173.01z M386.761,209.35V35.484c1.917-0.771,3.812-1.566,5.688-2.384
			c15.195,21.633,31.371,34.662,54.247,40.907v400.197c-16.886,13.883-38.408,23.139-59.935,31.306V387.58
			c22.945-22.733,37.159-54.262,37.159-89.114C423.92,263.613,409.706,232.085,386.761,209.35L386.761,209.35z M329.089,420.147
			v108.877c-13.771,7.409-24.757,16.267-30.622,28.356c-5.404-11.966-15.736-20.835-28.821-28.212V420.589
			c9.254,2.175,18.901,3.331,28.82,3.331C309.03,423.92,319.287,422.607,329.089,420.147L329.089,420.147z M211.974,389.339v116.081
			c-21.002-7.77-42.072-16.342-58.786-28.966V73.13c21.508-6.651,36.705-19.671,51.294-40.031c2.463,1.075,4.96,2.109,7.492,3.103
			v171.39c-24.003,22.852-38.963,55.117-38.963,90.874S187.973,366.487,211.974,389.339L211.974,389.339z M298.466,188.235
			c60.878,0,110.23,49.352,110.23,110.23c0,60.879-49.352,110.23-110.23,110.23c-60.879,0-110.23-49.351-110.23-110.23
			C188.235,237.587,237.586,188.235,298.466,188.235z"/>
	</g>
	<path fill-rule="evenodd" clip-rule="evenodd" fill="#070606" d="M297.555,196.685c31.744,0,60.081,14.579,78.687,37.403
		c2.86,3.512-3.85,9.321-7.049,6.07c-16.9-20.846-42.712-34.172-71.639-34.172c-34.27,0-64.17,18.704-80.056,46.457h94.992v0.223
		h70.629c4.622,0.202,4.746,9.706-0.115,9.318H212.749h-10.026C217.298,223.804,254.257,196.685,297.555,196.685L297.555,196.685z
		 M366.199,367.276v-93.273c0.061-5.64,8.891-6.692,16.685-6.662c13.58,0.052,17.848,1.517,17.767,7.32
		c2.51,33.29,2.572,67.637-26.984,93.233C369.378,371.607,366.183,369.082,366.199,367.276L366.199,367.276z M374.92,353.249
		c15.531-14.637,19.38-45.569,17.702-72.563c-0.478-3.88-3.495-4.563-9.531-4.424c-5.238,0.12-8.132,0.604-8.171,4.534V353.249
		L374.92,353.249z M342.456,339.471v50.176c0,1.483-3.496,3.34-5.142,3.34c-1.645,0-4.496-1.67-4.496-3.34V281.382
		c0-7.59,0.989-14.449,16.011-14.022c16.211,0.083,14.34,6.699,15.114,14.475v45.925c-0.752,8.695-7.413,11.826-15.478,11.71
		C346.891,339.471,344.03,339.471,342.456,339.471L342.456,339.471z M348.703,276.219c-3.401,0-6.182,0.847-6.182,4.248v48.848
		c6.182-0.119,12.365,1.503,12.365-5.274v-43.574C354.887,276.899,351.831,276.219,348.703,276.219L348.703,276.219z
		 M230.731,367.276v-93.273c-0.062-5.64-8.892-6.692-16.685-6.662c-13.58,0.052-17.849,1.517-17.767,7.32
		c-2.51,33.29-2.573,67.637,26.984,93.233C227.552,371.607,230.747,369.082,230.731,367.276L230.731,367.276z M222.01,353.249
		c-15.532-14.637-19.38-45.569-17.703-72.563c0.479-3.88,3.495-4.563,9.531-4.424c5.238,0.12,8.133,0.604,8.172,4.534V353.249
		L222.01,353.249z M256.653,267.34L256.653,267.34c2.836,0,5.157,2.32,5.157,5.158v93.162c0,2.836-2.321,5.156-5.157,5.156l0,0
		c-2.836,0-5.157-2.32-5.157-5.156v-93.162C251.496,269.661,253.816,267.34,256.653,267.34L256.653,267.34z M262.979,384.667
		c-3.517-1.004-11.014-4.643-15.79-8.816c-2.5-2.188-1.788-2.537-1.788-5.874c0-32.493,0-64.987,0-97.479
		c0-2.822-2.333-5.158-5.156-5.158c-2.836,0-5.157,2.32-5.157,5.158v103.475c0,6.461,20.338,16.549,25.165,17.94
		C266.325,395.6,268.412,386.435,262.979,384.667L262.979,384.667z M329.496,272.231v121.32c-0.709,6.46-10.178,5.797-11.029-0.614
		l0.395-71.883l-13.423,73.603c-0.283,1.07-1.222,2.043-2.414,2.657c-2.344,1.208-5.188,1.184-7.527-0.017
		c-1.237-0.64-2.051-1.56-2.306-2.581l-13.531-74.946v73.991c-2.164,6.25-10.293,5.607-11.674,0V272.44
		c-0.001-6.106,11.817-7.049,13.602-1.081l17.964,100.047l17.108-98.795C317.529,266.212,328.787,265.84,329.496,272.231z"/>
</g>
</svg>
