<?xml version="1.0" encoding="utf-8"?>
<!-- Generator: Adobe Illustrator 17.0.0, SVG Export Plug-In . SVG Version: 6.00 Build 0)  -->
<!DOCTYPE svg PUBLIC "-//W3C//DTD SVG 1.1//EN" "http://www.w3.org/Graphics/SVG/1.1/DTD/svg11.dtd">
<svg version="1.1" id="Capa_1" xmlns="http://www.w3.org/2000/svg" xmlns:xlink="http://www.w3.org/1999/xlink" x="0px" y="0px"
	 width="595.3px" height="595.3px" viewBox="0 0 595.3 595.3" enable-background="new 0 0 595.3 595.3" xml:space="preserve">
<g>
	<path fill-rule="evenodd" clip-rule="evenodd" fill="#23388F" d="M519.485,369.599V110.897
		C448.453,119.795,402.189,84.56,380.396,5.277c-0.181-0.273-0.181-0.737-0.181-1.2c-0.284,0.463-0.284,0.927-0.465,1.2
		c-3.519,8.163-11.037,15.397-22.714,21.978c-1.207,0.742-2.325,1.395-3.525,2.135c-15.582,7.605-34.13,11.589-55.362,11.589
		c-21.232,0-39.959-3.984-55.628-11.589c-1.114-0.74-2.506-1.393-3.708-2.135c-11.411-6.581-18.736-13.815-22.166-21.978
		c-0.274-0.273-0.274-0.737-0.274-0.923c-0.187,0.186-0.187,0.649-0.187,0.923C194.669,84.56,148.399,119.795,77.285,110.897
		v258.703c3.525,79.187,47.934,138.991,133.522,178.957c17.057,9.18,35.698,15.207,56.468,18.451
		c10.29,1.948,20.582,10.107,31.154,24.85c10.487-14.743,20.77-22.903,30.969-24.85c20.866-3.244,39.599-9.271,56.656-18.451
		C471.549,508.59,515.964,448.787,519.485,369.599L519.485,369.599z"/>
	<path fill-rule="evenodd" clip-rule="evenodd" fill="#FFCC00" d="M505.483,369.134V126.288
		c-62.865,3.058-106.637-28.001-130.916-93.465c-3.256,2.128-6.781,4.45-10.48,6.579c-0.286,0-0.286,0-0.286,0.19
		c-1.108,0.74-2.325,1.201-3.435,1.852c-0.271,0-0.456,0-0.456,0.276c-17.345,8.904-37.926,13.354-61.76,13.354
		c-23.825,0-44.409-4.45-61.938-13.354l0.283,0.186c-1.67-0.928-3.247-1.855-4.733-2.504h0.28c-3.706-2.129-7.05-4.267-10.012-6.303
		c-24.111,65.187-67.783,96.247-130.651,93.188v242.846c1.111,24.762,6.768,47.382,16.597,68.245
		c1.574,2.965,3.245,6.309,4.915,9.363c19.099,34.307,50.905,62.588,95.32,85.032c2.78,1.392,5.564,2.777,8.623,4.174
		c0.278,0,0.466,0,0.744,0.274c15.67,8.347,32.914,14.002,51.835,17.058c0.271,0,0.271,0,0.461,0
		c9.64,1.39,18.913,6.961,28.555,16.598c9.556-9.637,18.92-15.208,28.472-16.598c0.185,0,0.185,0,0.467,0
		c18.909-3.056,36.433-8.711,52.105-17.058c0.277-0.274,0.458-0.274,0.742-0.274C460.14,498.299,501.965,442.753,505.483,369.134
		L505.483,369.134z"/>
	<path fill-rule="evenodd" clip-rule="evenodd" fill="#23388F" d="M485.357,135.376c3.529,0.275,7.052,0.275,10.764,0.556v232.742
		c0,0,0,0.184,0,0.46c-3.987,69.824-43.95,122.676-119.889,158.467c-0.28,0-0.28,0-0.473,0c-0.271,0-0.271,0-0.271,0.276
		c-0.185,0-0.185,0-0.471,0.186c-14.651,7.7-31.058,13.076-49.041,15.853c-0.477,0-0.931,0-1.215,0.19
		c-8.801,1.204-17.707,5.66-26.332,13.162c-8.711-7.503-17.527-11.958-26.423-13.162c-0.283-0.19-0.743-0.19-1.206-0.19
		c-17.993-2.777-34.12-8.153-48.772-15.853l56.744-84.658c0.186,0,0.741,0,1.39,0.283c6.119,0.646,12.426,0.924,18.915,0.924
		c6.766,0,13.536-0.466,19.836-1.207c4.912-0.653,9.564-1.394,14.098-2.319c26.897-6.119,50.91-19.652,71.685-40.429
		c29.209-29.207,43.952-64.255,43.952-105.611c0-27.818-6.495-53.04-19.849-75.292L485.357,135.376L485.357,135.376z"/>
	<path fill-rule="evenodd" clip-rule="evenodd" fill="#23388F" d="M232.222,50.344c0.47,0.281,1.026,0.281,1.672,0.465
		c17.991,8.901,39.499,13.352,64.256,13.537c25.497,0,47.475-4.636,65.937-14.185c0.174-0.278,0.454-0.278,0.63-0.466
		c1.213-0.736,2.613-1.479,3.811-2.131c0.469-0.277,0.927-0.463,1.583-0.743l-66.3,98.847c-1.669-0.186-3.065-0.186-4.731-0.186
		c-41.355,0-76.591,14.466-105.798,43.674c-29.208,29.209-43.768,64.535-43.768,105.891c0,22.159,4.267,42.841,12.889,61.478
		l-48.122,71.491c-7.697-17.989-12.426-37.644-13.541-58.881V135.932c58.609-0.281,100.423-29.766,125.644-88.832
		c0.28,0,0.28,0,0.465,0.186c0,0,0,0,0.277,0.277c0,0,0,0,0.277,0C228.983,48.494,230.65,49.419,232.222,50.344L232.222,50.344z"/>
	<path fill-rule="evenodd" clip-rule="evenodd" fill="#FF1100" d="M417.304,219.293c1.211,1.664,2.131,3.519,3.336,5.377
		c12.339,20.861,18.634,44.413,18.634,70.377c0,38.575-13.715,71.767-41.072,99.032c-18.905,19.007-40.698,31.619-65.188,37.459
		c-4.534,1.109-9.186,1.852-14.098,2.504c-6.299,0.744-13.07,1.202-19.836,1.202c-6.027,0-12.144-0.276-17.991-0.925
		c-0.187,0-0.187,0-0.461,0c-0.186-0.277-0.463-0.277-0.646-0.277c-2.139-0.184-3.989-0.467-5.841-0.653l-60.83,90.408
		c-44.881-22.156-76.405-50.905-94.394-85.959l54.244-80.667l-0.276-0.184c-0.651-1.389-1.114-2.877-1.857-4.262
		c-0.186-0.194-0.186-0.194-0.186-0.468c0,0-2.133-4.45-6.122-12.976c-3.984-8.721-5.836-23.464-5.836-44.236
		c0-38.573,13.537-71.771,40.888-99.124l0.188-0.183c27.443-27.356,60.547-40.89,99.12-40.89c1.391,0,2.785,0,4.269,0.184
		c0.181,0,0.181,0,0.462,0h0.185c1.671,0,3.058,0,4.452,0.278l66.119-98.568c22.247,45.53,55.437,71.399,100.038,77.706
		L417.304,219.293L417.304,219.293z"/>
	<path fill-rule="evenodd" clip-rule="evenodd" fill="#FFCC00" d="M295.096,201.764v-14.001
		c-27.82,0.742-51.837,11.219-71.955,31.062l-0.186,0.28c-20.864,21.049-31.341,46.274-31.341,75.942
		c-0.283,15.667,2.78,29.856,8.626,43.305c0.181,0,0.181,0.184,0.181,0.463c0,0.182,0,0.182,0.278,0.468
		c0.188,0.183,0.188,0.458,0.465,0.643c0,0,0,0,0,0.283c0.186,0.645,0.648,1.109,0.927,1.848c0.185,0.658,0.646,1.585,0.929,2.322
		c4.909,9.549,11.683,18.168,19.935,26.331l0.186,0.275c17.058,17.064,37.18,27.356,60.087,30.604c0.185,0,0.646,0,0.924,0
		c0.651,0.277,1.669,0.277,2.599,0.466c0,0,0.186,0,0.461,0c2.507,0.277,5.101,0.277,7.884,0.463v-14.008
		c-2.321-0.275-4.639-0.275-6.768-0.461c-0.932-0.281-1.857-0.281-2.787-0.281h0.469c-0.189-0.183-0.652-0.183-0.931-0.183
		c-19.841-2.778-37.186-11.688-52.106-26.612v0.191l-0.28-0.191h0.28c-7.236-7.046-12.894-14.557-17.343-22.621
		c-0.184-0.747-0.651-1.48-0.926-2.227v-0.182c-0.186-0.282-0.186-0.744-0.463-0.936c0-0.275,0-0.275,0-0.458
		c-0.186-0.742-0.653-1.211-0.928-1.671c-0.187-0.183-0.187-0.463-0.461-0.645c0,0,0,0-0.186-0.279c0-0.19,0-0.19,0-0.466
		l0.46,0.926c-3.983-9.084-6.582-18.912-7.23-29.391c0,0,0-0.747-0.281-2.138c0-1.201,0-3.058,0-5.652v-0.187
		c0-25.963,9.089-47.939,27.358-66.111C250.215,211.595,271.074,202.506,295.096,201.764L295.096,201.764z"/>
	<path fill-rule="evenodd" clip-rule="evenodd" fill="#FFCC00" d="M295.096,225.131c-4.915,0.278-9.556,0.927-14.007,2.132
		c-11.676,3.062-22.158,9.087-31.337,18.267c-12.149,12.148-18.915,26.61-20.03,43.394c-0.276,2.137-0.466,3.99-0.276,6.122
		c-0.189,2.596,0,5.375,0.276,7.977c1.576,14.929,7.419,28.007,17.711,39.22l8.439-11.683c-6.767-8.164-10.755-17.242-11.964-27.538
		h37.18v38.565h14.007V225.131L295.096,225.131z M281.089,241.728v47.196h-37.364c1.203-12.795,6.49-24.015,16.133-33.659
		C266.164,248.961,273.119,244.326,281.089,241.728L281.089,241.728z"/>
	<path fill-rule="evenodd" clip-rule="evenodd" fill="#FFCC00" d="M387.635,234.035c-3.712-5.38-7.884-10.294-12.618-14.93
		c-12.324-12.427-26.338-21.329-42.004-26.427c-4.534-1.39-9.186-2.598-14.098-3.523v211.78c4.912-1.016,9.564-2.126,14.098-3.519
		c15.666-4.915,29.68-13.823,42.004-26.242l0.286-0.19c3.701-3.983,7.237-7.694,10.287-11.671l-11.685-7.98
		c-2.594,3.335-5.65,6.582-8.713,9.639c0,0.191,0,0.191-0.181,0.191c-9.646,9.545-20.318,16.871-31.998,21.228V207.612
		c11.681,4.443,22.352,11.68,31.998,21.323c5.099,5.099,9.556,10.473,13.537,16.316L387.635,234.035L387.635,234.035z"/>
</g>
</svg>
