<?xml version="1.0" encoding="utf-8"?>
<!-- Generator: Adobe Illustrator 17.0.0, SVG Export Plug-In . SVG Version: 6.00 Build 0)  -->
<!DOCTYPE svg PUBLIC "-//W3C//DTD SVG 1.1//EN" "http://www.w3.org/Graphics/SVG/1.1/DTD/svg11.dtd">
<svg version="1.1" id="Layer_1" xmlns="http://www.w3.org/2000/svg" xmlns:xlink="http://www.w3.org/1999/xlink" x="0px" y="0px"
	 width="595.3px" height="595.3px" viewBox="0 0 595.3 595.3" enable-background="new 0 0 595.3 595.3" xml:space="preserve">
<g>
	<path fill-rule="evenodd" clip-rule="evenodd" fill="#F20000" d="M130.22,108.64c0,0.919,0,1.514,0,2.109
		c0.054,2.812,0.162,5.569,0.216,8.381c0.378,17.248,0.757,34.496,1.135,51.744c0.324,17.681,0.703,35.361,1.081,53.041
		c0.324,16.275,0.649,32.549,1.027,48.77c0.379,18.437,0.757,36.821,1.19,55.258c0.324,16.437,0.649,32.874,1.027,49.311
		c0.324,17.572,0.703,35.199,1.081,52.771c0.27,12.868,0.487,25.737,0.757,38.551c0.108,3.785,0.487,7.57,1.568,11.192
		c2.379,8.218,7.57,13.679,15.788,16.275c3.082,0.973,6.272,1.514,9.516,1.676c4.38,0.27,8.759,0.378,13.193,0.757
		c6.164,0.487,12.328,0.973,18.492,1.784c7.948,1.027,15.842,2.271,23.736,3.623c10.922,1.892,21.79,4.38,32.495,7.516
		c17.897,5.353,33.631,14.328,46.661,27.899c0.432,0.433,0.865,0.865,1.46,1.352c0.432-0.433,0.865-0.757,1.19-1.135
		c2.217-2.109,4.326-4.38,6.596-6.434c10.543-9.516,22.763-16.167,36.226-20.654c9.895-3.244,20.114-5.407,30.333-7.516
		c8.272-1.676,16.599-3.028,24.98-4.109c5.353-0.703,10.706-1.352,16.058-1.784c6.596-0.541,13.247-0.865,19.897-1.298
		c3.947-0.27,7.84-0.973,11.517-2.487c5.407-2.163,9.462-5.839,11.949-11.138c0.703-1.514,1.298-3.136,1.784-4.758
		c1.081-3.623,1.46-7.407,1.568-11.192c0.324-14.977,0.649-30.008,0.973-44.985c0.324-17.41,0.703-34.874,1.081-52.284
		c0.378-17.356,0.757-34.658,1.081-51.96c0.379-17.464,0.757-34.874,1.135-52.284c0.324-16.383,0.649-32.712,0.973-49.04
		c0.433-21.411,0.865-42.768,1.352-64.125c0.27-14.22,0.595-28.386,0.919-42.606c0-0.703-0.108-1.352-0.162-2.109
		c-0.757-0.162-1.352-0.324-2.001-0.379c-6.704-1.027-13.463-2.055-20.222-3.028c-5.082-0.703-10.165-1.352-15.247-1.946
		c-6.596-0.811-13.193-1.622-19.789-2.325c-6.704-0.703-13.463-1.19-20.168-1.838c-10.597-1.081-21.303-1.893-31.955-2.379
		c-13.355-0.703-26.764-1.243-40.119-1.568c-24.98-0.595-49.96-0.108-74.885,1.081c-3.46,0.162-6.867,0.324-10.219,0.541
		c-8.975,0.649-17.951,1.298-26.926,2.055c-4.434,0.324-8.921,0.649-13.409,1.135c-8.759,0.973-17.464,2.001-26.223,3.028
		c-10.976,1.244-21.898,2.812-32.82,4.542C134.221,107.937,132.382,108.262,130.22,108.64z M130.22,108.64L130.22,108.64
		L130.22,108.64z M100.536,83.877c3.514-0.541,6.65-1.081,9.84-1.622c8.327-1.352,16.653-2.812,24.98-4.109
		c6.867-1.081,13.734-2,20.546-2.92c6.542-0.865,13.031-1.676,19.519-2.433c5.894-0.703,11.787-1.352,17.68-1.892
		c7.624-0.757,15.247-1.406,22.871-2.055c2.866-0.27,5.731-0.433,8.597-0.595c15.68-1.081,31.414-1.784,47.094-2.163
		c15.518-0.324,31.09-0.432,46.607-0.108c12.49,0.324,24.98,0.649,37.47,1.244c11.354,0.595,22.763,1.514,34.117,2.379
		c6.921,0.541,13.842,1.136,20.708,1.838c8.489,0.865,16.978,1.892,25.412,2.866c6.164,0.757,12.328,1.514,18.437,2.433
		c9.949,1.46,19.897,3.028,29.846,4.596c4.704,0.757,9.408,1.514,14.112,2.325c0.432,0.054,0.865,0.162,1.46,0.324
		c0.054,0.649,0.162,1.352,0.162,2.001c-0.162,8.435-0.324,16.924-0.541,25.358c-0.432,21.357-0.865,42.768-1.298,64.125
		c-0.487,24.061-0.973,48.121-1.514,72.236c-0.324,17.41-0.703,34.82-1.081,52.231c-0.378,17.356-0.757,34.712-1.081,52.014
		c-0.379,17.464-0.757,34.874-1.136,52.284c-0.324,16.437-0.649,32.874-1.027,49.311c-0.108,5.948-0.216,11.895-0.432,17.789
		c-0.27,6.975-1.244,13.788-3.244,20.438c-2.271,7.516-5.839,14.328-11.3,20.005c-4.812,5.028-10.652,8.489-17.14,10.922
		c-5.515,2.001-11.192,3.244-17.032,3.785c-4.758,0.432-9.516,0.595-14.274,0.865c-9.138,0.541-18.221,1.46-27.359,2.703
		c-10.219,1.406-20.384,3.244-30.441,5.569c-6.218,1.406-12.436,2.812-18.438,4.974c-10.651,3.839-20.168,9.516-28.062,17.68
		c-4.109,4.163-7.462,8.921-10.435,14.004c-3.785,6.434-7.57,12.814-11.409,19.248c-0.27,0.433-0.595,0.865-1.027,1.46
		c-0.432-0.487-0.811-0.865-1.081-1.298c-4.055-6.11-8.218-12.165-12.111-18.438c-10.868-17.464-26.277-28.764-45.958-34.334
		c-9.354-2.649-18.87-4.596-28.386-6.434c-8.381-1.622-16.815-2.812-25.304-3.677c-8.218-0.865-16.437-1.676-24.709-1.838
		c-7.407-0.108-14.707-1.244-21.79-3.515c-15.626-5.028-25.683-15.572-30.549-31.144c-2.163-6.921-3.082-14.058-3.298-21.249
		c-0.379-17.356-0.703-34.712-1.081-52.014c-0.433-20.33-0.865-40.606-1.244-60.935c-0.324-16.329-0.703-32.658-1.027-49.04
		c-0.378-17.572-0.757-35.199-1.135-52.771c-0.324-17.086-0.703-34.117-1.081-51.203c-0.379-17.681-0.703-35.361-1.081-53.095
		c-0.378-17.248-0.757-34.496-1.135-51.744c-0.108-4.758-0.216-9.516-0.27-14.274C100.428,85.391,100.536,84.742,100.536,83.877z
		 M100.536,83.877L100.536,83.877L100.536,83.877z M218.73,32.89c0,3.569-2.433,6.38-6.002,6.759
		c-1.406,0.162-2.866,0.216-4.271,0.324c-8.813,0.595-17.572,1.081-26.386,1.892c-12.652,1.19-25.304,2.595-38.01,4.055
		c-8.705,1.027-17.464,2.217-26.115,3.46c-6.704,0.973-13.301,2.163-19.951,3.352c-2.109,0.378-3.893,0-5.569-1.298
		c-2.163-1.568-2.974-3.785-2.649-6.38c0.432-2.595,1.892-4.434,4.434-5.299c0.811-0.324,1.73-0.487,2.595-0.595
		c6.759-1.136,13.463-2.271,20.222-3.298c7.029-1.081,14.058-2.109,21.087-3.028c7.191-0.919,14.436-1.676,21.628-2.433
		c3.839-0.433,7.678-0.865,11.517-1.244c5.947-0.541,11.841-1.081,17.734-1.514c6.542-0.541,13.085-0.919,19.627-1.406
		c1.244-0.054,2.487-0.162,3.785-0.054C216.189,26.402,218.892,29.538,218.73,32.89z M218.73,32.89L218.73,32.89L218.73,32.89z
		 M386.397,26.185c5.461,0.378,11.354,0.757,17.302,1.19c3.19,0.216,6.434,0.487,9.624,0.757c8.867,0.865,17.735,1.73,26.548,2.649
		c6.326,0.649,12.706,1.406,18.978,2.217c6.056,0.757,12.111,1.568,18.167,2.487c7.191,1.081,14.328,2.325,21.519,3.514
		c0.865,0.108,1.784,0.27,2.595,0.595c3.082,1.135,4.92,4.271,4.325,7.515c-0.487,3.082-3.136,5.515-6.326,5.623
		c-1.189,0-2.325-0.162-3.514-0.379c-10.598-1.676-21.249-3.46-31.901-4.974c-8.327-1.19-16.761-2.055-25.142-3.028
		c-5.353-0.595-10.706-1.189-16.058-1.676c-5.623-0.541-11.246-1.027-16.869-1.46c-7.299-0.541-14.545-0.973-21.79-1.514
		c-3.028-0.216-5.407-2.109-6.218-4.758c-1.298-4.217,1.46-8.273,5.893-8.759C384.343,26.077,385.154,26.185,386.397,26.185z
		 M386.397,26.185L386.397,26.185L386.397,26.185z M268.473,17.318c0.216,1.081,0.27,2.163,0.595,3.136
		c1.027,3.244,3.677,5.137,6.813,5.083c3.082-0.108,5.785-2.271,6.596-5.407c0.649-2.217,0.487-4.434-0.432-6.596
		c-1.676-3.893-6.542-5.461-10.165-3.244c-0.649,0.433-1.244,1.081-1.676,1.676C269.014,13.533,268.69,15.426,268.473,17.318z
		 M268.473,17.318L268.473,17.318L268.473,17.318z M283.072,30.349c-0.811,0.378-1.622,0.757-2.433,1.135
		c-7.461,3.623-16.707-0.27-19.248-8.11c-1.298-3.839-1.46-7.732-0.054-11.625c1.892-5.407,5.839-8.435,11.409-9.462
		c2.487-0.433,5.028-0.324,7.516,0.216c3.893,0.865,6.759,3.19,8.597,6.705c1.298,2.487,2.055,5.137,2.433,7.948
		c0.703,5.677,0.649,11.3-0.487,16.869c-0.649,3.082-1.73,6.002-3.731,8.543c-2.217,2.974-5.137,4.704-8.813,5.136
		c-2.812,0.379-5.569,0.27-8.218-0.595c-4.055-1.244-6.705-4.001-8.056-8.002c-0.108-0.27-0.162-0.487-0.27-0.811
		c-0.541-2.595,0.487-3.893,3.19-4.055c0.595,0,1.244,0.054,1.838,0.108c1.081,0.162,1.893,0.649,2.325,1.622
		c0.216,0.487,0.432,0.973,0.703,1.46c2.055,4.001,7.894,4.055,10.435,1.46C281.937,37.161,283.288,33.214,283.072,30.349z
		 M283.072,30.349L283.072,30.349L283.072,30.349z M313.242,15.858c-2.974,4.055-5.569,8.056-8.326,12.003
		c-0.324,0.541-0.919,1.027-0.919,1.838c2.379,0.541,7.678,0.487,9.462-0.108c0.216-1.568,0.378-10.922,0.162-12.868
		C313.621,16.507,313.459,16.291,313.242,15.858z M313.242,15.858L313.242,15.858L313.242,15.858z M313.513,37.81
		c-1.027-0.595-1.947-0.433-2.812-0.433c-3.406,0-6.813,0.054-10.219,0.054c-0.973,0-2.001,0-2.974-0.162
		c-1.568-0.216-2.325-1.081-2.433-2.703c-0.216-2.379,0.216-4.542,1.73-6.542c3.785-5.137,7.407-10.381,11.084-15.626
		c1.893-2.703,3.785-5.461,5.677-8.164c1.352-1.892,3.731-2.595,5.894-1.838c0.973,0.324,1.46,1.081,1.622,2
		c0.108,0.973,0.162,1.946,0.162,2.974c0,6.542,0,13.085,0,19.627c0,0.919,0,1.784,0,2.595c1.081,0.703,2.109,0.487,3.028,0.649
		c1.784,0.324,2.541,1.136,2.703,2.866c0,0.541,0,1.081-0.054,1.622c-0.216,1.568-0.973,2.379-2.595,2.595
		c-0.865,0.108-1.784,0.108-2.812,0.216c-0.108,0.649-0.27,1.244-0.27,1.838c-0.054,1.622,0.054,3.244-0.054,4.866
		c-0.108,2.055-0.919,2.812-3.028,3.028c-0.324,0-0.703,0-1.027,0c-2.433,0-3.298-0.811-3.406-3.19
		c-0.054-1.406,0-2.866-0.054-4.271C313.675,39.108,313.567,38.405,313.513,37.81z M313.513,37.81L313.513,37.81L313.513,37.81z
		 M350.928,10.505c-0.649,0-1.46-0.108-2.217-0.108c-4.217,0-8.435,0-12.652,0c-0.703,0-1.406,0-2.163-0.108
		c-1.514-0.216-2.433-1.081-2.595-2.595c-0.108-0.973,0-2.001,0.27-2.92c0.27-1.135,1.135-1.784,2.325-1.946
		c0.541,0,1.027-0.054,1.568-0.054c7.137,0,14.22,0,21.303,0c0.811,0,1.622,0.054,2.433,0.162c1.136,0.108,2.001,0.919,2.163,2.055
		c0.216,2.055,0.216,4.055-1.406,5.785c-3.568,3.623-6.164,7.948-8.326,12.49c-2.866,6.002-5.191,12.165-6.002,18.87
		c-0.108,1.19-0.378,2.325-0.703,3.406c-0.27,0.973-0.973,1.568-1.946,1.622c-1.244,0.054-2.487,0.162-3.731,0
		c-1.568-0.162-2.379-1.136-2.325-2.758c0.054-1.298,0.216-2.541,0.433-3.785c1.676-10.381,6.056-19.627,12.544-27.9
		c0.433-0.541,0.811-1.189,1.19-1.784C351.091,10.938,351.036,10.83,350.928,10.505z M350.928,10.505L350.928,10.505L350.928,10.505
		z M243.926,16.994c-1.244-0.054-2.109-0.108-2.974-0.108c-1.622-0.054-3.244-0.054-4.866-0.054c-1.243,0-2.379-0.487-2.812-1.676
		c-0.541-1.46-0.595-3.028,0.541-4.325c0.541-0.649,1.298-0.919,2.163-0.919c1.568-0.054,2.974-0.379,4.434-0.919
		c2-0.703,3.352-1.946,4.163-3.893c0.054-0.108,0.108-0.162,0.108-0.27c0.757-2.325,1.622-2.812,4.542-2.703
		c1.244,0.054,2.055,0.703,2.271,1.892c0.216,0.973,0.216,1.946,0.216,2.92c0.054,10.76,0.054,21.519,0.054,32.279
		c0,1.46,0,2.866,0,4.326c0.054,2.812-0.811,3.677-3.623,3.677c-0.541,0-1.081,0-1.622-0.054c-1.514-0.216-2.433-1.136-2.541-2.649
		c-0.108-0.703-0.054-1.46-0.054-2.163c0-7.353,0-14.707,0-22.06V16.994z M243.926,16.994L243.926,16.994L243.926,16.994z
		 M280.855,259.005c-2.325-0.108-3.46-1.298-4.325-2.812c-0.595-1.027-0.919-2.109-0.433-3.298c0.216-0.595,0.541-0.919,1.081-1.027
		c3.406-0.919,6.434,2.541,6.11,5.299c-0.054,0.487-0.432,1.027-0.811,1.298C281.882,258.789,281.18,258.897,280.855,259.005z
		 M280.855,259.005L280.855,259.005L280.855,259.005z M255.659,249.381c0.757-0.216,1.298-0.541,1.73-0.433
		c1.568,0.324,3.136,0.703,4.65,1.244c2.379,0.865,4.542,2.163,6.38,3.893c2,1.892,3.947,3.947,5.893,5.894
		c0.595,0.649,1.19,1.352,1.244,2.487c-0.324,0.216-0.649,0.541-1.027,0.649c-5.515,1.298-11.084,2.163-16.815,1.352
		c-0.649-0.108-0.649-0.108-1.622-0.973c1.189-0.973,2.595-1.568,3.893-2.271c0.811-0.432,1.568-0.865,2.325-1.352
		c0.703-0.433,0.919-1.027,0.703-1.838c-0.379-1.622-1.19-3.028-2.325-4.217c-1.135-1.081-2.379-2.109-3.623-3.19
		C256.686,250.3,256.308,249.922,255.659,249.381z M255.659,249.381L255.659,249.381L255.659,249.381z M255.173,296.637
		c-2.109,0.108-4.001-0.703-5.569-2.433c-0.973-1.135-2.163-2.163-3.19-3.244c-0.378-0.379-0.757-0.811-0.865-1.298
		c-0.487-1.838-0.487-3.677,0.378-5.515c1.46-3.028,3.298-5.731,5.894-7.894c0.919-0.703,1.73-1.568,2.595-2.379
		c2.055-2.001,4.488-3.19,7.245-3.893c1.027-0.27,2.055-0.595,3.136-0.811c0.379-0.108,0.865-0.216,1.298-0.216
		c1.46-0.054,1.946,0.757,1.352,2.109c-0.216,0.379-0.433,0.757-0.649,1.136c-1.568,2.974-3.136,5.839-4.65,8.813
		c-0.595,1.298-1.081,2.649-1.406,4.055c-0.703,2.758-1.19,5.623-1.73,8.435C258.525,296.259,258.092,296.637,255.173,296.637z
		 M255.173,296.637L255.173,296.637L255.173,296.637z M277.016,267.764c1.298,0.324,2.001,1.406,2.703,2.433
		c2.595,4.217,4.92,8.543,6.759,13.139c0.216,0.432,0.379,0.811,0.595,1.244c0.054,0.108,0.216,0.216,0.378,0.324
		c0.487,0,0.595-0.379,0.541-0.757c-0.216-1.838-0.378-3.731-0.649-5.569c-0.162-1.081-0.379-2.109-0.541-3.19
		c-0.27-1.784-0.378-3.569-1.244-5.245c-0.162-0.378,0-0.919,0-1.676c0.541,0.216,0.919,0.27,1.135,0.487
		c0.703,0.649,1.46,1.298,2.055,2.055c2.487,3.028,4.542,6.272,6.218,9.786c1.352,2.92,2.65,5.893,3.947,8.867
		c0.27,0.649,0.541,1.298,0.703,2.001c1.081,4.65,2.217,9.246,3.244,13.896c0.433,2,0.541,4.055,0.757,6.11
		c0.108,0.811,0.108,1.784-0.757,2.163c-0.973,0.487-1.676-0.27-2.325-0.865c-2.325-2.271-4.434-4.704-6.056-7.516
		c-0.324-0.541-0.703-1.027-0.973-1.46c-0.757,0-0.919,0.379-0.973,0.865c0,1.514,0,3.082,0,4.596c0,0.432,0,0.865,0,1.352
		c-0.108,3.677-3.352,5.353-6.596,3.406c-1.568-0.919-3.136-1.73-4.704-2.595c-0.324-0.162-0.649-0.324-0.973-0.433
		c-1.568-0.379-2.92,0.054-3.785,1.406c-0.649,1.081-1.135,2.217-1.676,3.352c-0.378,0.703-0.595,1.514-1.027,2.163
		c-0.757,1.135-2.433,1.298-3.244,0.162c-0.919-1.298-1.622-2.757-2.379-4.163c-0.433-0.703-0.649-1.46-1.136-2.109
		c-0.865-1.244-2.109-1.081-2.649,0.324c-0.433,0.973-0.703,2.055-1.135,3.028c-1.081,2.433-2.92,2.595-4.38,0.379
		c-0.595-0.757-0.919-1.73-1.406-2.595c-0.324-0.649-0.865-1.136-1.622-1.244c-0.973-0.162-1.784,0.054-2.325,0.973
		c-0.595,0.973-1.135,2-1.676,3.028c-0.324,0.649-0.595,1.352-0.919,1.946c-0.324,0.703-0.919,1.081-1.73,1.081
		c-0.811-0.054-1.244-0.649-1.622-1.298c-0.108-0.216-0.216-0.487-0.27-0.757c-0.865-3.731-0.811-7.461-0.108-11.192
		c0.108-0.649,0.378-1.189,0.649-1.784c0.379-0.865,0.973-1.19,1.946-1.081c2.325,0.162,4.65,0.378,6.975,0.378
		c1.676,0,3.352-0.27,5.082-0.487c2.163-0.27,3.839-1.46,5.19-3.136c1.784-2.217,3.028-4.812,3.677-7.678
		c1.136-4.866,1.676-9.895,2.379-14.869c0.324-2.487,0.811-4.92,1.893-7.245C275.394,268.846,275.881,268.035,277.016,267.764z
		 M277.016,267.764L277.016,267.764L277.016,267.764z M406.889,338.432c-0.216-0.162-0.487-0.216-0.595-0.433
		c-0.541-0.811-1.027-1.676-1.514-2.541c-2.487-4.38-5.677-8.273-8.867-12.165c-1.298-1.622-2.703-3.136-4.272-4.488
		c-1.027-0.811-2.163-1.622-3.244-2.325c-0.811-0.487-1.73-0.162-1.946,0.757c-0.162,0.703-0.216,1.406-0.27,2.109
		c-0.054,2.325-0.054,4.704-0.162,7.029c-0.054,0.865-0.216,1.784-0.487,2.649c-0.433,1.244-1.19,1.46-2.271,0.649
		c-1.19-0.919-2.163-2.055-2.92-3.406c-2.001-3.46-4.001-6.867-6.002-10.219c-0.487-0.865-1.081-1.676-1.676-2.487
		c-0.378-0.487-0.811-0.919-1.298-1.352c-1.352-1.081-2.595-1.027-3.839,0.27c-0.973,1.081-1.622,2.379-1.676,3.839
		c0,2.001,0.108,3.947,0.216,5.948c0.054,1.838,0.216,3.731,0.162,5.623c0,0.865-0.379,1.784-0.811,2.487
		c-0.649,1.135-1.892,1.081-2.703,0.108c-0.703-0.811-0.919-1.784-1.027-2.703c-0.216-1.73-1.135-2.974-2.163-4.271
		c-0.487-0.595-1.135-0.811-1.892-0.811c-1.406,0-2.649,0.324-3.731,1.244c-0.595,0.541-1.244,1.081-1.73,1.73
		c-2.109,2.649-4.217,5.353-6.164,8.11c-1.73,2.325-3.244,4.758-4.92,7.137c-1.244,1.784-2.271,2.055-4.326,1.244
		c-0.757-0.27-1.568-0.487-2.325-0.703c-0.216-0.054-0.541,0-0.973,0.054c-0.054,0.487-0.216,1.027-0.054,1.46
		c0.27,0.919,0.649,1.892,1.135,2.758c1.514,2.812,3.082,5.623,4.65,8.435c2.866,5.191,5.731,10.435,8.543,15.626
		c0.378,0.703,0.54,1.514,0.757,2.271c0.108,0.379-0.487,0.919-0.865,0.811c-0.487-0.108-1.027-0.27-1.514-0.541
		c-5.731-3.352-11.354-6.867-16.761-10.706c-0.865-0.595-1.838-1.135-2.757-1.622c-0.649-0.324-1.352-0.541-2.001,0.054
		c-0.324,0.865,0.27,1.514,0.541,2.271c0.432,1.081,0.865,2.163,1.135,3.298c0.162,0.595,0.108,1.244,0.054,1.838
		c-0.054,0.595-0.649,1.027-1.136,0.865c-0.703-0.216-1.406-0.487-1.946-0.865c-2.217-1.568-4.38-3.19-6.542-4.758
		c-1.081-0.811-2.055-1.73-3.136-2.541c-0.324-0.216-0.973-0.27-1.189-0.108c-0.324,0.216-0.541,0.811-0.487,1.135
		c0.27,1.027,0.595,2.055,0.973,3.082c0.595,1.514,1.352,2.92,1.892,4.434c0.324,0.919,0.541,1.946,0.541,2.92
		c0,1.514-0.973,2.487-2.541,2.595c-0.487,0.054-1.081,0-1.568-0.162c-2.001-0.757-4.109-1.46-5.948-2.487
		c-2.92-1.568-5.677-3.46-8.489-5.137c-1.46-0.919-2.974-1.73-4.488-2.541c-0.379-0.216-0.811-0.487-1.19-0.541
		c-0.541,0-1.135,0-1.514,0.27c-0.541,0.324-0.379,0.973-0.162,1.46c0.649,1.244,1.352,2.541,2.001,3.785
		c0.703,1.406,1.46,2.703,1.946,4.163c0.27,0.757,0.216,1.73,0.162,2.595c-0.054,0.595-0.541,0.973-1.135,0.919
		c-0.541,0-1.081-0.108-1.568-0.324c-1.081-0.487-2.163-0.919-3.082-1.622c-5.028-3.515-9.949-7.083-14.274-11.463
		c-2.109-2.163-4.38-4.812-5.191-7.083c-0.108-0.27-0.054-0.541-0.108-0.865c1.244-0.595,2.271-0.054,3.244,0.595
		c1.46,1.081,3.19,1.676,4.92,2.163c0.919,0.27,1.892,0.324,2.92,0.379c1.19,0,2.109-0.541,2.541-1.676
		c0.378-1.081,0.595-2.217,0.811-3.352c0.054-0.216-0.108-0.541-0.108-0.811c0.108-2.001,1.514-2.812,3.082-1.622
		c1.892,1.406,3.623,2.974,5.407,4.488c1.352,1.244,2.703,2.379,4.38,3.082c3.514,1.514,5.785-0.541,6.813-3.19
		c0.162-0.378,0.108-0.865,0.054-1.298c-0.108-1.027-0.27-2.001-0.379-2.974c-0.054-0.865,0.324-1.298,1.189-1.514
		c1.406-0.378,2.703-0.162,3.839,0.649c1.406,0.973,2.703,2.055,4.055,3.136c0.703,0.541,1.406,1.135,2.109,1.676
		c0.541,0.324,1.136,0.595,1.73,0.757c1.676,0.487,2.595-0.054,2.866-1.73c0.108-0.649,0.054-1.298,0.162-1.892
		c0.378-2.055,1.244-2.649,3.244-2.055c0.811,0.216,1.676,0.595,2.433,1.027c1.568,0.757,3.028,1.622,4.542,2.379
		c0.378,0.216,0.811,0.432,1.19,0.595c0.811,0.378,1.73,0.973,2.487,0.054c0.595-0.757-0.054-1.46-0.324-2.217
		c-0.757-1.946-1.46-3.839-2.217-5.785c-0.757-2.001-1.568-4.001-2.271-6.056c-0.216-0.649-0.27-1.406-0.216-2.055
		c0.054-0.919,1.027-1.406,1.784-1.081c0.541,0.162,0.973,0.487,1.46,0.757c3.082,1.676,5.245,1.406,7.84-0.973
		c1.568-1.352,2.757-3.082,3.785-4.866c2.109-3.839,4.272-7.678,6.651-11.408c3.244-5.082,7.678-9.03,12.706-12.22
		c5.137-3.244,10.868-3.893,16.815-2.649c5.461,1.189,10.057,3.839,14.004,7.678c3.19,3.136,6.164,6.542,8.651,10.327
		c1.838,2.758,3.406,5.677,5.029,8.597c1.027,1.784,1.352,3.839,1.784,5.839C407.214,338.054,407.052,338.27,406.889,338.432z
		 M406.889,338.432L406.889,338.432L406.889,338.432z M394.724,353.95c-0.811,0.649-0.757,1.352-0.757,2.109
		c0,1.838,0.054,3.785,0,5.623c-0.108,1.73-0.27,3.406-0.541,5.082c-0.919,6.813-2.866,13.355-5.137,19.789
		c-0.541,1.514-1.244,2.757-2.758,3.514c-1.406,0.703-3.244,0-3.677-1.514c-0.324-1.027-0.487-2.163-0.324-3.19
		c0.595-3.515-0.379-6.813-0.919-10.165c-0.487-2.649-1.784-5.082-3.352-7.299c-0.162-0.162-0.433-0.27-0.649-0.433
		c-0.919,0.27-0.865,1.081-0.973,1.73c-0.324,1.946-0.433,3.947-0.703,5.893c-0.865,5.947-3.19,11.192-7.029,15.788
		c-0.541,0.703-1.244,1.298-1.946,1.784c-1.568,1.081-3.569,0.216-3.947-1.676c-0.108-0.433-0.054-0.919-0.054-1.352
		c0-1.514,0.108-3.082,0-4.596c-0.108-2.055-0.27-4.109-0.595-6.11c-0.27-1.676-1.298-2.974-2.433-4.163
		c-0.487-0.541-1.46-0.432-1.838,0.216c-0.432,0.649-0.811,1.406-0.919,2.217c-0.433,2.217-1.244,4.272-2.163,6.326
		c-2.325,4.974-4.65,9.895-7.732,14.491c-0.433,0.703-0.865,1.406-1.136,2.109c-0.27,0.649-0.433,1.406-0.378,2.055
		c0.216,1.73,1.73,2.487,3.19,1.622c0.757-0.432,1.46-1.027,2.109-1.676c2.163-2.217,3.839-4.704,4.974-7.57
		c0.324-0.811,0.432-1.784,1.46-2.109c0.757,0.216,0.865,0.919,0.919,1.514c0.162,2.055,0.162,4.109-0.379,6.164
		c-0.324,1.298-0.865,2.541-1.892,3.515c-0.595,0.541-1.135,1.135-1.73,1.676c-2.379,2.163-4.109,4.704-5.677,7.461
		c-0.541,0.973-0.757,2.001-0.703,3.136c0.162,2.325,0.324,4.65,0.541,6.975c0.27,2.758,0.541,5.569-0.054,8.327
		c-0.054,0.27,0,0.541,0,0.811c0,0.433,0.487,0.811,0.973,0.703c1.406-0.324,2.757-0.919,3.677-2.055
		c1.027-1.135,1.838-2.433,2.595-3.731c0.595-1.027,0.919-2.163,1.406-3.244c0.162-0.433,0.432-0.865,0.919-0.703
		c0.379,0.162,0.811,0.541,0.865,0.919c0.162,0.865,0.27,1.784,0.108,2.649c-0.541,3.244-1.838,6.164-4.109,8.597
		c-1.406,1.514-2.595,3.244-4.488,4.271c-0.27,0.162-0.487,0.487-0.811,0.703c-1.135,0.919-1.46,2.163-1.298,3.568
		c0.162,2.109,0.649,4.109,1.838,5.894c1.46,2.163,2.92,4.271,4.433,6.38c0.541,0.757,0.865,1.568,0.973,2.487
		c0.108,1.189-0.108,2.325-0.919,3.244c-0.865,0.973-1.298,2.109-1.406,3.406c-0.216,1.676-1.352,2.703-2.703,3.514
		c-0.216,0.162-0.487,0.216-0.757,0.216c-1.244,0.216-2.271-0.216-3.298-0.919c-0.919-0.595-1.568-1.406-1.676-2.487
		c0.703-0.757,1.406-0.487,2.055-0.324c0.649,0.162,1.244,0.487,1.73-0.162c0.379-0.487,0.162-1.136-0.757-1.73
		c-1.352-0.919-1.946-2.163-1.784-3.677c0.27-3.028-0.595-5.839-1.514-8.651c-0.432-1.406-0.649-2.812-1.514-4.055
		c-0.757-1.027-1.406-1.352-2.487-0.703c-0.919,0.487-1.838,1.19-2.433,2.001c-1.46,1.946-2.757,4.001-4.055,6.056
		c-1.298,2.055-1.406,4.217-0.108,6.326c0.595,1.081,0.811,2.163,0.649,3.352c-0.162,1.135-0.649,1.622-1.73,1.676
		c-1.081,0.054-2.163,0.054-3.19-0.487c-0.541-0.27-1.19-0.378-1.784-0.378c-1.73-0.054-2.812,1.514-2.109,3.136
		c0.324,0.757,0.811,1.406,1.19,2.055c0.27,0.487,0.541,0.919,0.757,1.352c-0.27,0.757-0.703,0.865-1.298,0.595
		c-3.677-1.784-5.082-4.65-4.163-8.597c0.541-2.325,1.46-4.434,2.812-6.38c2.109-3.244,4.271-6.434,6.434-9.624
		c0.27-0.433,0.487-0.919,0.703-1.406c-1.027-0.649-1.946-0.324-2.703-0.054c-2.325,0.919-4.65,1.946-6.921,3.028
		c-0.595,0.27-1.081,0.919-1.514,1.46c-0.811,0.811-1.514,1.784-2.379,2.595c-0.541,0.541-1.244,1.027-1.892,1.46
		c-1.136,0.703-2.325,0.919-3.514,0.054c-0.162-0.108-0.324-0.162-0.487-0.27c-0.432-0.216-0.919-0.27-1.19,0.108
		c-0.27,0.324-0.378,0.811-0.378,1.189c0.054,0.541,0.27,1.081,0.487,1.568c0.216,0.487,0.487,0.973,0.703,1.46
		c0.27,0.703,0.108,1.352-0.324,1.676c-0.541,0.378-1.298,0.162-1.838-0.595c-0.054-0.054-0.108-0.162-0.162-0.216
		c-0.757-1.352-1.568-2.649-2.217-4.055c-0.865-1.946-0.649-3.893,0.703-5.569c1.027-1.352,2.217-2.595,3.352-3.839
		c0.649-0.703,1.514-0.973,2.433-1.081c0.919-0.108,1.784-0.162,2.703-0.216c1.568-0.054,2.92-0.757,4.163-1.622
		c1.73-1.189,3.352-2.433,5.136-3.46c0.811-0.487,1.838-0.649,2.812-0.811c0.811-0.162,1.622-0.054,2.433-0.108
		c2.541-0.108,4.65-1.352,6.38-3.082c1.298-1.298,1.838-3.082,1.946-4.92c0.108-2.271,0.162-4.488,0.108-6.759
		c-0.162-2.866-0.216-5.785-0.811-8.543c-0.703-3.731-2.433-6.921-6.002-8.813c-2.109-1.135-4.271-2.271-6.326-3.568
		c-1.568-1.027-2.92-2.325-4.434-3.515c-1.73-1.406-3.46-2.812-5.028-4.434c-0.865-0.865-2.109-0.757-2.974-0.162
		c-2.92,2.001-6.326,2.541-9.516,3.677c-1.352,0.432-2.811,0.541-4.217,0.811c-1.784,0.324-3.569,0.541-4.92,1.892
		c-0.595,0.541-1.352,1.027-1.135,2.001c0.27,1.027,1.189,0.919,2,1.027c4.001,0.433,7.84-0.216,11.463-2.163
		c0.433-0.27,0.919-0.487,1.46-0.595c0.487-0.162,1.027,0.378,0.973,0.919c-0.054,1.135-0.649,2.055-1.352,2.866
		c-2.433,2.758-5.623,4.109-9.246,4.38c-1.136,0.108-2.325,0.054-3.515,0.054c-3.028-0.108-6.056,0.162-9.083,0.757
		c-3.406,0.649-6.813,0.216-10.111-0.811c-3.136-0.973-6.272-2.055-9.408-3.136c-3.46-1.189-7.029-1.514-10.651-1.135
		c-1.136,0.108-2.217,0.595-3.298,1.081c-1.19,0.595-1.352,2.163-0.487,3.244c0.703,0.865,1.676,1.298,2.758,1.514
		c2.163,0.378,4.325,0.216,6.488,0c0.973-0.162,1.946-0.324,2.92-0.324c2.974,0.108,4.866,2.217,4.542,5.137
		c-0.162,1.73-0.487,3.352-1.514,4.812c-0.27,0.433-0.649,0.703-1.136,0.487c-0.27-0.108-0.595-0.432-0.649-0.703
		c-0.162-0.811-0.162-1.622-0.27-2.433c-0.054-0.487-0.27-1.027-0.432-1.676c-0.703,0.108-1.352,0.054-1.838,0.324
		c-1.135,0.541-2.217,0.649-3.406,0.324c-2.163-0.541-4.38-0.757-6.65-0.919c-2.812-0.216-5.461-1.027-7.353-3.406
		c-0.865-1.189-2.001-1.406-3.352-0.919c-1.19,0.432-2.379,0.757-3.515,1.244c-0.919,0.378-1.784,0.919-2.541,1.514
		c-0.649,0.432-0.811,1.135-0.595,1.946c0.162,0.487,0.432,0.973,0.595,1.514c0.541,2.001-0.487,3.839-2.433,4.434
		c-0.595,0.162-1.244,0.27-2.001,0.433c0.108,0.595,0.054,1.19,0.324,1.568c0.541,0.811,1.244,1.568,1.892,2.325
		c0.216,0.216,0.595,0.433,0.757,0.703c0.162,0.324,0.27,0.703,0.216,1.027c-0.216,0.487-0.703,0.433-1.136,0.379
		c-2.055-0.433-3.677-1.622-4.92-3.19c-2.163-2.649-2.974-5.623-1.406-8.975c1.19-2.703,3.028-4.866,5.407-6.596
		c0.865-0.649,1.784-1.189,2.649-1.784c0.27-0.162,0.379-0.541,0.811-1.135c-2.217,0.433-4.001,0.811-5.623,1.784
		c-0.541,0.324-1.027,0.757-1.514,1.081c-1.081,0.649-1.73,1.46-1.892,2.812c-0.162,1.622-1.081,2.811-2.649,3.406
		c-0.216,0.108-0.487,0.216-0.703,0.378c-0.757,0.487-0.973,0.919-0.757,1.784c0.108,0.541,0.324,1.027,0.433,1.568
		c0.108,0.703-0.649,1.244-1.244,0.919c-1.243-0.703-2.433-1.514-3.19-2.757c-0.703-1.136-1.19-2.271-1.081-3.569
		c0.162-1.352,0.27-2.649,0.541-4.001c0.216-1.189,1.027-2.055,2.109-2.595c0.541-0.216,0.973-0.487,1.46-0.703
		c1.514-0.703,2.758-1.568,3.677-3.082c1.081-1.784,2.811-2.649,4.974-2.703c0.432,0,0.865,0,1.352,0
		c2.001,0.108,3.893-0.216,5.785-0.919c1.622-0.649,3.46-0.973,5.191-1.352c1.568-0.379,3.136-0.757,4.434-1.784
		c0.919-0.703,1.946-0.919,3.082-1.027c4.488-0.216,8.921-0.054,13.355,1.027c4.758,1.19,9.57,2.271,14.436,3.244
		c1.027,0.216,2.109,0.108,3.19,0.108c2.703,0.162,4.758-2.271,4.974-4.434c0.162-2.163,0-4.217-0.919-6.326
		c-2.271-4.974-6.11-8.597-10.219-11.949c-1.244-1.027-2.595-2-3.947-2.812c-4.38-2.595-8.056-6.002-11.571-9.678
		c-4.65-4.812-8.813-10.165-12.382-15.896c-2.812-4.488-5.353-9.138-7.191-14.166c-2.866-7.57-4.38-15.301-4.055-23.412
		c0.108-3.623,0.432-7.191,1.298-10.706c0.379-1.46,0.865-2.92,1.352-4.38c0.541-1.622,0.703-3.136-0.649-4.488
		c-0.054-0.054-0.108-0.162-0.162-0.216c-3.623-4.704-2.649-10.165-0.108-14.112c0.757-1.135,1.622-2.217,2.649-3.028
		c2.325-1.946,4.488-4.163,7.245-5.569c0.649-0.378,1.514-0.757,1.298-1.946c-0.595-0.054-1.189-0.162-1.784-0.27
		c-0.541-0.054-1.081,0-1.568-0.162c-0.324-0.108-0.649-0.432-0.703-0.703c-0.054-0.324,0.108-0.757,0.324-0.973
		c0.27-0.324,0.703-0.541,1.081-0.757c2.703-1.46,5.407-2.866,8.056-4.325c1.027-0.541,2.163-0.973,2.487-2.379
		c-1.946-3.46-4.812-5.893-8.651-7.191c-0.324-0.108-0.703-0.108-1.027-0.216c-0.919-0.378-1.189-1.244-0.649-1.946
		c0.324-0.432,0.649-0.865,1.081-1.19c2.001-1.298,4.055-2.379,6.434-2.595c2.433-0.108,4.866-0.27,7.299-0.162
		c1.406,0,2.812,0.541,4.217,0.811c0.595,0.162,1.19,0.324,1.784,0.324c0.649,0.054,1.027-0.595,0.649-1.081
		c-0.649-0.973-1.406-1.838-2.163-2.703c-0.703-0.757-1.46-1.352-2.163-2.001c-1.46-1.406-2.487-3.082-3.352-4.866
		c-0.649-1.298-0.541-2.649-0.324-4.001c0.216-1.244,1.73-2.001,3.19-1.676c0.973,0.216,1.784,0.811,2.487,1.514
		c0.649,0.649,1.19,1.352,1.892,1.946c1.298,1.081,2.595,0.757,3.244-0.757c0.378-0.919,0.541-1.893,0.865-2.866
		c0.324-0.973,0.703-2,1.136-2.974c0.27-0.541,0.811-0.973,1.244-1.406c1.298-1.19,2.757-1.244,4.055,0.703
		c0.541,0.757,0.811,1.784,1.081,2.703c0.324,1.027,0.487,2.109,0.865,3.136c1.027,2.541,2.811,2.758,4.38,0.487
		c1.081-1.568,2.271-2.974,3.839-4.055c0.324-0.216,0.595-0.433,0.919-0.595c1.352-0.757,2.487-0.324,2.92,1.189
		c0.379,1.514,0.162,3.028,0,4.596c-0.162,1.027-0.27,2.109-0.216,3.19c0.054,1.244,0.865,1.838,2.001,1.406
		c0.811-0.324,1.568-0.811,2.325-1.298c0.757-0.487,1.352-1.189,2.163-1.622c1.676-0.973,3.406-0.541,4.325,1.244
		c0.432,0.865,0.649,1.838,0.865,2.811c0.703,2.974,0.595,6.056,0.379,9.084c-0.162,2.433-0.27,4.866-1.027,7.191
		c-0.378,1.19-0.865,2.379-1.352,3.515c-0.216,0.487-0.541,0.919-0.919,1.352c-2.001,2.379-4.65,2.487-7.083,0.541
		c-0.919-0.757-1.568-1.73-2.325-2.649c-0.703-0.811-1.352-1.676-2.055-2.487c-0.216-0.27-0.541-0.432-0.811-0.649
		c-0.649,0.216-0.649,0.595-0.541,1.081c0.216,1.298,0.919,2.325,1.892,3.19c1.676,1.46,3.46,2.92,4.866,4.596
		c2.379,2.812,4.65,5.731,6.705,8.759c2.649,3.947,4.65,8.327,6.218,12.814c1.73,5.028,3.244,10.111,4.38,15.301
		c0.216,0.865,0.379,1.784,0.379,2.649c-0.054,1.46,0.541,2.595,1.568,3.568c0.216,0.27,0.487,0.541,0.757,0.757
		c3.46,2.649,6.218,5.948,9.029,9.192c1.73,2.001,3.298,4.055,4.974,6.056c0.649,0.865,1.406,1.622,2.217,2.379
		c1.081,0.973,2.325,1.027,3.298-0.108c0.865-1.027,1.73-2.163,2.163-3.352c1.568-3.893,3.893-7.299,6.164-10.706
		c1.514-2.325,3.298-4.542,5.19-6.542c3.785-4.001,7.84-7.678,12.977-9.949c2.487-1.136,5.137-1.568,7.786-2.109
		c0.595-0.108,1.244-0.108,1.838-0.27c2.649-0.595,5.245-0.054,7.732,0.433c6.867,1.298,12.76,4.542,18.059,9.083
		c4.704,4.055,8.597,8.705,12.328,13.571c2.811,3.623,4.974,7.678,6.704,11.949c0.27,0.757,0.541,1.514,0.919,2.217
		c2.379,5.028,3.406,10.381,4.271,15.788c1.027,6.164,0.919,12.382,0.865,18.545c0,0.541,0,1.081-0.054,1.622
		c-1.135,8.543-2.271,17.086-5.028,25.304c-1.135,3.352-2.379,6.596-3.623,9.84c-0.433,1.081-1.19,1.838-2.271,2.217
		c-1.676,0.703-3.352-0.162-3.623-1.946c-0.108-0.973-0.054-2.001,0.108-2.974c0.973-6.11,0.865-12.165-0.649-18.167
		c-1.243-4.974-2.757-9.895-4.92-14.544c-1.406-3.028-2.974-5.948-4.488-8.867c-0.324-0.649-0.757-1.244-1.244-1.73
		C395.643,354.22,395.102,354.112,394.724,353.95z M394.724,353.95L394.724,353.95L394.724,353.95z M302.375,188.067
		c11.463,0.162,20.33,0.162,29.197,0.487c10.976,0.433,21.898,0.973,32.874,1.838c13.139,1.081,26.277,2.379,39.362,4.055
		c10.976,1.406,21.898,2.974,32.766,4.974c4.596,0.811,9.192,1.676,13.787,2.487c1.946,0.324,3.568,1.081,4.596,2.92
		c2.055,3.731-0.433,8.218-4.704,8.381c-0.703,0-1.46-0.054-2.163-0.162c-8.489-1.514-16.923-3.136-25.466-4.488
		c-8.327-1.298-16.707-2.487-25.088-3.46c-9.624-1.136-19.303-2.055-28.927-3.082c-2.433-0.216-4.812-0.378-7.245-0.541
		c-6.38-0.378-12.76-0.811-19.086-1.135c-14.49-0.703-28.927-0.919-43.417-0.811c-11.571,0.108-23.141,0.27-34.712,1.081
		c-6.704,0.487-13.409,0.757-20.168,1.298c-6.704,0.541-13.409,1.135-20.114,1.838c-7.137,0.757-14.274,1.514-21.357,2.541
		c-8.759,1.19-17.464,2.541-26.169,3.947c-6.975,1.136-13.95,2.487-20.925,3.731c-1.298,0.216-2.487,0.216-3.677-0.27
		c-2.325-0.973-3.731-3.136-3.514-5.515c0.162-2.433,1.73-4.488,4.109-5.137c1.676-0.432,3.352-0.703,5.028-1.027
		c10.111-1.676,20.168-3.514,30.279-5.028c10.219-1.568,20.492-2.866,30.711-4.109c5.948-0.757,11.949-1.19,17.951-1.73
		c12.111-1.081,24.169-1.892,36.334-2.325C283.396,188.5,294.156,188.283,302.375,188.067z M302.375,188.067L302.375,188.067
		L302.375,188.067z M404.727,149.138c0.379-0.433,0.703-0.703,0.919-1.027c3.082-5.677,6.164-11.355,9.3-17.032
		c1.352-2.487,2.758-5.028,4.326-7.408c2.757-4.055,7.137-4.38,10.814-1.676c1.784,1.298,2.649,3.352,2.649,5.623
		c0.054,2.703,0.054,5.407,0.054,8.11c-0.054,6.38-0.108,12.76-0.108,19.14c-0.054,5.299-0.054,10.597-0.162,15.896
		c0,1.244-0.162,2.487-0.433,3.677c-0.865,3.298-4.812,4.704-7.029,4.163c-3.136-0.703-5.082-2.325-5.515-5.731
		c-0.162-1.081-0.216-2.163-0.216-3.244c0-5.19,0-10.435,0-15.626c0-0.865-0.054-1.73-0.108-2.595c-0.757,0-0.865,0.487-1.081,0.865
		c-1.568,2.812-3.082,5.677-4.596,8.543c-1.027,1.784-2.109,3.514-3.136,5.353c-0.973,1.73-2.595,2.703-4.434,3.244
		c-2.163,0.703-4.163,0.162-5.677-1.46c-0.973-1.027-1.784-2.271-2.487-3.514c-2.163-3.785-4.272-7.678-6.434-11.517
		c-0.27-0.487-0.649-1.027-1.19-1.838c-0.216,0.703-0.432,1.081-0.432,1.46c0,5.082,0,10.219-0.054,15.301
		c-0.054,1.784-0.27,3.568-0.432,5.353c-0.162,1.514-1.027,2.703-2.055,3.731c-3.298,3.136-8.597,1.946-10.111-2.379
		c-0.433-1.244-0.541-2.649-0.595-3.947c0-5.299,0-10.597,0.054-15.896c0.054-6.759,0.108-13.517,0.162-20.222
		c0.054-2.866,0.216-5.731,0.27-8.597c0-1.19,0.595-2.055,1.244-2.92c2.271-2.866,5.515-3.568,8.921-2.163
		c1.622,0.703,2.92,1.73,3.731,3.298c0.811,1.406,1.73,2.758,2.433,4.163c3.244,6.11,6.434,12.274,9.624,18.383
		C403.375,147.515,403.753,148.435,404.727,149.138z M404.727,149.138L404.727,149.138L404.727,149.138z M285.073,159.951
		c-0.541-1.514-0.487-2.812-0.487-4.055c-0.054-5.082,0-10.219-0.054-15.356c0-2.758-0.108-5.515-0.216-8.327
		c-0.054-3.352,0.162-3.623,3.569-3.623c3.406,0,6.813,0.054,10.219,0c4.001-0.054,7.353,1.514,10.273,4.001
		c1.081,0.919,2.055,2.055,2.703,3.298c3.352,6.272,2.974,14.274-2.541,20.222c-1.946,2.163-4.434,3.244-7.245,3.731
		c-1.081,0.162-2.163,0.27-3.244,0.27c-3.569,0.054-7.137,0.054-10.76,0C286.587,160.114,285.884,160.005,285.073,159.951z
		 M285.073,159.951L285.073,159.951L285.073,159.951z M271.339,144.542c-0.054-5.893-0.162-11.841-0.216-17.735
		c0-1.514,0.054-3.082,0.162-4.596c0.324-3.839,2.433-6.272,6.272-6.542c4.38-0.27,8.759-0.757,13.139-0.324
		c2.866,0.27,5.785,0.162,8.651,0.108c2.65,0,5.191,0.487,7.678,1.244c1.352,0.433,2.703,0.865,4.055,1.46
		c3.623,1.568,6.38,4.271,8.867,7.299c5.353,6.651,7.407,14.436,6.326,22.709c-1.298,10.057-6.326,17.788-15.734,22.384
		c-3.406,1.73-7.029,2.703-10.814,2.757c-4.055,0.054-8.11,0.054-12.165,0.054c-3.244,0-6.434,0-9.678,0.054
		c-2.271,0-3.947-1.027-5.137-2.92c-0.379-0.595-0.649-1.298-0.811-2.001c-0.216-0.811-0.324-1.73-0.324-2.649
		C271.501,158.762,271.393,151.679,271.339,144.542L271.339,144.542z M271.339,144.542L271.339,144.542L271.339,144.542z
		 M219.866,455.761c-0.054,1.244,0.433,1.946,0.973,2.541c1.244,1.406,2.541,2.758,3.839,4.109c3.244,3.46,7.462,5.353,11.895,6.542
		c3.46,0.865,7.083,1.027,10.706,0.811c1.244-0.054,2.163-0.595,2.703-1.838c0.919-2.109,1.622-4.163,1.893-6.434
		c0.054-0.811,0.378-1.568,0.649-2.325c0.054-0.162,0.487-0.378,0.649-0.324c0.27,0.054,0.649,0.324,0.757,0.595
		c0.162,0.487,0.216,1.027,0.162,1.568c0,1.73-0.108,3.406-0.216,5.082c0,0.487-0.108,0.919-0.108,1.352
		c0,0.703,0.649,1.19,1.298,1.027c1.081-0.324,2.271-0.595,3.244-1.19c2.433-1.352,4.866-2.703,6.921-4.596
		c0.27-0.27,0.541-0.487,0.811-0.757c1.298-1.244,1.893-2.703,1.784-4.542c-0.487-8.543-3.082-16.383-7.786-23.52
		c-0.811-1.244-1.622-2.541-2.433-3.839c-0.108-0.216-0.27-0.487-0.27-0.757c0-0.324,0.054-0.757,0.27-0.973
		c0.216-0.162,0.703-0.216,0.973-0.108c0.433,0.108,0.865,0.324,1.135,0.649c4.109,4.596,7.624,9.516,9.624,15.464
		c0.757,2.325,1.352,4.65,1.73,7.029c0.216,1.298,0.595,2.595,0.973,4.109c0.541-0.27,0.919-0.433,1.244-0.703
		c0.216-0.216,0.432-0.541,0.595-0.865c1.676-3.406,2.974-6.921,3.46-10.706c0.649-5.948-0.379-11.625-2.758-17.086
		c-0.27-0.649-0.595-1.352-0.757-2c-0.27-0.973,0.054-1.73,0.973-2.325c0.487-0.27,0.973-0.378,1.514-0.108
		c0.919,0.433,1.568,1.135,2.055,2.055c1.46,2.866,2.541,5.948,3.028,9.138c0.865,5.948,0.811,11.841-1.19,17.572
		c-1.514,4.38-3.514,8.435-6.596,11.949c-0.649,0.757-1.298,1.514-1.892,2.271c-0.649,0.811-0.649,1.406-0.054,2.217
		c0.487,0.595,1.027,1.189,1.46,1.892c0.541,0.757,0.487,1.46-0.108,2.217c-1.46,1.946-3.406,3.19-5.677,3.947
		c-3.082,0.973-6.218,1.73-9.354,2.217c-4.704,0.811-9.408,1.622-14.166,1.838c-4.542,0.216-9.138,0.595-13.679,0.811
		c-2.433,0.108-4.866,0.054-7.299-0.054c-4.272-0.162-8.597-0.487-12.922-0.649c-2.595-0.108-5.137-0.487-7.678-1.027
		c-2.379-0.541-4.812-0.703-7.191-1.136c-2.703-0.433-5.353-1.027-7.786-2.163c-1.622-0.757-3.244-1.568-4.65-2.649
		c-1.838-1.352-1.838-2.974-0.216-4.596c0.703-0.649,1.514-1.406,2.379-1.676c2.649-0.919,5.191-2.001,7.894-2.703
		c5.461-1.298,10.922-2.109,16.491-2.541c2.055-0.162,4.055-0.541,6.272-0.811c-0.054-0.703,0-1.244-0.162-1.676
		c-0.324-0.811-0.811-1.568-1.244-2.379c-1.946-3.623-2.92-7.516-3.46-11.571c-0.649-4.92-0.487-9.84,0.919-14.653
		c0.703-2.325,1.73-4.488,2.703-6.759c0.378-0.865,1.081-1.244,2.109-1.406c1.568-0.162,2.758,1.568,2.109,2.92
		c-0.487,0.973-1.027,1.892-1.46,2.866c-0.757,1.514-0.595,2.109,0.703,3.244c0.487,0.378,1.027,0.757,1.622,1.027
		c1.135,0.649,2.379,1.243,3.568,1.838c0.919,0.487,1.838,0.703,2.92,0.378c0.324-0.595,0.595-1.243,1.081-1.784
		c0.379-0.433,0.865-0.865,1.46-1.136c1.027-0.487,2.271,0.379,2.271,1.514c0,0.379,0,0.757-0.108,1.081
		c-0.649,1.676-1.19,3.352-1.893,5.028c-0.541,1.298-1.189,1.406-2.541,0.757c-3.136-1.406-6.002-3.244-8.597-5.461
		c-0.432-0.324-0.919-0.541-1.406-0.865c-0.324,0.378-0.703,0.703-0.865,1.081c-0.216,0.433-0.324,0.865-0.378,1.298
		c-0.162,4.758-0.108,9.516,1.244,14.166c0.324,1.352,1.189,2.055,2.487,2.541c6.704,2.325,13.571,3.46,20.654,3.406
		c2.487,0,4.974-0.324,7.461-0.919c2.001-0.487,2.595-1.298,2.109-3.244c-0.541-2.055-1.352-4.109-2-6.164
		c-0.216-0.649-0.487-1.352-0.487-2.055c-0.054-0.324,0.324-0.811,0.649-1.027c0.216-0.108,0.649,0.054,0.973,0.216
		c0.27,0.054,0.487,0.27,0.595,0.487c1.189,2.217,2.974,4.109,3.623,6.596c0.324,1.406,0.919,2.757,1.244,4.109
		c0.216,0.811,0.27,1.622,0.27,2.433c-0.054,0.973-0.595,1.568-1.622,1.838c-1.838,0.487-3.623,0.973-5.515,0.973
		c-1.784,0.054-3.569,0.324-5.353,0.379c-4.65,0.216-9.192-0.27-13.679-1.136c-2.001-0.324-3.947-1.19-5.947-1.784
		C221.055,455.761,220.514,455.815,219.866,455.761z M219.866,455.761L219.866,455.761L219.866,455.761z M196.346,180.714
		c-3.298,0.054-6.488-0.595-9.624-1.298c-0.703-0.162-1.406-0.324-2.055-0.595c-8.759-3.515-15.301-9.354-18.275-18.546
		c-1.892-5.948-2.001-12.057-0.162-18.059c0.703-2.217,1.676-4.325,2.649-6.488c0.487-1.027,1.135-2.055,1.838-2.92
		c4.163-5.028,9.138-8.975,15.464-10.706c4.866-1.406,9.895-1.676,14.977-0.703c4.596,0.865,8.975,2.433,13.031,4.812
		c1.73,0.973,3.244,2.163,4.65,3.623c1.838,1.838,2.163,5.515-0.054,8.11c-2.109,2.487-5.245,3.19-7.948,1.676
		c-0.541-0.324-1.027-0.703-1.568-1.081c-3.947-2.866-8.435-4.38-13.247-4.596c-3.623-0.162-7.083,0.757-10.057,2.595
		c-4.65,2.866-7.624,7.083-8.002,12.706c-0.487,7.245,3.082,13.193,9.678,16.275c2.541,1.189,5.19,1.892,8.056,1.838
		c3.893-0.108,7.732-0.324,11.3-2.055c1.676-0.865,3.19-1.946,4.65-3.136c2.217-1.784,4.704-1.676,7.137-0.811
		c3.082,1.081,4.109,5.623,2.703,8.273c-0.703,1.406-1.622,2.649-2.812,3.569c-4.325,3.46-9.138,5.731-14.599,6.488
		C201.482,180.065,198.941,180.389,196.346,180.714z M196.346,180.714L196.346,180.714L196.346,180.714z M245.548,177.091
		c-4.542,0.541-8.327-4.488-8.164-8.219c0.162-4.596,3.352-7.948,7.948-8.002c4.812,0,8.273,3.406,8.381,7.948
		C253.875,172.82,249.495,177.632,245.548,177.091z M245.548,177.091L245.548,177.091L245.548,177.091z M357.2,168.062
		c0.378,3.893-3.785,8.218-7.948,8.11c-4.596-0.054-8.326-3.514-8.272-8.056c0.054-3.731,2.433-8.327,8.056-8.219
		C353.686,159.951,357.146,163.358,357.2,168.062z M357.2,168.062L357.2,168.062L357.2,168.062z M238.844,442.406
		c-2.703,0.054-5.137-0.973-7.624-1.622c-0.324-0.108-0.595-0.379-0.865-0.649c-0.432-0.433-0.108-1.46,0.487-1.46
		c1.081-0.054,2.163,0,3.19,0.054c1.892,0.108,3.785,0.216,5.677,0.27c1.514,0.054,2.703-0.378,3.46-1.946
		c0.703-1.568,1.73-2.92,2.649-4.325c1.46-2.109,3.244-3.893,5.029-5.623c2.055-2.001,4.488-3.623,6.975-5.082
		c0.865-0.541,1.946-0.811,2.974-1.135c0.487-0.162,1.135,0,1.298,0.595c0.162,0.487,0.162,1.081-0.054,1.514
		s-0.703,0.811-1.136,1.081c-3.514,1.892-6.38,4.596-9.192,7.353c-2.217,2.217-3.677,4.92-4.542,7.84
		c-0.433,1.514-1.189,2.325-2.703,2.541C242.575,442.028,240.736,442.19,238.844,442.406z M238.844,442.406L238.844,442.406
		L238.844,442.406z M270.744,261.006c-3.298,0.216-4.866-0.649-5.893-3.028c-0.324-0.703-0.757-1.406-0.973-2.163
		c-0.162-0.433,0.054-0.973,0.108-1.406c0.865-0.27,1.406,0.054,1.838,0.487c1.406,1.514,2.812,2.974,4.163,4.542
		C270.312,259.762,270.42,260.303,270.744,261.006z M270.744,261.006L270.744,261.006L270.744,261.006z M280.315,253.166
		c0.487,0.865,0.865,1.46,1.135,2.109c0.27,0.595,0.108,1.19-0.324,1.676c-0.432,0.433-0.973,0.433-1.46,0.216
		c-0.649-0.27-1.352-0.541-1.784-1.027c-1.081-1.19-0.541-2.703,1.027-2.974C279.341,253.058,279.774,253.166,280.315,253.166z"/>
	<path fill-rule="evenodd" clip-rule="evenodd" fill="#FFFFFF" d="M285.073,159.897c-0.541-1.46-0.541-2.757-0.541-4.001
		c0-5.082,0.054-10.219,0-15.301c0-2.812-0.108-5.569-0.216-8.381c-0.108-3.352,0.162-3.623,3.569-3.623
		c3.406,0,6.813,0.054,10.219,0c3.947-0.054,7.353,1.514,10.273,4.055c1.081,0.865,2.055,2.055,2.703,3.244
		c3.352,6.326,2.974,14.22-2.541,20.222c-1.946,2.163-4.488,3.244-7.299,3.731c-1.027,0.162-2.109,0.27-3.19,0.27
		c-3.569,0.054-7.191,0.054-10.76,0C286.587,160.114,285.884,160.005,285.073,159.897z M285.073,159.897L285.073,159.897
		L285.073,159.897z M280.315,253.112c-0.595,0-1.027-0.054-1.406,0.054c-1.568,0.27-2.109,1.784-1.027,2.974
		c0.433,0.487,1.135,0.703,1.73,1.027c0.541,0.216,1.027,0.216,1.46-0.216c0.487-0.487,0.649-1.081,0.378-1.73
		C281.18,254.626,280.801,253.977,280.315,253.112z M280.315,253.112L280.315,253.112L280.315,253.112z M280.801,259.005
		c-2.271-0.108-3.406-1.298-4.271-2.812c-0.595-1.027-0.919-2.109-0.433-3.298c0.216-0.595,0.541-0.919,1.081-1.027
		c3.406-0.919,6.434,2.541,6.11,5.299c-0.054,0.487-0.432,1.027-0.811,1.298C281.882,258.789,281.18,258.897,280.801,259.005z
		 M280.801,259.005L280.801,259.005L280.801,259.005z M270.744,261.006c-0.324-0.703-0.432-1.244-0.757-1.622
		c-1.352-1.514-2.758-2.974-4.163-4.488c-0.433-0.432-1.027-0.757-1.892-0.487c0,0.433-0.216,0.973-0.108,1.406
		c0.216,0.757,0.703,1.46,1.027,2.163C265.878,260.357,267.446,261.222,270.744,261.006z M270.744,261.006L270.744,261.006
		L270.744,261.006z M255.659,249.381c0.757-0.216,1.244-0.541,1.676-0.433c1.622,0.324,3.19,0.703,4.65,1.244
		c2.433,0.865,4.596,2.163,6.434,3.893c2,1.892,3.947,3.947,5.893,5.894c0.595,0.649,1.19,1.352,1.19,2.487
		c-0.27,0.216-0.595,0.541-0.973,0.649c-5.515,1.298-11.084,2.163-16.815,1.352c-0.649-0.108-0.649-0.108-1.622-0.973
		c1.189-0.973,2.595-1.568,3.893-2.271c0.811-0.432,1.568-0.865,2.325-1.352c0.649-0.433,0.919-1.027,0.703-1.838
		c-0.379-1.622-1.19-3.028-2.325-4.217c-1.135-1.135-2.433-2.109-3.623-3.19C256.686,250.3,256.308,249.922,255.659,249.381z
		 M255.659,249.381L255.659,249.381L255.659,249.381z M255.118,296.637c-2.109,0.108-3.947-0.703-5.515-2.433
		c-0.973-1.135-2.163-2.163-3.19-3.244c-0.378-0.379-0.757-0.811-0.865-1.298c-0.487-1.838-0.487-3.677,0.378-5.515
		c1.406-3.028,3.244-5.731,5.894-7.894c0.919-0.703,1.73-1.568,2.541-2.379c2.055-2.001,4.542-3.19,7.245-3.947
		c1.081-0.27,2.109-0.541,3.136-0.757c0.433-0.108,0.919-0.216,1.352-0.216c1.406-0.054,1.946,0.757,1.352,2.109
		c-0.216,0.379-0.433,0.757-0.649,1.136c-1.568,2.974-3.136,5.839-4.65,8.813c-0.595,1.298-1.135,2.649-1.46,4.055
		c-0.649,2.758-1.135,5.623-1.676,8.435C258.525,296.259,258.038,296.637,255.118,296.637z M255.118,296.637L255.118,296.637
		L255.118,296.637z M406.889,338.432c-0.216-0.108-0.487-0.216-0.595-0.379c-0.541-0.865-1.027-1.73-1.514-2.595
		c-2.487-4.38-5.677-8.273-8.867-12.165c-1.298-1.622-2.703-3.136-4.272-4.434c-1.027-0.865-2.163-1.676-3.244-2.379
		c-0.811-0.487-1.676-0.162-1.946,0.757c-0.162,0.703-0.216,1.46-0.27,2.163c-0.054,2.325-0.054,4.65-0.162,6.975
		c-0.054,0.865-0.216,1.784-0.487,2.649c-0.487,1.298-1.19,1.46-2.271,0.649c-1.244-0.919-2.217-2.055-2.974-3.406
		c-1.946-3.406-3.947-6.813-5.948-10.219c-0.487-0.865-1.081-1.676-1.676-2.487c-0.378-0.487-0.811-0.919-1.298-1.352
		c-1.406-1.081-2.595-1.027-3.839,0.27c-1.027,1.081-1.622,2.379-1.676,3.839c0,2.001,0.108,4.001,0.162,5.948
		c0.108,1.892,0.27,3.785,0.216,5.623c0,0.865-0.379,1.784-0.865,2.487c-0.595,1.135-1.838,1.081-2.649,0.108
		c-0.703-0.757-0.919-1.73-1.027-2.703c-0.216-1.73-1.135-2.974-2.163-4.271c-0.487-0.595-1.135-0.811-1.892-0.811
		c-1.406,0-2.649,0.324-3.731,1.244c-0.595,0.541-1.244,1.081-1.73,1.73c-2.109,2.649-4.217,5.353-6.218,8.11
		c-1.676,2.325-3.19,4.758-4.866,7.137c-1.244,1.838-2.271,2.055-4.38,1.298c-0.757-0.324-1.514-0.541-2.271-0.757
		c-0.27-0.054-0.541,0.054-0.973,0.054c-0.054,0.487-0.216,1.027-0.108,1.46c0.324,0.973,0.703,1.892,1.135,2.758
		c1.568,2.812,3.136,5.623,4.704,8.489c2.866,5.19,5.677,10.381,8.543,15.572c0.324,0.703,0.54,1.514,0.757,2.271
		c0.054,0.379-0.487,0.919-0.865,0.811c-0.541-0.108-1.027-0.27-1.514-0.487c-5.731-3.406-11.354-6.921-16.761-10.706
		c-0.919-0.649-1.838-1.19-2.812-1.676c-0.595-0.324-1.352-0.541-1.946,0.054c-0.324,0.865,0.27,1.568,0.541,2.271
		c0.432,1.081,0.865,2.163,1.135,3.298c0.162,0.595,0.108,1.244,0.054,1.892c-0.054,0.541-0.649,0.973-1.136,0.811
		c-0.703-0.216-1.406-0.487-1.946-0.865c-2.217-1.568-4.38-3.136-6.542-4.758c-1.081-0.811-2.055-1.73-3.19-2.541
		c-0.27-0.216-0.919-0.27-1.19-0.108c-0.27,0.216-0.487,0.811-0.432,1.135c0.216,1.081,0.595,2.109,0.973,3.082
		c0.595,1.514,1.352,2.974,1.892,4.488c0.324,0.919,0.541,1.892,0.541,2.866c0,1.514-1.027,2.487-2.541,2.595
		c-0.541,0.054-1.081,0-1.568-0.162c-2.001-0.757-4.109-1.46-5.948-2.487c-2.92-1.568-5.677-3.406-8.543-5.137
		c-1.46-0.919-2.92-1.73-4.434-2.541c-0.379-0.216-0.811-0.487-1.244-0.487c-0.487-0.054-1.081-0.054-1.46,0.216
		c-0.541,0.324-0.379,0.973-0.162,1.46c0.649,1.298,1.352,2.541,2.001,3.785c0.649,1.406,1.406,2.758,1.946,4.163
		c0.27,0.811,0.216,1.784,0.162,2.649c-0.054,0.595-0.541,0.919-1.19,0.865c-0.487,0-1.081-0.108-1.514-0.27
		c-1.081-0.487-2.163-0.973-3.136-1.676c-4.974-3.515-9.895-7.083-14.22-11.463c-2.109-2.163-4.38-4.812-5.191-7.083
		c-0.108-0.216-0.108-0.487-0.108-0.865c1.244-0.541,2.271-0.054,3.244,0.595c1.46,1.136,3.19,1.676,4.866,2.163
		c0.973,0.27,1.946,0.324,2.974,0.379c1.19,0.054,2.109-0.541,2.487-1.676c0.433-1.081,0.649-2.217,0.865-3.352
		c0.054-0.216-0.108-0.487-0.108-0.757c0.108-2.001,1.514-2.812,3.082-1.676c1.892,1.406,3.623,2.974,5.353,4.488
		c1.352,1.244,2.758,2.379,4.434,3.082c3.514,1.514,5.785-0.487,6.813-3.19c0.162-0.378,0.108-0.865,0.054-1.298
		c-0.108-0.973-0.27-1.946-0.379-2.974c-0.054-0.865,0.324-1.298,1.189-1.514c1.406-0.378,2.703-0.162,3.839,0.649
		c1.406,1.027,2.703,2.055,4.055,3.136c0.703,0.541,1.352,1.19,2.109,1.676c0.487,0.324,1.136,0.595,1.676,0.757
		c1.73,0.541,2.65,0,2.92-1.73c0.108-0.649,0.054-1.298,0.162-1.892c0.378-2.055,1.244-2.649,3.244-2.055
		c0.811,0.216,1.622,0.595,2.433,1.027c1.514,0.757,3.028,1.622,4.542,2.433c0.378,0.216,0.811,0.378,1.19,0.541
		c0.811,0.433,1.73,0.973,2.433,0.108c0.649-0.757,0-1.514-0.324-2.271c-0.703-1.892-1.406-3.839-2.163-5.785
		c-0.757-2.001-1.568-4.001-2.271-6.056c-0.216-0.595-0.27-1.406-0.216-2.055c0.054-0.919,1.027-1.406,1.784-1.081
		c0.487,0.216,0.973,0.487,1.46,0.757c3.082,1.676,5.245,1.406,7.84-0.919c1.514-1.406,2.703-3.082,3.731-4.92
		c2.163-3.839,4.326-7.678,6.705-11.408c3.19-5.082,7.624-9.03,12.706-12.22c5.137-3.298,10.868-3.893,16.815-2.649
		c5.461,1.189,10.057,3.839,14.004,7.678c3.19,3.136,6.164,6.542,8.651,10.327c1.838,2.758,3.406,5.677,5.029,8.597
		c0.973,1.838,1.352,3.839,1.784,5.893C407.214,338.108,406.998,338.27,406.889,338.432z M406.889,338.432L406.889,338.432
		L406.889,338.432z M276.962,267.764c-1.081,0.27-1.568,1.081-2,2.001c-1.081,2.325-1.568,4.758-1.893,7.245
		c-0.703,4.974-1.243,10.003-2.379,14.869c-0.649,2.866-1.892,5.407-3.731,7.678c-1.352,1.676-3.028,2.866-5.191,3.136
		c-1.676,0.162-3.352,0.487-5.082,0.487c-2.271,0-4.596-0.216-6.975-0.378c-0.919-0.108-1.568,0.216-1.946,1.081
		c-0.216,0.595-0.487,1.135-0.595,1.784c-0.703,3.731-0.757,7.462,0.108,11.192c0.054,0.27,0.162,0.541,0.27,0.757
		c0.379,0.649,0.811,1.244,1.622,1.298c0.811,0.054,1.352-0.379,1.73-1.027c0.324-0.649,0.595-1.352,0.919-2.001
		c0.541-1.027,1.081-2.055,1.676-3.082c0.487-0.865,1.352-1.081,2.325-0.919c0.757,0.108,1.298,0.595,1.622,1.244
		c0.487,0.865,0.811,1.784,1.352,2.595c1.514,2.271,3.298,2.055,4.434-0.379c0.432-0.973,0.703-2.055,1.135-3.028
		c0.541-1.406,1.784-1.568,2.649-0.324c0.433,0.649,0.703,1.406,1.136,2.109c0.757,1.406,1.46,2.866,2.379,4.217
		c0.811,1.081,2.487,0.973,3.244-0.162c0.432-0.703,0.649-1.514,1.027-2.217c0.541-1.135,1.027-2.325,1.676-3.352
		c0.811-1.352,2.217-1.784,3.731-1.406c0.324,0.108,0.703,0.27,1.027,0.433c1.568,0.865,3.136,1.676,4.65,2.595
		c3.244,1.946,6.542,0.27,6.65-3.406c0-0.487,0-0.919,0-1.352c0-1.568,0-3.082,0-4.596c0-0.487,0.216-0.865,0.919-0.865
		c0.324,0.432,0.703,0.919,1.027,1.46c1.622,2.812,3.677,5.245,6.056,7.461c0.649,0.649,1.352,1.406,2.325,0.919
		c0.811-0.433,0.811-1.352,0.757-2.163c-0.216-2.055-0.378-4.109-0.811-6.11c-0.973-4.65-2.109-9.3-3.19-13.896
		c-0.216-0.703-0.432-1.352-0.757-2.055c-1.243-2.92-2.541-5.893-3.893-8.813c-1.676-3.514-3.731-6.759-6.218-9.786
		c-0.595-0.757-1.352-1.406-2.055-2.055c-0.216-0.216-0.595-0.27-1.135-0.487c0,0.703-0.162,1.298,0,1.676
		c0.811,1.676,0.973,3.46,1.244,5.245c0.162,1.081,0.378,2.109,0.541,3.19c0.216,1.838,0.432,3.731,0.649,5.569
		c0.054,0.378-0.054,0.757-0.595,0.757c-0.108-0.108-0.27-0.216-0.379-0.324c-0.162-0.432-0.324-0.811-0.541-1.244
		c-1.838-4.596-4.163-8.921-6.813-13.139C279.017,269.17,278.314,268.089,276.962,267.764z M276.962,267.764L276.962,267.764
		L276.962,267.764z M238.844,442.406c1.838-0.216,3.731-0.378,5.623-0.595c1.514-0.162,2.271-1.027,2.703-2.541
		c0.865-2.92,2.271-5.623,4.488-7.786c2.866-2.758,5.731-5.461,9.246-7.407c0.433-0.27,0.919-0.595,1.136-1.081
		c0.216-0.432,0.216-1.027,0.054-1.514c-0.162-0.595-0.811-0.703-1.298-0.541c-1.027,0.27-2.109,0.541-3.028,1.081
		c-2.433,1.514-4.866,3.082-6.921,5.082c-1.784,1.73-3.623,3.515-5.029,5.623c-0.919,1.406-1.946,2.811-2.649,4.325
		c-0.757,1.568-1.946,2.001-3.46,1.946c-1.893-0.054-3.785-0.162-5.677-0.27c-1.027-0.054-2.109-0.108-3.19-0.054
		c-0.595,0-0.919,1.027-0.487,1.514c0.27,0.216,0.541,0.487,0.865,0.595C233.707,441.487,236.14,442.46,238.844,442.406z
		 M238.844,442.406L238.844,442.406L238.844,442.406z M357.2,168.008c-0.054-4.65-3.569-8.056-8.164-8.11
		c-5.677-0.108-8.002,4.488-8.056,8.219c-0.054,4.542,3.677,8.002,8.272,8.056C353.415,176.28,357.525,171.955,357.2,168.008z
		 M357.2,168.008L357.2,168.008L357.2,168.008z M245.494,177.091c4.001,0.541,8.327-4.272,8.218-8.273
		c-0.108-4.542-3.568-7.948-8.381-7.948c-4.596,0.054-7.786,3.406-7.948,8.002C237.222,172.603,240.952,177.632,245.494,177.091z
		 M245.494,177.091L245.494,177.091L245.494,177.091z M196.346,180.714c2.541-0.324,5.137-0.649,7.678-1.027
		c5.515-0.757,10.327-3.028,14.653-6.488c1.189-0.973,2.055-2.163,2.758-3.569c1.406-2.649,0.433-7.191-2.649-8.273
		c-2.433-0.865-4.974-0.973-7.137,0.811c-1.46,1.19-2.974,2.271-4.704,3.136c-3.568,1.73-7.407,1.946-11.246,2.055
		c-2.866,0.054-5.515-0.649-8.056-1.838c-6.596-3.082-10.165-9.029-9.678-16.275c0.379-5.623,3.352-9.786,8.002-12.706
		c2.974-1.838,6.434-2.757,10.003-2.595c4.866,0.216,9.3,1.73,13.301,4.596c0.487,0.379,0.973,0.811,1.514,1.081
		c2.758,1.514,5.894,0.811,8.002-1.676c2.217-2.595,1.892-6.218,0.054-8.11c-1.406-1.46-2.92-2.649-4.65-3.623
		c-4.109-2.379-8.435-3.947-13.085-4.812c-5.082-0.973-10.057-0.649-14.923,0.703c-6.326,1.73-11.3,5.677-15.464,10.706
		c-0.757,0.865-1.352,1.892-1.838,2.974c-0.973,2.109-1.946,4.217-2.649,6.488c-1.838,5.947-1.73,12.057,0.162,18.005
		c2.974,9.192,9.462,14.977,18.275,18.546c0.649,0.27,1.352,0.433,2.055,0.595C189.857,180.119,193.048,180.768,196.346,180.714z
		 M196.346,180.714L196.346,180.714L196.346,180.714z M219.866,455.761c-0.054,1.244,0.433,1.946,0.973,2.541
		c1.244,1.352,2.541,2.758,3.839,4.109c3.244,3.46,7.462,5.353,11.895,6.488c3.46,0.919,7.083,1.081,10.706,0.865
		c1.244-0.054,2.163-0.595,2.703-1.838c0.865-2.109,1.622-4.163,1.838-6.434c0.108-0.811,0.432-1.568,0.703-2.325
		c0.054-0.162,0.487-0.378,0.595-0.324c0.324,0.054,0.703,0.27,0.811,0.595c0.162,0.487,0.216,1.027,0.162,1.568
		c0,1.676-0.108,3.406-0.216,5.082c0,0.487-0.108,0.919-0.108,1.352c0,0.649,0.595,1.19,1.298,1.027
		c1.081-0.324,2.271-0.595,3.244-1.19c2.433-1.406,4.866-2.703,6.921-4.596c0.27-0.27,0.541-0.487,0.811-0.757
		c1.298-1.244,1.838-2.703,1.73-4.542c-0.433-8.543-3.028-16.383-7.732-23.52c-0.811-1.244-1.622-2.541-2.433-3.839
		c-0.162-0.216-0.27-0.487-0.27-0.757c0-0.324,0.054-0.757,0.27-0.919c0.216-0.216,0.649-0.27,0.973-0.162
		c0.433,0.108,0.865,0.378,1.135,0.703c4.055,4.542,7.624,9.462,9.57,15.409c0.811,2.325,1.406,4.65,1.73,7.029
		c0.216,1.298,0.649,2.595,1.027,4.109c0.541-0.27,0.919-0.433,1.244-0.703c0.216-0.216,0.378-0.541,0.595-0.865
		c1.622-3.406,2.974-6.921,3.406-10.706c0.703-5.948-0.324-11.625-2.703-17.086c-0.324-0.649-0.595-1.298-0.811-2
		c-0.216-0.973,0.108-1.73,1.027-2.325c0.433-0.27,0.973-0.378,1.514-0.108c0.919,0.433,1.568,1.135,2.055,2.055
		c1.46,2.866,2.541,5.948,3.028,9.138c0.865,5.948,0.811,11.841-1.19,17.572c-1.514,4.38-3.568,8.435-6.65,11.949
		c-0.649,0.757-1.243,1.514-1.892,2.271c-0.595,0.811-0.595,1.406,0,2.217c0.487,0.595,1.027,1.189,1.46,1.892
		c0.541,0.757,0.487,1.46-0.108,2.217c-1.46,1.946-3.406,3.19-5.677,3.947c-3.082,0.973-6.218,1.676-9.408,2.217
		c-4.65,0.811-9.354,1.622-14.112,1.838c-4.596,0.216-9.138,0.595-13.734,0.811c-2.379,0.108-4.812,0.054-7.245-0.054
		c-4.326-0.162-8.597-0.487-12.922-0.649c-2.595-0.108-5.191-0.487-7.732-1.027c-2.379-0.541-4.812-0.703-7.191-1.136
		c-2.649-0.433-5.299-1.027-7.732-2.163c-1.622-0.757-3.244-1.568-4.65-2.649c-1.838-1.352-1.838-2.974-0.216-4.596
		c0.703-0.649,1.514-1.406,2.379-1.676c2.649-0.919,5.191-2.001,7.894-2.703c5.407-1.352,10.922-2.163,16.491-2.541
		c2.001-0.162,4.055-0.541,6.272-0.811c-0.054-0.703,0-1.244-0.162-1.676c-0.378-0.811-0.865-1.622-1.298-2.379
		c-1.892-3.623-2.866-7.516-3.406-11.517c-0.703-4.974-0.487-9.895,0.919-14.707c0.649-2.325,1.73-4.488,2.649-6.704
		c0.378-0.919,1.135-1.298,2.163-1.406c1.568-0.216,2.703,1.568,2.055,2.866c-0.432,0.973-0.973,1.892-1.46,2.866
		c-0.703,1.514-0.595,2.163,0.757,3.244c0.487,0.433,1.027,0.757,1.568,1.027c1.189,0.649,2.433,1.243,3.623,1.838
		c0.919,0.541,1.838,0.703,2.92,0.432c0.324-0.649,0.595-1.298,1.027-1.838c0.433-0.433,0.919-0.865,1.514-1.136
		c1.027-0.433,2.271,0.379,2.271,1.514c0,0.379,0,0.757-0.162,1.081c-0.595,1.676-1.136,3.406-1.838,5.028
		c-0.541,1.352-1.189,1.46-2.595,0.811c-3.082-1.46-5.948-3.244-8.543-5.461c-0.432-0.378-0.919-0.595-1.406-0.919
		c-0.379,0.432-0.703,0.703-0.919,1.081c-0.162,0.433-0.324,0.865-0.324,1.298c-0.216,4.758-0.108,9.516,1.19,14.166
		c0.379,1.352,1.244,2.055,2.541,2.541c6.704,2.325,13.571,3.46,20.654,3.406c2.487,0,4.974-0.324,7.461-0.919
		c1.946-0.487,2.595-1.298,2.109-3.244c-0.541-2.055-1.352-4.109-2-6.164c-0.216-0.649-0.487-1.352-0.541-2.001
		c0-0.378,0.378-0.811,0.703-1.027c0.216-0.162,0.649,0,0.973,0.162c0.216,0.108,0.487,0.27,0.595,0.541
		c1.189,2.163,2.974,4.055,3.623,6.542c0.324,1.406,0.865,2.757,1.244,4.109c0.162,0.811,0.27,1.622,0.216,2.379
		c0,1.027-0.541,1.622-1.568,1.892c-1.838,0.487-3.623,0.973-5.569,0.973c-1.73,0.054-3.568,0.324-5.353,0.379
		c-4.596,0.216-9.137-0.324-13.625-1.136c-2.055-0.324-3.947-1.19-5.947-1.784C221.001,455.761,220.514,455.815,219.866,455.761z
		 M219.866,455.761L219.866,455.761L219.866,455.761z M271.339,144.596L271.339,144.596c0.054,7.083,0.108,14.166,0.216,21.249
		c0.054,0.919,0.162,1.784,0.378,2.649c0.162,0.703,0.432,1.406,0.811,2.001c1.135,1.892,2.866,2.92,5.137,2.92
		c3.244-0.054,6.434-0.054,9.678-0.054c4.055,0,8.11,0,12.165-0.054c3.785-0.054,7.353-1.027,10.814-2.757
		c9.354-4.596,14.436-12.382,15.734-22.384c1.081-8.273-0.973-16.058-6.38-22.709c-2.433-3.028-5.191-5.731-8.813-7.299
		c-1.352-0.595-2.703-1.027-4.055-1.46c-2.487-0.757-5.082-1.244-7.678-1.189c-2.92,0-5.785,0.108-8.651-0.162
		c-4.434-0.433-8.759,0.054-13.139,0.379c-3.839,0.216-5.948,2.649-6.272,6.488c-0.162,1.514-0.162,3.082-0.162,4.596
		C271.177,132.755,271.285,138.648,271.339,144.596z M271.339,144.596L271.339,144.596L271.339,144.596z M404.727,149.138
		c-0.973-0.703-1.352-1.622-1.784-2.487c-3.19-6.11-6.38-12.274-9.624-18.383c-0.703-1.406-1.622-2.757-2.379-4.163
		c-0.865-1.568-2.109-2.541-3.785-3.244c-3.406-1.46-6.65-0.757-8.921,2.109c-0.649,0.865-1.244,1.73-1.244,2.92
		c-0.054,2.866-0.216,5.731-0.27,8.597c-0.054,6.759-0.108,13.463-0.162,20.168c-0.054,5.353-0.108,10.652-0.054,15.896
		c0.054,1.352,0.162,2.757,0.541,4.001c1.568,4.325,6.867,5.515,10.165,2.325c1.081-0.973,1.893-2.163,2.055-3.677
		c0.162-1.784,0.378-3.569,0.432-5.353c0.054-5.082,0.054-10.219,0.054-15.356c0-0.324,0.216-0.703,0.432-1.406
		c0.541,0.811,0.919,1.298,1.19,1.838c2.163,3.839,4.271,7.732,6.434,11.517c0.703,1.244,1.514,2.487,2.487,3.514
		c1.514,1.622,3.514,2.163,5.677,1.46c1.784-0.541,3.406-1.514,4.434-3.244c1.027-1.838,2.109-3.569,3.136-5.353
		c1.514-2.866,3.028-5.731,4.596-8.543c0.162-0.379,0.324-0.865,1.081-0.865c0.054,0.865,0.108,1.73,0.108,2.595
		c0,5.19,0,10.435,0,15.626c0,1.081,0.054,2.163,0.216,3.244c0.432,3.406,2.379,5.028,5.515,5.731
		c2.217,0.541,6.164-0.865,6.975-4.163c0.324-1.19,0.487-2.433,0.487-3.677c0.108-5.299,0.108-10.598,0.162-15.896
		c0-6.38,0.054-12.76,0.108-19.14c0-2.703,0-5.407-0.054-8.11c-0.054-2.271-0.865-4.325-2.649-5.623
		c-3.677-2.703-8.11-2.379-10.814,1.676c-1.568,2.379-2.974,4.92-4.326,7.462c-3.136,5.623-6.218,11.3-9.354,16.978
		C405.43,148.435,405.051,148.705,404.727,149.138z M404.727,149.138L404.727,149.138L404.727,149.138z M302.375,188.067
		c-8.218,0.216-18.978,0.433-29.792,0.757c-12.111,0.433-24.223,1.19-36.28,2.325c-6.002,0.487-12.003,0.973-17.951,1.73
		c-10.273,1.244-20.546,2.541-30.711,4.109c-10.165,1.514-20.222,3.352-30.279,5.028c-1.676,0.27-3.406,0.595-5.028,1.027
		c-2.379,0.649-3.947,2.703-4.163,5.137c-0.162,2.379,1.244,4.542,3.568,5.515c1.19,0.487,2.379,0.487,3.677,0.27
		c6.975-1.244,13.95-2.595,20.925-3.731c8.705-1.46,17.41-2.757,26.115-3.947c7.083-1.027,14.274-1.784,21.411-2.541
		c6.704-0.703,13.409-1.298,20.114-1.838c6.704-0.541,13.463-0.811,20.168-1.298c11.571-0.811,23.141-0.973,34.712-1.081
		c14.491-0.108,28.927,0.108,43.363,0.811c6.38,0.324,12.76,0.757,19.14,1.135c2.379,0.162,4.812,0.324,7.245,0.541
		c9.624,0.973,19.303,1.892,28.927,3.082c8.381,0.973,16.761,2.163,25.088,3.46c8.543,1.352,16.978,2.974,25.466,4.434
		c0.703,0.162,1.406,0.216,2.163,0.216c4.271-0.162,6.759-4.65,4.65-8.381c-0.973-1.838-2.595-2.595-4.542-2.92
		c-4.596-0.811-9.192-1.676-13.787-2.487c-10.868-2.001-21.79-3.568-32.766-4.974c-13.085-1.676-26.223-2.974-39.416-4.055
		c-10.922-0.865-21.844-1.406-32.82-1.838C322.704,188.229,313.837,188.229,302.375,188.067z M302.375,188.067L302.375,188.067
		L302.375,188.067z M394.724,353.95c-0.811,0.649-0.757,1.406-0.757,2.109c0,1.892,0.054,3.785,0,5.677
		c-0.108,1.676-0.27,3.352-0.487,5.082c-0.973,6.759-2.92,13.301-5.191,19.735c-0.487,1.514-1.244,2.757-2.703,3.514
		c-1.46,0.703-3.298,0.054-3.785-1.514c-0.27-1.027-0.433-2.163-0.27-3.19c0.595-3.46-0.379-6.813-0.973-10.111
		c-0.432-2.703-1.73-5.137-3.352-7.299c-0.108-0.216-0.379-0.324-0.595-0.487c-0.919,0.27-0.919,1.136-0.973,1.73
		c-0.324,2.001-0.433,3.947-0.757,5.893c-0.811,5.947-3.136,11.192-6.975,15.788c-0.595,0.703-1.244,1.352-2.001,1.838
		c-1.568,1.027-3.515,0.162-3.893-1.73c-0.108-0.433-0.108-0.919-0.108-1.352c0.054-1.514,0.108-3.028,0.054-4.542
		c-0.108-2.055-0.27-4.163-0.595-6.164c-0.27-1.622-1.298-2.974-2.433-4.163c-0.487-0.541-1.46-0.432-1.893,0.216
		c-0.378,0.649-0.757,1.406-0.865,2.217c-0.433,2.217-1.244,4.272-2.163,6.326c-2.325,4.974-4.65,9.949-7.732,14.491
		c-0.433,0.703-0.865,1.406-1.136,2.109c-0.27,0.649-0.433,1.406-0.378,2.109c0.216,1.676,1.676,2.433,3.19,1.568
		c0.757-0.432,1.46-1.027,2.109-1.622c2.109-2.217,3.839-4.758,4.974-7.624c0.324-0.757,0.432-1.784,1.406-2.109
		c0.811,0.216,0.919,0.919,0.919,1.514c0.216,2.055,0.216,4.109-0.324,6.164c-0.378,1.298-0.865,2.541-1.892,3.515
		c-0.595,0.541-1.135,1.19-1.73,1.73c-2.379,2.109-4.163,4.704-5.677,7.462c-0.541,0.973-0.757,2.001-0.703,3.082
		c0.162,2.325,0.324,4.65,0.541,6.975c0.27,2.812,0.541,5.569-0.054,8.327c-0.054,0.27-0.054,0.541,0,0.811
		c0,0.433,0.487,0.811,0.973,0.703c1.406-0.324,2.757-0.919,3.677-2.055c0.973-1.135,1.838-2.433,2.595-3.731
		c0.595-0.973,0.919-2.163,1.352-3.244c0.216-0.433,0.487-0.865,0.973-0.703c0.379,0.162,0.811,0.595,0.865,0.919
		c0.162,0.865,0.216,1.784,0.108,2.649c-0.541,3.244-1.838,6.218-4.109,8.597c-1.406,1.514-2.595,3.298-4.488,4.271
		c-0.27,0.162-0.487,0.487-0.811,0.703c-1.135,0.919-1.46,2.163-1.298,3.623c0.162,2.055,0.649,4.055,1.838,5.839
		c1.406,2.163,2.92,4.271,4.433,6.38c0.541,0.757,0.865,1.568,0.919,2.487c0.162,1.189-0.054,2.325-0.865,3.244
		c-0.919,0.973-1.298,2.109-1.46,3.406c-0.162,1.676-1.298,2.703-2.649,3.514c-0.216,0.162-0.487,0.216-0.757,0.216
		c-1.244,0.216-2.271-0.216-3.298-0.919c-0.919-0.595-1.568-1.406-1.676-2.487c0.649-0.757,1.352-0.541,2.055-0.324
		c0.595,0.162,1.244,0.487,1.73-0.162c0.324-0.487,0.162-1.136-0.811-1.73c-1.352-0.919-1.892-2.163-1.784-3.677
		c0.324-3.028-0.541-5.839-1.46-8.651c-0.432-1.406-0.649-2.812-1.514-4.055c-0.757-1.027-1.406-1.352-2.487-0.703
		c-0.919,0.487-1.838,1.135-2.487,2.001c-1.406,1.946-2.703,4.001-4.001,6.002c-1.298,2.109-1.406,4.271-0.108,6.38
		c0.595,1.081,0.811,2.163,0.649,3.352c-0.162,1.135-0.649,1.622-1.73,1.676c-1.081,0.054-2.163,0.054-3.19-0.487
		c-0.541-0.27-1.19-0.378-1.784-0.378c-1.73-0.054-2.812,1.514-2.109,3.136c0.27,0.757,0.811,1.406,1.19,2.055
		c0.27,0.487,0.541,0.919,0.757,1.352c-0.27,0.757-0.703,0.865-1.298,0.595c-3.677-1.784-5.082-4.65-4.163-8.597
		c0.541-2.325,1.46-4.434,2.758-6.38c2.163-3.244,4.325-6.434,6.488-9.624c0.27-0.433,0.433-0.919,0.703-1.406
		c-1.027-0.649-1.946-0.324-2.703-0.054c-2.325,0.919-4.65,1.946-6.921,3.028c-0.595,0.27-1.081,0.919-1.568,1.46
		c-0.757,0.811-1.514,1.784-2.325,2.595c-0.541,0.541-1.244,1.027-1.892,1.46c-1.189,0.703-2.325,0.919-3.514,0.054
		c-0.162-0.108-0.324-0.162-0.487-0.27c-0.432-0.27-0.919-0.27-1.244,0.108c-0.216,0.324-0.324,0.811-0.324,1.189
		c0.054,0.541,0.27,1.081,0.487,1.568c0.216,0.487,0.487,0.919,0.703,1.46c0.27,0.703,0.108,1.352-0.324,1.676
		c-0.541,0.378-1.298,0.162-1.838-0.595c-0.054-0.108-0.162-0.162-0.162-0.216c-0.757-1.352-1.568-2.649-2.217-4.055
		c-0.865-1.946-0.649-3.893,0.703-5.569c1.027-1.352,2.217-2.595,3.352-3.839c0.649-0.703,1.514-0.973,2.433-1.081
		c0.865-0.108,1.784-0.162,2.703-0.216c1.568-0.054,2.92-0.757,4.163-1.622c1.73-1.135,3.352-2.379,5.136-3.46
		c0.811-0.487,1.838-0.649,2.812-0.811c0.757-0.108,1.622-0.054,2.433-0.054c2.541-0.162,4.65-1.406,6.38-3.136
		c1.298-1.298,1.838-3.082,1.946-4.92c0.108-2.217,0.162-4.488,0.054-6.704c-0.108-2.866-0.216-5.785-0.757-8.597
		c-0.703-3.677-2.433-6.921-6.002-8.813c-2.109-1.135-4.271-2.271-6.326-3.568c-1.568-1.027-2.974-2.325-4.434-3.515
		c-1.73-1.406-3.46-2.757-5.028-4.38c-0.865-0.919-2.109-0.811-3.028-0.162c-2.866,1.946-6.272,2.487-9.462,3.623
		c-1.352,0.432-2.811,0.541-4.217,0.811c-1.784,0.324-3.569,0.541-4.974,1.892c-0.541,0.595-1.352,1.081-1.081,2.001
		c0.27,1.027,1.189,0.919,2,1.027c4.001,0.433,7.84-0.216,11.409-2.163c0.487-0.216,0.973-0.487,1.46-0.595
		c0.541-0.162,1.081,0.378,1.027,0.919c-0.054,1.135-0.649,2.055-1.352,2.866c-2.433,2.812-5.623,4.109-9.246,4.434
		c-1.136,0.054-2.325,0-3.515,0c-3.028-0.054-6.056,0.162-9.083,0.757c-3.406,0.649-6.813,0.216-10.111-0.811
		c-3.19-0.973-6.326-2.055-9.462-3.136c-3.406-1.189-6.975-1.514-10.597-1.135c-1.136,0.108-2.217,0.595-3.298,1.135
		c-1.19,0.541-1.352,2.109-0.487,3.19c0.703,0.865,1.676,1.298,2.758,1.514c2.163,0.378,4.325,0.27,6.488,0
		c0.973-0.108,1.946-0.324,2.92-0.27c2.974,0.054,4.866,2.163,4.542,5.082c-0.162,1.73-0.487,3.406-1.514,4.812
		c-0.324,0.433-0.649,0.703-1.136,0.487c-0.27-0.108-0.595-0.432-0.649-0.703c-0.162-0.811-0.162-1.622-0.27-2.433
		c-0.108-0.487-0.27-0.973-0.432-1.676c-0.703,0.108-1.352,0.054-1.838,0.324c-1.135,0.595-2.217,0.649-3.406,0.324
		c-2.163-0.541-4.38-0.757-6.65-0.919c-2.812-0.216-5.515-1.027-7.353-3.406c-0.919-1.135-2.001-1.406-3.352-0.919
		c-1.19,0.432-2.379,0.757-3.569,1.244c-0.865,0.378-1.73,0.919-2.487,1.514c-0.649,0.432-0.811,1.19-0.595,1.946
		c0.162,0.487,0.432,0.973,0.595,1.514c0.487,2.001-0.487,3.839-2.487,4.434c-0.541,0.216-1.189,0.27-1.946,0.487
		c0.108,0.541,0.054,1.136,0.324,1.514c0.541,0.811,1.244,1.568,1.892,2.325c0.216,0.27,0.541,0.433,0.757,0.757
		c0.162,0.27,0.27,0.649,0.162,0.973c-0.162,0.541-0.649,0.487-1.135,0.379c-2.001-0.379-3.623-1.622-4.866-3.136
		c-2.163-2.703-2.974-5.623-1.406-9.029c1.19-2.703,3.028-4.866,5.407-6.596c0.865-0.649,1.784-1.189,2.649-1.784
		c0.27-0.162,0.379-0.487,0.811-1.135c-2.217,0.433-4.001,0.811-5.623,1.784c-0.541,0.324-1.027,0.811-1.514,1.081
		c-1.081,0.649-1.73,1.46-1.892,2.812c-0.162,1.622-1.081,2.811-2.649,3.46c-0.27,0.054-0.487,0.162-0.703,0.324
		c-0.757,0.487-0.973,0.973-0.757,1.838c0.108,0.487,0.324,0.973,0.433,1.514c0.108,0.703-0.649,1.244-1.244,0.919
		c-1.243-0.703-2.433-1.514-3.19-2.757c-0.703-1.081-1.19-2.271-1.081-3.569c0.108-1.298,0.27-2.649,0.541-3.947
		c0.216-1.244,1.027-2.109,2.109-2.649c0.487-0.216,0.973-0.487,1.46-0.703c1.46-0.703,2.758-1.568,3.623-3.028
		c1.135-1.838,2.866-2.703,4.974-2.703c0.487-0.054,0.919-0.054,1.352-0.054c2.001,0.108,3.893-0.216,5.839-0.919
		c1.622-0.649,3.46-0.919,5.191-1.352c1.568-0.324,3.136-0.757,4.434-1.784c0.919-0.649,1.946-0.919,3.028-0.973
		c4.542-0.27,8.975-0.108,13.355,0.973c4.812,1.244,9.624,2.271,14.49,3.298c1.027,0.216,2.109,0.054,3.19,0.108
		c2.703,0.108,4.758-2.325,4.974-4.434c0.162-2.163,0-4.271-0.973-6.326c-2.271-4.974-6.056-8.651-10.165-12.003
		c-1.244-1.027-2.595-2-3.947-2.812c-4.434-2.541-8.056-6.002-11.571-9.624c-4.65-4.866-8.813-10.219-12.382-15.95
		c-2.812-4.488-5.353-9.138-7.245-14.112c-2.811-7.624-4.325-15.356-4.055-23.466c0.162-3.623,0.487-7.191,1.352-10.706
		c0.379-1.46,0.865-2.92,1.352-4.38c0.541-1.622,0.703-3.19-0.649-4.488c-0.054-0.108-0.108-0.162-0.162-0.216
		c-3.623-4.704-2.649-10.165-0.108-14.112c0.703-1.135,1.622-2.217,2.649-3.082c2.325-1.893,4.434-4.109,7.245-5.515
		c0.649-0.378,1.46-0.757,1.298-1.946c-0.595-0.054-1.189-0.162-1.784-0.27c-0.541-0.054-1.081,0-1.622-0.162
		c-0.27-0.108-0.595-0.432-0.649-0.757c-0.054-0.27,0.108-0.703,0.324-0.919c0.27-0.324,0.703-0.541,1.081-0.757
		c2.703-1.46,5.353-2.866,8.056-4.325c0.973-0.541,2.163-0.973,2.487-2.379c-1.946-3.515-4.812-5.948-8.651-7.191
		c-0.324-0.108-0.703-0.108-1.027-0.216c-0.919-0.378-1.189-1.244-0.649-1.946c0.324-0.432,0.649-0.865,1.081-1.19
		c2.001-1.298,4.055-2.379,6.434-2.595c2.433-0.162,4.866-0.27,7.245-0.162c1.46,0,2.812,0.541,4.217,0.811
		c0.649,0.162,1.244,0.324,1.838,0.324c0.595,0.054,1.027-0.595,0.649-1.081c-0.649-0.973-1.406-1.892-2.163-2.703
		c-0.703-0.757-1.46-1.352-2.217-2.001c-1.46-1.406-2.433-3.082-3.298-4.866c-0.649-1.298-0.595-2.649-0.324-4.001
		c0.162-1.244,1.73-2.001,3.19-1.676c0.973,0.216,1.784,0.811,2.487,1.514c0.595,0.649,1.19,1.352,1.892,1.946
		c1.244,1.081,2.595,0.757,3.244-0.757c0.378-0.919,0.541-1.893,0.865-2.866c0.324-1.027,0.649-2.055,1.136-2.974
		c0.27-0.541,0.811-0.973,1.244-1.406c1.298-1.19,2.757-1.244,4.055,0.649c0.541,0.811,0.811,1.838,1.081,2.757
		c0.324,1.027,0.487,2.109,0.865,3.082c1.027,2.595,2.811,2.812,4.38,0.541c1.081-1.568,2.271-2.974,3.839-4.055
		c0.27-0.216,0.595-0.433,0.919-0.595c1.352-0.757,2.433-0.324,2.866,1.189c0.432,1.514,0.216,3.028,0.054,4.542
		c-0.162,1.081-0.27,2.163-0.216,3.244c0.054,1.244,0.865,1.784,2.001,1.406c0.811-0.324,1.568-0.811,2.325-1.298
		c0.757-0.487,1.352-1.189,2.109-1.622c1.73-0.973,3.46-0.541,4.325,1.244c0.433,0.865,0.703,1.838,0.919,2.811
		c0.703,2.974,0.541,6.056,0.379,9.084c-0.162,2.433-0.27,4.866-1.027,7.191c-0.378,1.19-0.865,2.379-1.352,3.515
		c-0.216,0.487-0.541,0.919-0.919,1.352c-2.001,2.379-4.65,2.487-7.083,0.487c-0.919-0.703-1.622-1.676-2.325-2.595
		c-0.703-0.811-1.352-1.676-2.055-2.487c-0.216-0.27-0.541-0.432-0.811-0.649c-0.649,0.216-0.649,0.595-0.541,1.081
		c0.216,1.298,0.865,2.325,1.892,3.19c1.676,1.46,3.46,2.866,4.866,4.596c2.379,2.812,4.65,5.731,6.705,8.759
		c2.649,3.947,4.65,8.327,6.218,12.814c1.73,5.028,3.244,10.111,4.38,15.301c0.216,0.811,0.379,1.73,0.324,2.649
		c0,1.46,0.595,2.595,1.622,3.568c0.216,0.27,0.487,0.541,0.757,0.757c3.46,2.649,6.218,5.948,9.029,9.192
		c1.73,2.001,3.298,4.055,4.92,6.056c0.703,0.865,1.46,1.622,2.217,2.379c1.135,0.973,2.379,1.027,3.298-0.108
		c0.919-1.027,1.73-2.109,2.217-3.352c1.514-3.893,3.893-7.299,6.164-10.76c1.514-2.271,3.298-4.488,5.19-6.488
		c3.785-4.001,7.84-7.678,12.977-9.949c2.487-1.136,5.137-1.568,7.732-2.109c0.649-0.108,1.298-0.108,1.892-0.27
		c2.649-0.595,5.245-0.054,7.732,0.433c6.867,1.298,12.814,4.542,18.059,9.083c4.704,4.055,8.597,8.705,12.328,13.571
		c2.811,3.623,4.974,7.678,6.65,11.949c0.324,0.757,0.595,1.514,0.919,2.271c2.433,4.974,3.46,10.327,4.325,15.734
		c1.027,6.164,0.919,12.382,0.865,18.6c0,0.541,0,1.027-0.108,1.568c-1.081,8.597-2.217,17.14-4.974,25.358
		c-1.135,3.298-2.433,6.542-3.677,9.841c-0.378,1.027-1.19,1.784-2.217,2.217c-1.676,0.703-3.352-0.216-3.623-2.001
		c-0.162-0.973-0.054-2.001,0.108-2.974c0.973-6.11,0.865-12.165-0.649-18.167c-1.243-4.974-2.757-9.895-4.92-14.544
		c-1.352-2.974-2.974-5.894-4.488-8.867c-0.324-0.649-0.757-1.244-1.244-1.73C395.643,354.22,395.102,354.112,394.724,353.95z
		 M394.724,353.95L394.724,353.95L394.724,353.95z M130.22,108.64c0,0.919,0,1.514,0,2.163c0.054,2.758,0.162,5.569,0.216,8.327
		c0.378,17.248,0.757,34.496,1.081,51.744c0.379,17.681,0.757,35.361,1.136,53.041c0.324,16.275,0.649,32.549,0.973,48.77
		c0.432,18.437,0.811,36.821,1.243,55.258c0.324,16.437,0.649,32.874,0.973,49.311c0.379,17.626,0.757,35.199,1.136,52.825
		c0.27,12.814,0.487,25.683,0.757,38.497c0.054,3.785,0.487,7.57,1.514,11.192c2.433,8.218,7.624,13.679,15.788,16.275
		c3.136,0.973,6.326,1.514,9.57,1.676c4.38,0.27,8.759,0.378,13.193,0.757c6.164,0.487,12.328,0.973,18.492,1.784
		c7.894,1.027,15.788,2.271,23.682,3.623c10.976,1.892,21.844,4.38,32.549,7.516c17.897,5.353,33.631,14.328,46.661,27.899
		c0.432,0.433,0.865,0.865,1.46,1.352c0.432-0.433,0.811-0.757,1.19-1.135c2.163-2.163,4.271-4.38,6.542-6.434
		c10.598-9.516,22.817-16.167,36.28-20.654c9.895-3.244,20.114-5.407,30.279-7.516c8.273-1.676,16.653-3.082,25.034-4.109
		c5.353-0.703,10.706-1.352,16.058-1.784c6.596-0.541,13.247-0.865,19.897-1.298c3.947-0.27,7.84-0.973,11.517-2.487
		c5.407-2.163,9.462-5.839,11.895-11.138c0.757-1.514,1.352-3.136,1.838-4.758c1.081-3.623,1.46-7.407,1.568-11.192
		c0.324-14.977,0.595-30.008,0.919-44.985c0.379-17.41,0.757-34.82,1.136-52.284c0.378-17.302,0.703-34.658,1.081-51.96
		c0.379-17.464,0.757-34.874,1.081-52.284c0.378-16.383,0.703-32.712,1.027-49.04c0.433-21.411,0.865-42.768,1.298-64.125
		c0.324-14.22,0.649-28.386,0.919-42.606c0.054-0.649-0.054-1.352-0.108-2.109c-0.757-0.162-1.352-0.27-2.001-0.379
		c-6.759-1.027-13.517-2.055-20.276-3.028c-5.028-0.703-10.111-1.298-15.193-1.946c-6.596-0.757-13.193-1.568-19.843-2.271
		c-6.65-0.703-13.409-1.244-20.113-1.892c-10.652-1.081-21.303-1.838-31.955-2.379c-13.355-0.649-26.764-1.243-40.119-1.568
		c-24.98-0.595-49.96-0.108-74.939,1.081c-3.406,0.162-6.813,0.324-10.219,0.541c-8.975,0.649-17.897,1.352-26.872,2.055
		c-4.488,0.324-8.976,0.649-13.409,1.135c-8.759,0.973-17.518,2.001-26.223,3.028c-11.03,1.244-21.952,2.866-32.82,4.542
		C134.221,107.937,132.382,108.262,130.22,108.64z"/>
</g>
</svg>
