<?xml version="1.0" encoding="utf-8"?>
<!-- Generator: Adobe Illustrator 17.0.0, SVG Export Plug-In . SVG Version: 6.00 Build 0)  -->
<!DOCTYPE svg PUBLIC "-//W3C//DTD SVG 1.1//EN" "http://www.w3.org/Graphics/SVG/1.1/DTD/svg11.dtd">
<svg version="1.1" id="Capa_1" xmlns="http://www.w3.org/2000/svg" xmlns:xlink="http://www.w3.org/1999/xlink" x="0px" y="0px"
	 width="595.3px" height="595.3px" viewBox="0 0 595.3 595.3" style="enable-background:new 0 0 595.3 595.3;" xml:space="preserve"
	>
<style type="text/css">
	.st0{fill-rule:evenodd;clip-rule:evenodd;fill:#FFFFFF;}
	.st1{fill-rule:evenodd;clip-rule:evenodd;fill:#157E2F;}
</style>
<g>
	<path class="st0" d="M286.1,588.9c-21.4-11.9-42.1-25.1-61.8-39.5c-18.7-13.8-36.6-28.7-53.3-45c-16.2-15.8-31.1-32.6-44.7-50.5
		c-13.4-17.6-25.4-36.2-35.9-55.8c-1.7-3.1-3.4-6.4-5.1-9.9c-1.7-3.4-3.3-6.8-4.8-10c-1.6-3.4-3.1-6.8-4.5-10.2
		c-1.5-3.5-2.9-6.9-4.3-10.4c-3.6-9.1-6.8-18.3-9.7-27.6c-2.9-9.3-5.4-18.7-7.7-28.2c-2.3-9.4-4.2-18.9-5.9-28.5
		c-1.7-9.6-3.2-19.1-4.5-28.7c-1.4-10.6-2.6-21.4-3.5-32.1c-1-10.8-1.7-21.5-2.3-32.2c-0.6-10.6-1.1-21.3-1.4-32.1
		c-0.4-10.6-0.6-21.3-0.8-32.1l-0.2-10l0-1.1l0.9-0.7L152,4.6v0l4-3.4l1.3-1.2l1.5,0.9L172,9c18,11,37.8,19.1,58.5,24.6
		c22,5.8,44.8,8.6,67.2,8.6c22.4,0,45.2-2.8,67.2-8.6c20.6-5.4,40.5-13.6,58.5-24.6l13.2-8.1L438,0l1.3,1.2l119.5,103l0.9,0.7l0,1.1
		l-0.2,10c-0.2,10.7-0.4,21.4-0.8,32.1c-0.4,10.8-0.8,21.5-1.4,32.1c-0.6,10.7-1.4,21.4-2.3,32.2c-1,10.8-2.1,21.5-3.5,32.1
		c-1.3,9.6-2.7,19.2-4.5,28.7c-1.7,9.5-3.7,19-5.9,28.5c-2.3,9.5-4.8,18.9-7.7,28.2c-2.9,9.3-6.1,18.6-9.7,27.6
		c-1.4,3.4-2.8,6.9-4.2,10.4c-1.5,3.4-3,6.8-4.5,10.2c-1.5,3.3-3.1,6.6-4.8,10c-1.7,3.4-3.4,6.7-5.1,9.9
		c-10.5,19.6-22.5,38.2-35.9,55.8c-13.6,17.9-28.5,34.8-44.7,50.5c-16.7,16.3-34.5,31.2-53.3,45c-19.7,14.5-40.4,27.6-61.8,39.5
		l-10.3,5.8l-1.2,0.7l-1.2-0.7L286.1,588.9z"/>
	<path class="st1" d="M186.7,486.4c15.7,15.3,32.5,29.4,50.3,42.4c18.5,13.6,38.1,26.1,58.5,37.4l2.2,1.2l2.2-1.2
		c20.4-11.4,40-23.8,58.5-37.4c17.8-13.1,34.6-27.2,50.3-42.4c15.1-14.7,29.1-30.5,41.9-47.3c12.3-16.3,23.6-33.7,33.6-52.2
		c1.8-3.3,3.4-6.3,4.8-9.1c1.4-2.8,2.9-5.9,4.5-9.3c1.5-3.2,2.9-6.3,4.2-9.5c1.3-3.1,2.7-6.4,4-9.6c3.4-8.6,6.4-17.2,9-25.8
		c2.7-8.8,5.1-17.6,7.2-26.4c2.1-8.9,4-17.8,5.6-26.9c1.6-9,3-18.1,4.2-27.2c1.4-10.3,2.5-20.5,3.4-30.7c0.9-10.1,1.6-20.4,2.2-30.9
		c0.6-10.5,1-20.9,1.4-31.1c0.4-10.5,0.6-20.8,0.8-31.1l0-2.1L433.2,29l-2.8,1.7c-18.9,11.6-40,20.3-62.1,26.2
		c-22.8,6-46.8,9.1-70.6,9.1c-23.9,0-47.8-3-70.6-9.1c-22.2-5.9-43.2-14.6-62.1-26.2l-2.8-1.7L59.9,117.1l0,2.1
		c0.2,10.2,0.4,20.6,0.8,31.1c0.3,10.2,0.8,20.5,1.4,31.1c0.6,10.5,1.3,20.8,2.2,30.9c0.9,10.2,2,20.4,3.4,30.7
		c1.2,9.2,2.6,18.3,4.2,27.2c1.6,9,3.5,18,5.6,26.9c2.1,8.8,4.5,17.6,7.2,26.4c2.7,8.6,5.7,17.3,9.1,25.8c1.3,3.3,2.6,6.5,3.9,9.6
		c1.3,3.1,2.7,6.3,4.2,9.5c1.6,3.4,3.1,6.5,4.5,9.3c1.4,2.8,3,5.8,4.8,9.1c10,18.6,21.2,36,33.6,52.2
		C157.5,456,171.5,471.7,186.7,486.4 M154.2,173.1v-9.7h-18.6v-34.5h-10.9v44.2H154.2z M163.2,100.5c0,7.3-0.3,8.5-1.2,9.7
		c-1,1.5-2.4,2.4-5.1,2.4h-4.7V88.4h4.7c2.7,0,4.1,1,5.1,2.4C162.9,92.1,163.2,93.3,163.2,100.5z M173.8,100.5
		c0-6.8,0.5-12.3-4.5-17.3c-3-3-7.2-4.2-11.6-4.2h-16v43.1h16c4.5,0,8.7-1.3,11.6-4.2C174.3,112.8,173.8,107.3,173.8,100.5z
		 M211.1,122.1v-9.5h-18.7V105h16v-9.5h-16v-7.2h18.7V79h-29.3v43.1H211.1z M240.4,92.8c0,2.2-1.7,4.3-4.6,4.3h-6v-8.7h6
		C238.7,88.5,240.4,90.6,240.4,92.8z M251,92.8c0-7.1-5.2-13.9-14.7-13.9h-17.1v43.1h10.6v-15.4h6.5C245.9,106.7,251,99.9,251,92.8z
		 M278.7,100.5c0,7.9-0.6,9.3-1.6,10.5c-0.8,1-2.3,1.9-4.2,1.9c-1.9,0-3.5-0.9-4.2-1.9c-1-1.3-1.6-2.7-1.6-10.5
		c0-7.9,0.6-9.3,1.6-10.6c0.8-1,2.3-1.9,4.2-1.9c1.9,0,3.5,0.8,4.2,1.9C278.1,91.2,278.7,92.6,278.7,100.5z M289.3,100.5
		c0-6.5,0.2-12.5-4.4-17.1c-3.1-3.2-6.8-4.9-12.1-4.9c-5.3,0-8.9,1.7-12.1,4.9c-4.5,4.5-4.4,10.6-4.4,17.1c0,6.5-0.2,12.6,4.4,17.1
		c3.1,3.2,6.8,4.8,12.1,4.8c5.3,0,8.9-1.7,12.1-4.8C289.5,113,289.3,107,289.3,100.5z M318.4,92.8c0,2.2-1.7,4.4-4.6,4.4h-6v-8.7h6
		C316.7,88.5,318.4,90.6,318.4,92.8z M331.4,122.1l-9.3-18c3.4-1.7,7-5.4,7-11.3c0-7.1-5.2-13.9-14.7-13.9h-17.1v43.1h10.6v-16h3.6
		l7.6,16H331.4z M366.6,88.4V79h-31.8v9.5h10.6v33.6H356V88.4H366.6z M384,122.1V79h-10.6v43.1H384z M425.4,79h-11l-7.2,24.1L400,79
		h-11l14.2,43.1h7.9L425.4,79z M450.7,100.5c0,7.9-0.6,9.3-1.6,10.5c-0.8,1-2.3,1.9-4.2,1.9c-1.9,0-3.5-0.9-4.2-1.9
		c-1-1.3-1.6-2.7-1.6-10.5c0-7.9,0.6-9.3,1.6-10.6c0.8-1,2.3-1.9,4.2-1.9c1.9,0,3.5,0.8,4.2,1.9C450.1,91.2,450.7,92.6,450.7,100.5z
		 M461.3,100.5c0-6.5,0.2-12.5-4.4-17.1c-3.2-3.2-6.8-4.9-12.1-4.9c-5.3,0-8.9,1.7-12.1,4.9c-4.5,4.5-4.4,10.6-4.4,17.1
		c0,6.5-0.2,12.6,4.4,17.1c3.2,3.2,6.8,4.8,12.1,4.8c5.3,0,8.9-1.7,12.1-4.8C461.5,113,461.3,107,461.3,100.5z M181,157.5h-7.7
		l4-11.8L181,157.5z M197.3,173.1l-16.1-44.2h-8.4l-16.1,44.2h11.4l2.2-6.6h13.6l2.1,6.6H197.3z M232.5,138.6v-9.7h-30.1v44.2h10.9
		V156h16.4v-9.7h-16.4v-7.7H232.5z M270.2,173.1v-9.7H251v-7.8h16.4V146H251v-7.3h19.2v-9.7h-30.1v44.2H270.2z M300.3,143.1
		c0,2.3-1.7,4.5-4.7,4.5h-6.2v-8.9h6.2C298.5,138.7,300.3,140.8,300.3,143.1z M313.5,173.1l-9.6-18.4c3.5-1.7,7.2-5.5,7.2-11.5
		c0-7.3-5.3-14.2-15.1-14.2h-17.5v44.2h10.9v-16.5h3.7l7.8,16.5H313.5z M341.4,143.1c0,2.3-1.7,4.5-4.7,4.5h-6.2v-8.9h6.2
		C339.7,138.7,341.4,140.8,341.4,143.1z M354.7,173.1l-9.6-18.4c3.5-1.7,7.2-5.5,7.2-11.5c0-7.3-5.3-14.2-15.1-14.2h-17.5v44.2h10.9
		v-16.5h3.7l7.8,16.5H354.7z M390.9,173.1v-9.7h-19.2v-7.8h16.4V146h-16.4v-7.3h19.2v-9.7h-30.1v44.2H390.9z M421,143.1
		c0,2.3-1.7,4.5-4.7,4.5h-6.2v-8.9h6.2C419.3,138.7,421,140.8,421,143.1z M434.3,173.1l-9.6-18.4c3.5-1.7,7.2-5.5,7.2-11.5
		c0-7.3-5.3-14.2-15.1-14.2h-17.5v44.2h10.9v-16.5h3.7l7.8,16.5H434.3z M470.5,173.1v-9.7h-19.2v-7.8h16.4V146h-16.4v-7.3h19.2v-9.7
		h-30.1v44.2H470.5z M73,192.2h449.3c-0.4,5.5-0.8,11.1-1.3,16.6h0c-0.9,10.4-2,20.7-3.4,31c-2.4,18-5.5,35.9-9.7,53.5
		c-4.2,17.5-9.4,34.8-16,51.5c-2.5,6.3-5.1,12.5-8,18.7c-2,4.3-4,8.5-6.2,12.7V208.8h-65.4v258.9c-5,5.2-10.1,10.3-15.3,15.3
		c-20.5,19.6-42.9,37.1-66.5,52.7v-327h-65.4v327c-23.6-15.6-46-33.2-66.5-52.7c-5.2-5-10.3-10.1-15.3-15.3V208.8h-65.4v167.4
		c-2.2-4.2-4.2-8.4-6.2-12.7c-2.8-6.2-5.5-12.4-8-18.7c-6.6-16.8-11.8-34-16-51.5c-4.2-17.6-7.3-35.5-9.7-53.5
		c-1.4-10.3-2.5-20.6-3.4-31h0C73.8,203.3,73.4,197.8,73,192.2z M286.1,588.9c-21.4-11.9-42.1-25.1-61.8-39.5
		c-18.7-13.8-36.6-28.7-53.3-45c-16.2-15.8-31.1-32.6-44.7-50.5c-13.4-17.6-25.4-36.2-35.9-55.8c-1.7-3.1-3.4-6.4-5.1-9.9
		c-1.7-3.4-3.3-6.8-4.8-10c-1.6-3.4-3.1-6.8-4.5-10.2c-1.5-3.5-2.9-6.9-4.3-10.4c-3.6-9.1-6.8-18.3-9.7-27.6
		c-2.9-9.3-5.4-18.7-7.7-28.2c-2.3-9.4-4.2-18.9-5.9-28.5c-1.7-9.6-3.2-19.1-4.5-28.7c-1.4-10.6-2.6-21.4-3.5-32.1
		c-1-10.8-1.7-21.5-2.3-32.2c-0.6-10.6-1.1-21.3-1.4-32.1c-0.4-10.6-0.6-21.3-0.8-32.1l-0.2-10l0-1.1l0.9-0.7L152,4.6v0l4-3.4
		l1.3-1.2l1.5,0.9L172,9c18,11,37.8,19.1,58.5,24.6c22,5.8,44.8,8.6,67.2,8.6c22.4,0,45.2-2.8,67.2-8.6
		c20.6-5.4,40.5-13.6,58.5-24.6l13.2-8.1L438,0l1.3,1.2l119.5,103l0.9,0.7l0,1.1l-0.2,10c-0.2,10.7-0.4,21.4-0.8,32.1
		c-0.4,10.8-0.8,21.5-1.4,32.1c-0.6,10.7-1.4,21.4-2.3,32.2c-1,10.8-2.1,21.5-3.5,32.1c-1.3,9.6-2.7,19.2-4.5,28.7
		c-1.7,9.5-3.7,19-5.9,28.5c-2.3,9.5-4.8,18.9-7.7,28.2c-2.9,9.3-6.1,18.6-9.7,27.6c-1.4,3.4-2.8,6.9-4.2,10.4
		c-1.5,3.4-3,6.8-4.5,10.2c-1.5,3.3-3.1,6.6-4.8,10c-1.7,3.4-3.4,6.7-5.1,9.9c-10.5,19.6-22.5,38.2-35.9,55.8
		c-13.6,17.9-28.5,34.8-44.7,50.5c-16.7,16.3-34.5,31.2-53.3,45c-19.7,14.5-40.4,27.6-61.8,39.5l-10.3,5.8l-1.2,0.7l-1.2-0.7
		L286.1,588.9z"/>
</g>
</svg>
