<?xml version="1.0" encoding="utf-8"?>
<!-- Generator: Adobe Illustrator 17.0.0, SVG Export Plug-In . SVG Version: 6.00 Build 0)  -->
<!DOCTYPE svg PUBLIC "-//W3C//DTD SVG 1.1//EN" "http://www.w3.org/Graphics/SVG/1.1/DTD/svg11.dtd">
<svg version="1.1" id="Layer_3" xmlns="http://www.w3.org/2000/svg" xmlns:xlink="http://www.w3.org/1999/xlink" x="0px" y="0px"
	 width="595.3px" height="595.3px" viewBox="0 0 595.3 595.3" style="enable-background:new 0 0 595.3 595.3;" xml:space="preserve"
	>
<style type="text/css">
	.st0{fill:#F2F904;}
</style>
<g>
	<g>
		<path class="st0" d="M297.6,584.9c45.8-53.4,112.7-56.6,170.4-101.7c140.7-110.2,23.1-275.3,33.9-354.3
			c5.1-37.3,42.5-65.6,42.5-65.6L464.2,8c0,0-99.5,54.7-166.5,54.7C230.7,62.7,131.1,8,131.1,8L50.9,63.2c0,0,37.4,28.3,42.5,65.6
			c10.8,79-106.8,244.1,33.9,354.3C184.9,528.3,251.9,531.5,297.6,584.9z"/>
		<path d="M297.6,595.3l-5.1-6c-24.8-28.9-56.3-42.6-89.7-57.1c-26.5-11.5-53.9-23.4-79.7-43.7C77.8,453,54.2,409,51.1,354.1
			c-2.7-46.9,9.9-94.1,21-135.8c9.4-35.4,17.6-66.1,14.5-88.6C82,95.6,47.1,68.8,46.8,68.6l-7.5-5.7L130.7,0l3.7,2
			c1,0.5,98.8,53.9,163.2,53.9c64.4,0,162.3-53.4,163.2-53.9l3.7-2L556,62.9l-7.5,5.7c-0.3,0.3-35.2,27.2-39.9,61.1
			c-3.1,22.5,5.1,53.1,14.5,88.6c11.1,41.6,23.7,88.8,21,135.8c-3.1,55-26.7,99-72,134.4c-25.8,20.2-53.2,32.2-79.7,43.7
			c-33.4,14.5-64.9,28.2-89.7,57.1L297.6,595.3z M62,63.7c11.7,10.6,34,34.5,38.1,64.2c3.4,25.2-5,57-14.9,93.9
			c-21.6,81-48.5,181.8,46.2,256c24.5,19.2,51.1,30.7,76.8,41.9c32.6,14.2,63.6,27.6,89.4,55c25.8-27.4,56.8-40.8,89.4-55
			c25.7-11.2,52.3-22.7,76.8-41.9c94.7-74.2,67.8-175,46.2-256c-9.8-36.9-18.3-68.7-14.9-93.9c4-29.7,26.4-53.5,38.1-64.2
			l-69.6-47.8C444.7,26,359,69.5,297.6,69.5c-61.4,0-147.1-43.5-166.1-53.6L62,63.7z"/>
	</g>
	<path d="M297.6,555.1c41.5-44.8,100.6-47.2,153.3-86.7c128.1-96.2,30.5-219.6,30.5-323.2c0-54.1,29.6-78.8,29.6-78.8l-48.2-33.8
		c0,0-99.1,52.1-165.2,52.1c-66.1,0-165.2-52.1-165.2-52.1L84.2,66.3c0,0,29.6,24.7,29.6,78.8c0,103.6-97.6,227,30.5,323.2
		C197,507.9,256.1,510.3,297.6,555.1z"/>
	<path class="st0" d="M420.6,469.2c-26.5,15.3-53.9,23.3-78.8,35.4V92.2c28.6-6.5,57.8-17.3,78.8-25.9V469.2z"/>
	<path class="st0" d="M174.7,469.2c26.5,15.3,53.9,23.3,78.8,35.4V92.2c-28.6-6.5-57.8-17.3-78.8-25.9V469.2z"/>
	<g>
		<path class="st0" d="M422.9,288.3c0-70.3-57-127.2-127.2-127.2c-70.3,0-127.2,57-127.2,127.2c0,70.3,57,127.2,127.2,127.2
			C366,415.5,422.9,358.6,422.9,288.3z"/>
		<path d="M295.7,404.4c-64,0-116.1-52.1-116.1-116.1c0-64,52.1-116.1,116.1-116.1c64,0,116.1,52.1,116.1,116.1
			C411.9,352.3,359.8,404.4,295.7,404.4z M295.7,180.6c-59.4,0-107.7,48.3-107.7,107.7c0,59.4,48.3,107.6,107.7,107.6
			c59.4,0,107.7-48.3,107.7-107.6C403.4,228.9,355.1,180.6,295.7,180.6z"/>
		<path d="M213.5,288.3c0-21,7.9-40.1,20.8-54.6v-19.9c-21.5,17.7-35.1,44.5-35.1,74.5c0,30,13.7,56.8,35.1,74.5v-19.9
			C221.4,328.4,213.5,309.3,213.5,288.3z"/>
		<path d="M280.5,279.7l-24.8-25.9v-37.1c4-2.2,8.2-4.1,12.5-5.7v20.5h12.3v-38.4c-13.6,2.2-26.2,7.2-37.3,14.4v34.7v19.2l25,26.1
			v78.3c-4.4-1.6-8.5-3.5-12.5-5.7v-22.9h-12.5v32c11.1,7.2,23.7,12.2,37.3,14.4V279.7z"/>
		<path d="M295.7,191.7c-2.1,0-4.1,0.1-6.2,0.2v192.6c2,0.1,4.1,0.2,6.2,0.2c10.9,0,21.2-4,31.1-10V201.7
			C317.2,195.6,306.6,191.7,295.7,191.7z M314.2,365.4c-3.8,3.9-8.2,4.4-12.4,4.7V206.3c4.2,0.3,8.6,1.1,12.4,4.7V365.4z"/>
		<path d="M365.9,331v23.5c16.3-17.3,26.3-40.6,26.3-66.2c0-22.2-7.5-42.6-20.1-58.9l-10.8,39.8c0,0-9.9-59.5-20.9-66.4
			c-2.7-1.7-2.3-1.3-5.3-2.6l0,0.1v175.9l0,0.1c4.9-2.2,9.6-4.8,14.1-7.8v-18c0,0,0,0,0,0v-72l12.1,31.8v0.1l0,0l0,0v-0.1l14.8-38.8
			c1.1,5.4,1.7,11,1.7,16.7C377.9,304,373.5,318.6,365.9,331z"/>
	</g>
</g>
</svg>
