<?xml version="1.0" encoding="utf-8"?>
<!-- Generator: Adobe Illustrator 17.0.0, SVG Export Plug-In . SVG Version: 6.00 Build 0)  -->
<!DOCTYPE svg PUBLIC "-//W3C//DTD SVG 1.1//EN" "http://www.w3.org/Graphics/SVG/1.1/DTD/svg11.dtd">
<svg version="1.1" id="HQFL" xmlns="http://www.w3.org/2000/svg" xmlns:xlink="http://www.w3.org/1999/xlink" x="0px" y="0px"
	 width="595.3px" height="595.3px" viewBox="0 0 595.3 595.3" style="enable-background:new 0 0 595.3 595.3;" xml:space="preserve"
	>
<style type="text/css">
	.st0{fill-rule:evenodd;clip-rule:evenodd;fill:#0E1069;stroke:#0E1069;stroke-width:0.216;stroke-miterlimit:22.9256;}
	.st1{fill-rule:evenodd;clip-rule:evenodd;fill:#FFCF00;stroke:#FFCF00;stroke-width:0.216;stroke-miterlimit:22.9256;}
	.st2{clip-path:url(#SVGID_2_);fill:#FFCF00;stroke:#FFCF00;stroke-width:0.216;stroke-miterlimit:22.9256;}
	.st3{fill-rule:evenodd;clip-rule:evenodd;fill:none;stroke:#0E1069;stroke-width:0.216;stroke-miterlimit:22.9256;}
</style>
<g>
	<path class="st0" d="M32.7,80.5L117.9,0l15.6,5.2c52.6,17.6,108,27.1,163.5,25.8l0.6,0l0.6,0c55.5,1.3,110.9-8.3,163.5-25.8
		L477.4,0l85.2,80.5l0.6,11c6.5,117.2-17.2,226.5-82.7,324.9C436.5,482.7,378,537.2,313.8,583.6l-16.1,11.6l-16.1-11.6
		c-64.3-46.4-122.7-101-166.8-167.3C49.3,318,25.5,208.7,32.1,91.5L32.7,80.5z"/>
	<path class="st1" d="M41.6,84.7l78.6-74.2l10.4,3.5c53.6,17.9,110,27.6,166.6,26.3l0.4,0l0.4,0c56.5,1.3,113-8.4,166.6-26.3
		l10.4-3.5l78.6,74.2l0.4,7.3c6.4,115.2-16.8,222.6-81.1,319.3c-43.5,65.4-101.2,119.1-164.5,164.9l-10.7,7.8l-10.7-7.8
		c-63.4-45.8-121.1-99.5-164.5-164.9C58,314.6,34.8,207.2,41.2,92L41.6,84.7z"/>
	<path class="st0" d="M50.6,88.9l71.9-68l5.2,1.7c54.6,18.2,112.1,28.1,169.7,26.8l0.2,0l0.2,0c57.6,1.3,115.1-8.6,169.7-26.8
		l5.2-1.7l71.9,68l0.2,3.7c6.3,113.2-16.4,218.6-79.6,313.7c-42.8,64.4-99.8,117.4-162.3,162.5l-5.4,3.9l-5.4-3.9
		c-62.4-45.1-119.4-98.1-162.3-162.5C66.8,311.1,44.1,205.7,50.4,92.5L50.6,88.9z"/>
	<path class="st1" d="M58.9,150c-0.7-18.4-0.5-37.4,0.6-57l65.3-61.7c57.6,19.2,115.9,28.6,172.8,27.3c56.9,1.3,115.2-8,172.8-27.3
		L535.7,93c1.1,19.6,1.3,38.6,0.6,57L58.9,150z"/>
	<path class="st0" d="M59.3,158.7c-0.1-2.9-0.3-5.8-0.4-8.7l477.4,0c-0.1,2.9-0.2,5.8-0.4,8.7L59.3,158.7z"/>
	<g>
		<g>
			<defs>
				<path id="SVGID_1_" d="M535.9,158.7c-9.4,181.3-103.2,305-238.3,402.6C162.5,463.7,68.7,340,59.3,158.7L535.9,158.7z"/>
			</defs>
			<clipPath id="SVGID_2_">
				<use xlink:href="#SVGID_1_"  style="overflow:visible;"/>
			</clipPath>
			<rect x="103.3" y="158.9" class="st2" width="43.5" height="413.8"/>
			<rect x="191.3" y="158.9" class="st2" width="43.5" height="413.8"/>
			<rect x="279.3" y="158.9" class="st2" width="43.5" height="413.8"/>
			<rect x="367.3" y="158.9" class="st2" width="43.5" height="413.8"/>
			<rect x="455.4" y="158.9" class="st2" width="43.5" height="413.8"/>
		</g>
		<path class="st3" d="M535.9,158.7c-9.4,181.3-103.2,305-238.3,402.6C162.5,463.7,68.7,340,59.3,158.7L535.9,158.7z"/>
	</g>
	<path class="st0" d="M148.2,103.7l15.3,3.2c-2.3,5.6-6.2,9.7-11.7,12.4c-5.4,2.7-12.4,4.1-20.7,4.1c-10.4,0-18.9-2.3-25.6-6.9
		c-6.7-4.6-10-11-10-19c0-8.5,3.4-15.1,10.1-19.8c6.7-4.7,15.5-7,26.5-7c9.5,0,17.3,1.8,23.3,5.5c3.6,2.2,6.2,5.3,8,9.4L147.7,88
		c-0.9-2.7-2.8-4.7-5.8-6.3c-2.9-1.5-6.5-2.3-10.7-2.3c-5.8,0-10.5,1.4-14.1,4.1c-3.6,2.7-5.4,7.1-5.4,13.2c0,6.5,1.8,11.1,5.3,13.8
		c3.5,2.7,8.2,4.1,13.8,4.1c4.2,0,7.8-0.9,10.8-2.6C144.7,110.2,146.9,107.5,148.2,103.7L148.2,103.7z M176.9,122.5v-9.8h15v9.8
		H176.9L176.9,122.5z M203.3,105.9l15.3-1c0.9,3.4,2.8,5.8,5.6,7.4c2.8,1.6,6.6,2.4,11.4,2.4c5.1,0,8.9-0.7,11.5-2.1
		c2.6-1.4,3.9-3,3.9-4.9c0-1.2-0.5-2.2-1.6-3.1c-1.1-0.9-3-1.6-5.7-2.2c-1.8-0.4-6.1-1.2-12.6-2.2c-8.5-1.4-14.4-3.1-17.8-5.1
		c-4.8-2.8-7.2-6.2-7.2-10.3c0-2.6,1.1-5,3.4-7.3c2.3-2.3,5.5-4,9.7-5.2c4.3-1.2,9.4-1.8,15.4-1.8c9.8,0,17.2,1.4,22.1,4.2
		c4.9,2.8,7.5,6.6,7.8,11.3l-15.8,0.5c-0.7-2.6-2.1-4.5-4.3-5.7c-2.2-1.2-5.5-1.7-10-1.7c-4.6,0-8.2,0.6-10.8,1.8
		c-1.7,0.8-2.5,1.8-2.5,3.2c0,1.2,0.8,2.2,2.3,3.1c2,1.1,6.8,2.2,14.5,3.4c7.7,1.2,13.3,2.4,17,3.7c3.7,1.3,6.5,3,8.6,5.2
		c2.1,2.2,3.1,4.9,3.1,8.1c0,2.9-1.2,5.7-3.7,8.2c-2.5,2.6-6,4.5-10.5,5.7c-4.5,1.2-10.2,1.9-17,1.9c-9.9,0-17.5-1.5-22.7-4.5
		C207.5,115.9,204.4,111.6,203.3,105.9L203.3,105.9z M280,122.5v-9.8h15v9.8H280L280,122.5z M310.3,71.4h28.8c6.5,0,11.4,0.3,14.9,1
		c4.6,0.9,8.5,2.4,11.8,4.7c3.3,2.2,5.8,5,7.5,8.3c1.7,3.3,2.5,7.3,2.5,12.1c0,4.2-0.8,7.8-2.4,10.9c-1.9,3.7-4.7,6.7-8.4,9
		c-2.7,1.7-6.4,3.1-11.1,4.1c-3.5,0.7-8.1,1.1-14,1.1h-29.6V71.4L310.3,71.4z M326.1,80.1v33.8h11.8c4.4,0,7.6-0.2,9.5-0.5
		c2.5-0.4,4.7-1.1,6.4-2.1c1.7-1,3.1-2.7,4.1-4.9c1.1-2.3,1.6-5.4,1.6-9.4c0-3.9-0.5-7-1.6-9.1c-1.1-2.1-2.6-3.8-4.5-4.9
		c-1.9-1.2-4.4-2-7.3-2.4c-2.2-0.3-6.5-0.5-12.9-0.5H326.1L326.1,80.1z M389,122.5v-9.8h15v9.8H389L389,122.5z M415.4,105.9l15.3-1
		c0.9,3.4,2.8,5.8,5.6,7.4c2.8,1.6,6.6,2.4,11.4,2.4c5.1,0,8.9-0.7,11.5-2.1c2.6-1.4,3.9-3,3.9-4.9c0-1.2-0.5-2.2-1.6-3.1
		c-1.1-0.9-3-1.6-5.7-2.2c-1.8-0.4-6.1-1.2-12.6-2.2c-8.5-1.4-14.4-3.1-17.8-5.1c-4.8-2.8-7.2-6.2-7.2-10.3c0-2.6,1.1-5,3.4-7.3
		c2.3-2.3,5.5-4,9.7-5.2c4.3-1.2,9.4-1.8,15.4-1.8c9.8,0,17.2,1.4,22.1,4.2c4.9,2.8,7.5,6.6,7.8,11.3l-15.8,0.5
		c-0.7-2.6-2.1-4.5-4.3-5.7c-2.2-1.2-5.5-1.7-10-1.7c-4.6,0-8.2,0.6-10.8,1.8c-1.7,0.8-2.5,1.8-2.5,3.2c0,1.2,0.8,2.2,2.3,3.1
		c2,1.1,6.8,2.2,14.5,3.4c7.7,1.2,13.3,2.4,17,3.7c3.7,1.3,6.5,3,8.6,5.2c2.1,2.2,3.1,4.9,3.1,8.1c0,2.9-1.2,5.7-3.7,8.2
		c-2.5,2.6-6,4.5-10.5,5.7c-4.5,1.2-10.2,1.9-17,1.9c-9.9,0-17.5-1.5-22.7-4.5C419.6,115.9,416.5,111.6,415.4,105.9L415.4,105.9z
		 M492.1,122.5v-9.8h15v9.8H492.1z"/>
</g>
</svg>
