<?xml version="1.0" encoding="utf-8"?>
<!-- Generator: Adobe Illustrator 17.0.0, SVG Export Plug-In . SVG Version: 6.00 Build 0)  -->
<!DOCTYPE svg PUBLIC "-//W3C//DTD SVG 1.1//EN" "http://www.w3.org/Graphics/SVG/1.1/DTD/svg11.dtd">
<svg version="1.1" id="Capa_1" xmlns="http://www.w3.org/2000/svg" xmlns:xlink="http://www.w3.org/1999/xlink" x="0px" y="0px"
	 width="566.929px" height="566.929px" viewBox="0 0 566.929 566.929" enable-background="new 0 0 566.929 566.929"
	 xml:space="preserve">
<title>escudo_menu</title>
<g>
	<g id="Capa_1_1_">
		<path fill="#1F448E" d="M334.796,257.153v273.273h79.232c42.653,0,43.147-40.252,43.147-40.252V257.138H334.796V257.153z"/>
		<path fill="#1F448E" d="M109.811,259.864v230.309c0,0,0.494,40.252,43.147,40.252h80.503V257.153h-123.65V259.864z"/>
		<path fill="#ED2A3B" d="M109.797,257.153h123.692v273.273h16.171c1.473,0.041,2.94,0.186,4.392,0.438l0,0
			c8.192,1.328,25.337,6.723,29.419,28.614l0,0l0,0l0,0c0.24-1.328,0.551-2.556,0.89-3.757
			c7.062-25.267,32.936-25.281,32.936-25.281h17.485V257.153h122.379V154.335H109.797V257.153z"/>
		<path fill="#E4E5E6" d="M104.006,148.304v341.94c0.198,15.903,10.677,45.915,48.952,45.915h96.717
			c0.96,0,23.487,0.297,28.063,24.123c-0.035,3.147,2.489,5.727,5.635,5.762c3.147,0.035,5.727-2.489,5.762-5.635l0,0
			c4.675-23.332,27.244-24.25,28.134-24.25h96.703c38.274,0,48.754-30.069,48.952-46.028V148.304H104.006z M457.175,154.335v335.839
			c0,0-0.494,40.252-43.147,40.252h-96.759c0,0-25.86,0-32.922,25.281c-0.339,1.201-0.65,2.443-0.89,3.757l0,0l0,0l0,0
			c-4.082-21.891-21.185-27.286-29.419-28.614l0,0c-1.452-0.251-2.919-0.397-4.392-0.438h-96.703
			c-42.653,0-43.147-40.252-43.147-40.252V154.024h347.434v0.254L457.175,154.335z"/>
		<g>
			<g>
				<polygon fill="#17326A" points="334.796,530.425 337.578,530.425 337.578,259.864 457.175,259.864 457.175,257.153 
					334.796,257.153 				"/>
			</g>
		</g>
		<g>
			<g>
				<polygon fill="#17326A" points="109.811,257.153 109.811,259.864 230.566,259.864 230.566,530.425 233.489,530.425 
					233.489,257.153 				"/>
			</g>
		</g>
		<polygon fill="#DCA62A" points="283.811,0.884 298.103,45.274 345.148,45.274 306.846,72.871 321.732,117.091 283.415,90.201 
			245.875,117.091 260.366,73.125 221.837,45.274 269.377,45.161 		"/>
		<polygon fill="#FFFFFF" points="151.658,239.061 167.957,239.061 167.957,188.485 181.529,188.485 181.529,172.794 
			138.044,172.794 138.044,188.485 151.658,188.485 		"/>
		<rect x="200.144" y="172.794" fill="#FFFFFF" width="16.312" height="66.281"/>
		<path fill="#FFFFFF" d="M268.162,240.162c9.059,0.193,17.736-3.645,23.685-10.48c2.664-2.956,4.683-6.433,5.932-10.211
			c1.21-4.165,1.795-8.487,1.737-12.824v-5.649h-31.792v15.705h13.615c-0.842,1.628-2.004,3.069-3.418,4.237
			c-2.613,2.301-5.981,3.563-9.463,3.545c-4.457-0.076-8.718-1.854-11.906-4.971c-3.887-3.39-6.043-8.347-5.875-13.502
			c-0.168-4.983,1.757-9.807,5.31-13.304c3.425-3.552,8.189-5.495,13.121-5.353c5.805,0,10.649,2.683,14.801,8.192l2.5,3.305
			l11.906-11.299l-2.33-2.641c-3.471-4.135-7.724-7.548-12.513-10.042c-4.548-2.11-9.505-3.19-14.519-3.164
			c-9.19-0.172-18.051,3.425-24.518,9.957c-13.386,13.349-13.468,35.006-0.184,48.457c6.237,6.502,14.887,10.133,23.897,10.028"/>
		<path fill="#FFFFFF" d="M338.327,220.644l15.394,18.36h24.01l-23.473-26.976c2.924-1.209,5.565-3.012,7.754-5.296
			c7.21-7.514,6.964-19.449-0.549-26.659c-0.808-0.775-1.682-1.476-2.614-2.096c-5.014-3.531-12.556-5.254-23.049-5.254h-16.92
			v66.281h19.448V220.644z M338.327,188.485c9.717,0.127,9.717,3.531,9.717,5.367c0,1.836,0,5.734-9.717,5.974v-11.299V188.485z"/>
		<polygon fill="#FFFFFF" points="428.928,223.355 405.201,223.355 405.201,211.012 428.25,211.012 428.25,195.306 405.201,195.306 
			405.201,188.485 428.928,188.485 428.928,172.794 388.902,172.794 388.902,239.061 428.928,239.061 		"/>
	</g>
</g>
</svg>
