<?xml version="1.0" encoding="utf-8"?>
<!-- Generator: Adobe Illustrator 17.0.0, SVG Export Plug-In . SVG Version: 6.00 Build 0)  -->
<!DOCTYPE svg PUBLIC "-//W3C//DTD SVG 1.1//EN" "http://www.w3.org/Graphics/SVG/1.1/DTD/svg11.dtd">
<svg version="1.1" id="Layer_1" xmlns="http://www.w3.org/2000/svg" xmlns:xlink="http://www.w3.org/1999/xlink" x="0px" y="0px"
	 width="595.3px" height="595.3px" viewBox="0 0 595.3 595.3" enable-background="new 0 0 595.3 595.3" xml:space="preserve">
<g>
	<path fill-rule="evenodd" clip-rule="evenodd" fill="#FFFFFF" d="M52.494,17.637v463.692c0,35.753,28.702,67.381,69.423,67.381
		h111.308c24.536-0.09,35.075,11.861,46.88,21.596c10.6,8.754,25.864,8.118,35.51,0.174c6.734-5.557,23.734-21.611,37.02-21.77
		h124.779c31.504,0,64.621-28.078,65.377-67.381V17.637H52.494z"/>
	<path fill-rule="evenodd" clip-rule="evenodd" fill="#0C080C" d="M108.083,321.285c-5.535,12.759-15.603,9.679-18.426,2.138
		c-2.285-6.11,4.939-13.646,17.596-2.976L108.083,321.285L108.083,321.285z M118.51,316.095
		c12.041-56.172-18.453-72.226-16.704-92.056c1.163-13.183,19.417-17.576,35.865-4.103c2.962-2.962,0.422-8.962,0.422-11.916
		c-12.359-16.711-53.218-17.388-55.695,12.578c-2.921,35.332,30.092,34.113,27.692,92.294c-24.045-17.465-32.654,1.965-28.453,13.95
		c3.709,10.566,24.842,18.149,34.064-1.516c24.869,16.974,40.057,6.34,44.395-6.345c0.492-2.152,0.271-6.373-2.664-4.49
		C148.125,322.033,141.227,324.945,118.51,316.095z"/>
	<path fill-rule="evenodd" clip-rule="evenodd" fill="#0C080C" d="M136.883,301.59v-91.676c0-27.727,44.422-36.287,57.099-7.806
		c0.851,1.897,1.959,4.491,2.518,6.339c0,0-8.642,5.522-12.614,7.944c-1.273-3.129-2.836-6.81-2.836-6.81
		c-5.529-12.344-29.054-12.412-29.054,5.329v29.581l25.94,0.096L157.793,259.9h-5.798v31.901L136.883,301.59z"/>
	<polygon fill="#17461C" points="542.153,135.144 53.961,135.144 53.961,164.47 140.013,164.47 140.013,150.644 188.512,150.644 
		188.512,164.511 273.752,164.511 273.752,150.644 322.707,150.644 322.707,164.511 407.957,164.511 407.957,150.644 
		456.456,150.644 456.456,164.511 542.153,164.511 	"/>
	<path fill-rule="evenodd" clip-rule="evenodd" fill="#17461C" d="M521.821,537.973c-8.124,6.255-18.516,11.237-32.681,11.396
		H348.938c-30.135-0.088-41.449,29.575-50.409,29.457c-9.376-0.124-20.524-29.545-53.365-29.457h-137.94
		c-12.428,0.284-24.459-5.423-33.947-12.267l224.609-231.32C297.886,305.782,518.134,533.068,521.821,537.973z"/>
	<path fill="#17461C" d="M534.947,522.827c2.707-4.665,4.727-9.756,5.932-15.168L298.078,257.171L55.216,507.659
		c1.212,5.412,3.225,10.511,5.931,15.168L298.05,278.318L534.947,522.827z"/>
	<polygon fill="#17461C" points="542.153,485.86 542.153,471.475 542.153,464.466 298.081,212.651 53.941,464.466 53.941,471.475 
		53.941,485.805 298.046,233.789 	"/>
	<path fill-rule="evenodd" clip-rule="evenodd" fill="#0C080C" d="M428.814,225.693c0,0,55.964-37.913,59.895-40.314
		c3.895-2.414,3.301,0.596,3.301,0.596s2.879,22.619,18.357,23.167c8.42,0.304-0.608,3.611-0.608,3.611s-14.442,5.723-24.371-7.52
		c-1.807-2.402-5.411-0.602-5.723,4.213c0.312,8.421,0,65.293,0,65.293l-15.79,15.811v-68.766c0-6.616-7.695-4.858-7.695,3.564
		c0,8.428-0.096,98.464,0,100.249c0.104,1.793,2.11,1.205,2.11,1.205s23.181,0.014,24.406,0c1.216-0.014,2.138,0.421,2.844-1.648
		c0.608-1.785,4.441-10.364,14.281-12.924c1.749-0.465,5.141,0.227,2.069,2.532c-3.564,2.669-6.167,11.99-6.386,18.42
		c-0.153,4.304-5.349,4.304-5.349,4.304l-49.303,0.153c0,0-2.103-0.298-2.103-2.713v-91.179c0-7.818-1.508-8.116-7.53-9.023
		C425.208,233.823,422.808,229.908,428.814,225.693z"/>
	<path fill-rule="evenodd" clip-rule="evenodd" fill="#0C080C" d="M344.197,385.505c-8.448-0.402-20.336-23.755-49.703-24.406
		c-14.538-0.173-44.105,4.755-55.55,41.712c-11.451,36.963,7.252,58.192,10.615,64.857c3.362,6.655,5.812,17.055-1.971,27.864
		c-7.771,10.808-11.667,14.697-14.697,17.284c-3.019,2.603-2.589,22.482,15.346,13.624c17.935-8.864,37.456-23.082,38.901-25.726
		c2.381-4.317,4.249-24.502-10.586-12.967c-3.89,3.03-13.183,9.293-13.183,9.293s3.413-7.944,4.755-13.181
		c1.771-6.934,0.594-13.882-8.697-32.107c-15.313-29.996-0.202-52.555,7.244-61.41c7.453-8.864,18.926-10.476,18.926-10.476
		l0.206,92.623l17.763-6.781l-0.249-84.832c0,0,22.945,4.635,20.946,23.561c-1.212,11.473-3.052,23.81-0.802,40.278
		c1.202,8.85,3.224,19.187,9.056,26.37c5.239,6.449,8.075,12.408,8.456,16.717c0.506,5.494-3.217,9.66-10.268,4.637
		c-5.168-3.709-6.745-7.771-8.254-10.684c-1.502-2.893-4.075-2.844-6.235,0.616c-2.173,3.452-4.442,9.28-4.442,9.28
		s-1.295,5.39,1.738,8.207c3.022,2.809,12.69,12.247,22.633,13.112c9.688,0.837,23.118-4.616,23.402-24.143
		c0.159-10.898-8.442-21.437-10.608-24.467c-2.165-3.016-4.933-7.769-7.363-16.635c-1.709-6.255-1.895-27.884-0.602-35.233
		c1.303-7.348,4.768-13.824,5.847-14.897c1.086-1.086,4.423-4.837,4.423-4.837S355.075,385.103,344.197,385.505z"/>
	<path fill="#0C080C" d="M275.452,549.204c8.269,5.217,14.276,11.418,18.669,15.609c1.793,1.766,3.389,3.128,4.399,3.904
		c0.638-0.416,1.495-1.052,2.458-1.834c2.907-2.338,6.781-6.04,11.327-9.937c9.05-7.673,21.347-16.994,38.001-17.131
		c0.112,0,0.222,0.006,0.325,0.006l138.17,0.008c9.203,0.041,19.651-3.378,26.966-9.384c10.109-8.012,16.572-20.295,16.572-34.162
		V25.21L63.058,25.216v471.067c0.047,24.046,19.499,43.489,43.544,43.538h136.412c0.06,0,0.137-0.006,0.222-0.006h0.145
		C256.458,539.815,267.232,543.979,275.452,549.204L275.452,549.204z M298.176,589.31h-0.159h-0.167
		c-3.666-0.145-6.559-1.448-8.815-2.789c-2.277-1.383-4.111-2.926-5.901-4.519c-3.536-3.182-6.885-6.704-10.678-10.005
		c-7.66-6.567-16.061-12.004-29.102-12.108h-0.139l-136.612,0.006c-35.145-0.006-63.612-28.48-63.612-63.612V15.175V5.15h509.423
		v491.133c0,20.213-9.488,38.294-24.108,49.829c-11.368,9.148-25.699,13.736-39.503,13.777H350.038h-0.041
		c-6.18,0.068-12.283,2.899-18.491,7.396c-6.296,4.539-12.08,10.44-17.886,15.195c-4.005,2.976-7.791,6.477-15.264,6.83H298.176z"/>
	<path fill-rule="evenodd" clip-rule="evenodd" fill="#0C080C" d="M282.526,99.491l-8.393-4.545V65.371l8.579-5.764L282.526,99.491
		L282.526,99.491z M300.814,50.584l20.744,14.787l11.875-11.817V41.713l-8.899,8.872l-23.72-17.742l-38.542,23.665v47.308
		l38.542,23.665l32.619-32.535l-8.899-8.871l-23.72,23.651l-0.131-0.069l-7.024-3.523V54.723l7.024-4.097L300.814,50.584z"/>
</g>
</svg>
