<?xml version="1.0" encoding="utf-8"?>
<!-- Generator: Adobe Illustrator 17.0.0, SVG Export Plug-In . SVG Version: 6.00 Build 0)  -->
<!DOCTYPE svg PUBLIC "-//W3C//DTD SVG 1.1//EN" "http://www.w3.org/Graphics/SVG/1.1/DTD/svg11.dtd">
<svg version="1.1" id="Layer_1" xmlns="http://www.w3.org/2000/svg" xmlns:xlink="http://www.w3.org/1999/xlink" x="0px" y="0px"
	 width="595.3px" height="595.3px" viewBox="0 0 595.3 595.3" style="enable-background:new 0 0 595.3 595.3;" xml:space="preserve"
	>
<style type="text/css">
	.st0{fill-rule:evenodd;clip-rule:evenodd;}
	.st1{fill-rule:evenodd;clip-rule:evenodd;fill:#FFFF00;}
</style>
<g>
	<path class="st0" d="M382.8,19.6C355.8,11.9,327.6,8,297.7,8c-35.2,0-68.4,5.3-99,15.8c-40.9,13.6-77.6,36.5-110.8,68.9
		C30,149.2,1.2,217.6,1.4,297.7c-0.2,79.8,28.6,148,86.5,204.7c14.1,13.8,29.3,26.1,45.1,36.8c13.6,9,27.9,16.7,42.9,23.5
		c16.6,7.2,33.7,13,51.5,17.1c22.2,5,45.6,7.5,70.2,7.5c29.9,0,58.1-3.8,85.1-11.5c7.3-2.2,14.5-4.6,21.4-6.8
		c3.2-1.4,6.4-2.5,9.4-3.8c33.9-14.1,65.1-35.2,93.4-62.7c57.9-56.6,86.7-124.9,86.9-204.7c-0.2-80.1-29-148.5-86.9-205
		c-31-30.2-65.1-52.1-102.7-66.2C397.3,23.8,390.1,21.4,382.8,19.6L382.8,19.6z"/>
	<path class="st1" d="M102.9,108.1v-0.3c-53.5,52.6-80.1,115.9-80.1,189.9c0,73.9,26.6,137,80.1,189.4c9.6,9.4,19.7,18.1,30.1,25.9
		c13.6,10.1,27.9,18.9,42.9,26.2c36.8,17.8,77.4,26.6,121.7,26.6c30.2,0,58.5-4,85.1-12.3c7.3-2.3,14.5-4.8,21.4-7.7
		c3.2-1.3,6.4-2.7,9.4-4c28.3-13,54.5-31.5,78.5-54.7v-0.3c53.6-52.1,80.3-115.2,80.5-189.1c-0.2-74-27-137.3-80.5-189.9
		c-26.4-25.9-55.9-45.3-87.8-58.4c-7-2.9-14.1-5.3-21.4-7.5c-26.6-8.3-54.9-12.5-85.1-12.5c-35.5,0-68.4,5.5-99,17.1
		C163.7,59.6,131.7,80.1,102.9,108.1L102.9,108.1z"/>
	<path class="st0" d="M112.2,112.4c-0.4,0.3-1,0.9-1.5,1.4C61,163.1,36.2,222.6,36.2,292.3c0,70.2,25.3,130.3,76,179.9
		c6.7,6.7,13.7,12.8,20.9,18.5v89.9H176v-61.6c8.3,4,16.6,7.7,25.4,11.2v-68c-8.8-4.2-17.2-9-25.4-14.7v-88h129.1
		c0.9,1.3,1.4,2.6,2,3.9c28.6,71.8,22.9,110.3-17.4,114.8c-25.9,2.4-47.5-10.3-65.1-38.4v58.9c15.2,23.3,33.9,37.4,56.6,43
		c59.2,13.6,88.6-9.7,88.4-69.7c-0.3-15.8-3.5-34.1-9.7-55c-6.1-20.5-14.7-39.8-25.3-57.6h48.3v174.8c7.3-2.4,14.5-5.1,21.4-8
		c3.2-1.3,6.4-2.9,9.4-4.5c24.2-12.1,46.6-27.8,67.5-47.8c0.2-0.8,0.8-1.3,1.6-1.9c51-49.7,76.3-109.4,76.5-179.6
		c-0.2-70.1-25.5-130.2-76.5-180.1c-23.8-23.3-49.9-41.1-78.5-53.4c-7-3.3-14.1-5.9-21.4-8.3v126.5H241.1
		c1.6-20.7,8.6-41.2,20.6-61.4c14.7-24.3,35.8-41.1,63.5-49.9c5.7-2,11.7-3.5,18.2-4.9V47.1c-49.7-8.3-85.6,0.2-107.8,25.3
		c-19.8,21.8-28.8,56.8-27,104.7H133v232.4c-34.5-38.1-51.5-83.5-51.5-135.9c0-56.3,19.8-104.3,59.6-144.5c0.8-0.9,1.9-1.6,2.6-2.5
		l0.3-0.4c16.7-16.3,34.9-29.7,54.7-39.6v-31C167.2,68.1,138.4,87.1,112.2,112.4L112.2,112.4z M404.2,90.8
		c16.5,9.3,32,21.1,46.7,35.3c41.8,40.8,62.7,89.9,62.9,147.5c-0.2,57.4-21.1,106.5-62.9,147.1l-0.3,0.3c-1.3,1.3-2.4,2.4-3.5,3.7
		c-10.6,9.9-21.9,18.8-33.6,26.2c-2.9,1.9-6.2,3.7-9.4,5.5v-97.1h9.4v-22.7h-9.4V226.1h58.7v-49h-58.7V90.8L404.2,90.8z
		 M320.1,336.6c-12-17.6-24.8-34.4-38.4-50.2c-16.9-20-28.6-40.2-34.7-60.3h135.8v110.5H320.1L320.1,336.6z M216.3,226.1
		c8.6,27.5,24,53.4,46.7,78.2c11,11.7,20,22.4,27.4,32.3H176V226.1H216.3L216.3,226.1z"/>
</g>
</svg>
