<?xml version="1.0" encoding="utf-8"?>
<!-- Generator: Adobe Illustrator 17.0.0, SVG Export Plug-In . SVG Version: 6.00 Build 0)  -->
<!DOCTYPE svg PUBLIC "-//W3C//DTD SVG 1.1//EN" "http://www.w3.org/Graphics/SVG/1.1/DTD/svg11.dtd">
<svg version="1.1" id="Layer_1" xmlns="http://www.w3.org/2000/svg" xmlns:xlink="http://www.w3.org/1999/xlink" x="0px" y="0px"
	 width="595.3px" height="595.3px" viewBox="0 0 595.3 595.3" enable-background="new 0 0 595.3 595.3" xml:space="preserve">
<g>
	<path fill-rule="evenodd" clip-rule="evenodd" fill="#0F0F17" d="M489.7,202.799c0.272,14.913-0.333,173.55-0.549,173.95
		c0.919,8.812-1.543,27.679-3.845,35.88c-2.868,10.216-8.828,19.785-14.205,25.469c-8.189,8.656-7.761,7.999-15.164,14.693
		c-20.704,18.722-53.367,35.676-77.554,50.456c-8.265,5.051-16.585,9.664-24.933,14.734l-49.645,29.29
		c-4.871,2.871-2.688,3.152-12.498-2.565c-37.25-21.711-74.705-44.106-111.943-65.548c-14.588-8.399-27.456-18.45-39.699-29.414
		c-0.955-0.855-1.639-1.423-2.616-2.298c-0.868-0.777-1.875-1.537-2.119-2.522c-2.797-1.295-10.739-11.904-12.294-14.155
		c-12.887-18.647-13.855-41.22-13.629-64.352l-0.057-151.657c-0.148-20.627-1.085-41.666-6.603-60.303
		c-7.874-26.593-22.33-39.235-24.069-43.221L123.5,62.096c1.57-1.749,9.147-10.408,10.447-11.249
		c2.316,0.951,6.038,3.287,8.468,4.635c19.047,10.566,44.74,19.482,65.693,25.088c61.447,16.439,121.612,16.542,182.909,0.035
		c19.234-5.179,39.167-12.314,56.733-20.964l17.159-8.902c1.604,2.475,4.677,5.264,6.839,7.838l45.331,49.553
		c1.269,1.208,2.116,2.235,3.079,3.547c-1.062,1.418-2.194,2.603-3.499,4.224c-8.291,10.307-14.675,21.323-19.151,34.029
		C492.725,163.508,489.07,186.886,489.7,202.799L489.7,202.799z M27.637,113.042c0.485,0.663,2.105,1.915,2.958,2.768l9.206,8.381
		c2.008,2.009,3.716,3.719,5.725,5.728c3.919,3.921,7.37,8.164,10.794,12.518c8.718,11.086,14.704,29.617,15.064,43.839
		c0.091,3.601,0.845,7.057,0.824,11.039l-0.003,152.597c0,15.237,0.267,41.211,2.619,55.881
		c3.297,20.565,10.678,36.978,23.141,52.94c0.825,1.058,1.78,2.378,2.755,3.38c1.178,1.209,1.595,1.919,2.658,3.069
		c1.004,1.085,1.855,1.778,2.833,2.892l1.94,2.15c3.037,3.453,6.934,6.236,10.162,9.469c5.87,5.879,12.895,10.607,19.547,15.625
		c4.608,3.477,9.194,6.521,13.997,9.724c9.443,6.299,19.685,11.739,29.44,17.591l22.242,12.928c2.534,1.521,4.796,3.011,7.419,4.441
		c10.054,5.48,19.893,11.473,29.686,17.346c4.839,2.901,9.736,5.695,14.661,8.65c10.983,6.589,22.545,12.499,33.279,19.478
		c3.625,2.357,7.799,4.23,11.372,6.623c0.428-0.372,0.063-0.086,0.706-0.521l6.412-3.812c6.64-4.414,29.142-17.16,36.762-21.72
		l36.748-21.734c2.565-1.549,4.843-2.824,7.46-4.4l36.79-21.692c7.046-4.684,14.965-8.624,21.912-13.259l20.619-14.552
		c1.267-0.949,2.025-1.524,3.223-2.503l6.594-5.267c10.893-8.473,23.49-21.487,30.976-33.237c0.825-1.295,1.422-2.094,2.246-3.479
		c8.664-14.557,14.024-33.123,14.43-50.201c0.082-3.415,0.853-6.901,0.831-10.623c-0.022-3.811-0.392-8.001,0.167-11.697
		c0.824-5.45,0.236-106.344,0.236-117.176c0-34.51-4.01-79.838,11.059-105.938c1.443-2.5,2.826-4.909,4.591-7.27
		c4.666-6.241,10.721-13.482,16.553-18.621c1.946-1.715,11.451-9.99,12.366-11.356c-0.964-1.822-4.43-5.476-6.025-7.063
		c-4.431-4.407-8.358-9.429-12.673-13.911c-6.561-6.815-12.582-14.131-19.234-20.848c-4.999-5.048-10.775-12.497-15.73-17.398
		c-6.662-6.588-12.364-14.078-19.02-20.652l-11.04-12.274c-3.94-4.477-8.369-8.613-12.181-13.176
		c-0.055-0.065-0.13-0.16-0.185-0.225l-0.371-0.447c-1.38-1.639-3.221-4.301-5.354-4.871c-0.951,2.629-12.554,10.565-15.127,12.274
		c-27.389,18.198-62.617,30.171-95.1,36.172c-12.089,2.233-24.288,3.728-36.623,5.086c-16.101,1.773-34.274,0.915-49.887-0.697
		c-4.584-0.473-8.299-0.609-12.553-1.35c-12.364-2.152-22.403-3.589-35.121-6.59c-10.714-2.528-22.209-5.645-32.406-9.714
		c-1.664-0.664-3.288-1.144-5.083-1.869c-1.864-0.752-3.083-1.293-4.988-1.964c-14.297-5.039-38.506-18.287-48.912-27.973
		c-0.889-0.827-1.168-0.87-2.037-1.644c-0.864-0.77-0.991-1.091-1.949-1.732c-1.293,0.866-2.335,2.045-3.271,3.273l-6.232,6.856
		c-0.615,0.604-1.076,1-1.636,1.637c-0.716,0.813-0.721,1.021-1.437,1.835c-3.154,3.584-10.319,10.591-12.775,13.81L87.845,46.87
		c-4.435,4.397-8.18,9.508-12.673,13.911c-0.613,0.601-1.069,0.997-1.618,1.654l-4.679,5.137
		c-2.974,3.73-10.202,10.807-12.675,13.909c-1.262,1.583-1.88,2.204-3.318,3.634c-1.302,1.295-1.753,2.194-3.055,3.489l-7.778,8.582
		c-2.657,3.019-5.559,5.513-8.04,8.729C31.954,108.574,29.463,110.314,27.637,113.042z"/>
	<path fill-rule="evenodd" clip-rule="evenodd" fill="#FFFFFF" d="M108.948,214.761l66.329-0.037
		c1.187-1.605,3.183-5.364,4.305-7.339c8.912-15.697,25.759-34.035,39.685-44.572c42.943-32.495,97.8-43.219,150.853-25.476
		c18.564,6.208,32.332,14.268,47.113,25.281c2.698,2.01,11.891,9.57,12.943,11.381l-18.916,19.024l-10.105-8.59
		c-45.172-35.25-107.149-37.978-156.036-6.794c-10.87,6.934-21.84,16.821-29.983,26.447c-1.797,2.125-6.824,8.156-7.989,10.738
		l23.254-0.074c4.526-3.136,10.309-13.655,33.277-26.317c36.072-19.885,83.079-17.701,117.372,4.658
		c2.972,1.938,6.027,4.039,8.602,6.123c2.557,2.07,6.216,4.893,8.09,7.104c-1.497,2.496-6.859,6.144-7.568,8.194
		c1.109,0.741,89.28,0.296,98.956,0.299c0.456-2.878-0.356-10.09,0.57-12.01c-0.629-15.913,3.025-39.292,7.809-52.87
		c4.476-12.706,10.86-23.722,19.151-34.029c1.305-1.622,2.437-2.806,3.499-4.224c-0.962-1.313-1.81-2.34-3.079-3.547l-45.331-49.553
		c-2.161-2.573-5.235-5.363-6.839-7.838l-17.159,8.902c-17.566,8.65-37.499,15.785-56.733,20.964
		c-61.298,16.507-121.462,16.404-182.909-0.035c-20.953-5.606-46.646-14.521-65.693-25.088c-2.429-1.348-6.152-3.684-8.468-4.635
		c-1.3,0.841-8.877,9.5-10.447,11.249l-45.225,49.141c1.74,3.986,16.195,16.628,24.069,43.221
		C107.863,173.095,108.801,194.133,108.948,214.761L108.948,214.761z M272.789,214.536c3.277-2.887,15.149-7.519,20.234-9.022
		c7.897-2.333,16.549-3.661,25.332-3.658c8.941,0.003,17.621,1.319,25.663,3.732c5.22,1.567,16.648,6.113,19.945,8.924
		C363.053,215.034,273.838,215.122,272.789,214.536z"/>
	<path fill-rule="evenodd" clip-rule="evenodd" fill="#FFFFFF" d="M255.596,440.637c-0.12,0.26-0.585,1.295-0.821,0.922
		l-119.804-0.007c-0.437,3.056,0.029,1.581-0.042,3.372c0.244,0.985,1.251,1.745,2.119,2.522c0.977,0.875,1.662,1.443,2.616,2.298
		c12.243,10.964,25.111,21.015,39.699,29.414c37.239,21.441,74.693,43.837,111.943,65.548c9.81,5.717,7.627,5.436,12.498,2.565
		l49.645-29.29c8.348-5.07,16.668-9.683,24.933-14.734c24.187-14.78,56.85-31.734,77.554-50.456
		c7.403-6.694,6.975-6.037,15.164-14.693c5.377-5.684,11.337-15.252,14.205-25.469c2.303-8.201,4.765-27.069,3.845-35.88
		l0.225-10.402l-84.726,0.123c-3.092,7.036-9.501,12.255-15.453,16.682c-47.694,35.47-109.172,31.512-151.779-8.718
		c-2.43-2.295-5.36-6.253-7.744-8.072c-3.581-0.031-21.13-0.633-22.87,0.31c1.376,2.843,5.959,8.402,7.955,10.803
		c5.699,6.856,12.071,13.022,18.964,18.661c17.225,14.089,40.878,25.062,65.468,28.538c22.464,3.174,46.261,0.495,65.743-6.872
		c13.215-4.997,25.653-11.854,36.249-20.201l9.991-8.509c2.097,0.898,18.508,18.002,18.992,18.913
		c-1.632,2.546-13.271,11.69-15.717,13.509c-16.997,12.639-37.532,22.42-59.29,27.433c-25.422,5.857-52.434,5.509-77.838-1.084
		C267.441,445.298,262.055,442.469,255.596,440.637L255.596,440.637z M364.977,366.767c-6.596,3.546-12.291,6.77-20.444,9.333
		c-17.389,5.466-34.978,5.457-52.481,0.122c-8.562-2.61-13.912-5.888-20.75-9.445c0.435-0.27,0.107-0.183,0.921-0.338
		c0.533-0.101,0.987-0.111,1.534-0.12c21.53-0.35,46.118,0.03,67.904,0.03L364.977,366.767z"/>
	<path fill-rule="evenodd" clip-rule="evenodd" fill="#0F0F17" d="M175.277,214.723c-0.94,2.535-2.704,5.58-3.914,8.167
		c-18.786,40.154-19.842,86-3.842,127.386c2.163,5.594,5.299,10.974,7.32,16.2c0.821,0.963,2.749,4.746,3.518,6.092
		c3.788,6.626,7.223,11.384,11.673,17.373c2.941,3.958,6.027,7.214,8.95,10.686c0.921,1.093,1.4,1.393,2.477,2.42l7.109,7.202
		c10.643,9.752,21.149,17.058,34.311,24.177c2.293,1.24,11.755,5.396,12.717,6.212c6.46,1.832,11.845,4.661,21.723,7.225
		c25.404,6.593,52.416,6.941,77.838,1.084c21.759-5.013,42.294-14.794,59.29-27.433c2.446-1.819,14.085-10.963,15.717-13.509
		c-0.484-0.911-16.895-18.014-18.992-18.913l-9.991,8.509c-10.596,8.347-23.034,15.204-36.249,20.201
		c-19.482,7.367-43.28,10.046-65.743,6.872c-24.59-3.475-48.243-14.449-65.468-28.538c-6.893-5.638-13.265-11.805-18.964-18.661
		c-1.996-2.401-6.579-7.96-7.955-10.803c-4.955-4.682-14.063-25.541-16.63-33.333c-9.109-27.651-9.112-58.058,0.321-85.585
		c3.252-9.489,10.505-25.65,16.652-32.931c1.165-2.583,6.192-8.613,7.989-10.738c8.143-9.626,19.113-19.513,29.983-26.447
		c48.886-31.184,110.863-28.456,156.036,6.794l10.105,8.59l18.916-19.024c-1.052-1.811-10.245-9.371-12.943-11.381
		c-14.781-11.013-28.549-19.072-47.113-25.281c-53.053-17.744-107.91-7.019-150.853,25.476
		c-13.925,10.537-30.773,28.875-39.685,44.572C178.46,209.36,176.464,213.119,175.277,214.723L175.277,214.723z M230.4,214.749
		c4.526-3.136,10.309-13.655,33.277-26.317c36.072-19.885,83.079-17.701,117.372,4.658c2.972,1.938,6.027,4.039,8.602,6.123
		c2.557,2.07,6.216,4.893,8.09,7.104c-1.497,2.496-6.859,6.144-7.568,8.194c-2.217,1.325-9.204,8.838-11.303,10.875
		c-2.297-1.566-4.505-3.778-7.149-5.779c-1.609-1.217-5.753-4.254-7.758-5.095c-3.297-2.811-14.725-7.357-19.945-8.924
		c-8.041-2.413-16.722-3.729-25.663-3.732c-8.783-0.003-17.435,1.325-25.332,3.658c-5.085,1.503-16.957,6.135-20.234,9.022
		c-2.616,1.137-7.011,4.412-9.173,6.151c-2.356,1.895-9.838,8.597-11.645,10.851c-1.12,1.397-2.276,2.672-3.347,4.016
		c-11.582,14.528-19.273,33.594-19.398,54.629c-0.198,33.123,16.202,59.54,42.076,76.594c6.837,3.557,12.187,6.835,20.75,9.445
		c17.503,5.335,35.092,5.344,52.481-0.122c8.153-2.563,13.848-5.787,20.444-9.333c9.005-5.543,17.36-11.121,19.65-21.731
		c1.066-4.937,0.639-33.506,0.553-40.528l-24.042-0.006l0.068-27.046c11.474-0.04,22.952,0.013,34.427-0.005
		c6.203-0.01,9.897,0.271,11.146,6.094c0.668,3.116,0.259,45.97,0.259,51.228c0,11.684,0.506,20.89-2.39,31.695
		c-3.092,7.036-9.501,12.255-15.453,16.682c-47.694,35.47-109.172,31.512-151.779-8.718c-2.43-2.295-5.36-6.253-7.744-8.072
		l-10.883-15.422c-3.316-5.473-5.838-10.847-8.504-17.251c-11.069-26.594-10.635-60.335,0.542-86.848
		C219.148,227.103,229.394,217.026,230.4,214.749L230.4,214.749z M365.099,239.045l-18.939,19.024
		c-9.127-6.244-15.412-10.047-28.214-10.047c-13.964,0-27.084,7.573-34.461,17.912c-1.421,1.992-5.524,8.713-6.051,11.512
		l64.509,0.012l0.038,26.928l-64.698,0.125c8.486,22.785,33.103,36.003,56.925,26.493c5.509-2.199,7.841-4.426,11.952-7.024
		c1.56,0.843,18.149,17.442,18.955,18.976c-2.525,3.704-14.396,10.445-19.447,12.598c-45.576,19.43-97.351-14.689-97.351-63.327
		v-2.455c0-36.89,31.736-68.818,68.812-68.82c14.047-0.002,27.847,3.452,38.954,11.029
		C358.627,233.718,363.726,237.135,365.099,239.045z"/>
	<path fill-rule="evenodd" clip-rule="evenodd" fill="#6798C3" d="M109.005,366.418l65.836,0.058
		c-2.021-5.225-5.157-10.605-7.32-16.2c-15.999-41.385-14.943-87.232,3.842-127.386c1.21-2.587,2.974-5.632,3.914-8.167
		l-66.329,0.037L109.005,366.418L109.005,366.418z M346.16,258.069c-9.127-6.244-15.412-10.047-28.214-10.047
		c-13.964,0-27.084,7.573-34.461,17.912c-1.421,1.992-5.524,8.713-6.051,11.512l64.509,0.012l0.038,26.928l-64.698,0.125
		c8.486,22.785,33.103,36.003,56.925,26.493c5.509-2.199,7.841-4.426,11.952-7.024c1.56,0.843,18.149,17.442,18.955,18.976
		c-2.525,3.704-14.396,10.445-19.447,12.598c-45.576,19.43-97.351-14.689-97.351-63.327v-2.455c0-36.89,31.736-68.818,68.812-68.82
		c14.047-0.002,27.847,3.452,38.954,11.029c2.544,1.735,7.644,5.153,9.016,7.063L346.16,258.069L346.16,258.069z M390.174,214.511
		c-2.217,1.325-9.204,8.838-11.303,10.875c-2.297-1.566-4.505-3.778-7.149-5.779c-1.609-1.217-5.753-4.254-7.758-5.095
		c-0.91,0.522-90.124,0.61-91.173,0.024c-2.616,1.137-7.011,4.412-9.173,6.151c-2.356,1.895-9.838,8.597-11.645,10.851
		c-1.12,1.397-2.276,2.672-3.347,4.016c-11.582,14.528-19.273,33.594-19.398,54.629c-0.198,33.123,16.202,59.54,42.076,76.594
		c0.435-0.27,0.107-0.183,0.921-0.338c0.533-0.101,0.987-0.111,1.534-0.12c21.53-0.35,46.118,0.03,67.904,0.03l23.315,0.418
		c9.005-5.543,17.36-11.121,19.65-21.731c1.066-4.937,0.639-33.506,0.553-40.528l-24.042-0.006l0.068-27.046
		c11.474-0.04,22.952,0.013,34.427-0.005c6.203-0.01,9.897,0.271,11.146,6.094c0.668,3.116,0.259,45.97,0.259,51.228
		c0,11.684,0.506,20.89-2.39,31.695l84.726-0.123l-0.225,10.402c0.217-0.4,0.821-159.037,0.549-173.95
		c-0.926,1.921-0.114,9.133-0.57,12.01C479.454,214.807,391.283,215.252,390.174,214.511L390.174,214.511z M206.802,366.671
		c-4.955-4.682-14.063-25.541-16.63-33.333c-9.109-27.651-9.112-58.058,0.321-85.585c3.252-9.489,10.505-25.65,16.652-32.931
		l23.254-0.074c-1.006,2.277-11.253,12.354-19.573,32.091c-11.176,26.512-11.611,60.254-0.542,86.848
		c2.666,6.405,5.188,11.779,8.504,17.251l10.883,15.422C226.091,366.33,208.543,365.728,206.802,366.671z"/>
	<path fill-rule="evenodd" clip-rule="evenodd" fill="#FFFFFF" d="M134.928,444.924c0.071-1.79-0.394-0.315,0.042-3.372
		l119.804,0.007c0.236,0.372,0.702-0.662,0.821-0.922c-0.961-0.816-10.423-4.972-12.717-6.212
		c-13.163-7.119-23.668-14.425-34.311-24.177l-7.109-7.202c-1.077-1.027-1.557-1.326-2.477-2.42
		c-2.923-3.472-6.009-6.728-8.95-10.686c-4.45-5.99-7.885-10.747-11.673-17.373c-0.769-1.346-2.697-5.128-3.518-6.092l-65.836-0.058
		c-0.226,23.132,0.742,45.704,13.629,64.352C124.189,433.019,132.131,443.629,134.928,444.924z"/>
</g>
</svg>
