<?xml version="1.0" encoding="utf-8"?>
<!-- Generator: Adobe Illustrator 17.0.0, SVG Export Plug-In . SVG Version: 6.00 Build 0)  -->
<!DOCTYPE svg PUBLIC "-//W3C//DTD SVG 1.1//EN" "http://www.w3.org/Graphics/SVG/1.1/DTD/svg11.dtd">
<svg version="1.1" id="Layer_1" xmlns="http://www.w3.org/2000/svg" xmlns:xlink="http://www.w3.org/1999/xlink" x="0px" y="0px"
	 width="595.3px" height="595.3px" viewBox="0 0 595.3 595.3" style="enable-background:new 0 0 595.3 595.3;" xml:space="preserve"
	>
<style type="text/css">
	.st0{fill-rule:evenodd;clip-rule:evenodd;fill:#FFFFFF;}
	.st1{fill-rule:evenodd;clip-rule:evenodd;stroke:#000000;stroke-width:0.2394;stroke-miterlimit:2.6131;}
	.st2{fill-rule:evenodd;clip-rule:evenodd;}
</style>
<g>
	<path class="st0" d="M59.4,0h476.5h6.7l0.2,6.7v0c1.2,41.4,0.5,80.6-2.2,117.6c-2.6,37-7.1,72.1-13.5,105.4
		c-32.5,171-112.3,288.9-225.8,363l-3.8,2.4l-3.8-2.4l0,0c-22.2-14.5-43-30.6-62.4-48.3c-19.4-17.8-37.5-37.3-54.1-58.7
		C92.3,376.4,46.2,219.8,52.4,6.7L52.6,0H59.4L59.4,0z"/>
	<path class="st1" d="M364.8,34.9h7.6v54.9h-5.3V40.2h0l-11.6,14.9l-3.4-3.7L364.8,34.9L364.8,34.9z M398.8,75.5l0.1,3.2
		c0.1,2,0.4,3.4,0.9,4.2c0.6,0.8,1.7,1.3,3.5,1.5c1.8,0.2,3.6,0.3,5.4,0.3c4.4,0,7.5-0.4,9.3-1.3c1.3-0.6,2.1-2.1,2.4-4.4
		c0.2-1.5,0.3-3.3,0.3-5.6v-9.4c-1,1.7-2,2.8-2.8,3.4c-0.7,0.5-1.3,0.8-1.8,0.9c-1.9,0.6-4.3,0.9-7.2,0.9c-2.5,0-4.6-0.1-6.3-0.3
		c-0.8-0.1-1.7-0.3-2.5-0.5c-1.4-0.4-2.5-0.8-3.4-1.4c-0.4-0.2-0.9-0.6-1.4-1.2c-1.3-1.3-2.2-3.2-2.6-5.5c-0.2-0.9-0.3-1.6-0.3-2.3
		c-0.1-1.3-0.2-3.2-0.2-5.5c0-8.5,1.4-13.7,4.3-15.4c1.8-1.2,4-1.9,6.6-2.2c1.9-0.2,4.2-0.3,6.9-0.3c4.1,0,7.2,0.5,9.4,1.6
		c1,0.5,1.9,1,2.6,1.7c0.6,0.6,1.1,1.2,1.5,2c0.5,1,1,2.2,1.3,3.6c0.2,0.7,0.3,1.4,0.4,1.8c0.3,1.6,0.4,3.7,0.5,6.2
		c0.1,3.4,0.2,7.4,0.2,12.1L426,75l0,1.6c0,1.2-0.2,2.5-0.4,3.7c-0.9,5.5-3.7,8.6-8.4,9.4c-2.4,0.4-4.9,0.6-7.5,0.6
		c-3.2,0-5.8-0.1-7.9-0.4c-1.5-0.2-3-0.7-4.4-1.7c-2.4-1.5-3.7-4.5-3.8-8.9v-3.9H398.8L398.8,75.5z M397.8,50.7c0,1,0.1,2.9,0.2,5.6
		c0.1,2.5,0.6,4.2,1.5,5.1c1.2,1.2,4.3,1.8,9.3,1.8c3,0,5.4-0.2,7.1-0.5c2.9-0.6,4.5-2.3,4.8-5.3c0.1-0.8,0.1-2.6,0.1-5.2
		c0-5.8-0.6-9.3-2-10.4c-1.3-1.1-4.4-1.7-9.2-1.7c-2.4,0-4.8,0.2-7,0.5c-2.5,0.4-4,1.6-4.3,3.5C397.9,45.7,397.8,47.9,397.8,50.7
		L397.8,50.7L397.8,50.7z M433,62.4c0-6.7,0.2-11.9,0.7-15.4c0.7-6.4,3.1-10.2,7.2-11.6c1.7-0.5,3.3-0.9,5-1l5-0.1l5.2,0.1
		c1.7,0.1,3.4,0.4,5,1c3.7,1.3,6,4.4,6.9,9.2c0.4,2.5,0.7,5.3,0.8,8.3c0.1,3.3,0.2,6.5,0.2,9.4c0,3.1-0.1,6.3-0.2,9.4
		c-0.1,3.1-0.4,5.9-0.8,8.4c-1.2,6.5-5.1,9.8-11.9,10.1l-5.2,0.1l-5-0.1c-1.7,0-3.4-0.4-5-1c-4.1-1.4-6.5-5.3-7.3-11.5
		C433.2,74,432.9,68.9,433,62.4L433,62.4z M438.3,62.3c0,4.2,0.1,7.3,0.2,9.5c0.1,1.9,0.3,3.9,0.6,5.8c0.5,3.7,1.7,5.9,3.7,6.3
		c0.9,0.3,2,0.4,3.3,0.5c1.8,0.1,3.4,0.2,4.9,0.2l4.8-0.2c2.4-0.1,4-0.6,5-1.5c0.9-0.9,1.6-2.7,2-5.4c0.3-1.9,0.5-3.9,0.6-5.8
		c0.1-2.1,0.2-5.3,0.2-9.5c0-4.1-0.1-7.2-0.2-9.3c-0.1-1.9-0.3-3.8-0.6-5.8c-0.3-1.8-0.7-3.2-1.2-4.2c-0.6-1.2-1.6-1.9-3.1-2.3
		c-1.5-0.3-4-0.5-7.5-0.6c-5.4,0-8.7,0.6-9.8,1.6c-1.3,1.2-2.2,5-2.6,11.2C438.3,55.1,438.3,58.2,438.3,62.3L438.3,62.3L438.3,62.3z
		 M482,61.4c-1.8-0.6-3-1.3-3.5-2c-0.9-1.1-1.5-2.4-1.8-4c-0.3-1.4-0.4-3.2-0.4-5.5c0-2,0.1-3.9,0.3-5.6c0.5-4.7,2.3-7.6,5.6-8.7
		c1.2-0.4,2.4-0.7,3.5-0.8c2-0.2,4.2-0.3,6.7-0.4c5.8,0,9.9,0.6,12.2,1.7c2,1,3.3,2.7,4,5.2c0.4,1.5,0.7,3.9,0.7,7.2
		c0,3.4-0.2,5.8-0.4,7c-0.6,2.7-1.7,4.5-3.5,5.3l-1.7,0.7l0,0c2.8,1,4.6,2.6,5.3,4.8c0.6,1.7,0.9,4.5,1,8.1c0,3.3-0.2,5.9-0.5,7.5
		c-0.5,2.7-1.7,4.8-3.4,6.1c-2.3,1.7-6.4,2.5-12.4,2.4c-6.7,0-11.3-0.8-13.6-2.3c-1.2-0.7-2.2-1.9-2.9-3.4c-0.4-0.8-0.7-1.6-0.8-2.3
		c-0.4-2-0.7-4.3-0.7-6.7c0-4.2,0.3-7.2,0.8-8.8c0.5-1.6,1.2-2.9,2.2-3.7C479.1,62.6,480.3,62,482,61.4L482,61.4L482,61.4z
		 M480.8,73.8c0,2.1,0.1,3.8,0.2,5.2c0.2,2.1,0.9,3.5,2.1,4.3c0.7,0.5,1.3,0.8,1.9,0.8c1.8,0.4,4.5,0.5,8,0.5c2.6,0,5.1-0.2,7.4-0.7
		c1.9-0.4,3.1-1.5,3.5-3.3c0.3-1.2,0.5-3.1,0.5-5.7c0-1.9-0.1-3.7-0.3-5.5c-0.3-2.8-2.1-4.4-5.4-4.7c-1.7-0.2-3.9-0.3-6.6-0.3
		c-4.2,0-7,0.4-8.3,1.1c-1.5,0.8-2.4,1.9-2.8,3.4C480.9,70,480.8,71.7,480.8,73.8L480.8,73.8L480.8,73.8z M481.6,49.3
		c0,3.3,0.3,5.5,0.8,6.6c0.7,1.6,2.4,2.5,5,2.6c1.3,0.1,3.2,0.1,5.7,0.1c2.7,0,4.8-0.1,6.5-0.3c2.5-0.4,3.9-2,4.2-4.9
		c0.1-1.4,0.1-3,0.1-5c0-1.9-0.2-3.5-0.6-4.8c-0.4-1.3-1.4-2.2-3.1-2.6c-2-0.5-4.7-0.8-8.2-0.7c-1.8,0-3.5,0.1-5.2,0.3
		c-1.7,0.2-2.9,0.7-3.6,1.3c-0.9,0.8-1.4,2.1-1.5,3.9C481.6,46.7,481.5,47.9,481.6,49.3L481.6,49.3z"/>
	<polygon points="311,62 327,62 327,68.9 311,68.9 311,62 	"/>
	<path class="st2" d="M59.4,0h476.5h6.7l0.2,6.7v0c1.2,41.4,0.5,80.6-2.2,117.6c-2.6,37-7.1,72.1-13.5,105.4
		c-32.5,171-112.3,288.9-225.8,363l-3.8,2.4l-3.8-2.4l0,0c-22.2-14.5-43-30.6-62.4-48.3c-19.4-17.8-37.5-37.3-54.1-58.7
		C92.3,376.4,46.2,219.8,52.4,6.7L52.6,0H59.4L59.4,0z M108.4,328.1V131.9h81.8v347.8c-0.6-0.8-1.3-1.6-1.9-2.4
		C155.5,435.1,128.6,385.5,108.4,328.1L108.4,328.1z M68.1,118.1h459.1c2.2-33.1,2.8-67.9,2-104.2h-463
		C65.2,50.3,65.9,85,68.1,118.1L68.1,118.1z M486.8,131.9h-81.8v347.8c33.7-42.8,61.2-93.1,81.8-151.5V131.9L486.8,131.9z
		 M339.3,131.9H256v415.6c13.3,11.2,27.2,21.6,41.7,31.2c14.5-9.6,28.4-20.1,41.7-31.2V131.9L339.3,131.9z M113.1,62.5h27.4v10.8
		c0,2.3-0.2,4.5-0.4,6.4c-0.8,6-4.6,9.3-11.5,10c-3.3,0.4-7.3,0.6-12.1,0.5c-6.2,0-10.4-0.1-12.5-0.5c-5-0.7-8.6-2.4-10.8-5
		c-1.3-1.5-2.3-3.1-2.8-4.8c-0.7-2-1-3.9-1.1-5.8c-0.2-3.2-0.3-7.6-0.3-13.2c0-4.2,0.1-7.6,0.2-10.2C90,40.5,95.8,35,106.9,34.5
		c2.2-0.1,4.7-0.2,7.4-0.2c5.6,0,10.1,0.2,13.6,0.5c4.6,0.5,8.1,2.2,10.2,5.2c1.2,1.6,1.9,4.2,2.2,7.6l0.3,4h-7.6l-0.2-3.9
		c-0.3-3.9-1.8-6.1-4.4-6.7c-1.3-0.3-2.6-0.5-4-0.6c-2.7-0.1-5.5-0.2-8.3-0.2c-3.7,0-6.9,0.1-9.6,0.3c-1.5,0.1-2.9,0.4-4.2,0.8
		c-0.8,0.3-1.5,0.7-2.1,1.2c-1.9,1.6-3,4.5-3.2,8.8c-0.1,2.4-0.2,5.6-0.2,9.5c0,9.1,0.4,14.9,1,17.2c0.7,3.1,3,4.9,6.7,5.4
		c3,0.5,6.2,0.7,9.7,0.7c5.3,0,9.6-0.2,12.9-0.6c2.9-0.3,4.6-1.8,5.2-4.5c0.4-1.8,0.6-3.7,0.6-5.7v-5h-19.8V62.5L113.1,62.5z
		 M180.7,51.1l12.8,33.3l0,0l9.9-33.3h7.4L196,96.8l-0.8,2.1c-1.1,2.7-2.4,4.5-4.1,5.3c-1.9,1-4.3,1.5-7.1,1.5c-0.9,0-2.3,0.1-4.1,0
		v-5.2c1.7,0,3,0,3.8,0c2.7,0,4.6-1.4,5.5-4.2l2-6.5v0h-2.3l-15.5-38.7H180.7L180.7,51.1z M286.3,34.9v6H254v17.8h31v6h-31v19.1
		h32.7v6h-40.3V34.9H286.3L286.3,34.9z"/>
</g>
</svg>
