<?xml version="1.0" encoding="utf-8"?>
<!-- Generator: Adobe Illustrator 17.0.0, SVG Export Plug-In . SVG Version: 6.00 Build 0)  -->
<!DOCTYPE svg PUBLIC "-//W3C//DTD SVG 1.1//EN" "http://www.w3.org/Graphics/SVG/1.1/DTD/svg11.dtd">
<svg version="1.1" id="Capa_1" xmlns="http://www.w3.org/2000/svg" xmlns:xlink="http://www.w3.org/1999/xlink" x="0px" y="0px"
	 width="595.3px" height="595.3px" viewBox="-14.2 -14.2 595.3 595.3" style="enable-background:new -14.2 -14.2 595.3 595.3;"
	 xml:space="preserve">
<style type="text/css">
	.st0{fill:#0A51A1;}
	.st1{fill:#FF0000;}
	.st2{fill:#FFFFFF;}
</style>
<g>
	<path class="st0" d="M282.7,572.4c-19.2-5.6-104.7-36-201.6-160.2C55.9,379.8,22.4,310.3,5.7,162.6c-7.3-64.4-8.9-121.9-9.1-149
		C10.8,28,39.3,48.7,86.1,48.7c62.2,0,99.4-45.4,108-57.1h177.2c8.6,11.7,45.8,57.1,108,57.1c46.8,0,75.3-20.7,89.5-35.1
		c-0.2,27.1-1.8,84.7-9.1,149c-9.2,81.5-29.8,191-75.4,249.5C387.4,536.4,301.9,566.8,282.7,572.4z"/>
	<path class="st1" d="M368.4-2.6c4.6,5.9,13.3,16,25.7,25.9c25.3,20.5,54.8,31.3,85.2,31.3c39.3,0,66.6-14.2,83.5-27.7
		c-0.6,30.1-2.6,79.9-8.9,134.9c-9.1,80.8-29.5,189.3-74.3,246.7C436.5,463.9,390.6,507,343.1,537c-29.3,18.5-50.6,26.3-60.4,29.3
		c-9.8-3-31.1-10.9-60.4-29.3c-47.5-29.8-93.3-73.1-136.5-128.5C41,351,20.7,242.8,11.5,162c-6.3-55-8.3-104.9-8.9-135.1
		c16.9,13.5,44.2,27.7,83.5,27.7c30.3,0,59.8-10.8,85.2-31.1c12.4-9.9,21.1-20,25.7-25.9h171.5 M374.4-14.4H191
		c0,0-37.4,57.1-104.9,57.1S-9.5-3-9.5-3s-4.1,303.2,85.9,418.6c107.5,138,202.2,161.7,206.3,162.8c4-1.2,98.8-24.9,206.3-162.8
		C579,300.2,574.9-3,574.9-3s-28.1,45.7-95.6,45.7S374.4-14.4,374.4-14.4L374.4-14.4z M282.7,578.5
		C282.7,578.5,282.6,578.5,282.7,578.5L282.7,578.5C282.8,578.5,282.7,578.5,282.7,578.5L282.7,578.5z"/>
</g>
<polygon class="st1" points="520.4,356.4 46,356.4 22.7,278.7 8.1,203.7 557.5,203.7 542.9,280.3 "/>
<g>
	<path class="st2" d="M147.3,282.2l21.6,6.5c-1.4,6-3.7,11.1-6.9,15.2c-3.1,4-7,7.1-11.6,9.1c-4.6,2-10.4,3.1-17.6,3.1
		c-8.6,0-15.8-1.3-21.2-3.8c-5.4-2.5-10.2-6.9-14.2-13.3c-4-6.3-5.9-14.4-5.9-24.3c0-13.1,3.6-23.2,10.5-30.3
		c7-7.1,16.9-10.5,29.7-10.5c10.1,0,17.9,2,23.6,6c5.7,4,9.9,10.3,12.8,18.7l-21.7,4.9c-0.7-2.4-1.5-4.1-2.4-5.3
		c-1.4-1.9-3.1-3.3-5.1-4.4c-2-1.1-4.3-1.5-6.6-1.5c-5.6,0-9.8,2.3-12.8,6.8c-2.3,3.3-3.3,8.5-3.3,15.6c0,8.8,1.3,14.8,4,18.1
		c2.7,3.3,6.4,4.9,11.3,4.9c4.7,0,8.3-1.3,10.7-3.9C144.5,291.1,146.3,287.3,147.3,282.2z"/>
	<path class="st2" d="M185.7,292.6h23.6v22.1h-23.6V292.6z"/>
	<path class="st2" d="M277.5,301.7h-27.9l-3.9,13.1h-25.1l29.8-79.5h26.8l29.8,79.5h-25.7L277.5,301.7z M272.3,284.5l-8.8-28.5
		l-8.6,28.5H272.3z"/>
	<path class="st2" d="M318,292.6h23.6v22.1H318V292.6z"/>
	<path class="st2" d="M400.8,286v-16.6h38v33.9c-7.2,5-13.7,8.3-19.3,10.1c-5.6,1.8-12.2,2.7-19.9,2.7c-9.5,0-17.2-1.7-23.1-4.9
		c-5.9-3.2-10.5-8.1-13.9-14.3c-3.3-6.4-4.9-13.6-4.9-21.9c0-8.6,1.8-16.2,5.3-22.6c3.6-6.4,8.8-11.3,15.8-14.6
		c5.3-2.6,12.7-3.9,21.8-3.9c8.8,0,15.4,0.8,19.7,2.4c4.4,1.5,7.9,4,10.9,7.5c2.8,3.3,5.1,7.6,6.5,12.7l-23.7,4.3
		c-0.9-3-2.6-5.3-5-6.9c-2.4-1.5-5.3-2.4-8.9-2.4c-5.3,0-9.7,1.9-12.9,5.6c-3.2,3.8-4.9,9.7-4.9,17.8c0,8.6,1.7,14.8,4.9,18.5
		c3.2,3.7,7.7,5.6,13.5,5.6c2.7,0,5.3-0.4,7.8-1.2c2.5-0.8,5.3-2.1,8.5-4v-7.5h-16.3V286z"/>
	<path class="st2" d="M457.5,292.6h23.6v22.1h-23.6V292.6z"/>
</g>
</svg>
