<?xml version="1.0" encoding="utf-8"?>
<!-- Generator: Adobe Illustrator 17.0.0, SVG Export Plug-In . SVG Version: 6.00 Build 0)  -->
<!DOCTYPE svg PUBLIC "-//W3C//DTD SVG 1.1//EN" "http://www.w3.org/Graphics/SVG/1.1/DTD/svg11.dtd">
<svg version="1.1" id="Layer_1" xmlns="http://www.w3.org/2000/svg" xmlns:xlink="http://www.w3.org/1999/xlink" x="0px" y="0px"
	 width="595.3px" height="595.3px" viewBox="0 0 595.3 595.3" enable-background="new 0 0 595.3 595.3" xml:space="preserve">
<g>
	
		<path fill-rule="evenodd" clip-rule="evenodd" fill="#008837" stroke="#008837" stroke-width="0.216" stroke-miterlimit="22.9256" d="
		M577.7,154.816C543.168,327.964,464.052,479.145,315.49,580.168l-18.127,12.327l-18.127-12.327
		C130.672,479.145,51.556,327.964,17.024,154.816l-7.318-36.694l37.375-1.811c86.649-4.197,163.382-43.032,230.146-96.427
		l20.135-16.102l20.135,16.102c66.763,53.395,143.497,92.23,230.146,96.427l37.375,1.811L577.7,154.816z"/>
	
		<path fill-rule="evenodd" clip-rule="evenodd" fill="#FFFFFF" stroke="#FFFFFF" stroke-width="0.216" stroke-miterlimit="22.9256" d="
		M566.542,152.591c-33.998,170.471-111.572,318.97-257.45,418.169l-11.73,7.975l-11.73-7.975
		C139.754,471.561,62.181,323.062,28.183,152.591l-4.735-23.743l24.183-1.172c89.088-4.316,167.964-43.931,236.702-98.906
		l13.029-10.419l13.029,10.419c68.739,54.976,147.615,94.591,236.703,98.906l24.183,1.172L566.542,152.591z"/>
	
		<path fill-rule="evenodd" clip-rule="evenodd" fill="#008837" stroke="#008837" stroke-width="0.216" stroke-miterlimit="22.9256" d="
		M97.664,308.553C76.783,260.502,60.355,207.255,48.64,148.511c87.442-4.235,170.074-40.551,248.722-103.451
		c78.648,62.9,161.28,99.215,248.722,103.451L97.664,308.553z"/>
	
		<path fill-rule="evenodd" clip-rule="evenodd" fill="#FFFFFF" stroke="#FFFFFF" stroke-width="0.216" stroke-miterlimit="22.9256" d="
		M152.565,408.792c-20.772-30.53-39.11-63.898-54.902-100.239l448.421-160.042c-9.372,46.995-21.762,90.471-37.034,130.585
		L152.565,408.792z"/>
	
		<path fill-rule="evenodd" clip-rule="evenodd" fill="#008837" stroke="#008837" stroke-width="0.216" stroke-miterlimit="22.9256" d="
		M509.051,279.097C463.236,399.438,391.475,489.514,297.362,553.51c-56.615-38.498-105.141-86.434-144.797-144.718L509.051,279.097z
		"/>
	
		<path fill-rule="evenodd" clip-rule="evenodd" fill="#008837" stroke="#008837" stroke-width="0.216" stroke-miterlimit="22.9256" d="
		M225.978,327.57c5.216-0.221,10.456-0.427,15.703-0.665c-2.419,9.418-6.432,17.178-12.087,23.349
		c-5.591,6.103-12.747,10.675-21.358,13.668c-10.644,3.702-19.325,3.182-26.076-1.583c-3.347-2.363-5.88-5.687-7.503-9.957
		c-1.613-4.25-2.404-9.447-2.315-15.571c0.095-6.471,0.973-12.509,2.716-18.101c1.742-5.586,4.363-10.767,7.776-15.511
		c6.82-9.476,15.779-16.207,26.849-20.151c9.701-3.456,17.565-3.441,23.664-0.04c3.606,2.01,6.308,5.784,8.119,11.336
		c-5.3,3.114-10.631,6.225-15.967,9.366c-0.921-3.722-2.891-6.197-5.854-7.452c-2.978-1.261-6.592-1.13-10.844,0.371
		c-5.853,2.067-10.633,5.837-14.312,11.226c-3.695,5.412-5.58,12.715-5.667,21.971c-0.046,4.93,0.357,9.003,1.206,12.222
		c0.84,3.186,2.217,5.511,3.996,6.976c3.595,2.958,8.311,3.418,14.132,1.391c4.328-1.507,8.033-4.167,11.105-7.906
		C222.352,338.747,224.615,333.763,225.978,327.57L225.978,327.57z M255.531,346.125c-0.01-5.058,0.007-10.085-0.006-15.108
		c5.143-1.803,10.29-3.622,15.485-5.43c0.013,5.047,0.06,10.081,0.077,15.133C265.886,342.518,260.709,344.315,255.531,346.125
		L255.531,346.125z M361.003,309.385c-6.025,2.107-12.074,4.214-18.095,6.282c-2.492-5.142-4.985-10.277-7.469-15.424
		c-10.9,3.821-21.752,7.613-32.581,11.394c-2.209,6.758-4.389,13.53-6.547,20.285c-5.814,2.02-11.628,4.054-17.419,6.07
		c2.565-7.499,5.158-15.001,7.741-22.471c2.578-7.454,5.17-14.907,7.725-22.337c2.55-7.42,5.102-14.84,7.656-22.235
		c2.55-7.382,5.133-14.784,7.677-22.137c5.76-2.035,11.495-4.088,17.254-6.128c5.586,10.965,11.213,22.003,16.868,33.071
		C349.514,286.909,355.263,298.126,361.003,309.385L361.003,309.385z M329.972,288.862c-1.999-4.188-3.905-8.366-5.833-12.528
		c-1.93-4.168-3.858-8.309-5.793-12.465c-1.753,5.44-3.566,10.914-5.294,16.366c-1.727,5.453-3.552,10.957-5.285,16.425
		C315.117,294.071,322.548,291.461,329.972,288.862L329.972,288.862z M369.745,306.34c-0.119-5.059-0.238-10.1-0.332-15.157
		c5.245-1.838,10.514-3.68,15.783-5.526c0.127,5.05,0.255,10.117,0.381,15.169C380.276,302.663,374.967,304.512,369.745,306.34
		L369.745,306.34z M401.475,295.289c-0.194-6.596-0.385-13.19-0.553-19.78c-0.168-6.556-0.359-13.122-0.531-19.654
		c-0.17-6.512-0.376-13.036-0.536-19.509c-0.16-6.472-0.373-12.936-0.517-19.383c5.465-1.953,11.012-3.925,16.532-5.916
		c0.206,6.474,0.417,12.953,0.599,19.403c0.185,6.485,0.443,13.02,0.622,19.529c0.18,6.544,0.382,13.107,0.56,19.674
		c0.179,6.571,0.433,13.175,0.638,19.784C412.65,291.397,407.062,293.353,401.475,295.289L401.475,295.289z M434.21,283.889
		c-0.178-5.063-0.326-10.143-0.478-15.203c5.337-1.869,10.641-3.725,16.024-5.585c0.186,5.036,0.371,10.107,0.528,15.181
		C444.916,280.165,439.577,282.03,434.21,283.889z"/>
</g>
</svg>
