<?xml version="1.0" encoding="utf-8"?>
<!-- Generator: Adobe Illustrator 17.0.0, SVG Export Plug-In . SVG Version: 6.00 Build 0)  -->
<!DOCTYPE svg PUBLIC "-//W3C//DTD SVG 1.1//EN" "http://www.w3.org/Graphics/SVG/1.1/DTD/svg11.dtd">
<svg version="1.1" id="Layer_1" xmlns="http://www.w3.org/2000/svg" xmlns:xlink="http://www.w3.org/1999/xlink" x="0px" y="0px"
	 width="595.3px" height="595.3px" viewBox="0 0 595.3 595.3" style="enable-background:new 0 0 595.3 595.3;" xml:space="preserve"
	>
<style type="text/css">
	.st0{fill-rule:evenodd;clip-rule:evenodd;fill:#1D68AB;}
	.st1{fill-rule:evenodd;clip-rule:evenodd;fill:#2D4437;}
	.st2{fill-rule:evenodd;clip-rule:evenodd;fill:#FFFFFF;}
</style>
<g>
	<path class="st0" d="M468.8,216.7l75.5,0l-1.8-9.3l-75.9,0C470.9,209.1,471.6,214,468.8,216.7z"/>
	<path class="st0" d="M244.6,216.8l114.4,0c-2.7-2.6-2.7-7.7,1-9.3l-117.6,0C246.8,209.3,247.7,214.2,244.6,216.8z"/>
	<path class="st0" d="M50.6,216.9l79.4,0c-5.6-2.6-4.4-7.5,3.6-9.3l-81.2,0.1L50.6,216.9z"/>
	
		<rect x="52.2" y="206.3" transform="matrix(-1 3.880580e-04 -3.880580e-04 -1 594.8002 414.9202)" class="st1" width="490.3" height="2.4"/>
	
		<rect x="50.6" y="215.6" transform="matrix(-1 3.820976e-04 -3.820976e-04 -1 594.9662 433.4452)" class="st1" width="493.8" height="2.4"/>
	<polygon class="st0" points="54.2,197.5 148.3,197.4 156.4,188.1 55.9,188.1 	"/>
	<path class="st0" d="M226.1,197.3l143.4-0.1c-3.1-4-6.5-8-8-9.3L234.6,188C232.3,189.3,229.1,192.9,226.1,197.3z"/>
	<polygon class="st0" points="434.5,187.9 442.7,197.2 540.5,197.1 538.6,187.9 	"/>
	<path class="st0" d="M535.9,320.5l-98.5,0.1l0,8.4l101-0.1C537.6,326.1,536.7,323.3,535.9,320.5z"/>
	<path class="st0" d="M458.7,266.7c-3.6,1.3-6.7,2.8-9.4,4.6l75.5-0.1c-0.2-3.7,0.2-6.9,1-9.7l-57.1,0
		C466.3,263.5,462.9,265.2,458.7,266.7z"/>
	<path class="st0" d="M526.3,281.3l-86.2,0.1c-1.5,3-2.4,6.3-2.7,10.1l91-0.1C527.7,288.1,527,284.7,526.3,281.3z"/>
	<path class="st0" d="M530.8,301.5l-93.4,0.1l0,9.4l95.8-0.1C532.3,307.7,531.5,304.6,530.8,301.5z"/>
	<path class="st0" d="M541.8,338.7l-104.3,0.1l0,10.4l108.1-0.1C544.2,345.7,543,342.2,541.8,338.7z"/>
	<path class="st0" d="M549.4,359l-112,0.1l0,9.8l116.2-0.1C552.2,365.6,550.8,362.3,549.4,359z"/>
	<path class="st0" d="M140.1,266.7c-4.1-1.4-7.3-3.1-9.7-4.9l-60.9,0c0.9,2.8,1.2,6,0.9,9.7l79.4-0.1
		C147.1,269.6,143.8,268,140.1,266.7z"/>
	<path class="st0" d="M158.8,281.6l-90,0.1c-0.7,3.4-1.4,6.8-2.1,10.1l94.7-0.1C161.2,287.9,160.3,284.5,158.8,281.6z"/>
	<path class="st0" d="M161.5,301.7l-97,0.1c-0.8,3.1-1.6,6.2-2.4,9.3l99.4-0.1L161.5,301.7z"/>
	<path class="st0" d="M161.4,319.9l-101.9,0.1c-0.9,3.1-1.9,6.2-2.8,9.2l104.7-0.1L161.4,319.9z"/>
	<path class="st0" d="M161.4,339l-108,0.1c-1.2,3.5-2.5,7-3.8,10.4l111.8-0.1L161.4,339z"/>
	<path class="st0" d="M161.4,359.1l-115.6,0c-1.4,3.4-2.9,6.8-4.3,10.1l119.9-0.1L161.4,359.1z"/>
	<polygon class="st0" points="546,225 49,225.3 47.3,234.3 547.7,234 	"/>
	<path class="st0" d="M272.1,252.7c-0.6-2.3-0.2-5.2,1.6-5.3c18,0,53.2-0.6,53.9,0c2.2,2,3.1,3.8,3.1,5.2l9.2,0
		c1.6-3.2,5.5-5.8,11.8-6.4h107c7.9,0.9,12.4,3.3,13.8,6.3l59.8,0c4.3-3.1,10.4-4.8,18.1-5.1l-0.8-4l-504.1,0.4l-0.7,3.5
		c8,0.4,14.2,2.1,18.5,5.4l62.8,0c1.2-3.1,5.8-5.6,13.9-6.5h107.1c6.4,0.6,10.2,3.2,11.9,6.4L272.1,252.7z"/>
	<path class="st0" d="M58.2,176l108.6,0L238,93.7c-15.5-8.2-18.3-22.1-5.1-23.7h122c11.5,0.8,13.5,13.9-3.8,24.6l73.4,82.2
		l111.9-0.3l2.2,11.3l1.8,9.2l2,10.3l1.8,9.3l1.7,8.4l1.8,8.9l1.9,9.5l0.8,4l5.4,26.7c1.4,8.2,17,7,15.3-2
		c-13.4-57.6-21-118.9-35.3-177.1c-1.1-4.6-9-11.1-13.9-9.8c-8.6,3.7-14,6.4-20.9,6.6c-11.7-0.6-3.5-11.6-41.7-16.7
		c-22.6-3.2-31.4,12.9-38.3,8.4c-28-10.9-37.8-29.5-25-57.8c2.9-4,10.3-2.4,6.7,7.4c1.3,4.2,26.6,2.8,25.4,1
		C399.6,8.6,354.1,1,297.3,1.4c-56.8,0.8-101.7,7.3-130.2,32.6c-1.2,1.8,24.1,3.2,25.4-1c-3.6-9.8,3.8-11.3,6.7-7.4
		c12.9,28.3,3,46.9-25,57.8c-6.9,4.6-15.7-11.5-38.3-8.4c-38.2,5.1-30,16.2-41.7,16.7c-6.8-0.3-12.3-2.9-20.8-6.6
		c-4.9-1.3-12.8,5.2-13.9,9.8c-14.2,58.3-21.9,119.5-35.3,177.1c-1.7,9,13.9,10.2,15.3,2l5.4-26.7l0.7-3.5l1.8-9.6l1.7-8.9l1.6-8.5
		l1.7-9.3l1.9-10.2l1.7-9.3l0.1-0.5L58.2,176z"/>
	<path class="st0" d="M161.3,378.1l-124.1,0.1c-2.9,6.1-6,12.1-9.2,17.8c19.7,12.7,15,25.6-6.4,37c-25.2,70.5,37.9,119.6,94.2,122.5
		c19.6,1,47.5-8.3,71.5-12.1c18,3,20.9,10.3,5.7,22.7c26.7,20.6,62,27.5,104.4,27.8c41.9,0,77.8-7.3,104.5-27.8
		c-15.3-12.4-12.3-19.7,5.7-22.7c24,3.9,51.9,13.1,71.6,12.1c56.3-2.9,119.5-52,94.2-122.5c-21.4-11.4-26.1-24.3-6.4-37
		c-3.2-5.9-6.3-11.9-9.3-18.1L437.5,378l0.1,93.2c-2.1,37.9-27.4,56.9-71.5,57h-66.7h-66.6c-44.2-0.1-69.5-19.1-71.6-57L161.3,378.1
		z"/>
	<path class="st1" d="M297.6,595.1c-21.3-0.1-40.9-2-58.4-6.3c-17.6-4.4-33.3-11.3-46.7-21.7l-1.2-0.9l1.2-1
		c7.2-5.9,10.2-10.4,9.2-13.6c-0.9-3.2-5.8-5.5-14.2-6.9c-8.3,1.3-17.1,3.3-25.9,5.3c-16.5,3.7-32.8,7.4-45.7,6.8h0
		c-11-0.6-22.2-2.9-33-6.7c-18.9-6.7-36.4-18.2-49-33.5c-12.6-15.3-20.2-34.5-19-56.5c0.5-8.7,2.3-17.8,5.7-27.3l0.2-0.4l0.4-0.2
		c7.7-4.1,13.2-8.4,16-12.8c1.3-2,2-4,2.1-6c0.1-2-0.3-4-1.4-6c-1.8-3.3-5.2-6.7-10.5-10.1l-0.9-0.6l0.5-1
		c9.2-16.8,17.5-35.1,24.6-55c7.1-20,12.9-41.7,17.2-65.3l0,0c1.3-8.7-0.2-15.1-4.2-19.4c-3.9-4.2-10.3-6.4-18.9-6.9l-5.2,25.6h0
		c-0.6,3.7-3.6,5.8-7,6.4c-1.2,0.2-2.5,0.2-3.7,0c-1.2-0.2-2.4-0.6-3.4-1.2c-2.6-1.4-4.2-4-3.6-7.6l0-0.1
		c6.3-27.2,11.4-55.2,16.4-83.3C45,157,50.7,125.4,58.2,94.7v0l0-0.1l0,0c0.7-2.6,3.1-5.5,6-7.7c3-2.2,6.5-3.6,9.3-2.9h0l0.1,0
		l0.1,0l0.1,0l2.6,1.1c7,3,11.9,5.2,17.7,5.4c3.8-0.2,5.3-1.7,7.3-3.7c3.9-4,9.7-9.7,34.3-13v0c13.4-1.9,22.1,2.8,28.3,6.2v0
		c4.1,2.2,7.1,3.9,9.4,2.3l0.1-0.1l0.1,0c13.7-5.3,22.9-12.5,27.1-21.8c4.2-9.2,3.4-20.6-2.8-34.3c-0.7-0.9-1.7-1.4-2.6-1.4
		c-0.5,0-1,0.1-1.4,0.3c-0.4,0.2-0.8,0.6-1,1.1c-0.6,1.3-0.6,3.3,0.5,6.4l0.1,0.4l-0.1,0.4c-1,3.2-11.6,3.9-19.2,3.4
		c-1.9-0.1-3.7-0.3-5-0.5c-1.6-0.3-2.7-0.7-3.1-1.1l0,0c-0.5-0.5-0.6-1.1-0.2-1.8l0.1-0.1l0.1-0.1c14.4-12.8,32.9-20.8,55-25.7
		c22-4.9,47.5-6.7,76-7.1h0c28.5-0.2,54.2,1.7,76.3,6.7c22.2,5.1,40.9,13.4,55.3,26.2l0.1,0.1l0.1,0.1c0.4,0.6,0.3,1.2-0.2,1.8
		c-0.4,0.5-1.6,0.9-3.1,1.1c-1.3,0.2-3.1,0.4-5,0.5c-7.6,0.5-18.2-0.2-19.2-3.4l-0.1-0.4l0.1-0.4c1.1-3,1.1-5.1,0.5-6.4
		c-0.2-0.5-0.6-0.9-1-1.1c-0.4-0.2-0.9-0.3-1.4-0.3c-1,0-1.9,0.5-2.6,1.4c-6.2,13.8-7,25.1-2.8,34.3c4.2,9.3,13.4,16.4,27.1,21.8
		l0.1,0l0.1,0.1c2.3,1.5,5.3-0.1,9.5-2.3c6.3-3.4,14.9-8.1,28.4-6.2v0c24.6,3.3,30.3,9.1,34.3,13c2,2,3.5,3.5,7.3,3.7
		c5.9-0.2,10.8-2.4,17.8-5.4l2.6-1.1l0.1,0l0.1,0l0.1,0h0c2.8-0.7,6.4,0.7,9.3,2.9c2.9,2.2,5.3,5.2,6,7.7l0,0l0,0.1v0
		c7.5,30.8,13.2,62.4,18.9,93.8c5.1,28.1,10.1,56.1,16.4,83.3l0,0.1c0.7,3.6-1,6.2-3.6,7.6c-1,0.6-2.2,1-3.5,1.2
		c-1.2,0.2-2.5,0.2-3.7,0c-3.4-0.6-6.4-2.7-7-6.4h0l-5.2-25.6c-8.6,0.5-15,2.8-18.9,6.9c-4,4.3-5.5,10.7-4.2,19.4l0,0
		c4.3,23.7,10.2,45.4,17.3,65.3c7.1,20,15.4,38.2,24.6,55l0.5,1l-0.9,0.6c-5.3,3.4-8.7,6.8-10.5,10.1c-1.1,2-1.5,4-1.4,6
		c0.1,2,0.9,4,2.1,6c2.8,4.4,8.3,8.7,16.1,12.8l0.4,0.2l0.2,0.4c3.4,9.5,5.2,18.6,5.7,27.3c1.1,22-6.4,41.2-19,56.5
		c-12.6,15.3-30.1,26.8-48.9,33.5c-10.8,3.9-22,6.2-33,6.7h0c-12.9,0.7-29.2-3-45.7-6.8c-8.8-2-17.6-4-25.9-5.3
		c-8.4,1.4-13.2,3.7-14.2,6.9c-0.9,3.2,2,7.8,9.2,13.6l1.2,1l-1.2,0.9c-13.5,10.4-29.3,17.4-47,21.8
		C338.2,593.3,318.6,595.1,297.6,595.1L297.6,595.1L297.6,595.1z M239.7,586.5c17.4,4.3,36.7,6.1,57.9,6.3c20.9,0,40.2-1.8,57.7-6.2
		c16.9-4.2,31.9-10.8,44.9-20.5c-7.2-6.1-10-11.1-8.9-15.2c1.2-4.2,6.8-7.1,16.3-8.7l0.2,0l0.2,0c8.5,1.4,17.4,3.4,26.3,5.4
		c16.3,3.7,32.5,7.4,45,6.7c10.7-0.6,21.7-2.8,32.3-6.6c18.5-6.6,35.6-17.9,47.9-32.8c12.2-14.9,19.6-33.5,18.5-54.9
		c-0.4-8.3-2.2-17.1-5.4-26.2c-7.9-4.3-13.5-8.8-16.5-13.4c-1.5-2.3-2.4-4.7-2.5-7.1c-0.2-2.4,0.4-4.9,1.7-7.3
		c1.9-3.5,5.3-7,10.4-10.4c-9.1-16.6-17.2-34.7-24.2-54.4c-7.1-20.1-13-41.9-17.4-65.8l0,0c-1.4-9.5,0.3-16.6,4.9-21.4
		c4.5-4.8,11.8-7.3,21.5-7.7l1,0l0.2,1l5.4,26.7l0,0c0.4,2.5,2.6,4,5,4.4c1,0.2,2,0.2,2.9,0c1-0.1,1.9-0.4,2.6-0.9
		c1.7-1,2.8-2.7,2.4-5c-6.3-27.2-11.4-55.3-16.4-83.4c-5.7-31.4-11.3-63-18.8-93.7h0l0-0.1l0,0c-0.5-2-2.6-4.5-5.1-6.4
		c-2.4-1.8-5.2-3-7.3-2.5c-1.4,0.6-2,0.9-2.5,1.1c-7.2,3.1-12.3,5.4-18.7,5.6H501c-4.8-0.2-6.5-2-8.9-4.4
		c-3.7-3.7-9.1-9.2-32.9-12.3h0c-12.6-1.8-20.9,2.7-26.9,6c-4.8,2.6-8.3,4.5-11.8,2.3c-14.2-5.6-23.9-13.1-28.4-23
		c-4.5-9.9-3.7-22,2.8-36.4l0.1-0.1l0.1-0.1c1.1-1.6,2.9-2.4,4.5-2.5c0.9,0,1.8,0.2,2.6,0.6c0.8,0.5,1.5,1.2,2,2.1
		c0.8,1.7,1,4.3-0.2,7.8c1.3,1.7,10.1,1.9,16.6,1.4c1.9-0.1,3.5-0.3,4.8-0.5l0.6-0.1C412.1,21.8,394.3,14,373.1,9.2
		c-21.9-5-47.4-6.8-75.8-6.6c-28.3,0.4-53.7,2.2-75.5,7.1c-21,4.7-38.7,12.2-52.6,24.1l0.6,0.1c1.3,0.2,2.9,0.4,4.8,0.5
		c6.5,0.4,15.2,0.2,16.6-1.4c-1.2-3.5-1.1-6.1-0.2-7.8c0.5-1,1.2-1.7,2-2.1c0.8-0.5,1.7-0.6,2.6-0.6c1.7,0.1,3.4,0.9,4.5,2.5
		l0.1,0.1l0.1,0.1c6.6,14.5,7.3,26.6,2.8,36.4c-4.5,9.8-14.1,17.4-28.3,23c-3.5,2.2-7,0.3-11.8-2.3l0,0c-6-3.2-14.2-7.7-26.9-6h0
		c-23.7,3.2-29.2,8.6-32.9,12.3c-2.4,2.4-4.2,4.2-8.9,4.4h-0.1c-6.4-0.2-11.4-2.5-18.7-5.6c-0.5-0.2-1.1-0.5-2.5-1.1
		c-2.1-0.5-4.8,0.7-7.3,2.5c-2.5,1.9-4.6,4.3-5.1,6.4h0l0,0.1h0c-7.5,30.7-13.2,62.3-18.8,93.7c-5.1,28.2-10.1,56.2-16.4,83.4
		c-0.4,2.4,0.7,4.1,2.4,5c0.8,0.4,1.7,0.7,2.6,0.9c1,0.1,2,0.1,2.9,0c2.4-0.4,4.6-1.8,5-4.4l0,0l5.4-26.7l0.2-1l1,0
		c9.7,0.4,17,2.9,21.5,7.7c4.6,4.8,6.3,11.9,4.9,21.4l0,0c-4.4,23.8-10.2,45.7-17.3,65.8c-7,19.7-15.1,37.8-24.2,54.4
		c5.1,3.4,8.5,6.9,10.4,10.4c1.3,2.4,1.8,4.9,1.7,7.3c-0.2,2.4-1,4.8-2.5,7.1c-3,4.7-8.6,9.1-16.5,13.4c-3.2,9.1-4.9,17.9-5.4,26.2
		c-1.1,21.4,6.2,40,18.5,54.9c12.3,14.9,29.4,26.2,47.9,32.8c10.6,3.8,21.6,6,32.3,6.6c12.6,0.6,28.7-3,45-6.7
		c8.9-2,17.8-4,26.2-5.4l0.2,0l0.2,0c9.5,1.6,15.1,4.4,16.3,8.7c1.2,4-1.7,9.1-8.9,15.2C208,575.7,222.9,582.3,239.7,586.5z"/>
	
		<rect x="63" y="251.5" transform="matrix(-1 6.486495e-04 -6.486495e-04 -1 595.4337 505.2084)" class="st1" width="469.3" height="2.4"/>
	<path class="st0" d="M288.2,261.7l-30,0c-2,2.9-5.7,5.3-11,6.2c-4.7,0.6-9.4,1.9-13.2,3.6l54.3,0
		C288.3,267.4,288.3,264,288.2,261.7z"/>
	<path class="st0" d="M318.7,261.7c-0.1,2.1-0.1,5.6,0,9.7l46.1,0c-3.8-1.7-8.4-2.9-13-3.5c-5.3-0.9-9-3.3-11-6.2L318.7,261.7z"/>
	<path class="st0" d="M287.8,363.6c-5.1-0.5-9.4-1.5-14.2-3.3c-0.5-0.2-0.8-0.6-1.2-1.1l-47.2,0l0,9.8l62.8,0
		C288,365.7,287.9,363.6,287.8,363.6z"/>
	<polygon class="st0" points="225.2,349.3 373.7,349.2 373.7,338.8 225.2,338.9 	"/>
	<polygon class="st0" points="225.2,329 373.7,328.9 373.7,319.7 225.2,319.8 	"/>
	<path class="st0" d="M318.7,311l54.9,0l0-9.4l-54.5,0c0,2,0,3.9,0.1,5.6C319.2,308.6,319,309.9,318.7,311z"/>
	<path class="st0" d="M319,291.5l54.6,0l0-10.1l-54.8,0C318.8,284.8,318.9,288.2,319,291.5z"/>
	<path class="st0" d="M288.4,291.5c0-3.2,0-6.6,0-10.1l-63.1,0l0,10.1l30.1,0c3.5-2.8,8.2-2.8,13.1,0L288.4,291.5z"/>
	<path class="st0" d="M251.5,311c-1.8-2.5-2.2-5.7-1.5-9.4l-24.7,0l0,9.4L251.5,311z"/>
	<path class="st0" d="M275.2,301.6c-0.8,2.1-2.9,3.8-4.7,4.1c-0.2,0-0.4,0.3-0.4,0.5c-0.2,2.4,15.3,3.8,17.9-4.7L275.2,301.6z"/>
	
		<rect x="69.3" y="260.5" transform="matrix(-1 6.667693e-04 -6.667693e-04 -1 595.2308 523.154)" class="st1" width="456.5" height="2.4"/>
	
		<rect x="69.9" y="270.2" transform="matrix(-1 6.693919e-04 -6.693919e-04 -1 594.7944 542.6113)" class="st1" width="454.9" height="2.4"/>
	
		<rect x="64.3" y="300.4" transform="matrix(-1 6.536563e-04 -6.536563e-04 -1 595.2884 603.0184)" class="st1" width="466.4" height="2.4"/>
	
		<rect x="61.7" y="309.7" transform="matrix(-1 5.032142e-04 -5.032142e-04 -1 594.9897 621.7096)" class="st1" width="471.5" height="2.4"/>
	
		<rect x="59.5" y="318.6" transform="matrix(-1 6.403048e-04 -6.403048e-04 -1 595.5964 639.3456)" class="st1" width="476.4" height="2.4"/>
	
		<rect x="68.7" y="280.3" transform="matrix(-1 6.646235e-04 -6.646235e-04 -1 595.5647 562.7434)" class="st1" width="458.1" height="2.4"/>
	
		<rect x="66.8" y="290.3" transform="matrix(-1 7.032473e-04 -7.032473e-04 -1 595.3832 582.8873)" class="st1" width="461.7" height="2.4"/>
	<path class="st2" d="M273.7,247.4c18,0,53.2-0.6,53.9,0c6.4,6.1,2.4,9.3-8.6,11.9c-0.9,0.1,0.1,31.9,0.2,47.9
		c0,9-6.4,10.7-17.7,10.7h-27.9c-22.3-0.1-27.5-8.8-21.8-21.6c4.3-8.9,13.1-9.2,22-0.9c4.4,4.5,0.2,9.6-3.2,10.3
		c-0.2,0-0.4,0.3-0.4,0.5c-0.2,2.6,18.2,4,18.3-7.2c-0.1-13.5,0.1-40.4-0.4-40.5c-5.1-0.5-9.4-1.5-14.2-3.3
		C271.5,254.4,270.9,247.5,273.7,247.4z"/>
	<path class="st1" d="M273.7,246.2c6.6,0,14.2-0.1,21.8-0.1c16-0.1,32-0.3,32.8,0.4l0.1,0.1c3.8,3.6,4.4,6.5,2.3,8.9
		c-1.8,2.1-5.7,3.7-11.5,5l-0.1,0c-0.4,0.1,0.7,13.6,0.9,27.2c0.1,7.1,0.3,14.1,0.3,19.5v0c0,5-1.8,8-5.3,9.8
		c-3.2,1.7-7.8,2.1-13.6,2.1l0,0h-27.9l0,0c-7.4,0-13-1-17-2.8c-2.8-1.2-4.8-2.8-6.1-4.8c-1.4-2-2-4.2-2-6.8c0-2.7,0.8-5.7,2.2-8.9
		l0,0c0.8-1.6,1.7-2.9,2.7-4.1v0c1.9-2,4.1-3.1,6.6-3.5c2.4-0.3,5.1,0.2,7.8,1.5c2.2,1.1,4.4,2.6,6.7,4.8l0,0
		c1.2,1.2,1.9,2.5,2.1,3.8c0.3,1.3,0.1,2.5-0.3,3.6c-0.4,1.1-1.1,2-1.9,2.8c-0.7,0.7-1.5,1.2-2.3,1.6c0.2,0,0.5,0.1,0.8,0.1h0
		c1,0.2,2.2,0.3,3.4,0.3c1.3,0,2.7-0.2,4-0.5c3.6-0.9,6.8-3.1,6.8-7.4c0-4.5-0.1-10.5-0.1-16.5c0-11.5,1.4-22.7,0.7-22.8
		c-2.6-0.2-5-0.6-7.3-1.2c-2.4-0.6-4.7-1.3-7.2-2.2l0,0c-1.3-0.5-2.2-2-2.5-3.6c-0.2-0.9-0.3-1.8-0.2-2.7c0.1-0.9,0.3-1.8,0.8-2.5
		C271.9,246.8,272.7,246.3,273.7,246.2L273.7,246.2L273.7,246.2z M295.5,248.5c-8.2,0.1-16.4,0.1-21.8,0.1v0c-0.1,0-0.2,0.1-0.3,0.2
		c-0.2,0.3-0.3,0.8-0.4,1.4c0,0.6,0,1.3,0.2,2c0.2,0.9,0.6,1.7,1,1.9l0,0c2.3,0.9,4.6,1.6,6.8,2.1c2.3,0.5,4.6,0.9,7.1,1.1l0.1,0
		c1.3,0.2,1.3,12.7,1.3,25.2c0,6,0,12,0.1,16.5v0c0,5.7-4.1,8.6-8.7,9.7c-1.5,0.4-3.1,0.6-4.6,0.6c-1.5,0-2.9-0.1-4-0.3v0
		c-2.1-0.5-3.5-1.4-3.5-2.7c0-0.3,0.1-0.7,0.3-1c0.2-0.3,0.6-0.6,1-0.7v0c0.8-0.2,1.7-0.7,2.5-1.4c0.6-0.6,1-1.2,1.3-2
		c0.3-0.7,0.4-1.5,0.2-2.3c-0.2-0.8-0.6-1.7-1.5-2.6l0,0c-2-1.9-4.1-3.4-6-4.3c-2.3-1.1-4.5-1.6-6.5-1.3c-1.9,0.2-3.7,1.2-5.2,2.7
		l0,0c-0.9,0.9-1.6,2.1-2.3,3.5c-1.3,2.9-2,5.6-2,7.9c0,2,0.5,3.8,1.6,5.4c1.1,1.6,2.8,2.9,5.1,3.9c3.7,1.6,9,2.5,16.1,2.6v0h27.9v0
		c5.5,0,9.7-0.4,12.5-1.9c2.6-1.3,4-3.7,4-7.6c0-5.3-0.2-12.4-0.3-19.4c-0.3-14.4-0.5-28.8,1-29.6l0,0c5.2-1.2,8.8-2.6,10.2-4.2
		c1.1-1.3,0.5-3.1-2.1-5.6C326.4,248.3,311,248.4,295.5,248.5z"/>
	<path class="st0" d="M373.7,359.1l-43.8,0c-1.3,2.2-5.2,3.8-11.2,5.2c-0.2,0-0.3,1.8-0.4,4.6l55.4,0L373.7,359.1z"/>
	
		<rect x="45.1" y="357.9" transform="matrix(-1 2.507289e-04 -2.507289e-04 -1 594.8667 718.05)" class="st1" width="504.5" height="2.4"/>
	
		<rect x="41.4" y="367.8" transform="matrix(-1 7.821639e-04 -7.821639e-04 -1 595.8334 737.7756)" class="st1" width="512.7" height="2.4"/>
	
		<rect x="37.3" y="376.8" transform="matrix(-1 6.026347e-04 -6.026347e-04 -1 595.9844 755.8902)" class="st1" width="521.2" height="2.4"/>
	<path class="st0" d="M373.8,378l-55.4,0c0.1,10.6,0.5,25,0.5,34.2c0,9-6.4,10.7-17.7,10.7h-27.9c-22.3-0.1-27.5-8.8-21.8-21.6
		c4.3-8.9,13.1-9.2,22-0.9c4.4,4.5,0.2,9.6-3.2,10.3c-0.2,0-0.4,0.3-0.4,0.5c-0.2,2.6,18.2,4,18.3-7.2c-0.1-6.9,0-17.5-0.1-26
		l-62.9,0l-0.1,59.1c0.4,16.4,5.4,26.3,17.2,26.8h57.2h57.2c11.8-0.5,16.8-10.4,17.2-26.8L373.8,378z"/>
	<path class="st2" d="M273.4,352.5c18,0,53.2-0.6,53.9,0c6.4,6.1,2.4,9.3-8.6,11.9c-0.9,0.1,0.1,31.9,0.2,47.9
		c0,9-6.4,10.7-17.7,10.7h-27.9c-22.3-0.1-27.5-8.8-21.8-21.6c4.3-8.9,13.1-9.2,22-0.9c4.4,4.5,0.2,9.6-3.2,10.3
		c-0.2,0-0.4,0.3-0.4,0.5c-0.2,2.6,18.2,4,18.3-7.2c-0.1-13.5,0.1-40.4-0.4-40.5c-5.1-0.5-9.4-1.5-14.2-3.3
		C271.2,359.4,270.7,352.5,273.4,352.5z"/>
	<path class="st1" d="M273.4,351.3c6.6,0,14.2-0.1,21.8-0.1c16-0.1,32-0.3,32.8,0.4l0.1,0.1c3.8,3.6,4.4,6.5,2.3,8.9
		c-1.8,2.1-5.7,3.7-11.5,5l-0.1,0c-0.4,0.1,0.7,13.6,0.9,27.2c0.1,7.1,0.3,14.1,0.3,19.5v0c0,5-1.8,8-5.3,9.8
		c-3.2,1.7-7.8,2.1-13.6,2.1l0,0h-27.9l0,0c-7.4,0-13-1-17-2.8c-2.8-1.2-4.8-2.8-6.1-4.8c-1.4-2-2-4.2-2-6.8c0-2.7,0.8-5.7,2.2-8.9
		l0,0c0.8-1.6,1.7-2.9,2.8-4.1v0c1.9-2,4.1-3.1,6.6-3.5c2.4-0.3,5.1,0.2,7.8,1.5c2.2,1.1,4.4,2.6,6.7,4.8l0,0
		c1.2,1.2,1.9,2.5,2.1,3.8c0.3,1.3,0.1,2.5-0.3,3.6c-0.4,1.1-1.1,2-1.9,2.8c-0.7,0.7-1.5,1.2-2.3,1.6c0.2,0,0.5,0.1,0.8,0.1h0
		c1,0.2,2.2,0.3,3.4,0.3c1.3,0,2.7-0.2,4-0.5c3.6-0.9,6.8-3.1,6.8-7.4c0-4.5-0.1-10.5-0.1-16.5c0-11.5,1.4-22.7,0.7-22.8
		c-2.6-0.2-5-0.6-7.3-1.2c-2.4-0.6-4.7-1.3-7.2-2.2l0,0c-1.3-0.5-2.2-2-2.5-3.6c-0.2-0.9-0.3-1.8-0.2-2.7c0.1-0.9,0.3-1.8,0.8-2.5
		C271.6,351.8,272.4,351.3,273.4,351.3L273.4,351.3L273.4,351.3z M295.2,353.5c-8.2,0.1-16.4,0.1-21.8,0.1v0c-0.1,0-0.2,0.1-0.3,0.2
		c-0.2,0.3-0.3,0.8-0.4,1.4c-0.1,0.6,0,1.3,0.2,2c0.2,0.9,0.6,1.7,1,1.9l0,0c2.3,0.9,4.6,1.6,6.8,2.1c2.3,0.5,4.6,0.9,7.1,1.1l0.1,0
		c1.3,0.2,1.3,12.7,1.3,25.2c0,6,0,12,0.1,16.5v0c0,5.7-4.1,8.6-8.7,9.7c-1.5,0.4-3.1,0.6-4.6,0.6c-1.5,0-2.9-0.1-4-0.3v0
		c-2.1-0.5-3.5-1.4-3.5-2.7c0-0.3,0.1-0.7,0.3-1c0.2-0.3,0.6-0.6,1-0.7v0c0.8-0.2,1.7-0.7,2.5-1.4c0.6-0.6,1-1.2,1.3-2
		c0.3-0.7,0.4-1.5,0.2-2.3c-0.2-0.8-0.6-1.7-1.5-2.6l0,0c-2-1.9-4.1-3.4-6-4.3c-2.3-1.1-4.5-1.6-6.5-1.3c-1.9,0.2-3.7,1.2-5.2,2.7
		l0,0c-0.9,0.9-1.6,2.1-2.3,3.5c-1.3,2.9-2,5.6-2,7.9c0,2,0.5,3.8,1.6,5.4c1.1,1.6,2.8,2.9,5.1,3.9c3.7,1.6,9,2.5,16.1,2.6v0h27.9v0
		c5.5,0,9.7-0.4,12.5-1.9c2.6-1.3,4-3.7,4-7.6c0-5.3-0.2-12.4-0.3-19.4c-0.3-14.4-0.5-28.8,1-29.6l0,0c5.2-1.2,8.8-2.6,10.2-4.2
		c1.1-1.3,0.5-3.1-2.1-5.6C326.1,353.3,310.7,353.4,295.2,353.5z"/>
	
		<rect x="56.1" y="327.8" transform="matrix(-1 6.288607e-04 -6.288607e-04 -1 595.5912 657.7705)" class="st1" width="483.2" height="2.4"/>
	
		<rect x="52.9" y="337.7" transform="matrix(-1 6.231387e-04 -6.231387e-04 -1 595.4244 677.6078)" class="st1" width="489.5" height="2.4"/>
	
		<rect x="49.2" y="348" transform="matrix(-1 6.121714e-04 -6.121714e-04 -1 595.0482 698.3179)" class="st1" width="496.4" height="2.4"/>
	<path class="st2" d="M299.4,528.2h-66.6c-44.2-0.1-69.5-19.1-71.6-57l0.3-178.9c-0.6-12.6-8.2-20.9-21.4-25.5
		c-18.1-6.3-19.9-18.2,0-20.4h107.1c17.8,1.7,16.2,18.9,0,21.6c-11.1,1.4-22,6.5-21.9,12.5L225,437.1c0.4,16.4,5.4,26.3,17.2,26.8
		h57.2h57.2c11.8-0.5,16.8-10.4,17.2-26.8l-0.3-156.8c0-5.9-10.8-11.1-21.9-12.5c-16.1-2.6-17.7-19.8,0-21.6h107
		c19.9,2.2,18.1,14.1,0,20.4c-13.2,4.7-20.7,12.9-21.4,25.5l0.3,178.9c-2.1,37.9-27.4,56.9-71.5,57H299.4z"/>
	<path class="st1" d="M299.4,529.4h-66.6v0c-22.6,0-40.3-5-52.6-14.8c-12.2-9.7-19.1-24.2-20.2-43.3v-0.1l0.3-178.9
		c-0.3-6-2.2-11-5.7-15c-3.5-4.1-8.5-7.2-14.9-9.4l0,0c-6.6-2.3-11.2-5.4-13.4-8.5c-1.2-1.7-1.8-3.4-1.7-5.1
		c0.1-1.7,0.9-3.3,2.4-4.7c2.4-2.2,6.6-3.8,12.9-4.5l0.1,0h0h107.1h0l0.1,0c6.1,0.6,10,2.9,12.1,5.9c1.1,1.6,1.7,3.4,1.7,5.3
		c0,1.8-0.5,3.7-1.5,5.4c-2.1,3.5-6.2,6.4-12.2,7.4l0,0c-5.7,0.7-11.3,2.4-15.3,4.7c-3.4,1.9-5.6,4.2-5.6,6.6v0l-0.3,156.8
		c0.2,8,1.5,14.4,4.1,18.8c2.6,4.2,6.4,6.6,11.9,6.9v0h57.2h57.2v0c5.4-0.2,9.3-2.6,11.9-6.9c2.7-4.4,4-10.8,4.1-18.8l-0.3-156.8v0
		c0-2.3-2.2-4.6-5.6-6.6c-4-2.3-9.6-4-15.3-4.7l0,0c-6-1-10.2-3.9-12.2-7.4c-1-1.7-1.5-3.6-1.5-5.4c0-1.8,0.6-3.7,1.7-5.3
		c2.1-3,6.1-5.3,12.1-5.9l0.1,0h0h107h0l0.1,0c6.3,0.7,10.5,2.3,12.9,4.5c1.5,1.4,2.3,3,2.4,4.7c0.1,1.7-0.5,3.4-1.7,5.1
		c-2.2,3.1-6.8,6.2-13.4,8.5l0,0c-6.4,2.3-11.4,5.4-14.9,9.4c-3.4,4-5.4,9-5.7,15l0.3,178.9v0.1c-1.1,19.2-8,33.6-20.2,43.3
		c-12.3,9.8-30,14.8-52.6,14.8v0H299.4L299.4,529.4z M232.8,527L232.8,527l66.6,0h66.7v0c22,0,39.2-4.8,51.1-14.3
		c11.6-9.3,18.2-23.1,19.3-41.6l-0.3-178.9v-0.1c0.3-6.6,2.5-12,6.3-16.5c3.8-4.4,9.1-7.7,15.9-10.1h0c6.1-2.1,10.3-4.9,12.2-7.6
		c0.9-1.2,1.3-2.4,1.2-3.5c-0.1-1.1-0.6-2.1-1.6-3c-2-1.8-5.8-3.3-11.4-3.9h-107c-5.2,0.5-8.6,2.4-10.3,4.9
		c-0.8,1.2-1.3,2.6-1.3,3.9c0,1.4,0.4,2.8,1.2,4.1c1.7,2.9,5.3,5.4,10.5,6.2l0,0c6,0.8,11.9,2.6,16.1,5c4.1,2.4,6.8,5.3,6.8,8.7
		l0.3,156.8v0c-0.2,8.4-1.6,15.2-4.5,20c-3,4.9-7.5,7.8-13.9,8l0,0h-57.2h-57.2l0,0c-6.4-0.3-10.9-3.1-13.9-8
		c-2.9-4.8-4.3-11.6-4.5-20v0l0.3-156.8c0-3.3,2.7-6.3,6.8-8.7c4.3-2.4,10.2-4.2,16.1-5l0,0c5.2-0.9,8.8-3.3,10.5-6.2
		c0.8-1.3,1.2-2.8,1.2-4.1c0-1.4-0.4-2.7-1.3-3.9c-1.7-2.4-5.1-4.3-10.3-4.9H140.1c-5.7,0.6-9.4,2.1-11.5,3.9c-1,0.9-1.6,2-1.6,3
		c-0.1,1.1,0.3,2.3,1.2,3.5c2,2.7,6.1,5.5,12.2,7.6h0c6.8,2.4,12.2,5.7,15.9,10.1c3.8,4.4,5.9,9.9,6.3,16.5v0.1l-0.3,178.9
		c1,18.4,7.6,32.3,19.3,41.6C193.6,522.2,210.8,526.9,232.8,527z"/>
	<polygon class="st1" points="549.2,247.7 535.4,177.8 424.5,178 424.5,175.6 536.4,175.3 537.4,175.3 537.6,176.3 551.6,247.2 	"/>
	
		<rect x="54.2" y="196.1" transform="matrix(-1 7.328112e-04 -7.328112e-04 -1 594.8856 394.3376)" class="st1" width="486.4" height="2.4"/>
	
		<rect x="54.9" y="186.3" transform="matrix(-1 5.766471e-04 -5.766471e-04 -1 592.7109 374.9009)" class="st1" width="482.7" height="2.4"/>
	<path class="st2" d="M354.9,70h-122c-13.2,1.6-10.4,15.5,5.1,23.7l-97.8,113.1c-18.2,0.1-18.1,11.7-0.4,11.7l99.3-0.1
		c10.2,0,9.5-11.6-0.3-11.6c-6.1,0-18.5,0.6-18.2-0.1c4.1-8.6,11.9-18.9,15.4-19.1c41.6,0,83.2,0,124.8,0c2,0,16.4,19.4,15.7,19.4
		l-13.6,0c-8.4,0-7,11.4,0.4,11.4l100.5,0.2c9,0,9.2-11.7-0.3-11.7l-11.9,0L351.1,94.6C368.4,84,366.4,70.9,354.9,70L354.9,70z
		 M258.4,159.3c-0.4,0,25.5-29.9,38.3-44.8c0.4-0.7,39.9,44.7,39,44.8L258.4,159.3z"/>
	<polygon class="st2" points="57.4,186.5 156.2,186.4 164.2,177.2 59.2,177.2 	"/>
	<path class="st2" d="M145.7,198.6l-90.5,0.1l-1.4,7.8l79.8,0c1.9-0.4,4-0.6,6.1-0.7L145.7,198.6z"/>
	<path class="st2" d="M129.7,218l-78.2,0l-1.1,6.1l494.1-0.3l-1.2-6l-74.1,0c-1.3,1.1-3.2,1.9-5.6,1.9l-100.5-0.2
		c-1.9,0-3.5-0.6-4.6-1.6L245,218c-1.4,1-3.4,1.7-6,1.7l-99.3,0.1C136.2,219.8,132.5,219.2,129.7,218z"/>
	<polygon class="st2" points="546.8,235.2 48.3,235.5 47,242.7 548.2,242.3 	"/>
	<path class="st2" d="M126.3,259.3c-1.2-1.7-1.8-3.4-1.7-5.1c0-0.1,0-0.2,0-0.3l-58.2,0c1.7,1.9,3.1,4,3.9,6.6l56.9,0
		C127,260.2,126.6,259.8,126.3,259.3z"/>
	<path class="st1" d="M354.9,71.2H232.9c-2.5,0.3-4.4,1.1-5.6,2.2c-1.1,1-1.6,2.3-1.7,3.7c-0.1,1.5,0.4,3.3,1.3,5.1
		c1.9,3.6,5.8,7.4,11.5,10.4l1.3,0.7l-1,1.1L141,207.7l-0.4,0.4l-0.5,0c-6.2,0-10.1,1.4-11.7,3.2c-0.5,0.5-0.7,1.1-0.7,1.6
		c0,0.5,0.2,1,0.7,1.6c1.6,1.7,5.4,3,11.4,3l99.3-0.1c3.1,0,5-1.2,5.7-2.7c0.3-0.6,0.4-1.2,0.4-1.8c0-0.6-0.2-1.3-0.5-1.8
		c-0.9-1.6-2.9-2.9-6-2.9h0c-2,0-4.7,0-7.4,0.1c-4.9,0.1-9.8,0.2-11-0.1c-0.9-0.3-1.2-0.8-0.9-1.7l0-0.1l0-0.1
		c2.1-4.6,5.3-9.6,8.4-13.4c3-3.7,6-6.3,8-6.5l0.1,0h124.8l0,0c1.8,0,9.8,9.9,14,15.8c0.8,1.1,1.5,2.1,2,2.9c0.7,1.1,1,1.9,0.8,2.4
		v0c-0.2,0.5-0.6,0.8-1.2,0.7l-13.6,0h0c-2.3,0-3.6,1-4.2,2.3c-0.2,0.6-0.4,1.2-0.3,1.8c0,0.6,0.2,1.3,0.4,1.9
		c0.7,1.6,2.3,2.9,4.5,2.9h0l100.5,0.2c2.7,0,4.4-1.2,5.2-2.7c0.3-0.6,0.4-1.2,0.4-1.9c0-0.6-0.1-1.3-0.4-1.9
		c-0.8-1.6-2.6-2.8-5.5-2.8l-11.9,0h-0.5l-0.4-0.4L350.2,95.4l-1-1.1l1.2-0.8c5.9-3.6,9.4-7.5,11.1-11.1c0.9-2,1.2-3.8,1-5.4
		c-0.2-1.5-0.9-2.8-2.1-3.8C359.1,72.2,357.2,71.4,354.9,71.2L354.9,71.2z M232.9,68.8h122l0.1,0c2.9,0.2,5.3,1.2,7,2.6
		c1.6,1.4,2.6,3.2,2.9,5.3c0.3,2-0.1,4.3-1.2,6.8c-1.7,3.7-5.2,7.6-10.8,11.3l99,110.9l11.4,0c4,0,6.5,1.8,7.6,4.1
		c0.4,0.9,0.7,1.9,0.7,2.9c0,1-0.2,2-0.7,2.9c-1.1,2.3-3.6,4.1-7.3,4.1l-100.5-0.2c-3.3,0-5.6-2-6.7-4.4c-0.4-0.9-0.6-1.9-0.6-2.8
		c0-1,0.1-1.9,0.5-2.8c0.9-2.1,3-3.8,6.4-3.7h0l0,0l11.5,0c-0.4-0.6-0.9-1.3-1.5-2.2c-4-5.5-11.1-14.7-12.1-14.8v0H236
		c-1.3,0.1-3.7,2.4-6.2,5.6c-2.6,3.3-5.4,7.5-7.4,11.5c1.9,0.1,5.4,0,9-0.1c2.7-0.1,5.5-0.1,7.5-0.1c4.1,0,6.9,1.9,8.1,4.2
		c0.5,0.9,0.7,1.9,0.8,2.9c0,1-0.2,2-0.7,2.9c-1.2,2.2-3.8,3.9-7.9,3.9l-99.3,0.1c-6.7,0-11.1-1.6-13.1-3.8c-0.9-1-1.4-2.1-1.4-3.2
		c0-1.1,0.5-2.2,1.4-3.2c2-2.1,6.3-3.8,12.9-3.9l96.5-111.6c-5.4-3.1-9.2-6.9-11.2-10.6c-1.2-2.2-1.7-4.4-1.6-6.3
		c0.1-2.1,0.9-3.9,2.4-5.4c1.6-1.5,3.9-2.5,7-2.9L232.9,68.8L232.9,68.8L232.9,68.8z M258.4,160.5L258.4,160.5L258.4,160.5l-2.1-0.1
		c-1.8,0,31.3-38.2,39.3-46.6c0.4-0.6,0.9-0.7,1.6-0.4l0,0c1,0.5,10.9,11.5,20.5,22.6c9.7,11.1,19.1,22.4,19.2,23.2v0
		c0,0.8-0.3,1.2-1.2,1.3h-0.1L258.4,160.5L258.4,160.5z M296.8,116.1c2.4,2.4,10.8,11.9,19.1,21.4c7.6,8.7,15,17.4,17.6,20.5
		C270.1,158.2,249,172,296.8,116.1z"/>
	<path class="st0" d="M258.4,159.3l77.3,0c0.9,0-38.7-45.5-39-44.8C283.9,129.4,258,159.3,258.4,159.3z"/>
	<polygon class="st1" points="43.7,247.2 57,175.8 57.2,174.8 58.2,174.8 166.8,174.8 166.8,177.2 59.2,177.2 46,247.7 	"/>
	
		<rect x="48.7" y="224" transform="matrix(-1 6.121714e-04 -6.121714e-04 -1 594.8118 450.1958)" class="st1" width="497.3" height="2.4"/>
	
		<rect x="47.3" y="232.9" transform="matrix(-1 6.071646e-04 -6.071646e-04 -1 595.1763 468.0656)" class="st1" width="500.5" height="2.4"/>
	
		<rect x="45.5" y="242.5" transform="matrix(-1 8.689482e-04 -8.689482e-04 -1 595.6125 487.1235)" class="st1" width="504.4" height="2.4"/>
	<path class="st2" d="M149.5,272.7l-77.9,0.1c-0.1,0.9-0.2,1.7-0.3,2.6l0,0c-0.3,1.7-0.6,3.3-0.9,5l86.5-0.1
		c-0.7-1.1-1.4-2.1-2.2-3.1C153.2,275.6,151.4,274.1,149.5,272.7z"/>
	<path class="st2" d="M160.3,292.8l-92.5,0.1c-0.6,2.6-1.2,5.1-1.8,7.6l94.3-0.1L160.3,292.8z"/>
	<path class="st2" d="M160.2,312.2l-97.3,0c-0.6,2.2-1.2,4.3-1.8,6.5l99.1-0.1L160.2,312.2z"/>
	<path class="st2" d="M160.2,330.3l-102.6,0.1c-0.8,2.5-1.6,5-2.5,7.5l105.1-0.1L160.2,330.3z"/>
	<path class="st2" d="M160.2,350.5l-109.7,0.1c-0.9,2.5-1.9,4.9-2.9,7.3l112.6,0L160.2,350.5z"/>
	<path class="st2" d="M160.2,370.3l-117.9,0.1c-1,2.2-2,4.4-3,6.6l121-0.1L160.2,370.3z"/>
	<path class="st2" d="M226.4,370.3l0,6.6l60.8,0c0.1-2.5,0.3-4.8,0.4-6.6L226.4,370.3z"/>
	<path class="st2" d="M226.4,357.9l44.2,0c0,0,0-0.1,0-0.1c-0.2-0.9-0.3-1.8-0.2-2.7c0.1-0.9,0.3-1.8,0.8-2.5
		c0.5-0.8,1.3-1.3,2.3-1.3l0,0c6.6,0,14.2-0.1,21.8-0.1c16-0.1,32-0.3,32.8,0.4l0.1,0.1c2.5,2.4,3.6,4.4,3.5,6.3l40.9,0l0-7.4
		l-146.1,0.1L226.4,357.9z"/>
	<polygon class="st2" points="226.4,337.7 372.5,337.6 372.5,330.1 226.4,330.2 	"/>
	<path class="st2" d="M226.5,318.6l38.8,0c-3.5-0.5-6.4-1.2-8.7-2.3c-2.5-1.1-4.4-2.5-5.7-4.2l-24.4,0L226.5,318.6z"/>
	<path class="st2" d="M226.5,300.5l22.5,0c0.4-1.5,0.9-3,1.6-4.6l0,0c0.6-1.1,1.2-2.2,1.9-3l-26,0L226.5,300.5z"/>
	<path class="st2" d="M226.5,280.3l60.7,0c0-2.7,0.1-5.3,0.3-7.7l-53.2,0c-0.8,0.4-1.5,0.7-2.2,1.1
		C228.7,275.7,226.5,278,226.5,280.3z"/>
	<path class="st2" d="M273.4,256.4L273.4,256.4L273.4,256.4z M260.3,260.5l27.7,0c0-0.5-0.1-0.7-0.2-0.7c-2.6-0.2-5-0.6-7.3-1.2
		c-2.4-0.6-4.7-1.3-7.2-2.2c-1-0.4-1.7-1.3-2.2-2.4l-10.4,0c0.2,0.8,0.3,1.6,0.3,2.4C261.2,257.7,260.9,259.1,260.3,260.5z"/>
	<path class="st2" d="M330.7,255.5c-1.7,2.1-5.6,3.7-11.2,5l19.1,0c-0.6-1.3-0.9-2.8-0.9-4.2c0-0.8,0.1-1.6,0.3-2.4l-6.5,0
		C331.5,254.4,331.2,255,330.7,255.5z"/>
	<path class="st2" d="M364.4,272.6l-44.9,0c0.1,2.4,0.2,5,0.3,7.7l52.5,0c-0.1-2.3-2.2-4.6-5.6-6.5
		C366.1,273.3,365.3,272.9,364.4,272.6z"/>
	<path class="st2" d="M372.4,292.7l-52.2,0c0,2.6,0.1,5.2,0.1,7.7l52.1,0L372.4,292.7z"/>
	<path class="st2" d="M372.5,312.1l-52.9,0c-0.8,2.2-2.4,3.8-4.5,4.8c-1.5,0.8-3.2,1.3-5.3,1.6l62.6,0L372.5,312.1z"/>
	<path class="st2" d="M287.2,299c0-1.9,0-4,0-6.3l-14.8,0c0.7,0.6,1.4,1.2,2.1,1.9l0,0c1.2,1.2,1.9,2.5,2.1,3.8
		c0.1,0.7,0.2,1.3,0.1,1.9l10.4,0C287.2,300,287.2,299.5,287.2,299z"/>
	<path class="st2" d="M372.6,370.1l-53.6,0c0.1,1.8,0.2,4.1,0.3,6.6l53.3,0L372.6,370.1z"/>
	<path class="st2" d="M438.7,370.1l0,6.7l117.2-0.1c-1-2.2-2.1-4.4-3.1-6.7L438.7,370.1z"/>
	<path class="st2" d="M438.7,357.8l109,0c-1-2.5-2-5-3-7.5l-106,0.1L438.7,357.8z"/>
	<path class="st2" d="M438.6,337.6l101.4-0.1c-0.9-2.5-1.7-5-2.5-7.5l-98.9,0.1L438.6,337.6z"/>
	<path class="st2" d="M438.6,318.5l95.4-0.1c-0.6-2.1-1.2-4.3-1.8-6.4l-93.6,0L438.6,318.5z"/>
	<path class="st2" d="M438.6,300.3l90.6-0.1c-0.6-2.5-1.2-5.1-1.8-7.7l-88.9,0.1L438.6,300.3z"/>
	<path class="st2" d="M442.1,280.2l82.7-0.1c-0.3-1.5-0.6-3.1-0.9-4.7l0,0c-0.1-1-0.3-2-0.3-2.9l-74,0c-2.1,1.4-3.9,3-5.4,4.8
		C443.5,278.2,442.8,279.2,442.1,280.2z"/>
	<path class="st2" d="M471.7,260.4l53.3,0c0.9-2.4,2.2-4.5,3.9-6.3c0.1-0.1,0.2-0.2,0.2-0.2l-54.9,0c0,0.2,0,0.3,0,0.5
		c0.1,1.7-0.5,3.4-1.7,5.1C472.3,259.7,472,260,471.7,260.4z"/>
	<path class="st2" d="M466.8,206.3l74.2,0l-1.6-7.9l-94.1,0.1l6.6,7.3l11.4,0C464.7,205.7,465.8,205.9,466.8,206.3z"/>
	<polygon class="st2" points="434.6,186.3 537.1,186.2 535.4,177.8 427.2,178 	"/>
	<path class="st2" d="M374.3,205.8c-1.3-1.8-3.3-4.6-5.4-7.4l-142.3,0.1c-1.6,2.4-3.1,4.9-4.3,7.4c3.4,0.1,12.4-0.2,16.5-0.2
		c1.5,0,2.8,0.2,3.9,0.6l117.1,0c0.9-0.3,1.9-0.5,3-0.5L374.3,205.8z"/>
</g>
</svg>
