<?xml version="1.0" encoding="utf-8"?>
<!-- Generator: Adobe Illustrator 17.0.0, SVG Export Plug-In . SVG Version: 6.00 Build 0)  -->
<!DOCTYPE svg PUBLIC "-//W3C//DTD SVG 1.1//EN" "http://www.w3.org/Graphics/SVG/1.1/DTD/svg11.dtd">
<svg version="1.1" id="HQFL" xmlns="http://www.w3.org/2000/svg" xmlns:xlink="http://www.w3.org/1999/xlink" x="0px" y="0px"
	 width="595.3px" height="595.3px" viewBox="0 0 595.3 595.3" style="enable-background:new 0 0 595.3 595.3;" xml:space="preserve"
	>
<style type="text/css">
	.st0{fill-rule:evenodd;clip-rule:evenodd;fill:#00A0C6;stroke:#00A0C6;stroke-width:0.216;stroke-miterlimit:22.9256;}
	.st1{fill-rule:evenodd;clip-rule:evenodd;fill:#FFFFFF;stroke:#FFFFFF;stroke-width:0.216;stroke-miterlimit:22.9256;}
</style>
<g>
	<path class="st0" d="M525.6,68.5L525.1,474c0.4,22.6-18.2,43.9-35.7,56.1c-13,9-28.9,15.7-44.9,15.7h-69.7
		c-19.7,0-50.8,21.7-64.7,35.2l-12.4,11.9L285.3,581c-13.9-13.5-45-35.2-64.7-35.2h-69.7c-16,0-32-6.7-44.9-15.7
		C88.4,518,69.8,496.7,70.2,474L69.7,68.5L29.5,2.4h536.4L525.6,68.5z"/>
	<path class="st1" d="M297.6,283.1v285.1c-20.4-19.7-54-40.2-77.1-40.2h-69.7c-28.7,0-63.4-31.2-62.9-53.8l-0.2-191.3L297.6,283.1z"
		/>
	<polygon class="st0" points="87.7,282.8 87.5,63.5 61.1,20.2 297.6,20.2 297.6,283.1 	"/>
	<polygon class="st1" points="297.6,282.8 297.6,20.2 534.2,20.2 507.8,63.5 507.5,283.1 	"/>
	<path class="st0" d="M507.5,283.1l-0.2,191.1c0.5,22.6-34.2,53.8-62.9,53.8h-69.7c-23.1,0-56.7,20.4-77.1,40.2V282.8L507.5,283.1z"
		/>
	<path class="st1" d="M224.7,173.6l30.7,9.3c-4.7,16.4-12.5,28.5-23.5,36.5c-10.9,7.9-24.8,11.9-41.7,11.9
		c-20.8,0-37.9-6.8-51.3-20.4c-13.4-13.6-20.1-32.3-20.1-55.8c0-25,6.8-44.4,20.2-58.2c13.5-13.8,31.2-20.7,53.2-20.7
		c19.2,0,34.8,5.4,46.7,16.3c7.2,6.4,12.5,15.6,16.1,27.6l-31.4,7.2c-1.8-7.8-5.7-13.9-11.6-18.4c-5.9-4.5-13-6.7-21.4-6.7
		c-11.6,0-21.1,4-28.3,12c-7.2,8-10.8,20.9-10.8,38.8c0,19,3.5,32.5,10.7,40.5c7.1,8.1,16.4,12.1,27.8,12.1c8.4,0,15.7-2.6,21.7-7.7
		C217.7,192.6,222.1,184.6,224.7,173.6z"/>
	<path class="st0" d="M339.5,177.1l31.2-2.8c1.9,9.4,5.7,16.4,11.4,20.8c5.7,4.4,13.5,6.6,23.2,6.6c10.3,0,18.1-2,23.4-5.9
		c5.3-3.9,7.9-8.5,7.9-13.8c0-3.4-1.1-6.3-3.3-8.6c-2.2-2.4-6-4.5-11.5-6.2c-3.7-1.2-12.3-3.3-25.7-6.3
		c-17.2-3.8-29.3-8.5-36.2-14.1c-9.8-7.9-14.7-17.4-14.7-28.7c0-7.3,2.3-14.1,6.9-20.4c4.6-6.3,11.2-11.1,19.8-14.5
		c8.7-3.3,19.1-5,31.3-5c20,0,35,3.9,45.1,11.8c10.1,7.9,15.4,18.4,15.9,31.5l-32.1,1.3c-1.4-7.4-4.3-12.6-8.8-15.8
		c-4.5-3.2-11.3-4.8-20.3-4.8c-9.3,0-16.7,1.7-21.9,5.2c-3.4,2.2-5.1,5.2-5.1,8.8c0,3.4,1.6,6.3,4.8,8.7c4,3.1,13.9,6.3,29.5,9.5
		c15.6,3.3,27.2,6.8,34.6,10.3c7.5,3.6,13.3,8.4,17.6,14.5c4.2,6.2,6.3,13.7,6.3,22.8c0,8.2-2.5,15.9-7.6,23
		c-5.1,7.2-12.2,12.5-21.5,15.9c-9.3,3.5-20.8,5.2-34.6,5.2c-20.1,0-35.5-4.2-46.3-12.5C348,205.2,341.5,193.1,339.5,177.1z"/>
	<path class="st0" d="M127.9,320.4H185c12.9,0,22.6,0.9,29.4,2.8c9.1,2.5,16.8,6.9,23.3,13.3c6.5,6.3,11.4,14.1,14.8,23.3
		c3.3,9.2,5,20.6,5,34.1c0,11.9-1.6,22.1-4.8,30.7c-3.9,10.5-9.4,19-16.6,25.5c-5.4,4.9-12.7,8.8-21.9,11.5
		c-6.9,2-16.1,3.1-27.6,3.1h-58.7V320.4L127.9,320.4z M159.1,344.9v95.5h23.3c8.7,0,15-0.4,18.9-1.4c5-1.2,9.3-3.2,12.6-6
		c3.3-2.8,6-7.5,8.2-13.9c2.1-6.5,3.2-15.3,3.2-26.4c0-11.2-1.1-19.7-3.2-25.7c-2.1-6-5.1-10.6-8.9-14c-3.8-3.4-8.6-5.6-14.5-6.8
		c-4.4-0.9-12.9-1.4-25.6-1.4H159.1z"/>
	<polygon class="st1" points="357,466.8 357,322.7 389.1,322.7 389.1,442.3 469.2,442.3 469.2,466.8 	"/>
</g>
</svg>
