<?xml version="1.0" encoding="utf-8"?>
<!-- Generator: Adobe Illustrator 17.0.0, SVG Export Plug-In . SVG Version: 6.00 Build 0)  -->
<!DOCTYPE svg PUBLIC "-//W3C//DTD SVG 1.1//EN" "http://www.w3.org/Graphics/SVG/1.1/DTD/svg11.dtd">
<svg version="1.1" id="HQFL" xmlns="http://www.w3.org/2000/svg" xmlns:xlink="http://www.w3.org/1999/xlink" x="0px" y="0px"
	 width="595.3px" height="595.3px" viewBox="0 0 595.3 595.3" enable-background="new 0 0 595.3 595.3" xml:space="preserve">
<g>
	<path fill-rule="evenodd" clip-rule="evenodd" fill="none" stroke="#FF0700" d="M48.855,109.79
		c0.787,0.851,51.381,99.329,54.482,105.322l15.49,30.266c2.519,4.961,5.299,10.083,7.746,14.998
		c5.067,10.18,10.367,20.219,15.591,30.167c5.292,10.076,10.297,20.067,15.576,30.184c5.197,9.963,10.592,20.23,15.488,30.276
		c4.665,9.569,10.619,20.277,15.478,30.007c4.948,9.906,11.124,20.868,15.615,30.134c2.423,5.003,5.093,9.959,7.725,15.021
		c2.63,5.06,5.183,10.099,7.819,15.197l23.249,45.258c2.453,4.829,5.087,10.418,7.746,14.999c1.404,2.421,2.557,5.045,3.891,7.479
		c6.335,11.566,13.108,25.698,19.421,37.706c1.702,3.243,22.447,44.171,23.47,45.318c1.595-2.229,2.999-5.968,4.464-8.547
		c3.96-6.98,9.265-18.163,13.332-25.929c5.999-11.461,11.786-23.035,17.759-34.495c6.023-11.556,12.015-22.918,17.821-34.436
		c5.894-11.699,12.087-23.069,17.855-34.673c5.74-11.547,11.75-23.035,17.706-34.553l35.616-68.891
		c2.966-5.723,5.899-11.688,8.839-17.429c2.964-5.788,6.075-11.539,8.934-17.334c5.728-11.598,12.09-23.008,17.815-34.445
		c2.835-5.666,5.822-11.416,8.827-17.167c1.555-2.978,2.92-5.517,4.449-8.542l13.304-25.955
		c8.903-17.221,17.787-34.857,26.783-52.007c3.014-5.746,5.993-11.379,8.863-17.136l13.36-25.897
		c1.453-2.868,3.022-6.001,4.502-8.766c1.539-2.876,3.022-5.797,4.422-8.576c1.262-2.501,3.974-6.376,3.963-9.396
		c-0.065-17.419-0.01-34.849-0.01-52.269c0-17.366,0.412-35.228-0.018-52.532H48.855V109.79z"/>
	<path fill-rule="evenodd" clip-rule="evenodd" fill="#FF0700" d="M82.519,153.367L82.42,108.41l28.342,0.008
		c0.79,1.097,0.353,21.678,0.353,22.814l-0.001,75.278c-0.011,2.938-0.17,2.428,0.955,4.735c3.297,6.765,8.317,16.273,11.872,23.055
		l14.738,28.582c0.152,0.3,0.309,0.652,0.453,0.898l0.792,0.96l-0.12-156.33l28.273,0.019c0.455,0.52,0.449,0.715,0.444,1.94
		c-0.238,67.157-0.024,134.56-0.024,201.745c0,11.037-0.924,6.753,3.383,15.313c4.154,8.256,8.383,16.296,12.65,24.446
		c1.666,3.181,11.555,23.264,12.722,24.339l-0.063-267.803l28.222,0.028c0.616,0.361,0.517-0.12,0.474,2.755
		c-0.235,15.368-0.004,32.507-0.004,47.931v267.806c0,6.337,0.021,5.39,2.541,10.207c1.963,3.752,25.03,49.521,26.268,50.43
		l-0.13-379.155l28.214,0.03c0.852,0.476,0.506,0.63,0.489,3.295c-0.244,38.285-0.001,77.322-0.001,115.626v298.404
		c0,4.962,0.016,9.929-0.001,14.894c-0.013,3.599,0.086,3.099,1.518,5.824c0.918,1.747,1.652,3.285,2.558,5.025
		c1.314,2.526,9.478,18.9,10.306,19.643c0.957-1.25,14.195-27.303,14.294-27.985l0.007-434.756l28.219,0.03
		c0.813,0.458,0.293-0.267,0.5,1.119c0.19,1.263-0.017,272.821-0.017,282.979c0,2.41-0.328,92.371,0.123,94.941
		c3.253-5.348,10.759-20.933,14.326-27.726c1.816-3.463,13.921-26.353,14.235-28.083l0.02-323.26l28.24,0.026
		c0.235,0.252,0.438,0.094,0.474,1.657c0.016,0.676-0.03,1.484-0.03,2.184v246.955c0,5.256-0.337,11.72,0.061,16.83
		c0.749-0.832,2.895-5.392,3.683-6.902c3.149-6.032,24.697-47.192,24.935-49.035l0.022-211.715l28.223,0.029
		c0.46,0.273,0.517-0.277,0.477,2.205c-0.191,11.739-0.017,24.788-0.017,36.564c0,6.615-0.281,114.653,0.1,117.474
		c0.836-1.154,13.299-25.688,14.379-27.763c1.824-3.494,13.955-26.442,14.207-28.158l0.019-100.351l28.204,0.031
		c0.547,0.31,0.541-0.291,0.488,2.478c-0.017,0.904-0.01,1.808-0.01,2.713c0,12.035-0.384,28.696,0.033,39.622
		c0.597-0.627,1.357-2.362,1.79-3.193c0.61-1.161,1.175-2.248,1.766-3.377c1.218-2.326,2.274-4.485,3.488-6.8l13.997-27.162
		c1.28-2.449,2.854-4.349,2.833-7.479c-0.041-6.16,0.32-90.305-0.138-92.484l-478.041-0.01c-0.234,2.327-0.056,37.688-0.056,41.039
		l-0.005,51.459c-0.019,3.013,1.475,4.851,2.789,7.347c2.377,4.514,4.618,9.096,6.974,13.603
		C70.019,129.608,81.404,152.487,82.519,153.367z"/>
	<path fill-rule="evenodd" clip-rule="evenodd" fill="#FFFFFF" d="M311.936,543.166l0.76-1.001l26.398-51.3
		c1.642-3.116,1.154-2.025,1.163-5.99c0.262-120.495,0.002-241.229,0.002-361.767c0-4.225,0.383-10.714-0.097-14.668l-28.219-0.03
		L311.936,543.166z"/>
	<path fill-rule="evenodd" clip-rule="evenodd" fill="#FFFFFF" d="M254.689,487.565c0.117,1.464,18.721,36.787,21.052,41.419
		c1.204,2.393,2.34,4.592,3.597,6.962c0.834,1.574,2.997,5.417,3.454,6.881l-0.02-434.388l-28.214-0.03L254.689,487.565z"/>
	<path fill-rule="evenodd" clip-rule="evenodd" fill="#FFFFFF" d="M369.329,431.669c0.625-0.54,23.692-45.123,28.048-53.919
		c0.674-1.36,0.313-3.533,0.313-5.248V119.587c0-3.254,0.284-8.089-0.102-11.152l-28.24-0.026L369.329,431.669z"/>
	<path fill-rule="evenodd" clip-rule="evenodd" fill="#FFFFFF" d="M197.252,376.211c0.453,2.02,12.115,23.863,14.059,27.67
		c1.411,2.762,13.992,26.949,14.079,27.572l0.021-323.017l-28.222-0.028L197.252,376.211z"/>
	<path fill-rule="evenodd" clip-rule="evenodd" fill="#FFFFFF" d="M426.713,320.124c1.127-0.812,22.285-42.715,25.604-49.072
		c3.694-7.084,2.74-3.639,2.74-12.281V123.649c0-4.373,0.399-11.122-0.098-15.211l-28.223-0.029L426.713,320.124z"/>
	<path fill-rule="evenodd" clip-rule="evenodd" fill="#FFFFFF" d="M139.924,264.74c0.149,1.538,18.694,36.928,21.029,41.391
		c1.212,2.318,2.299,4.552,3.577,6.978c1.211,2.298,2.3,4.853,3.593,6.908l-0.047-211.588l-28.273-0.019L139.924,264.74z"/>
	<path fill-rule="evenodd" clip-rule="evenodd" fill="#FFFFFF" d="M484.104,208.761c1.25-0.805,24.931-47.977,27.501-52.794
		c0.793-1.49,0.988-1.252,0.881-3.057c-0.594-10.042,0.63-37.988-0.159-44.469l-28.204-0.031L484.104,208.761z"/>
	<path fill-rule="evenodd" clip-rule="evenodd" fill="#FFFFFF" d="M82.519,153.367c0.22,1.577,5.749,11.718,6.878,13.941
		c2.349,4.626,4.721,9.152,7.109,13.738c1.467,2.817,13.028,25.674,14.267,27.593l-0.012-100.22L82.42,108.41L82.519,153.367z"/>
	<g>
		<path fill="#FFFFFF" d="M498.89,91.327h-12.741l-5.063-13.173h-23.173l-4.778,13.173h-12.416l22.58-57.968h12.375L498.89,91.327
			L498.89,91.327z M477.336,68.396l-7.992-21.513l-7.826,21.513H477.336z"/>
		<rect x="404.24" y="80.219" fill="#FFFFFF" width="11.108" height="11.108"/>
		<polygon fill="#FFFFFF" points="335.367,91.327 335.367,33.832 347.069,33.832 347.069,81.555 376.168,81.555 376.168,91.327 		
			"/>
		<rect x="292.678" y="80.219" fill="#FFFFFF" width="11.108" height="11.108"/>
		<path fill="#FFFFFF" d="M266.752,91.327h-12.741l-5.06-13.173h-23.174l-4.778,13.173h-12.416l22.58-57.968h12.376L266.752,91.327
			L266.752,91.327z M245.198,68.396l-7.99-21.513l-7.828,21.513H245.198z"/>
		<rect x="172.102" y="80.219" fill="#FFFFFF" width="11.108" height="11.108"/>
		<path fill="#FFFFFF" d="M130.993,70.016l11.337,3.59c-1.741,6.33-4.629,11.026-8.679,14.103
			c-4.035,3.065-9.177,4.604-15.399,4.604c-7.693,0-14.023-2.633-18.977-7.882c-4.953-5.264-7.436-12.458-7.436-21.568
			c0-9.649,2.497-17.14,7.477-22.484c4.98-5.331,11.526-8.004,19.651-8.004c7.085,0,12.848,2.092,17.275,6.289
			c2.645,2.47,4.616,6.034,5.938,10.676l-11.593,2.767c-0.674-3.01-2.106-5.385-4.292-7.126c-2.174-1.741-4.819-2.604-7.923-2.604
			c-4.292,0-7.787,1.538-10.459,4.629c-2.672,3.077-4.008,8.071-4.008,14.981c0,7.328,1.309,12.552,3.954,15.656
			c2.631,3.118,6.061,4.67,10.271,4.67c3.118,0,5.79-0.985,8.03-2.969C128.402,77.371,130.008,74.254,130.993,70.016z"/>
	</g>
</g>
</svg>
