<?xml version="1.0" encoding="utf-8"?>
<!-- Generator: Adobe Illustrator 17.0.0, SVG Export Plug-In . SVG Version: 6.00 Build 0)  -->
<!DOCTYPE svg PUBLIC "-//W3C//DTD SVG 1.1//EN" "http://www.w3.org/Graphics/SVG/1.1/DTD/svg11.dtd">
<svg version="1.1" id="Capa_1" xmlns="http://www.w3.org/2000/svg" xmlns:xlink="http://www.w3.org/1999/xlink" x="0px" y="0px"
	 width="566.9px" height="566.9px" viewBox="0 0 566.9 566.9" style="enable-background:new 0 0 566.9 566.9;" xml:space="preserve"
	>
<style type="text/css">
	.st0{clip-path:url(#SVGID_2_);fill-rule:evenodd;clip-rule:evenodd;}
	.st1{clip-path:url(#SVGID_2_);fill-rule:evenodd;clip-rule:evenodd;fill:#FFFFFF;}
	.st2{clip-path:url(#SVGID_2_);fill-rule:evenodd;clip-rule:evenodd;fill:#FF0000;}
	.st3{clip-path:url(#SVGID_2_);fill-rule:evenodd;clip-rule:evenodd;fill:#008837;}
	.st4{clip-path:url(#SVGID_2_);}
</style>
<g>
	<defs>
		<rect id="SVGID_1_" width="566.9" height="566.9"/>
	</defs>
	<clipPath id="SVGID_2_">
		<use xlink:href="#SVGID_1_"  style="overflow:visible;"/>
	</clipPath>
	<path class="st0" d="M29.8,143c17.5,0.9,35.1-0.3,52.3-3.5c78-14.3,147.8-67.4,197.4-127.4l4-4.8l4,4.8
		c15.4,18.6,32.2,36,50.4,51.9c41.7,36.3,92.1,65.4,146.9,75.5c17.3,3.2,34.8,4.4,52.3,3.5l6.2-0.3l-0.9,6.2
		c-11.2,79.8-29.3,161-66.6,233c-42.3,81.9-104.6,142-190.5,176.9l-1.9,0.8l-1.9-0.8c-85.9-35-148.2-95-190.5-176.9
		c-37.2-72-55.4-153.2-66.6-233l-0.9-6.2L29.8,143z"/>
	<path class="st1" d="M283.5,554C100,479.3,50.6,298.7,29.6,148.1c98.6,5.2,190.9-56.5,253.9-132.7c63,76.2,155.3,138,253.9,132.7
		C516.3,298.7,467,479.3,283.5,554"/>
	<path class="st0" d="M35.5,153.5c11.1,76.6,28.9,154.6,64.7,223.7c40.9,79.1,100.7,137.2,183.3,171.3
		c82.6-34.1,142.4-92.2,183.3-171.3c35.7-69.1,53.6-147,64.7-223.7c-16.3,0.4-32.5-0.9-48.5-3.9c-78.4-14.4-148.6-66.3-199.5-126.2
		c-14.6,17.3-30.6,33.5-47.7,48.3c-43.1,37.5-95.1,67.4-151.8,77.9C68,152.6,51.8,153.9,35.5,153.5"/>
	<path class="st2" d="M41.5,158.7c11,74.2,28.7,149.2,63.3,216.1c40,77.4,98.3,134.3,178.7,168.1c80.5-33.8,138.8-90.8,178.7-168.1
		c34.6-66.9,52.2-142,63.3-216.1c-14.6,0-29.1-1.4-43.5-4c-77.7-14.3-147.3-64.6-198.5-123.4C269.7,47,255,61.9,239.2,75.6
		c-43.8,38.1-96.6,68.4-154.2,79C70.6,157.3,56,158.7,41.5,158.7"/>
	<path class="st3" d="M461.5,376.2c0.2-0.5,0.5-0.9,0.7-1.4c34.6-66.9,52.2-142,63.3-216.1c-14.6,0-29.1-1.4-43.5-4
		c-6.9-1.3-13.7-2.8-20.5-4.6V376.2z M333.5,517.2c23.7-14.6,44.9-31.8,64-51.4V124.3c-22.7-12.2-44.2-27.1-64-43.7V517.2z
		 M169.4,465.8c19.1,19.6,40.3,36.7,64,51.4V80.5c-19.7,16.5-41.2,31.5-64,43.7V465.8z M105.4,376.2V150c-6.8,1.8-13.6,3.4-20.5,4.6
		c-14.3,2.6-28.9,4-43.5,4c11,74.2,28.7,149.2,63.3,216.1C105,375.3,105.2,375.7,105.4,376.2"/>
	<path class="st0" d="M283.5,170.5c63,0,114,52.2,114,116.6c0,64.4-51,116.6-114,116.6s-114-52.2-114-116.6
		C169.5,222.7,220.5,170.5,283.5,170.5"/>
	<path class="st1" d="M283.5,173c61.5,0,111.4,51.1,111.4,114.1c0,63-49.9,114.1-111.4,114.1c-61.5,0-111.4-51.1-111.4-114.1
		C172,224.1,221.9,173,283.5,173"/>
	<path class="st4" d="M368.6,246.3c-12.1-27.7-36.4-50.2-72.8-56.2l0.9,194.9c34.4-3.8,57.9-22.9,70.3-47.8
		c6.9-13.7,10.4-29.2,10.7-44.9C378,276.6,375,260.7,368.6,246.3 M287.1,178.1h8.6l0,3.3c40.5,6.2,67.4,30.9,80.8,61.5
		c6.8,15.6,10.1,32.7,9.8,49.6c-0.3,16.9-4.2,33.7-11.6,48.6c-13.8,27.6-39.8,48.7-78,52.6l0,2.5h-8.6L287.1,178.1z M276.6,337.5
		v58.7h-8.7v-2.5c-44.7-14.3-69.7-38.9-80.6-66.4c-6.9-17.3-8.2-35.7-5.3-53.3c2.9-17.6,9.9-34.5,19.7-48.9
		c16.5-24.3,40.9-41.7,66.6-43.8v-3.2h8.7v59.9h-8.7v-48c-22.8,2.1-44.5,17.9-59.5,40c-9.1,13.4-15.6,29.1-18.3,45.4
		c-2.7,16.2-1.5,33,4.8,48.8c9.8,24.7,32.4,47,72.6,60.5v-47.1H276.6z"/>
</g>
</svg>
