<?xml version="1.0" encoding="utf-8"?>
<!-- Generator: Adobe Illustrator 17.0.0, SVG Export Plug-In . SVG Version: 6.00 Build 0)  -->
<!DOCTYPE svg PUBLIC "-//W3C//DTD SVG 1.1//EN" "http://www.w3.org/Graphics/SVG/1.1/DTD/svg11.dtd">
<svg version="1.1" id="Layer_1" xmlns="http://www.w3.org/2000/svg" xmlns:xlink="http://www.w3.org/1999/xlink" x="0px" y="0px"
	 width="595.3px" height="595.3px" viewBox="0 0 595.3 595.3" enable-background="new 0 0 595.3 595.3" xml:space="preserve">
<g>
	<path fill="#0101FD" d="M498.381,398.671c-10.834,20.118-22.95,39.399-36.484,57.843c-13.638,18.584-28.489,36.085-44.64,52.485
		c-22.068,22.408-46.413,42.085-72.751,59.241c-13.212,8.606-26.806,16.615-41.124,23.308c-2.923,2.124-5.596,2.216-9.015,0.388
		c-7.204-3.853-14.449-7.628-21.536-11.697c-15.74-8.83-30.668-18.894-45.059-29.758c-11.662-8.804-22.839-18.195-33.623-28.062
		c-17.905-16.382-34.112-34.322-49.097-53.379c-15.899-20.219-30.05-41.594-42.54-64.095c-8.009-14.428-15.353-29.17-22.011-44.252
		c-8.389-19.002-15.569-38.465-21.81-58.279c-5.349-16.982-9.9-34.188-13.633-51.576c-3.189-14.855-6.139-29.789-7.695-44.941
		c-2.348-19.144-4.043-38.333-5.427-57.581c-1.332-18.527-0.789-37.015-1.09-55.52c-0.085-5.23,0.483-6.036,5.618-5.596
		c9.315,0.798,18.627,0.571,27.944,0.618c11.92,0.06,23.738-1.022,35.563-2.582c20.86-2.752,41.264-7.306,61.446-13.242
		c17.469-5.138,34.402-11.628,51.016-18.92c19.014-8.345,37.261-18.195,54.788-29.408c9.454-6.048,18.59-12.486,27.486-19.298
		c4.018-3.077,4.241-3.113,8.221-0.005c7.345,5.736,14.867,11.222,22.676,16.306c1.574,1.024,3.161,2.076,4.997,2.627
		c7.501,3.983,14.592,8.67,22.036,12.766c23.229,12.784,47.404,23.395,72.553,31.747c20.069,6.665,40.552,11.629,61.435,15.138
		c22.098,3.713,44.305,4.608,66.626,4.1c3.059-0.07,6.075-0.875,9.166-0.671c1.407,0.093,2.859-0.071,4.021,0.99
		c0,19.618,0,39.236,0,58.854c-1.236,4.473-0.579,9.09-0.997,13.632c-0.889,9.682-1.588,19.382-2.834,29.027
		c-0.237,1.836,0.487,3.758-0.526,5.51c-1.318,8.596-2.643,17.192-3.954,25.79c-2.735,17.932-6.56,35.645-11.051,53.204
		c-6.86,26.823-15.593,53.044-26.242,78.608c-2.575,6.182-5.483,12.226-8.238,18.334
		C508.033,379.86,503.385,389.355,498.381,398.671z"/>
	<path fill="#FECB00" d="M472.772,93.867c6.364,1.831,12.948,2.471,19.463,3.373c19.557,2.708,39.205,4.127,58.964,3.097
		c2.29-0.119,3.174,0.511,3.177,2.893c0.025,19.733-0.322,39.442-1.797,59.139c-1.341,17.911-3.31,35.746-6.179,53.452
		c-3.55,21.909-8.308,43.589-14.249,64.99c-8.511,30.659-19.411,60.437-33.136,89.156c-23.829,49.861-54.471,94.952-94.075,133.706
		c-30.578,29.922-64.725,54.977-102.662,74.827c-2.366,1.238-4.238,1.446-6.821,0.099c-36.154-18.86-68.819-42.536-98.364-70.6
		c-41.431-39.354-73.451-85.469-98.156-136.793c-14.681-30.5-25.99-62.266-34.753-94.955c-7.04-26.26-12.206-52.871-15.663-79.837
		c-3.895-30.39-5.55-60.892-5.42-91.52c0.016-3.715,1.105-4.461,4.635-4.345c28.108,0.922,55.845-1.971,83.356-7.87
		c46.572-9.987,90.394-26.9,131.372-51.147c11.381-6.734,22.437-14.014,32.901-22.103c2.794-2.16,4.43-1.828,6.954,0.102
		c7.589,5.802,15.348,11.386,23.653,16.152c5.917,2.954,11.332,6.764,17.075,10.025c14.364,8.156,29.215,15.285,44.365,21.824
		c12.431,5.366,25.203,9.856,38.078,13.97c11.636,3.718,23.376,7.168,35.416,9.493C464.885,91.766,468.857,92.743,472.772,93.867z"
		/>
	<path fill="#0000FD" d="M325.205,348.926c-13.893,8.466-27.808,16.897-41.675,25.406c-39.701,24.36-79.396,48.731-119.043,73.18
		c-2.491,1.536-3.766,1.156-5.458-1.106c-23.358-31.236-42.53-64.863-57.811-100.729c-0.496-1.165-1.31-2.316-0.534-3.68
		c9.565-6.461,19.556-12.241,29.384-18.277c16.946-10.407,33.866-20.857,50.825-31.241c12.941-7.924,25.899-15.822,38.827-23.768
		c15.318-9.415,30.649-18.81,45.942-28.266c10.703-6.618,21.511-13.067,32.157-19.78c0.894-0.564,1.862-1.02,2.883-1.343
		c5.407-2.146,9.996-5.708,14.908-8.692c13.494-8.197,26.949-16.463,40.378-24.766c16.436-10.163,32.896-20.291,49.376-30.38
		c19.902-12.184,39.767-24.431,59.695-36.574c4.418-2.692,8.883-5.319,13.181-8.204c2.059-1.382,4.146-1.855,6.68-1.453
		c17.598,2.792,35.322,4.185,53.138,4.32c2.543,0.019,3.687,0.834,3.574,3.491c-0.613,14.478-0.81,28.967-1.89,43.434
		c-0.657,8.809-1.535,17.594-2.464,26.366c-1.14,10.764-2.78,21.476-4.524,32.165c-0.257,1.574-1.191,2.434-2.451,3.232
		c-8.062,5.104-16.211,10.068-24.337,15.067c-22.473,13.826-45.015,27.54-67.474,41.391c-14.748,9.095-29.425,18.307-44.371,27.078
		c-0.635,0.373-1.142,0.824-1.483,1.465c-5.84,4.585-12.458,7.955-18.732,11.856c-13.97,8.687-27.975,17.321-42.039,25.858
		C329.661,346.315,327.536,347.794,325.205,348.926z"/>
	<path fill="#0000FD" d="M333.707,451.113c-0.002-29.411,0.055-58.822-0.081-88.232c-0.016-3.356,0.972-5.269,3.873-7.026
		c20.585-12.465,41.053-25.124,61.569-37.704c0.959-0.588,1.951-1.745,3.151-0.945c0.967,0.644,0.556,1.952,0.557,2.979
		c0.006,54.806-0.015,109.611,0.038,164.417c0.003,2.691-0.895,4.514-2.805,6.427c-19.071,19.097-39.665,36.343-61.998,51.499
		c-1.118,0.759-2.219,2.442-3.588,1.781c-1.418-0.684-0.688-2.559-0.689-3.901C333.702,510.643,333.709,480.878,333.707,451.113z"/>
	<path fill="#0000FD" d="M124.954,210.398c0,32.493-0.043,64.986,0.065,97.479c0.011,3.322-0.864,5.35-3.892,7.073
		c-7.892,4.491-15.58,9.347-23.272,14.181c-2.101,1.32-3.009,1.333-4.002-1.291c-9.622-25.429-17.495-51.39-23.407-77.913
		c-5.627-25.246-9.641-50.764-11.938-76.553c-1.677-18.834-2.772-37.679-2.794-56.592c-0.003-2.766,0.679-3.626,3.553-3.63
		c19.165-0.026,38.204-1.675,57.092-4.975c0.929-0.162,1.876-0.224,2.815-0.334c5.821-0.681,5.811-0.681,5.81,5.076
		c-0.004,32.493-0.002,64.986-0.002,97.479C124.973,210.398,124.963,210.398,124.954,210.398z"/>
	<path fill="#0001FE" d="M194.771,178.489c-0.005-29.181,0.024-58.362-0.054-87.543c-0.007-2.637,0.763-3.868,3.368-4.842
		c21.353-7.981,42.002-17.514,61.872-28.71c3.602-2.029,3.893-1.852,3.892,2.171c-0.003,54.227-0.039,108.455,0.063,162.682
		c0.007,3.569-0.95,5.691-4.135,7.608c-20.526,12.354-40.905,24.953-61.338,37.461c-0.967,0.592-1.92,1.893-3.067,1.271
		c-1.154-0.626-0.575-2.144-0.576-3.263C194.771,236.379,194.777,207.434,194.771,178.489z"/>
	<path fill="#0000FD" d="M263.826,473.43c-0.004,22.453-0.003,44.906-0.007,67.36c0,1.158,0.566,2.691-0.456,3.351
		c-1.306,0.845-2.37-0.597-3.388-1.287c-22.055-14.947-42.397-31.955-61.374-50.654c-2.874-2.832-3.948-5.608-3.881-9.52
		c0.206-11.932,0.134-23.871,0.018-35.806c-0.023-2.418,0.748-3.8,2.839-5.074c20.863-12.709,41.653-25.537,62.477-38.309
		c0.963-0.59,1.986-1.754,3.168-1.052c1.177,0.699,0.59,2.152,0.591,3.275C263.836,428.286,263.831,450.858,263.826,473.43z"/>
	<path fill="#0000FD" d="M333.736,119.515c-0.003-19.969-0.009-39.938,0.013-59.907c0.001-1.128-0.547-2.584,0.586-3.294
		c1.189-0.745,2.163,0.511,3.141,1.061c20.001,11.239,40.788,20.795,62.246,28.878c2.297,0.865,3.091,1.928,3.079,4.31
		c-0.081,16.069-0.092,32.14,0.013,48.209c0.016,2.503-1.017,3.809-3.023,5.036c-21.048,12.872-42.059,25.805-63.051,38.768
		c-2.889,1.784-3.024,0.246-3.02-2.09C333.752,160.162,333.738,139.839,333.736,119.515z"/>
	<path fill="#0000FD" d="M472.639,391.614c0-1.641,0-3.281,0-4.922c0.001-36.505,0.038-73.01-0.065-109.515
		c-0.009-3.078,0.883-4.811,3.592-6.442c16.577-9.979,33.013-20.19,49.503-30.313c0.984-0.604,2.02-1.122,3.801-2.103
		c-11.063,54.462-29.24,105.518-55.695,153.57C473.396,391.797,473.018,391.705,472.639,391.614z"/>
	<path fill="#30239E" d="M391.994,307.405c0.798-2.663,3.551-2.995,5.419-4.164c13.363-8.364,26.93-16.402,40.358-24.664
		c14.203-8.739,28.282-17.681,42.493-26.406c12.906-7.923,25.924-15.664,38.878-23.509c2.098-1.27,4.006-2.909,6.206-3.945
		c5.029-2.368,7.167-6.098,7.912-11.684c1.741-13.05,3.412-26.103,4.773-39.197c1.926-18.533,2.636-37.126,2.898-55.749
		c0.045-3.194-0.929-3.89-3.989-3.929c-17.558-0.223-35.034-1.678-52.384-4.398c-2.231-0.35-3.93,0.184-5.659,1.242
		c-14.838,9.084-29.665,18.183-44.499,27.274c-18.636,11.421-37.304,22.792-55.904,34.272
		c-16.792,10.364-33.442,20.957-50.29,31.229c-8.521,5.195-17.128,10.245-25.495,15.689c-0.735,0.478-1.508,0.637-2.358,0.483
		c-0.154-0.878,0.496-1.098,1.106-1.35c29.96-18.389,59.924-36.773,89.88-55.17c28.754-17.658,57.516-35.303,86.22-53.042
		c2.575-1.591,4.977-2.15,7.986-1.674c17.393,2.754,34.902,4.31,52.521,4.172c3.349-0.026,4.168,1.042,4.12,4.247
		c-0.506,33.459-3.164,66.725-8.406,99.784c-0.491,3.097-1.63,5.247-4.49,6.985c-33.684,20.464-67.287,41.061-100.895,61.65
		c-11.667,7.148-23.287,14.371-34.929,21.559C393.05,307.577,392.545,307.61,391.994,307.405z"/>
	<path fill="#BC9F62" d="M301.46,218.601c-0.368,0.45-0.735,0.899-1.104,1.35c-21.815,13.363-43.631,26.723-65.444,40.087
		c-26.238,16.075-52.483,32.14-78.709,48.236c-17.583,10.791-35.135,21.632-52.71,32.435c-0.875,0.538-1.605,1.447-2.808,1.29
		c2.999-3.802,7.512-5.455,11.436-7.893c19.798-12.298,39.68-24.461,59.549-36.645c20.055-12.299,40.145-24.542,60.191-36.856
		c21.637-13.291,43.235-26.646,64.872-39.937C298.191,219.771,299.495,218.391,301.46,218.601z"/>
	<path fill="#B79F6F" d="M391.994,307.405c0.491-0.097,0.981-0.195,1.473-0.293c-4.283,4.294-9.846,6.698-14.878,9.846
		c-16.537,10.344-33.247,20.411-49.89,30.586c-1.086,0.664-2.044,1.642-3.493,1.382c5.176-4.272,11.16-7.299,16.821-10.812
		C358.636,327.803,375.332,317.632,391.994,307.405z"/>
	<path fill="#FECB01" d="M462.181,194.686c-7.586-12.223-15.161-24.452-22.772-36.659c-0.957-1.534-0.743-2.532,0.84-3.466
		c3.455-2.037,6.886-4.123,10.237-6.324c1.732-1.138,2.801-0.676,3.751,0.925c2.229,3.757,4.481,7.5,6.723,11.249
		c3.368,7.028,7.856,13.4,11.879,20.037c5.978,9.861,12.05,19.666,18.034,29.525c1.772,2.92,3.597,5.812,5.457,8.674
		c1.238,1.905,1.186,3.209-0.833,4.314c-3.209,1.758-6.321,3.675-9.347,5.731c-1.438,0.977-2.763,0.756-4.283-0.046
		c-15.941-8.413-31.86-16.871-47.893-25.11c-2.6-1.336-4.374-3.976-7.683-4.728c0.222,1.241,0.905,1.982,1.463,2.802
		c7.035,10.329,13.288,21.145,19.855,31.767c2.23,3.607,4.483,7.196,6.641,10.848c1.112,1.881,1.125,3.316-0.802,4.481
		c-2.818,1.703-5.633,3.414-8.429,5.15c-1.943,1.206-3.161,0.895-4.34-1.049c-6.166-10.175-12.487-20.255-18.739-30.378
		c-6.004-9.722-11.784-19.58-17.929-29.216c-1.9-2.979-3.638-6.064-5.53-9.054c-1.053-1.664-0.949-2.991,0.994-4.085
		c3.079-1.735,6.103-3.579,9.059-5.519c1.684-1.105,3.161-1,4.921-0.053c14.32,7.699,28.674,15.335,43.105,22.826
		c2.609,1.354,5.172,2.801,7.561,4.528c1.137,0.822,2.235,1.701,4.009,1.57C466.506,200.143,464.475,197.328,462.181,194.686z"/>
	<path fill="#FECB01" d="M387.663,236.186c-0.372,9.724-5.808,16.443-13.325,21.735c-4.428,3.118-9.123,5.873-13.801,8.614
		c-2.216,1.298-3.056,2.273-1.362,4.87c4.894,7.504,9.395,15.262,14.18,22.839c1.409,2.232,1.448,3.567-1.125,4.941
		c-3.739,1.997-7.324,4.301-10.87,6.633c-2.108,1.387-3.271,1.188-4.668-1.11c-11.092-18.243-22.322-36.401-33.508-54.587
		c-2.843-4.622-5.593-9.305-8.553-13.85c-1.493-2.293-1.643-3.7,1.066-5.305c9.638-5.708,19.072-11.761,28.698-17.49
		c7.011-4.173,14.367-7.122,22.86-5.118c7.499,1.769,12.175,6.863,15.909,13.089C385.867,225.954,387.736,230.77,387.663,236.186z"
		/>
	<path fill="#FECB01" d="M179.95,343.062c-5.013-0.969-9.168-1.675-13.344-0.52c-16.645,4.604-23.389,19.156-16.024,34.849
		c3.743,7.973,8.711,15.126,17.335,18.265c11.574,4.212,24.686-1.49,30.87-12.862c0.843-1.55,1.707-3.1,1.983-4.898
		c0.103-0.673,0.24-1.515,0.981-1.743c0.833-0.257,1.242,0.511,1.606,1.099c2.42,3.909,4.788,7.85,7.238,11.74
		c1.354,2.149,0.089,3.898-0.817,5.609c-9.152,17.288-36.656,32.271-59.915,13.559c-15.138-12.179-23.66-28.084-21.886-48.143
		c1.273-14.402,10.121-23.376,22.537-29.43c5.153-2.513,10.621-3.799,16.322-4.23c1.947-0.147,3.263,0.341,4.321,2.207
		C173.807,333.243,176.718,337.775,179.95,343.062z"/>
	<path fill="#E1BE6E" d="M462.181,194.686c2.67,0.761,3.013,3.571,4.608,5.287c1.186,1.276,2.095,2.81,3.195,4.323
		c-1.545,0.409-2.88,0.722-4.1-0.266c-6.928-5.611-15.175-8.924-22.911-13.12c-9.925-5.383-19.935-10.611-29.868-15.98
		c-1.392-0.752-2.55-1.001-3.93-0.113c-2.874,1.847-5.71,3.778-8.717,5.386c-2.241,1.199-2.429,2.303-1.096,4.422
		c6.147,9.775,12.137,19.648,18.204,29.473c6.924,11.213,13.869,22.413,20.806,33.619c0.062,0.1,0.143,0.189,0.202,0.291
		c5.141,8.917,2.807,6.526,11.502,2.16c0.925-0.465,1.616-1.446,2.561-1.813c2.224-0.863,2.149-2.184,1.108-3.893
		c-4.777-7.839-9.463-15.735-14.343-23.509c-4.495-7.16-8.473-14.669-13.977-21.166c-0.329-0.388-1.05-1.061-0.211-1.329
		c0.745-0.238,1.263-1.723,2.378-0.59c5.6,5.692,13.076,8.294,19.894,11.956c10.047,5.396,20.535,10.064,30.167,16.107
		c5.593,3.51,9.178,2.003,13.674-1.156c5.618-3.947,5.765-3.734,2.129-9.657c-10.394-16.934-20.781-33.872-31.191-50.796
		c-0.752-1.222-1.406-2.431-1.305-3.915c8.143,11.991,15.23,24.638,22.961,36.885c4.406,6.98,8.577,14.111,13.043,21.052
		c1.584,2.463,1.37,3.83-1.274,5.194c-3.866,1.995-7.192,6-11.304,6.243c-4.128,0.244-7.852-3.363-11.708-5.356
		c-12.473-6.447-24.9-12.985-37.301-19.57c-2.48-1.317-4.768-2.996-7.588-4.264c1.237,1.817,2.542,3.59,3.698,5.456
		c7.831,12.639,15.579,25.329,23.481,37.923c1.602,2.554,1.624,4.006-1.361,5.435c-3.07,1.47-5.938,3.409-8.749,5.352
		c-2.102,1.453-3.219,0.941-4.479-1.121c-11.753-19.232-23.588-38.414-35.393-57.613c-2.346-3.816-4.505-7.761-7.057-11.432
		c-1.793-2.58-1.091-3.859,1.401-5.178c2.811-1.488,5.57-3.129,8.14-4.996c2.23-1.62,4.104-1.577,6.488-0.284
		c17.309,9.388,34.959,18.144,52.361,28.118C465.749,199.122,462.934,197.429,462.181,194.686z"/>
	<path fill="#FACA09" d="M214.763,376.545c0.156-6.301,5.166-11.08,11.496-10.967c6.185,0.11,11.278,5.393,11.054,11.466
		c-0.225,6.123-5.454,11.091-11.57,10.992C219.602,387.936,214.61,382.712,214.763,376.545z"/>
	<path fill="#FCCB04" d="M328.547,324.986c-6.239,0.029-11.155-4.903-11.169-11.207c-0.014-6.208,5.06-11.289,11.205-11.223
		c6.106,0.065,11.09,4.926,11.198,10.922C339.9,319.997,335.06,324.955,328.547,324.986z"/>
	<path fill="#FCCB04" d="M423.364,262.632c-0.105,6.212-5.248,11.264-11.339,11.137c-6.068-0.126-11.113-5.407-11.013-11.53
		c0.101-6.214,5.234-11.187,11.41-11.055C418.726,251.32,423.471,256.284,423.364,262.632z"/>
	<path fill="#2119A9" d="M225.281,287.465c0.031-1.306,0.379-2.276,1.561-3.015c4.976-3.11,9.824-6.433,14.886-9.393
		c2.879-1.684,5.106,0.345,7.203,2.146c4.911,4.219,9.837,8.42,14.756,12.629c13.149,11.25,26.231,22.578,39.496,33.689
		c2.96,2.479,5.565,5.381,9.003,7.362c3.258,1.878,3.071,4.293-0.142,6.403c-3.721,2.444-7.443,4.888-11.212,7.256
		c-1.993,1.253-3.901,1.348-5.74-0.547c-2.212-2.279-4.88-4.207-6.898-6.555c-2.696-3.137-5.035-2.147-7.613-0.596
		c-5.746,3.457-11.383,7.098-17.142,10.534c-1.583,0.944-2.103,1.879-1.637,3.713c0.841,3.306,1.648,6.606,2.792,9.832
		c1.026,2.892,0.897,5.36-2.415,7.119c-3.727,1.979-7.103,4.608-10.735,6.781c-3.258,1.949-4.287,1.615-5.276-2.009
		c-2.562-9.392-4.606-18.913-6.815-28.394c-1.458-6.257-3.26-12.444-4.698-18.721c-2.043-8.914-4.28-17.783-6.456-26.667
		C227.254,295.169,226.256,291.32,225.281,287.465z"/>
	<path fill="#2013AB" d="M530.223,197.527c0.053,6.692-6.116,12.552-13.169,12.508c-6.019-0.037-11.529-5.753-11.597-12.031
		c-0.076-7.008,5.144-12.642,11.824-12.762C524.268,185.117,530.169,190.718,530.223,197.527z"/>
	<path fill="#0101FB" d="M368.164,238.795c0.087,1.895-0.614,3.717-1.985,5.312c-4.092,4.757-9.659,7.499-14.803,10.811
		c-1.498,0.965-2.436-0.132-3.148-1.292c-3.273-5.329-6.478-10.7-9.79-16.005c-1.029-1.648-0.894-2.656,0.854-3.713
		c3.94-2.384,7.771-4.961,12-6.818C359.69,223.401,368.252,229.254,368.164,238.795z"/>
	<path fill="#FECB01" d="M226.625,287.154c-0.05-1.179,0.675-1.667,1.544-2.192c4.746-2.868,9.48-5.755,14.17-8.712
		c1.566-0.987,2.667-0.736,4.062,0.458c21.504,18.393,43.061,36.724,64.596,55.081c3.164,2.698,3.14,2.73-0.324,4.869
		c-3.514,2.169-7.063,4.282-10.531,6.523c-1.65,1.066-2.904,1.046-4.358-0.406c-2.753-2.749-5.722-5.28-8.495-8.01
		c-1.496-1.473-2.792-1.716-4.653-0.54c-6.879,4.345-13.821,8.595-20.799,12.779c-1.739,1.043-2.153,2.228-1.559,4.097
		c1.179,3.706,2.17,7.472,3.359,11.175c0.642,2,0.253,3.275-1.674,4.362c-3.696,2.085-7.317,4.318-10.854,6.664
		c-2.289,1.518-3.366,1.758-4.141-1.54c-5.389-22.956-10.979-45.865-16.507-68.788C229.189,297.698,227.904,292.427,226.625,287.154
		z"/>
	<path fill="#FCCB05" d="M506.772,197.716c-0.029-6.252,4.623-11.018,10.807-11.072c6.102-0.053,11.161,4.81,11.238,10.802
		c0.08,6.185-4.979,11.311-11.144,11.291C511.531,208.717,506.801,203.936,506.772,197.716z"/>
	<path fill="#0302F8" d="M243.873,295.14c3.733,3.41,6.95,6.284,10.095,9.236c5.839,5.481,11.582,11.068,17.482,16.482
		c1.958,1.797,2.331,2.933-0.264,4.427c-4.694,2.704-9.293,5.578-13.876,8.469c-1.458,0.92-2.551,1.331-3.154-0.775
		c-3.371-11.77-6.747-23.538-10.099-35.312C243.909,297.146,243.969,296.566,243.873,295.14z"/>
</g>
</svg>
