<?xml version="1.0" encoding="utf-8"?>
<!-- Generator: Adobe Illustrator 17.0.0, SVG Export Plug-In . SVG Version: 6.00 Build 0)  -->
<!DOCTYPE svg PUBLIC "-//W3C//DTD SVG 1.1//EN" "http://www.w3.org/Graphics/SVG/1.1/DTD/svg11.dtd">
<svg version="1.1" id="Capa_1" xmlns="http://www.w3.org/2000/svg" xmlns:xlink="http://www.w3.org/1999/xlink" x="0px" y="0px"
	 width="595.3px" height="595.3px" viewBox="0 0 595.3 595.3" enable-background="new 0 0 595.3 595.3" xml:space="preserve">
<g>
	<path fill-rule="evenodd" clip-rule="evenodd" fill="#FFFFFF" d="M37.691,77.822C158.36,75.907,238.169,47.177,294.991,3.121
		c78.533,50.441,164.728,74.064,256.668,74.702c12.772,226.019-84.916,390.109-256.668,513.333
		C130.906,482.616,32.582,321.081,37.691,77.822z"/>
	<path fill-rule="evenodd" clip-rule="evenodd" fill="#1C0D5D" d="M37.691,77.822C158.36,75.907,238.169,47.177,294.991,3.121
		c78.533,50.441,164.728,74.064,256.668,74.702c12.772,226.019-84.916,390.109-256.668,513.333
		C130.906,482.616,32.582,321.081,37.691,77.822L37.691,77.822z M62.589,104c1.915,93.856,14.048,153.233,29.371,188.989
		c104.07-70.872,207.504-141.741,310.936-212.613c-46.608-18.514-83.002-34.477-108.54-47.885
		C234.978,74.631,155.807,96.337,62.589,104L62.589,104z M174.322,442.391c27.454,43.415,67.678,82.365,121.949,118.117
		c130.888-95.133,202.395-212.61,219.635-349.885C402.257,287.88,287.97,365.136,174.322,442.391L174.322,442.391z M192.838,289.796
		c-22.349,0-40.862,17.239-40.862,38.308c0,21.07,18.513,38.309,40.862,38.309c14.98,0,28.237-7.75,35.35-19.205l-14.92-1.866
		l3.193-21.706l17.159,2.146C232.319,305.78,214.357,289.796,192.838,289.796L192.838,289.796z M260.503,329.141
		c0.004-0.346,0.014-0.69,0.014-1.037c0-35.115-30.01-63.846-67.678-63.846c-37.67,0-67.678,28.732-67.678,63.846
		c0,35.117,30.008,63.849,67.678,63.849c29.143,0,53.699-17.201,63.318-41.248l18.406,2.3l3.19-21.708L260.503,329.141
		L260.503,329.141z M300.74,333.851l24.263-17.878l-7.023-25.538l33.839-24.262l25.536,14.684l24.902-18.515L286.694,192.11
		l-19.794,12.77L300.74,333.851L300.74,333.851z M298.184,229.779l11.494,35.755l21.711-14.685L298.184,229.779L298.184,229.779z
		 M432.905,106.554c-37.672,0-67.678,28.732-67.678,63.848c0,35.115,30.007,63.847,67.678,63.847
		c34.652,0,62.819-24.316,67.109-55.548h-27.23c-4.098,17.113-20.555,30.008-39.879,30.008c-22.348,0-40.863-17.239-40.863-38.307
		c0-21.069,18.515-38.308,40.863-38.308c3.748,0,7.387,0.483,10.852,1.389v-26.115C440.227,106.833,436.603,106.554,432.905,106.554
		z"/>
</g>
</svg>
