<?xml version="1.0" encoding="utf-8"?>
<!-- Generator: Adobe Illustrator 17.0.0, SVG Export Plug-In . SVG Version: 6.00 Build 0)  -->
<!DOCTYPE svg PUBLIC "-//W3C//DTD SVG 1.1//EN" "http://www.w3.org/Graphics/SVG/1.1/DTD/svg11.dtd">
<svg version="1.1" id="Layer_1" xmlns="http://www.w3.org/2000/svg" xmlns:xlink="http://www.w3.org/1999/xlink" x="0px" y="0px"
	 width="595.3px" height="595.3px" viewBox="0 0 595.3 595.3" style="enable-background:new 0 0 595.3 595.3;" xml:space="preserve"
	>
<style type="text/css">
	.st0{fill:#0678B4;}
	.st1{fill:#FFFFFF;}
</style>
<g>
	<g>
		<path class="st0" d="M49,118.6v435.8c0,9.8,8,17.8,17.8,17.8h461.7c9.8,0,17.8-7.9,17.8-17.8V118.6H49z"/>
		<path class="st0" d="M528.5,576.2H66.8c-12,0-21.7-9.7-21.7-21.7V114.6h505.2v439.8C550.2,566.4,540.4,576.2,528.5,576.2z
			 M53,122.6v431.9c0,7.6,6.2,13.8,13.8,13.8h461.7c7.6,0,13.8-6.2,13.8-13.8V122.6H53z"/>
	</g>
	<g>
		<rect x="49" y="4" class="st1" width="497.3" height="114.6"/>
		<path class="st0" d="M45,0v114.6v7.9v431.9c0,12,9.7,21.7,21.7,21.7h461.7c12,0,21.7-9.7,21.7-21.7V122.6h0V0H45z M53,7.9h489.3
			v106.7H53V7.9z"/>
	</g>
	<g>
		<path class="st0" d="M158.6,44.3c-6.5-2.4-13.3-4-20.2-4c-16.4,0-21.6,11.8-21.6,24c0,15.2,8,24.8,23.5,24.8
			c6.5,0,13.5-2.1,19.5-4.9v12.5c-7.7,2.5-16,3.6-25.4,3.6c-22.1,0-36.9-13-36.9-35.6c0-22.6,14.8-35.8,36.9-35.8
			c9,0,16.8,0.7,24.2,2.3V44.3z"/>
		<path class="st0" d="M177.8,80.4H196v18.1h-18.1V80.4z"/>
		<path class="st0" d="M276.2,70.5l9.2-24.1l9.2,24.1H276.2z M253.3,98.6h12.1l6.7-17.4h26.6l6.6,17.4h18.2l-26-68h-18.1L253.3,98.6
			z"/>
		<path class="st0" d="M340.3,80.4h18.1v18.1h-18.1V80.4z"/>
		<path class="st0" d="M439.6,41.8h5.5c8.1,0,10.1,3.1,10.1,7.7c0,5-3.4,11.7-9.7,11.7h-6V41.8z M422.6,98.6h17V71.4h6.4l14.6,27.2
			h21.9L460.7,67c7.3-3.5,12.7-11.1,12.7-19.4c0-12.2-10.1-17-18.5-17h-32.3V98.6z"/>
		<path class="st0" d="M499.1,80.4h18.1v18.1h-18.1V80.4z"/>
	</g>
	<g>
		<g>
			<rect x="404.8" y="118.6" class="st1" width="70.2" height="453.6"/>
			<path class="st0" d="M479,576.1h-78.1V114.6H479V576.1z M408.8,568.2H471V122.6h-62.2V568.2z"/>
		</g>
		<g>
			<polygon class="st1" points="262,572.2 279.5,572.2 297.1,589.7 315.3,572.2 332.2,572.2 332.2,118.6 262,118.6 			"/>
			<path class="st0" d="M297,595.3l-19.1-19.1H258V114.6h78.1v461.5h-19.3L297,595.3z M266,568.2h15.2l15.9,15.9l16.5-15.9h14.5
				V122.6H266V568.2z"/>
		</g>
		<g>
			<rect x="120.4" y="118.6" class="st1" width="70.2" height="453.6"/>
			<path class="st0" d="M194.6,576.1h-78.1V114.6h78.1V576.1z M124.4,568.2h62.2V122.6h-62.2V568.2z"/>
		</g>
	</g>
</g>
</svg>
