<?xml version="1.0" encoding="utf-8"?>
<!-- Generator: Adobe Illustrator 17.0.0, SVG Export Plug-In . SVG Version: 6.00 Build 0)  -->
<!DOCTYPE svg PUBLIC "-//W3C//DTD SVG 1.1//EN" "http://www.w3.org/Graphics/SVG/1.1/DTD/svg11.dtd">
<svg version="1.1" id="Capa_1" xmlns="http://www.w3.org/2000/svg" xmlns:xlink="http://www.w3.org/1999/xlink" x="0px" y="0px"
	 width="595.3px" height="595.3px" viewBox="0 0 595.3 595.3" enable-background="new 0 0 595.3 595.3" xml:space="preserve">
<g>
	<path fill="#FFFFFF" d="M298.667,99.605C163.895,99.605,54.64,208.859,54.64,343.63c0,134.772,109.255,244.027,244.027,244.027
		c134.77,0,244.026-109.254,244.026-244.027C542.693,208.859,433.437,99.605,298.667,99.605z"/>
	<g>
		<rect x="171.743" y="161.213" fill="#C889C2" width="50.863" height="357.85"/>
		<path fill="#070606" d="M225.419,521.876H168.93V158.399h56.489V521.876z M174.557,516.249h45.236V164.026h-45.236V516.249z"/>
	</g>
	<g>
		<rect x="273.916" y="125.117" fill="#C889C2" width="50.861" height="424.68"/>
		<path fill="#070606" d="M327.59,552.61h-56.488V122.303h56.488V552.61z M276.729,546.983h45.235V127.93h-45.235V546.983z"/>
	</g>
	<g>
		<rect x="376.086" y="155.626" fill="#C889C2" width="50.861" height="363.397"/>
		<path fill="#070606" d="M429.761,521.836h-56.488V152.813h56.488V521.836z M378.9,516.209h45.235v-357.77H378.9V516.209z"/>
	</g>
	<g>
		<g>
			<polygon fill="#EFF810" points="180.955,82.086 159.965,97.413 168.054,72.715 146.993,57.489 172.982,57.55 180.955,32.814 
				188.926,57.55 214.917,57.489 193.854,72.715 201.945,97.413 			"/>
			<path fill="#070606" d="M205.988,102.979l-25.033-18.281l-25.033,18.28l9.647-29.456l-25.117-18.158l30.994,0.073l9.51-29.502
				l9.506,29.502l30.996-0.073l-25.119,18.158L205.988,102.979z M153.535,59.614l17.004,12.294l-6.531,19.941l16.947-12.376
				l16.946,12.375l-6.533-19.94l17.006-12.294l-20.985,0.049l-6.436-19.971l-6.437,19.971L153.535,59.614z"/>
		</g>
		<g>
			<polygon fill="#EFF810" points="416.431,82.086 395.44,97.413 403.529,72.715 382.467,57.489 408.456,57.55 416.431,32.814 
				424.401,57.55 450.391,57.489 429.328,72.715 437.419,97.413 			"/>
			<path fill="#070606" d="M441.463,102.979L416.43,84.698l-25.033,18.28l9.646-29.456l-25.118-18.158l30.995,0.073l9.51-29.502
				l9.506,29.502l30.996-0.073l-25.12,18.158L441.463,102.979z M389.009,59.614l17.005,12.294l-6.531,19.941l16.947-12.376
				l16.945,12.375l-6.532-19.94l17.006-12.294l-20.985,0.049l-6.434-19.971l-6.439,19.971L389.009,59.614z"/>
		</g>
		<g>
			<polygon fill="#EFF810" points="298.693,58.961 277.703,74.288 285.792,49.59 264.73,34.364 290.719,34.425 298.693,9.689 
				306.664,34.425 332.654,34.364 311.591,49.59 319.682,74.288 			"/>
			<path fill="#070606" d="M323.726,79.854l-25.033-18.281l-25.033,18.28l9.647-29.456l-25.119-18.158l30.995,0.073l9.511-29.502
				l9.505,29.502l30.996-0.073l-25.12,18.158L323.726,79.854z M271.271,36.489l17.004,12.294l-6.53,19.941l16.947-12.376
				l16.945,12.375l-6.532-19.94l17.006-12.294l-20.985,0.049l-6.435-19.971l-6.438,19.971L271.271,36.489z"/>
		</g>
	</g>
	<g>
		<rect x="105.17" y="301.035" fill="#C889C2" width="393.907" height="84.188"/>
		<path fill="#070606" d="M501.891,388.036H102.357v-89.815h399.534V388.036z M107.984,382.41h388.281v-78.562H107.984V382.41z"/>
	</g>
	<g>
		<path d="M207.443,329.427c-1.015-7.939-8.546-8.793-15.145-8.793c-6.769,0-11.169,3.073-11.169,7.171
			c0,3.243,2.708,5.036,6.938,5.719l20.561,3.33c10.999,1.793,19.376,5.976,19.376,17.072c0,11.354-7.615,20.487-31.391,20.487
			c-14.722,0-33.845-1.878-34.014-20.915h18.445c0.169,8.366,8.461,9.818,15.568,9.818c7.7,0,12.946-2.305,12.946-7.598
			c0-4.695-3.723-5.976-10.238-7l-14.976-2.304c-10.492-1.622-20.645-4.78-20.645-17.244c0-13.572,11-19.121,29.953-19.121
			c12.438,0,30.883,2.133,31.983,19.377H207.443z"/>
		<path d="M265.146,311.757h53.982v11.609h-37.568v13.317h35.198v11.609h-35.198v24.413h-16.414V311.757z"/>
		<path d="M409.489,334.805c-1.522-8.793-8.715-13.146-17.261-13.146c-15.568,0-18.868,12.292-18.868,20.573
			c0,8.279,3.3,20.573,18.868,20.573c7.954,0,15.653-3.842,17.261-13.488h17.854c-2.032,17.757-16.5,25.098-35.707,25.098
			c-21.998,0-35.705-9.561-35.705-32.182c0-22.621,13.707-32.182,35.705-32.182c14.553,0,33.083,3.756,35.536,24.756H409.489z"/>
	</g>
	<circle cx="245.048" cy="366.693" r="7.764"/>
	<circle cx="336.363" cy="366.693" r="7.764"/>
	<circle cx="443.576" cy="366.693" r="7.764"/>
	<g>
		<path fill="#FFFFFF" d="M298.667,99.605C163.895,99.605,54.64,208.859,54.64,343.63c0,134.772,109.255,244.027,244.027,244.027
			c134.77,0,244.026-109.254,244.026-244.027C542.693,208.859,433.437,99.605,298.667,99.605z M298.667,525.295
			c-100.332,0-181.662-81.33-181.662-181.665c0-100.321,81.331-181.652,181.662-181.652c100.317,0,181.662,81.331,181.662,181.652
			C480.329,443.965,398.984,525.295,298.667,525.295z"/>
		<path d="M298.667,591.877c-136.884,0-248.247-111.363-248.247-248.247c0-136.883,111.363-248.245,248.247-248.245
			S546.913,206.747,546.913,343.63C546.913,480.514,435.551,591.877,298.667,591.877z M298.667,103.825
			c-132.23,0-239.807,107.576-239.807,239.805c0,132.23,107.577,239.807,239.807,239.807S538.473,475.86,538.473,343.63
			C538.473,211.401,430.897,103.825,298.667,103.825z M298.667,529.515c-102.496,0-185.882-83.388-185.882-185.885
			c0-102.49,83.386-185.872,185.882-185.872S484.55,241.14,484.55,343.63C484.55,446.127,401.163,529.515,298.667,529.515z
			 M298.667,166.198c-97.842,0-177.442,79.596-177.442,177.432c0,97.843,79.6,177.445,177.442,177.445S476.11,441.473,476.11,343.63
			C476.11,245.794,396.509,166.198,298.667,166.198z"/>
	</g>
	<g>
		<path d="M126.683,500.64l-9.262-10.751l23.183-36.189l8.358,9.703l-14.518,21.413l0.076,0.088l23.252-11.275l8.509,9.876
			L126.683,500.64z"/>
		<path d="M164.56,480.615l9.35,8.575l-27.831,30.345l-9.349-8.576L164.56,480.615z"/>
		<path d="M174.357,490.189l10.275,7.441l-17.962,24.801l14.759,10.69l-6.191,8.547l-25.034-18.132L174.357,490.189z"/>
		<path d="M198.452,507.647l11.3,5.771l-13.927,27.273l16.231,8.289l-4.8,9.4l-27.53-14.06L198.452,507.647z"/>
		<path d="M235.421,524.656l11.832,3.71l1.987,43.781l-12.547-3.936l0.109-6.131l-12.493-3.918l-3.521,5.062l-12.163-3.815
			L235.421,524.656z M237.021,552.902l0.275-13.212l-0.11-0.034l-7.594,10.917L237.021,552.902z"/>
		<path d="M280.75,561.919c-0.056,1.037,0.066,1.967,0.313,2.732c0.786,2.526,3.523,3.195,5.884,3.323
			c2.074,0.113,5.278-0.405,5.445-3.458c0.116-2.131-1.638-2.804-8.612-5.205c-6.407-2.197-13.739-4.386-13.288-12.679
			c0.517-9.502,8.86-13.149,17.325-12.689c8.926,0.486,16.631,4.313,16.431,14.352l-11.978-0.653
			c0.315-1.541-0.32-2.616-1.319-3.363c-0.996-0.805-2.42-1.172-3.687-1.24c-1.727-0.095-4.574,0.213-4.699,2.517
			c0.07,2.949,5.91,3.903,11.639,5.831c5.728,1.929,11.34,4.95,10.929,12.492c-0.583,10.712-10.618,13.631-19.775,13.133
			c-4.664-0.253-17.876-2.647-17.277-15.784L280.75,561.919z"/>
		<path d="M322.6,532.767c12.418-1.551,21.829,6.34,23.389,18.814c1.558,12.475-5.624,22.438-18.042,23.989
			c-12.417,1.551-21.829-6.34-23.388-18.814C303.001,544.281,310.183,534.319,322.6,532.767z M326.674,565.384
			c3.205-0.4,7.862-3.132,6.724-12.23c-1.136-9.098-6.322-10.601-9.527-10.201c-3.204,0.401-7.86,3.132-6.724,12.231
			C318.284,564.282,323.469,565.785,326.674,565.384z"/>
		<path d="M341.524,531.03l12.112-3.774l9.106,29.235l17.398-5.421l3.138,10.076l-29.51,9.191L341.524,531.03z"/>
		<path d="M369.557,522.736l18.489-9.569c12.189-6.309,21.155,0.478,25.927,9.697c5.805,11.215,3.548,21.409-9.204,28.01
			l-16.285,8.429L369.557,522.736z M394.9,544.098l4.404-2.279c7.015-3.632,5.098-9.847,3.322-13.278
			c-1.192-2.305-5.223-8.336-13.366-4.12l-3.585,1.855L394.9,544.098z"/>
		<path d="M411.745,498.435l9.77-7.638l37.178,23.209l-10.36,8.099l-4.987-3.57l-10.315,8.064l2.171,5.772l-10.043,7.851
			L411.745,498.435z M435.911,513.146l-10.723-7.723l-0.091,0.071l4.68,12.447L435.911,513.146z"/>
		<path d="M441.707,486.608l-7.895,8.408l-7.694-7.223l24.472-26.07l7.694,7.224l-7.895,8.408l22.328,20.96l-8.683,9.252
			L441.707,486.608z"/>
		<path d="M449.453,462.021l7.513-10.223l33.179,24.383l-7.513,10.223L449.453,462.021z"/>
	</g>
	<g>
		<path d="M112.653,267.605l-3.231,8.885c-1.308,3.596-3.356,5.606-6.873,4.327c-1.852-0.673-2.811-2.07-3.008-3.998
			c-1.498,2.06-3.693,2.579-6.046,1.723c-3.834-1.394-4.291-5.243-3.05-8.654l3.327-9.149L112.653,267.605z M95.488,266.064
			l-1.615,4.443c-0.596,1.639-0.587,3.26,1.37,3.971c1.931,0.702,3.14-0.236,3.784-2.007l1.644-4.522L95.488,266.064z
			 M103.501,268.978l-1.529,4.205c-0.529,1.454-0.262,2.779,1.324,3.356c1.798,0.654,2.668-0.587,3.207-2.067l1.414-3.888
			L103.501,268.978z"/>
		<path d="M90.344,297.13c-5.249-1.392-6.983-5.17-5.605-10.365c1.385-5.221,4.721-7.597,9.997-6.198l12.075,3.202l-1.133,4.27
			l-12.074-3.202c-2.121-0.563-4.359-0.574-5.276,2.88c-0.808,3.046,0.265,4.379,3.148,5.143l12.075,3.202l-1.133,4.269
			L90.344,297.13z"/>
		<path d="M102.177,301.719l-2.59,14.797l-3.658-0.64l1.829-10.446l-4.24-0.743l-1.678,9.589l-3.381-0.592l1.678-9.589l-4.849-0.849
			l-1.868,10.67l-3.657-0.64l2.629-15.019L102.177,301.719z"/>
		<path d="M99.463,317.348l-0.385,4.372l-14.164,7.172l-0.005,0.056l13.427,1.181l-0.363,4.121l-20.015-1.762l0.387-4.401
			l14.133-7.146l0.005-0.055l-13.399-1.18l0.363-4.121L99.463,317.348z"/>
		<path d="M98.418,344.211c0.1,6.219-4.484,9.951-10.45,10.046c-5.797,0.093-10.498-3.491-10.598-9.709s4.484-9.951,10.281-10.045
			C93.617,334.408,98.318,337.992,98.418,344.211z M81.085,344.489c0.063,3.967,3.464,5.404,6.813,5.351
			c3.517-0.056,6.87-1.602,6.807-5.569c-0.064-3.967-3.464-5.406-6.982-5.349C84.374,338.975,81.021,340.52,81.085,344.489z"/>
		<path d="M85.035,359.248c-2.662,0.243-3.508,2.409-3.294,4.763c0.141,1.541,0.804,3.853,2.848,3.666
			c2.157-0.196,2.247-3.227,2.763-6.239c0.514-3.041,1.389-6.143,5.142-6.485c4.089-0.372,6.403,3.313,6.732,6.928
			c0.381,4.173-1.09,8.176-5.712,8.598l-0.388-4.257c2.397-0.36,2.857-2.125,2.665-4.225c-0.128-1.401-0.864-2.971-2.545-2.819
			c-1.541,0.142-1.65,1.111-2.481,6.242c-0.231,1.49-0.747,6.057-5.285,6.47c-3.669,0.335-6.678-2.3-7.173-7.734
			c-0.403-4.426,1.403-8.771,6.338-9.164L85.035,359.248z"/>
		<path d="M101.815,383.23l0.937,4.43l-18.094,11.501l-0.948-4.485l4.061-2.411l-1.554-7.348l-4.701-0.615l-0.924-4.375
			L101.815,383.23z M89.676,385.365l1.076,5.091l6.686-4l-0.012-0.055L89.676,385.365z"/>
		<path d="M104.557,395.059l1.177,4.256l-19.356,5.349l-1.176-4.256L104.557,395.059z"/>
		<path d="M106.216,401.495l3.537,10.238c1.176,3.404-0.446,6.377-3.319,7.369c-2.234,0.772-4.221,0.446-5.798-1.361l-0.053,0.019
			c0.175,2.231-1.617,3.506-3.486,4.3c-1.17,0.493-3.412,1.238-4.219,2.35l-1.442-4.176c1.022-0.918,2.875-1.499,4.317-2.235
			c1.894-0.982,2.505-2.056,1.779-4.157l-1.442-4.176l-7.419,2.563l-1.442-4.175L106.216,401.495z M99.068,408.636l1.58,4.574
			c0.644,1.861,1.79,2.596,3.705,1.935c1.835-0.635,2.284-1.92,1.641-3.782l-1.58-4.574L99.068,408.636z"/>
		<path d="M112.178,418.406l6.098,13.731l-3.394,1.508l-4.305-9.694l-3.934,1.746l3.951,8.897l-3.137,1.393l-3.951-8.897l-4.5,1.999
			l4.397,9.9l-3.394,1.507l-6.189-13.936L112.178,418.406z"/>
		<path d="M108.392,442.09c-2.349,1.276-2.269,3.603-1.141,5.68c0.739,1.36,2.263,3.221,4.068,2.241
			c1.904-1.034,0.788-3.855,0.069-6.827c-0.732-2.997-1.156-6.194,2.157-7.994c3.61-1.962,7.195,0.51,8.928,3.699
			c2.002,3.684,2.236,7.946-1.844,10.163l-2.042-3.758c2.059-1.28,1.783-3.084,0.775-4.939c-0.672-1.236-1.97-2.387-3.454-1.583
			c-1.36,0.739-1.076,1.675,0.191,6.719c0.378,1.46,1.712,5.86-2.294,8.036c-3.239,1.761-7.046,0.53-9.653-4.267
			c-2.123-3.907-2.184-8.614,2.195-10.929L108.392,442.09z"/>
	</g>
	<g>
		<path d="M481.674,430.819l2.184-4.727l24.588,1.845l-2.212,4.787l-5.401-0.571l-3.622,7.84l3.91,3.801l-2.157,4.669
			L481.674,430.819z M494.332,437.201l2.51-5.432l-8.914-0.912l-0.026,0.059L494.332,437.201z"/>
		<path d="M487.21,418.668l4.057-11.775c1.349-3.915,4.925-5.455,8.228-4.316c2.569,0.885,4.138,2.588,4.285,5.342l0.06,0.021
			c1.423-2.144,3.949-2.026,6.205-1.42c1.407,0.382,3.966,1.298,5.485,0.863l-1.655,4.802c-1.577,0.107-3.666-0.681-5.493-1.037
			c-2.409-0.455-3.725,0.085-4.558,2.501l-1.654,4.802l8.533,2.94l-1.655,4.803L487.21,418.668z M498.744,417.27l1.813-5.26
			c0.738-2.142,0.22-3.62-1.982-4.379c-2.11-0.727-3.429,0.119-4.167,2.261l-1.812,5.26L498.744,417.27z"/>
		<path d="M517.615,387.348c1.841,2.249,2.169,4.715,1.669,6.891c-1.604,6.969-7.749,9.87-14.245,8.375
			c-6.684-1.537-10.943-6.834-9.34-13.802c1.059-4.605,4.897-8.303,10.13-7.662l-1.089,4.73c-2.621-0.005-4.342,1.556-4.879,3.89
			c-1.022,4.445,2.377,6.987,6.318,7.895c3.753,0.863,7.921,0.062,8.944-4.383c0.739-3.216-0.566-5.476-3.622-6.477l-1.147,4.981
			l-3.688-0.849l2.176-9.459l12.171,2.801l-0.725,3.153L517.615,387.348z"/>
		<path d="M498.667,377.442l2.155-17.146l4.238,0.532l-1.521,12.106l4.912,0.617l1.396-11.11l3.918,0.493l-1.396,11.109l5.618,0.708
			l1.554-12.363l4.239,0.533l-2.187,17.403L498.667,377.442z"/>
		<path d="M500.961,359.018l0.137-5.046l15.756-9.219l0.001-0.065l-15.494-0.422l0.129-4.754l23.096,0.628l-0.139,5.079
			l-15.723,9.187l-0.001,0.065l15.461,0.42l-0.129,4.754L500.961,359.018z"/>
		<path d="M505.266,331.978l0.468,6.908l-4.261,0.288l-1.28-18.884l4.261-0.289l0.468,6.908l18.788-1.275l0.343,5.068
			L505.266,331.978z"/>
		<path d="M499.864,319.145l-0.67-5.035l22.896-3.05l0.67,5.035L499.864,319.145z"/>
		<path d="M499,311.367l-1.034-4.939l13.189-12.612l-0.014-0.063l-15.164,3.177l-0.975-4.653l22.606-4.736l1.041,4.971
			l-13.164,12.573l0.014,0.063l15.133-3.17l0.975,4.654L499,311.367z"/>
		<path d="M492.543,284.406l-1.582-4.963l19.383-15.249l1.602,5.024l-4.37,3.227l2.625,8.23l5.451,0.163l1.563,4.901
			L492.543,284.406z M506.191,280.562l-1.819-5.702l-7.19,5.35l0.019,0.062L506.191,280.562z"/>
	</g>
	<g>
		<path d="M121.029,236.26c0.872,0.562,1.742,0.917,2.528,1.081c2.585,0.568,4.521-1.477,5.802-3.464
			c1.125-1.745,2.262-4.785-0.306-6.441c-1.793-1.157-3.247,0.034-8.787,4.901c-5.082,4.477-10.616,9.76-17.595,5.26
			c-7.997-5.156-7.032-14.209-2.438-21.334c4.844-7.512,11.985-12.308,20.605-7.161l-6.5,10.081
			c-1.183-1.038-2.431-1.019-3.575-0.521c-1.192,0.466-2.216,1.521-2.904,2.588c-0.938,1.453-2.081,4.079-0.142,5.329
			c2.596,1.4,6.318-3.2,10.831-7.219c4.513-4.02,9.917-7.398,16.265-3.304c9.015,5.812,6.579,15.975,1.61,23.681
			c-2.532,3.926-11.156,14.215-22.269,7.187L121.029,236.26z"/>
		<path d="M127.648,182.637l8.731-8.805l39.8,18.348l-9.259,9.337l-5.396-2.914l-9.218,9.297l2.878,5.453l-8.975,9.051
			L127.648,182.637z M153.47,194.193l-11.609-6.314l-0.082,0.082l6.208,11.76L153.47,194.193z"/>
		<path d="M187.112,154.48c-1-1.14-4.419-4.363-8.845-1.545c-5.01,3.19-3.517,9.076-0.544,13.745
			c2.973,4.669,7.675,8.511,12.685,5.32c3.6-2.291,3.399-5.719,1.957-9.38l10.505-6.69c4.46,7.004,3.509,18.069-6.657,24.542
			c-11.235,7.155-22.655,3.285-29.19-6.978c-6.969-10.944-4.677-22.589,6.023-29.403c9.564-6.022,18.007-4.357,24.475,3.76
			L187.112,154.48z"/>
		<path d="M213.963,124.513l11.68-4.167l27.963,33.749l-12.386,4.419l-3.607-4.96l-12.332,4.4l0.238,6.161l-12.006,4.284
			L213.963,124.513z M232.258,146.095l-7.741-10.711l-0.108,0.039l0.516,13.289L232.258,146.095z"/>
		<path d="M279.828,124.865c-0.406-1.462-2.089-5.85-7.3-5.231c-5.899,0.701-7.108,6.652-6.455,12.15
			c0.653,5.498,3.223,11,9.122,10.299c4.238-0.503,5.545-3.678,5.833-7.603l12.37-1.47c0.979,8.246-4.68,17.804-16.648,19.226
			c-13.229,1.572-21.84-6.871-23.275-18.955c-1.531-12.885,5.587-22.383,18.186-23.88c11.231-1.276,18.116,3.888,20.422,14.009
			L279.828,124.865z"/>
		<path d="M305.734,108.22l12.613,1.37l-1.544,14.218l11.811,1.282l1.544-14.218l12.612,1.369l-4.444,40.934l-12.613-1.37
			l1.762-16.224l-11.811-1.282l-1.761,16.224l-12.613-1.369L305.734,108.22z"/>
		<path d="M356.096,115.844l12.216,3.428l-11.125,39.646l-12.216-3.428L356.096,115.844z"/>
		<path d="M378.865,152.165c-0.429,0.946-0.653,1.858-0.699,2.66c-0.183,2.64,2.125,4.256,4.28,5.232
			c1.892,0.857,5.066,1.536,6.329-1.249c0.881-1.944-0.511-3.208-6.14-7.974c-5.176-4.371-11.216-9.07-7.789-16.637
			c3.929-8.67,13.027-9.044,20.751-5.545c8.145,3.689,13.938,10.051,10.112,19.336l-10.929-4.951
			c0.853-1.324,0.651-2.555-0.01-3.614c-0.636-1.112-1.831-1.969-2.986-2.493c-1.577-0.714-4.342-1.46-5.294,0.641
			c-1.003,2.775,4.094,5.781,8.734,9.656c4.642,3.875,8.777,8.725,5.658,15.609c-4.427,9.773-14.84,8.856-23.195,5.07
			c-4.256-1.928-15.704-8.95-10.381-20.978L378.865,152.165z"/>
		<path d="M423.578,144.066l17.125,12.543c9.028,6.612,7.352,15.538,3.875,20.285c-5.897,8.051-14.056,7.866-21.687,2.276
			l-6.05-4.431l-7.363,10.051l-10.237-7.498L423.578,144.066z M422.635,166.828l3.955,2.897c2.653,1.942,5.581,3.802,8.036,0.451
			c2.214-3.025,0.025-4.915-2.488-6.756l-4.561-3.34L422.635,166.828z"/>
		<path d="M466.845,179.687l8.421,9.1l-20.037,38.974l-8.93-9.65l3.142-5.265l-8.892-9.608l-5.57,2.641l-8.657-9.354
			L466.845,179.687z M454.194,204.99l6.805-11.327l-0.078-0.085l-12.016,5.697L454.194,204.99z"/>
		<path d="M473.918,232.421c-0.892,0.532-1.595,1.154-2.091,1.785c-1.657,2.063-0.684,4.706,0.529,6.737
			c1.063,1.782,3.283,4.151,5.907,2.585c1.832-1.093,1.412-2.924-0.49-10.049c-1.756-6.541-4.033-13.845,3.098-18.101
			c8.171-4.877,15.854,0.007,20.198,7.286c4.581,7.675,5.709,16.203-2.729,21.643l-6.147-10.299c1.455-0.6,1.992-1.727,2.054-2.973
			c0.111-1.275-0.379-2.661-1.03-3.75c-0.886-1.486-2.731-3.675-4.712-2.493c-2.407,1.705,0.063,7.081,1.662,12.91
			c1.599,5.829,2.227,12.17-4.26,16.041c-9.211,5.498-17.236-1.197-21.935-9.07c-2.393-4.011-7.785-16.307,3.445-23.144
			L473.918,232.421z"/>
	</g>
</g>
</svg>
