<?xml version="1.0" encoding="utf-8"?>
<!-- Generator: Adobe Illustrator 17.0.0, SVG Export Plug-In . SVG Version: 6.00 Build 0)  -->
<!DOCTYPE svg PUBLIC "-//W3C//DTD SVG 1.1//EN" "http://www.w3.org/Graphics/SVG/1.1/DTD/svg11.dtd">
<svg version="1.1" id="Layer_1" xmlns="http://www.w3.org/2000/svg" xmlns:xlink="http://www.w3.org/1999/xlink" x="0px" y="0px"
	 width="595.3px" height="595.3px" viewBox="0 0 595.3 595.3" style="enable-background:new 0 0 595.3 595.3;" xml:space="preserve"
	>
<style type="text/css">
	.st0{fill:#FFFFFF;}
	.st1{fill:#DC1F22;}
</style>
<g>
	<g>
		<g>
			<path class="st0" d="M562.3,108.2l-67.6-42.8L392.3,0.6c-1.3-0.8-3-0.8-4.3,0.1c-0.4,0.3-40.7,28.9-90.3,28.9
				C248,29.6,207.7,1,207.3,0.7c-1.3-0.9-3-1-4.3-0.1L102.3,64.3l-69.6,44.1c-1.5,1-2.2,2.9-1.5,4.6c0.6,1.7,2.4,2.7,4.2,2.4
				c0,0,1.7-0.3,4.2-0.3c5.4,0,15.8,1.2,23.6,9c3.9,3.9,4.7,17.4,4.2,24.9c0,0.1,0,0.2,0,0.2v342.3c0,29.1,12.6,45.1,35,53.7
				c16.2,6.2,37.4,8.6,62.7,9.4c54.1,1.6,94.7,8.7,130.1,39.6c0.7,0.6,1.6,1,2.5,1c0.9,0,1.8-0.3,2.5-1
				c35.3-30.9,75.9-38.1,130.1-39.6c26.2-0.8,48.1-3.3,64.5-10.1c21.3-8.8,33.2-24.7,33.2-53V149.3c0-0.1,0-0.2,0-0.2
				c-0.5-8.1,0.5-21.2,4.2-24.9c7.8-7.8,18.1-9,23.6-9c2.6,0,4.2,0.3,4.2,0.3c0.2,0,0.5,0.1,0.7,0.1c2.1,0,3.8-1.7,3.8-3.9
				C564.4,110.2,563.6,108.9,562.3,108.2z"/>
			<polygon class="st0" points="513.5,139.2 82.9,308.9 82.9,445.6 513.5,275.9 			"/>
			<path class="st1" d="M562.3,108.2l-67.6-42.8L392.3,0.6c-1.3-0.8-3-0.8-4.3,0.1c-0.4,0.3-40.7,28.9-90.3,28.9
				C248,29.6,207.7,1,207.3,0.7c-1.3-0.9-3-1-4.3-0.1L102.3,64.3l-69.6,44.1c-1.5,1-2.2,2.9-1.5,4.6c0.6,1.7,2.4,2.7,4.2,2.4
				c0,0,1.7-0.3,4.2-0.3c5.4,0,15.8,1.2,23.6,9c3.9,3.9,4.7,17.4,4.2,24.9c0,0.1,0,0.2,0,0.2v342.3c0,29.1,12.6,45.1,35,53.7
				c16.2,6.2,37.4,8.6,62.7,9.4c54.1,1.6,94.7,8.7,130.1,39.6c0.7,0.6,1.6,1,2.5,1c0.9,0,1.8-0.3,2.5-1
				c35.3-30.9,75.9-38.1,130.1-39.6c26.2-0.8,48.1-3.3,64.5-10.1c21.3-8.8,33.2-24.7,33.2-53V149.3c0-0.1,0-0.2,0-0.2
				c-0.5-8.1,0.5-21.2,4.2-24.9c7.8-7.8,18.1-9,23.6-9c2.6,0,4.2,0.3,4.2,0.3c0.2,0,0.5,0.1,0.7,0.1c2.1,0,3.8-1.7,3.8-3.9
				C564.4,110.2,563.6,108.9,562.3,108.2z M450.4,46.5l44.3,28v63.7l-44.3,17.5V46.5z M363.1,23c13.5-5.8,23.1-11.8,27.2-14.5
				l17.1,10.8v153.4l-44.3,17.5V23z M275.8,35.7c7,1,14.3,1.7,21.8,1.7c7.8,0,15.3-0.7,22.5-1.8v171.6l-44.3,17.5V35.7z M188.5,18.9
				L205,8.5c4.2,2.8,14.1,8.9,27.9,14.8v218.3L188.5,259V18.9z M102.3,73.4l43.2-27.3v229.8l-43.2,17V73.4z M188.5,412.2l44.3-17.5
				v159.6c-13.8-3.3-28.5-5.2-44.3-6.3V412.2z M145.5,545.9c-18.3-1.5-32.5-4.4-43.2-9.1v-90.6l43.2-17V545.9z M297.6,586.3
				c-7.1-5.9-14.3-11-21.8-15.3V377.8l44.3-17.5v210.3C312.4,575.1,304.9,580.2,297.6,586.3z M407.4,548c-15.8,1.1-30.5,3-44.3,6.2
				V343.4l44.3-17.5V548z M494.7,536.1c-10.7,5.1-25.3,8.2-44.3,9.8V309l44.3-17.5V536.1z M513.5,275.9L82.9,445.6V308.9
				l430.6-169.7V275.9z"/>
		</g>
	</g>
	<g>
		<g>
			<path class="st1" d="M149.8,364.8l15.6-1c0.9,8.6-0.4,15.7-3.9,21.4c-3.5,5.7-9,10-16.6,13c-9.4,3.7-18.4,3.5-27-0.6
				c-8.6-4.1-15-11.7-19.4-22.8c-4.6-11.8-5.1-22.2-1.6-31.1c3.5-8.9,10.3-15.3,20.2-19.2c8.7-3.4,16.7-3.6,24.1-0.6
				c4.4,1.8,8.5,5.2,12.4,10.2l-12.9,8.9c-2.3-3.4-5.2-5.6-8.6-6.7c-3.5-1.1-7.1-0.9-10.9,0.6c-5.3,2.1-8.8,5.6-10.6,10.7
				c-1.8,5.1-1.1,11.8,2.2,20.3c3.5,9,7.6,14.7,12.3,17.3c4.7,2.5,9.6,2.8,14.8,0.8c3.8-1.5,6.6-4,8.4-7.5
				C150.1,375.1,150.6,370.5,149.8,364.8z"/>
			<path class="st1" d="M186,380.8l-5.3-13.6l13.6-5.3l5.3,13.6L186,380.8z"/>
			<path class="st1" d="M277.6,345l-15.6,6.1l-12.5-13.7l-28.4,11.1l0.4,18.4l-15.2,5.9l0-81.7l15.1-5.9L277.6,345z M240.3,327.3
				l-20-22.5l0.7,30.1L240.3,327.3z"/>
			<path class="st1" d="M285.1,342.1l-5.3-13.6l13.6-5.3l5.3,13.6L285.1,342.1z"/>
			<path class="st1" d="M300.1,309.7l13.4-6.8c2.7,4.4,5.7,7.1,9.1,8.3c3.4,1.2,7.3,0.9,11.7-0.8c4.6-1.8,7.7-4.1,9.3-7
				c1.6-2.9,1.9-5.6,0.8-8.2c-0.7-1.7-1.7-2.9-3.1-3.7c-1.4-0.8-3.6-1.1-6.4-1.1c-1.9,0.1-6.1,0.5-12.7,1.4
				c-8.4,1.1-14.7,0.9-18.9-0.7c-5.9-2.2-9.9-6.1-12.1-11.7c-1.4-3.6-1.7-7.4-0.9-11.3c0.8-3.9,2.8-7.5,6.1-10.6
				c3.2-3.1,7.5-5.8,13-7.9c8.9-3.5,16.4-4.1,22.4-2c6,2.1,10.4,6.4,13.2,12.9l-14.1,6.2c-2-3.4-4.4-5.5-7-6.3
				c-2.6-0.8-6-0.4-10,1.1c-4.2,1.6-7.1,3.7-8.8,6.4c-1.1,1.7-1.3,3.5-0.6,5.3c0.7,1.7,1.9,2.8,3.8,3.5c2.4,0.8,7.4,0.7,15-0.4
				c7.6-1.1,13.4-1.4,17.4-0.9c4,0.5,7.6,1.8,10.6,4.2c3.1,2.3,5.5,5.7,7.2,10.2c1.6,4.1,1.9,8.3,1.1,12.7c-0.9,4.4-3,8.3-6.5,11.6
				c-3.5,3.3-8.3,6.2-14.4,8.6c-9,3.5-16.7,4.1-23.1,1.8C309.4,322.2,304.1,317.2,300.1,309.7z"/>
			<path class="st1" d="M378.7,305.6l-5.3-13.6l13.6-5.3l5.3,13.6L378.7,305.6z"/>
			<path class="st1" d="M406.2,294.9L378.5,224l21.4-8.4l31.7,43.4l-6.1-53.3l21.5-8.4l27.7,70.9l-13.3,5.2l-21.8-55.8l7.7,61.3
				l-13.8,5.4l-35.8-50.4l21.8,55.8L406.2,294.9z"/>
			<path class="st1" d="M488.8,262.7l-5.3-13.6l13.6-5.3l5.3,13.6L488.8,262.7z"/>
		</g>
	</g>
</g>
</svg>
