<?xml version="1.0" encoding="utf-8"?>
<!-- Generator: Adobe Illustrator 17.0.0, SVG Export Plug-In . SVG Version: 6.00 Build 0)  -->
<!DOCTYPE svg PUBLIC "-//W3C//DTD SVG 1.1//EN" "http://www.w3.org/Graphics/SVG/1.1/DTD/svg11.dtd">
<svg version="1.1" id="Capa_1" xmlns="http://www.w3.org/2000/svg" xmlns:xlink="http://www.w3.org/1999/xlink" x="0px" y="0px"
	 width="595.3px" height="595.3px" viewBox="0 0 595.3 595.3" style="enable-background:new 0 0 595.3 595.3;" xml:space="preserve"
	>
<style type="text/css">
	.st0{fill:#FFFFFF;}
	.st1{fill:#107AB5;}
	.st2{fill:#FFBF00;}
</style>
<g>
	<g>
		<path class="st0" d="M363.3,0.2H322c-4.1,4.4-8.2,5.9-11.8,5.9c-7.2,0-12.6-5.9-12.6-5.9s-5.3,5.9-12.6,5.9
			c-3.6,0-7.7-1.5-11.8-5.9H232c0,0-28.1,44.8-83,44.8c-9,0-18.7-1.2-29.2-4c0,0-18.2,34.7-51.2,34.7c-0.8,0-1.6,0-2.4-0.1
			c0,0-19.6,39.6-62,39.6c-1.3,0-2.7,0-4.1-0.1c0,0,14.6,344.2,297.6,479.9c283-135.7,297.6-479.9,297.6-479.9
			c-1.4,0.1-2.7,0.1-4.1,0.1c-42.4,0-62-39.6-62-39.6c-0.8,0-1.6,0.1-2.4,0.1c-33,0-51.2-34.7-51.2-34.7c-10.5,2.8-20.2,4-29.2,4
			C391.4,45.1,363.3,0.2,363.3,0.2L363.3,0.2z"/>
		<g>
			<g>
				<path class="st1" d="M400.5,42.4l1.9-7.9c-25.9-13.3-39.1-34.3-39.1-34.3H322c-12.4,13.3-24.4,0-24.4,0s-12,13.3-24.4,0H232
					c0,0-38.1,60.8-112.2,40.8c0,0-19.1,36.4-53.7,34.6c0,0-20.8,42.1-66.1,39.5c0,0,5.4,127.9,73.8,258.6l6.5-3.1L400.5,42.4z"/>
			</g>
			<g>
				<path class="st1" d="M595.3,115.1c-10.9,0.6-20.4-1.3-28.6-4.7l-12.8,6.1L182.4,497.2l-3.8,16.3c33.2,31.2,72.5,59.1,119,81.5
					C580.6,459.3,595.3,115.1,595.3,115.1z"/>
			</g>
		</g>
		<path d="M356.5,13.5c10.8,13.7,40.7,44.8,89.8,44.8c7.6,0,15.3-0.8,23.1-2.3c8.4,11.5,25.9,30.4,52.2,32.7c8,12,27.2,35,59.4,39.1
			c-2.7,27.8-11.9,95.7-41.1,172.4c-22.2,58.4-51.5,110.4-87,154.6c-42.9,53.3-95,95.5-155.2,125.4c-60.2-29.9-112.3-72-155.2-125.4
			c-35.5-44.2-64.8-96.3-87-154.6c-29.2-76.7-38.4-144.6-41.1-172.4c32.2-4.1,51.4-27.1,59.4-39.1c26.3-2.2,43.8-21.1,52.2-32.7
			c7.8,1.5,15.5,2.3,23.1,2.3c49.1,0,79-31.2,89.8-44.8h29.4c6.3,4.8,12.5,5.9,16.9,5.9c4.9,0,9.1-1.3,12.6-3c3.5,1.7,7.7,3,12.6,3
			c4.4,0,10.6-1.1,16.9-5.9L356.5,13.5 M363.3,0.2H322c-4.1,4.4-8.2,5.9-11.8,5.9c-7.2,0-12.6-5.9-12.6-5.9s-5.3,5.9-12.6,5.9
			c-3.6,0-7.7-1.5-11.8-5.9H232c0,0-28.1,44.8-83,44.8c-9,0-18.7-1.2-29.2-4c0,0-18.2,34.7-51.2,34.7c-0.8,0-1.6,0-2.4-0.1
			c0,0-19.6,39.6-62,39.6c-1.3,0-2.7,0-4.1-0.1c0,0,14.6,344.2,297.6,479.9c283-135.7,297.6-479.9,297.6-479.9
			c-1.4,0.1-2.7,0.1-4.1,0.1c-42.4,0-62-39.6-62-39.6c-0.8,0-1.6,0.1-2.4,0.1c-33,0-51.2-34.7-51.2-34.7c-10.5,2.8-20.2,4-29.2,4
			C391.4,45.1,363.3,0.2,363.3,0.2L363.3,0.2z"/>
	</g>
	<g>
		<polygon class="st2" points="271,113.1 300.5,131.3 330.8,114.4 351.2,142.6 385.6,138.5 393.6,172.3 427,181.8 421.5,216 
			448.7,237.5 430.5,267.1 447.4,297.4 419.3,317.7 423.3,352.2 389.5,360.2 380.1,393.5 345.8,388 324.3,415.2 294.7,397 
			264.4,413.9 244.1,385.8 209.7,389.8 201.7,356.1 168.3,346.6 173.8,312.3 146.6,290.8 164.8,261.3 147.9,231 176,210.7 
			172,176.2 205.7,168.2 215.2,134.8 249.5,140.3 		"/>
		<g>
			<path class="st0" d="M285.1,247.4h-90.7l1.3-9.1c4.3-30.3,20.9-55.5,48-72.9c20.2-13,39-17,39.8-17.2l3.3,15.6l-1.6-7.8l1.7,7.8
				c-0.2,0-17.2,3.8-34.9,15.3c-20.3,13.2-33.3,30.8-38.6,52.3h71.8v16H285.1z"/>
			<path class="st0" d="M403.4,248.7H309V148.4l10.4,3.2c70.4,21.9,82,85.1,82.5,87.8L403.4,248.7z M324.9,232.8h58.6
				c-5.2-15.5-20.1-46.1-58.6-62.1V232.8z"/>
			<path class="st0" d="M211.8,285.1h74.1v-16h-94v21.7L270,344v19.8c-11.7,0-20.1-7.3-25.3-15.2H225h-0.1
				c15.8,26.6,37.4,30.8,50.4,31.5c2,0.1,3.3-0.1,3.6-0.2l7.1-0.8v-43.6L211.8,285.1z"/>
			<path class="st0" d="M401,275.4l-1.1-6.7h-23.4l-22,15.7l-19.8-15.7h-24.8v110h16v-94h3.3l24.9,19.8l27.7-19.8h3.8
				c-0.4,10.2-4.6,38.6-27.1,55.5v21.7C405.7,326.3,401.3,277.3,401,275.4z"/>
		</g>
	</g>
</g>
</svg>
