<?xml version="1.0" encoding="utf-8"?>
<!-- Generator: Adobe Illustrator 17.0.0, SVG Export Plug-In . SVG Version: 6.00 Build 0)  -->
<!DOCTYPE svg PUBLIC "-//W3C//DTD SVG 1.1//EN" "http://www.w3.org/Graphics/SVG/1.1/DTD/svg11.dtd">
<svg version="1.1" id="Capa_1" xmlns="http://www.w3.org/2000/svg" xmlns:xlink="http://www.w3.org/1999/xlink" x="0px" y="0px"
	 width="595.3px" height="595.3px" viewBox="0 0 595.3 595.3" style="enable-background:new 0 0 595.3 595.3;" xml:space="preserve"
	>
<style type="text/css">
	.st0{fill-rule:evenodd;clip-rule:evenodd;}
	.st1{fill-rule:evenodd;clip-rule:evenodd;fill:#FF0000;}
	.st2{fill-rule:evenodd;clip-rule:evenodd;fill:#008837;}
	.st3{fill-rule:evenodd;clip-rule:evenodd;fill:#FFFFFF;}
</style>
<g>
	<path class="st0" d="M297.6,38C227.8,36.5,158.5,25.7,90,0C66.6,32.1,43.2,64.2,19.8,96.3c42.7,24.6,65.1,62.8,65,102.5
		c-0.1,27.6-6.9,53.5-14,79.1c-13.2,33.1-23,66.1-23.4,99.9C48,459.3,113.1,502,297.6,595.3c184.5-93.2,249.6-136,250.3-217.5
		c-0.4-33.8-10.2-66.8-23.4-99.9c-7.1-25.6-13.9-51.5-14.1-79.1c-0.1-39.7,22.3-77.9,65-102.5C552.1,64.2,528.7,32.1,505.3,0
		C436.8,25.7,367.5,36.5,297.6,38z"/>
	<path class="st1" d="M463.8,493.3V22.7c12.7-3.7,25.4-7.9,37.9-12.6c22.6,31.1,39,53.7,61.7,84.8c-41.3,23.8-60.1,69.1-60,107.5
		c0.1,26.8,6.7,51.9,13.6,76.6c12.8,32,22.2,64.1,22.6,96.8C539.2,422.2,517.5,455.5,463.8,493.3z"/>
	<path class="st2" d="M463.8,22.7v470.6c-28.6,20.2-66.3,41.6-114.6,66.9V43.8C387.5,40.3,426.1,33.6,463.8,22.7z"/>
	<path class="st1" d="M297.6,46.7c17-0.4,34.3-1.3,51.6-2.9v516.4c-15.6,8.2-32.3,16.7-50.2,25.8l-1.3,0.7
		c-18.6-9.4-35.9-18.3-52-26.7V43.8C263.1,45.4,280.4,46.3,297.6,46.7z"/>
	<path class="st2" d="M245.6,43.8V560c-48.4-25.3-86.1-46.8-114.6-67V22.6C168.7,33.5,207.3,40.3,245.6,43.8z"/>
	<path class="st1" d="M131,22.6V493C77.7,455.3,56.1,422,55.7,376c0.4-32.7,9.8-64.8,22.6-96.8c6.9-24.8,13.5-49.9,13.6-76.6
		C92,164,73.2,118.8,31.9,95c22.6-31.1,39-53.7,61.7-84.8C105.9,14.8,118.4,18.9,131,22.6z"/>
	<path class="st3" d="M87.1,19C68.7,44.3,50.3,69.7,31.9,95C51,107,65.2,121.3,74.7,138C210.5,251.9,346.2,365.8,482,479.7
		c30.4-23.8,50.5-50.9,55.7-82.6C387.5,271.1,237.3,145.1,87.1,19z"/>
	<path class="st0" d="M181.6,107.5l0.7,22.6h-2.5c-1.2-5.7-4-10.2-8.6-13.7c-4.6-3.4-9.5-5.2-14.8-5.2c-4.1,0-7.4,0.9-9.8,2.7
		c-2.4,1.8-3.6,3.9-3.6,6.3c0,1.5,0.4,2.8,1.3,4c1.2,1.6,3,3.1,5.6,4.6c1.9,1.1,6.3,3.1,13.1,5.8c9.6,3.9,16.1,7.6,19.4,11
		c3.3,3.5,5,7.4,5,11.9c0,5.7-2.7,10.5-8,14.6c-5.3,4.1-12.1,6.1-20.4,6.1c-2.6,0-5-0.2-7.3-0.6c-2.3-0.4-5.2-1.3-8.7-2.5
		c-1.9-0.7-3.5-1-4.8-1c-1.1,0-2.2,0.3-3.3,1c-1.2,0.7-2.1,1.7-2.9,3.1h-2.2v-25.6h2.2c1.8,7.2,5.2,12.7,10.3,16.4
		c5.1,3.8,10.5,5.7,16.4,5.7c4.5,0,8.1-1,10.8-3.1c2.7-2,4-4.4,4-7.1c0-1.6-0.5-3.2-1.5-4.7c-1-1.5-2.6-2.9-4.7-4.3
		c-2.1-1.3-5.8-3.1-11.1-5.3c-7.5-3-12.8-5.6-16.1-7.7c-3.3-2.1-5.8-4.5-7.5-7.1c-1.8-2.6-2.6-5.5-2.6-8.7c0-5.4,2.4-10,7.2-13.8
		c4.8-3.8,10.9-5.7,18.2-5.7c2.7,0,5.2,0.3,7.7,0.8c1.9,0.4,4.2,1.1,6.9,2.2c2.7,1.1,4.6,1.6,5.7,1.6c1.1,0,1.9-0.3,2.5-0.8
		c0.6-0.5,1.2-1.8,1.7-3.8H181.6L181.6,107.5z M207.8,161.3c2.8,0,5.2,0.8,7.2,2.4c2,1.6,2.9,3.6,2.9,5.9c0,2.3-1,4.2-3,5.9
		c-2,1.6-4.4,2.4-7.1,2.4c-2.8,0-5.2-0.8-7.1-2.4c-2-1.6-2.9-3.6-2.9-5.9c0-2.3,1-4.3,2.9-5.9C202.7,162.2,205,161.3,207.8,161.3z"
		/>
	<path class="st0" d="M300.9,261.8h-26.4l-3.1,6.6c-1,2.2-1.5,4-1.5,5.4c0,1.9,0.8,3.3,2.5,4.2c1,0.5,3.4,0.9,7.3,1.2v1.8h-24.8
		v-1.8c2.7-0.4,4.9-1.4,6.6-3c1.7-1.6,3.9-5,6.4-10.2l26.7-54h1.1l26.9,55.5c2.6,5.3,4.7,8.6,6.3,9.9c1.3,1,3,1.6,5.3,1.8v1.8H298
		v-1.8h1.5c2.9,0,4.9-0.4,6.1-1.1c0.8-0.5,1.2-1.3,1.2-2.3c0-0.6-0.1-1.2-0.3-1.8c-0.1-0.3-0.6-1.6-1.7-3.7L300.9,261.8L300.9,261.8
		z M299,258.1l-11.1-23.3l-11.5,23.3H299L299,258.1z M349.5,265.7c2.6,0,4.7,0.8,6.5,2.4c1.8,1.6,2.7,3.6,2.7,5.9
		c0,2.3-0.9,4.2-2.7,5.9c-1.8,1.6-4,2.4-6.5,2.4c-2.5,0-4.7-0.8-6.5-2.4c-1.8-1.6-2.7-3.6-2.7-5.9c0-2.3,0.9-4.3,2.7-5.9
		C344.8,266.5,347,265.7,349.5,265.7z"/>
	<path class="st0" d="M465.3,345.1v23.5h-1.9c-1.5-6.1-4.2-10.8-8.2-14.1c-4-3.3-8.5-4.9-13.6-4.9c-4.2,0-8.1,1.2-11.6,3.6
		c-3.5,2.4-6.1,5.6-7.7,9.5c-2.1,5-3.1,10.6-3.1,16.8c0,6.1,0.8,11.6,2.3,16.6c1.5,5,3.9,8.7,7.2,11.3c3.2,2.6,7.5,3.8,12.7,3.8
		c4.3,0,8.2-0.9,11.7-2.8c3.5-1.9,7.3-5.1,11.2-9.6v5.8c-3.8,4-7.7,6.8-11.8,8.6c-4.1,1.8-8.9,2.7-14.4,2.7
		c-7.2,0-13.6-1.4-19.2-4.3c-5.6-2.9-9.9-7.1-13-12.5c-3-5.4-4.6-11.2-4.6-17.3c0-6.5,1.7-12.6,5.1-18.4c3.4-5.8,7.9-10.3,13.6-13.5
		c5.7-3.2,11.8-4.8,18.3-4.8c4.7,0,9.8,1,15.1,3.1c3.1,1.2,5,1.8,5.8,1.8c1.1,0,2-0.4,2.8-1.2c0.8-0.8,1.3-2,1.5-3.7H465.3
		L465.3,345.1z M483.7,399c2.3,0,4.3,0.8,5.9,2.4c1.6,1.6,2.4,3.6,2.4,5.9c0,2.3-0.8,4.2-2.4,5.9c-1.6,1.6-3.6,2.4-5.9,2.4
		c-2.3,0-4.3-0.8-5.9-2.4c-1.6-1.6-2.4-3.6-2.4-5.9c0-2.3,0.8-4.3,2.4-5.9C479.4,399.8,481.4,399,483.7,399z"/>
</g>
</svg>
