<?xml version="1.0" encoding="utf-8"?>
<!-- Generator: Adobe Illustrator 17.0.0, SVG Export Plug-In . SVG Version: 6.00 Build 0)  -->
<!DOCTYPE svg PUBLIC "-//W3C//DTD SVG 1.1//EN" "http://www.w3.org/Graphics/SVG/1.1/DTD/svg11.dtd">
<svg version="1.1" id="Capa_1" xmlns="http://www.w3.org/2000/svg" xmlns:xlink="http://www.w3.org/1999/xlink" x="0px" y="0px"
	 width="595.3px" height="595.3px" viewBox="0 0 595.3 595.3" style="enable-background:new 0 0 595.3 595.3;" xml:space="preserve"
	>
<style type="text/css">
	.st0{fill:#FFFFFF;}
	.st1{fill:#F00806;}
	.st2{fill:#0201F8;}
</style>
<g>
	<path class="st0" d="M22.1,112c0,26.5,3.2,148.2,61.6,266.1c45.4,91.7,119.2,164.6,213.4,211c94.4-46.4,168.1-119.3,213.5-211
		C569,260.2,572.2,138.5,572.2,112c-4.4,0.3-11.4,0.6-20.6,0.6c-32.6,0-82.2-4.1-133.2-23.8C350.6,62.8,309.3,22.6,297,9.5
		c-12.3,13.2-53.7,53.3-121.3,79.4c-51,19.7-100.5,23.8-133.2,23.8C33.5,112.7,26.5,112.3,22.1,112z"/>
	<path d="M303.3,401.6c-18.1,0-31.7-5.7-32.4-6l-3.9-2.1v-53.6h14.8v44.2c4.5,1.7,12.3,2.7,21.4,2.7c9,0,16.4-0.8,20.6-2.5V294
		l-57.7-15.7V176.9l3.7-2.1c0.5-0.3,13.5-6.2,31.7-6.2c18.1,0,31.7,5.7,32.4,6l3.9,2.1v37.4H323V186c-4.5-1.7-12.2-2.7-21.4-2.7
		c-9,0-16.4,0.8-20.6,2.5v81l57.7,15.7V393l-3.7,2.1C334.3,395.8,321.5,401.6,303.3,401.6z"/>
	<path d="M256.7,391.8l-9.8-3.2c-0.6-0.2-65-22.4-65-102.3s64.4-102,65-102.3l9.8-3.2v59.7h-14.8v-37.9
		c-15.8,8.8-45.1,32.2-45.1,83.6s29.3,74.7,45.1,83.6v-30.1h14.8V391.8z"/>
	<path d="M364.8,383.9l-14.8,7V179.2l11,6.2c2,1.2,49.5,28.6,49.5,105c0,17.1-5,28.6-15,34.5c-9.9,5.8-21.9,4.2-30.8,1.5
		L364.8,383.9L364.8,383.9z M364.8,310.7c6.8,2.7,17,5.1,23.2,1.5c6.4-3.7,7.6-13.9,7.6-21.7c0-45.6-18.5-71.2-30.9-83.4
		L364.8,310.7L364.8,310.7z"/>
	<path d="M298.3,420c-74,0-134.3-60.2-134.3-134.3s60.2-134.3,134.3-134.3s134.3,60.2,134.3,134.3C432.7,359.8,372.3,420,298.3,420z
		 M298.3,161.3c-68.6,0-124.4,55.8-124.4,124.4s55.8,124.4,124.4,124.4s124.4-55.8,124.4-124.4S366.9,161.3,298.3,161.3z"/>
	<path d="M297,594.6l-2.1-1.1C199.5,547.1,124.9,473.6,79,381C13.4,248.7,17.6,111.6,17.6,110.2l0.2-5.3l5.3,0.5c0.1,0,9.3,1,24.5,1
		c31.2,0,78.5-3.9,127-22.7C250.6,54.3,292.9,5,293.3,4.5l3.8-4.5l3.8,4.5c0.4,0.5,42.5,49.9,118.7,79.2
		c48.6,18.8,95.9,22.7,127,22.7c15.1,0,24.4-1,24.5-1l5.3-0.5l0.2,5.3c0,1.4,4.2,138.5-61.3,270.9c-46,92.6-120.7,166-216.2,212.5
		L297,594.6z M27.5,115.7c0,26,3.1,145.3,60.4,260.9c44.5,89.9,116.9,161.4,209.2,206.9c92.5-45.5,164.8-117,209.3-206.9
		c57.3-115.6,60.4-234.9,60.4-260.9c-4.3,0.3-11.2,0.6-20.2,0.6c-32,0-80.6-4-130.6-23.3c-66.4-25.6-106.9-65-119-77.8
		C284.9,28.1,244.4,67.5,178.1,93c-50,19.3-98.5,23.3-130.6,23.3C38.7,116.4,31.8,116,27.5,115.7z"/>
</g>
<g>
	<path class="st1" d="M58.8,126c-8.1,0-14.3-0.3-18.5-0.5v25.1c2.5,45.5,13.3,135.9,56.9,224.1c4.6,9.3,9.5,18.4,14.7,27.3V122.2
		C91.6,125.2,73.4,126,58.8,126z"/>
	<path class="st2" d="M153.3,285.8c0-41.7,17.6-79.2,45.7-105.6V97.4c-5,2.2-10.1,4.3-15.5,6.5c-17.4,6.8-34.7,11.6-51.1,14.8v314.9
		c19.2,27,41.5,51.7,66.5,73.6V391.4C170.8,365,153.3,327.4,153.3,285.8z"/>
	<path class="st1" d="M286,141.2V40.3c-13.4,12.4-35.7,30.5-66.5,47V164C238.9,151.4,261.6,143.2,286,141.2z"/>
	<path class="st1" d="M219.5,407.5V524c20.6,16,42.9,30.2,66.5,42.6V430.3C261.6,428.3,238.9,420.1,219.5,407.5z"/>
	<path class="st2" d="M553.8,150.6v-25.1c-4.2,0.2-10.5,0.5-18.5,0.5c-14.6,0-32.9-1-53.1-3.8V402c5.2-8.9,10.2-17.9,14.7-27.3
		C540.5,286.5,551.2,196.1,553.8,150.6z"/>
	<path class="st1" d="M410.6,103.7c-5.3-2-10.5-4.2-15.5-6.5v80.2c29.7,26.6,48.5,65.2,48.5,108.3s-18.8,81.7-48.5,108.3v113.1
		c25-22,47.3-46.6,66.5-73.5v-315C445.3,115.2,428,110.4,410.6,103.7z"/>
	<path class="st2" d="M374.6,162.2V87.3c-30.9-16.4-53.1-34.6-66.5-47V141C332.4,142.6,355.1,150.1,374.6,162.2z"/>
	<path class="st2" d="M308.1,430.5v136.1c23.7-12.4,45.9-26.7,66.5-42.6V409.3C355.1,421.4,332.4,429,308.1,430.5z"/>
</g>
</svg>
