<?xml version="1.0" encoding="utf-8"?>
<!-- Generator: Adobe Illustrator 17.0.0, SVG Export Plug-In . SVG Version: 6.00 Build 0)  -->
<!DOCTYPE svg PUBLIC "-//W3C//DTD SVG 1.1//EN" "http://www.w3.org/Graphics/SVG/1.1/DTD/svg11.dtd">
<svg version="1.1" id="Capa_1" xmlns="http://www.w3.org/2000/svg" xmlns:xlink="http://www.w3.org/1999/xlink" x="0px" y="0px"
	 width="595.3px" height="595.3px" viewBox="0 0 595.3 595.3" enable-background="new 0 0 595.3 595.3" xml:space="preserve">
<g>
	<path fill="#20005E" d="M297.913,590.842c20.273,0,72.397-21.718,150.585-89.77s82.531-167.959,82.531-167.959l-1.448-317.097
		c0,0-36.198,41.99-112.938,41.99c-76.74,0-118.73-53.573-118.73-53.573h1.449c0,0-41.99,53.573-118.73,53.573
		c-76.739,0-112.938-41.99-112.938-41.99l-1.448,317.097c0,0,4.344,99.906,82.532,167.959
		c78.187,68.052,130.313,89.77,150.584,89.77H297.913z"/>
	<path fill="#FFFFFF" d="M297.947,577.271c19.332,0,69.045-20.715,143.614-85.616c74.567-64.902,78.711-160.185,78.711-160.185
		l-1.381-291.562c0,0-34.522,29.191-107.707,29.191c-73.19,0-112.546-45.842-112.546-45.842h1.38c0,0-40.738,45.842-113.925,45.842
		c-73.186,0-107.709-31.363-107.709-31.363L77.001,331.47c0,0,4.144,95.282,78.714,160.185
		c74.568,64.902,124.282,85.616,143.614,85.616H297.947z"/>
	<path fill="#20005E" d="M297.973,567.012c18.618,0,66.489-19.948,138.293-82.448c71.808-62.498,75.797-154.251,75.797-154.251
		l-1.305-275.201c0,0-33.268,22.55-103.744,22.55S299.481,35.564,299.481,35.564h1.33c0,0-40.074,42.097-110.548,42.097
		c-70.476,0-103.722-23.273-103.722-23.273l-1.33,275.925c0,0,3.99,91.753,75.798,154.251
		c71.806,62.5,119.677,82.448,138.295,82.448H297.973z"/>
	<polygon fill="#FFFFFF" points="186.665,513.336 122.956,449.67 122.956,189.768 186.665,189.768 	"/>
	<polygon fill="#FFFFFF" points="330.491,565.871 297.308,572.021 266.784,565.871 266.784,190.905 330.491,190.905 	"/>
	<polygon fill="#FFFFFF" points="474.317,448.222 410.61,511.264 410.61,192.039 474.317,192.039 	"/>
	<path fill="#FFFFFF" d="M230.588,114.284l7.305,2.172c-1.12,3.821-2.984,6.657-5.588,8.512c-2.604,1.852-5.908,2.781-9.912,2.781
		c-4.954,0-9.027-1.586-12.216-4.762c-3.19-3.176-4.785-7.518-4.785-13.024c0-5.826,1.603-10.347,4.811-13.571
		c3.207-3.222,7.423-4.832,12.649-4.832c4.564,0,8.272,1.264,11.122,3.794c1.697,1.497,2.969,3.645,3.818,6.445l-7.458,1.671
		c-0.441-1.813-1.363-3.247-2.763-4.295c-1.4-1.053-3.1-1.575-5.101-1.575c-2.766,0-5.012,0.93-6.733,2.791
		c-1.723,1.863-2.582,4.878-2.582,9.046c0,4.426,0.849,7.577,2.546,9.456c1.697,1.876,3.903,2.815,6.617,2.815
		c2.002,0,3.725-0.597,5.168-1.79C228.926,118.724,229.96,116.845,230.588,114.284z"/>
	<rect x="244.307" y="120.443" fill="#FFFFFF" width="7.152" height="6.708"/>
	<path fill="#FFFFFF" d="M256.931,115.764l7.33-0.668c0.441,2.308,1.334,4.001,2.684,5.085c1.349,1.082,3.17,1.624,5.46,1.624
		c2.426,0,4.254-0.481,5.483-1.445c1.23-0.962,1.848-2.087,1.848-3.377c0-0.828-0.26-1.533-0.778-2.113
		c-0.518-0.579-1.419-1.086-2.708-1.516c-0.883-0.285-2.894-0.794-6.032-1.528c-4.038-0.938-6.872-2.091-8.501-3.46
		c-2.291-1.926-3.436-4.274-3.436-7.045c0-1.782,0.537-3.447,1.614-4.999c1.078-1.552,2.63-2.734,4.658-3.546
		c2.027-0.812,4.477-1.216,7.344-1.216c4.682,0,8.207,0.96,10.574,2.886c2.367,1.926,3.612,4.498,3.73,7.711l-7.533,0.313
		c-0.322-1.799-1.015-3.094-2.076-3.881c-1.06-0.789-2.65-1.182-4.771-1.182c-2.188,0-3.903,0.422-5.141,1.264
		c-0.797,0.542-1.196,1.267-1.196,2.175c0,0.825,0.373,1.536,1.119,2.124c0.951,0.746,3.259,1.527,6.923,2.338
		c3.665,0.812,6.374,1.652,8.13,2.52c1.757,0.866,3.131,2.053,4.123,3.555c0.993,1.504,1.49,3.362,1.49,5.577
		c0,2.004-0.593,3.883-1.781,5.633c-1.187,1.751-2.868,3.051-5.039,3.903c-2.172,0.851-4.878,1.276-8.12,1.276
		c-4.717,0-8.339-1.021-10.867-3.066C258.932,122.66,257.422,119.68,256.931,115.764z"/>
	<rect x="293.556" y="120.443" fill="#FFFFFF" width="7.152" height="6.708"/>
	<path fill="#FFFFFF" d="M319.134,101.798h7.612l6.463,18l6.312-18h7.409l-9.546,24.397l-1.706,4.418
		c-0.628,1.477-1.226,2.61-1.796,3.389c-0.568,0.778-1.219,1.411-1.96,1.898c-0.737,0.484-1.644,0.864-2.722,1.135
		c-1.078,0.269-2.293,0.405-3.651,0.405c-1.375,0-2.722-0.136-4.046-0.405l-0.636-5.252c1.121,0.206,2.129,0.306,3.03,0.306
		c1.661,0,2.891-0.454,3.69-1.371c0.796-0.916,1.407-2.082,1.832-3.499L319.134,101.798z"/>
	<path fill="#FFFFFF" d="M366.019,92.155h13.768c3.107,0,5.472,0.223,7.102,0.668c2.189,0.604,4.063,1.679,5.624,3.223
		c1.561,1.544,2.748,3.433,3.564,5.67c0.816,2.233,1.221,4.992,1.221,8.272c0,2.878-0.38,5.363-1.144,7.445
		c-0.933,2.548-2.265,4.61-3.997,6.186c-1.305,1.194-3.07,2.125-5.293,2.792c-1.663,0.494-3.886,0.74-6.668,0.74h-14.175V92.155z
		 M373.552,98.074v23.181h5.624c2.105,0,3.623-0.11,4.557-0.333c1.221-0.288,2.233-0.772,3.04-1.456
		c0.805-0.684,1.463-1.81,1.973-3.38c0.51-1.566,0.764-3.701,0.764-6.409c0-2.706-0.254-4.781-0.764-6.229
		c-0.51-1.448-1.221-2.579-2.137-3.391c-0.916-0.812-2.08-1.36-3.487-1.645c-1.053-0.223-3.115-0.337-6.186-0.337H373.552z"/>
	<rect x="403.636" y="120.443" fill="#FFFFFF" width="7.151" height="6.708"/>
	<polygon fill="#FFFFFF" points="131.394,181.474 131.394,149.167 119.092,149.167 119.092,142.589 152.038,142.589 
		152.038,149.167 139.765,149.167 139.765,181.474 	"/>
	<path fill="#FFFFFF" d="M178.028,181.474v-38.885h17.617c4.432,0,7.65,0.348,9.659,1.047c2.007,0.697,3.614,1.942,4.821,3.726
		c1.207,1.788,1.811,3.83,1.811,6.128c0,2.917-0.914,5.329-2.743,7.229c-1.83,1.9-4.561,3.1-8.202,3.595
		c1.81,0.99,3.304,2.075,4.483,3.26c1.179,1.186,2.766,3.289,4.765,6.312l5.063,7.588H205.29l-6.053-8.463
		c-2.149-3.021-3.619-4.927-4.411-5.714c-0.793-0.787-1.632-1.327-2.517-1.618c-0.886-0.294-2.29-0.438-4.215-0.438h-1.696v16.233
		H178.028z M186.398,159.033h6.193c4.016,0,6.525-0.158,7.523-0.477c0.998-0.317,1.781-0.865,2.348-1.643
		c0.565-0.778,0.848-1.751,0.848-2.919c0-1.309-0.374-2.364-1.117-3.171c-0.744-0.802-1.795-1.312-3.153-1.524
		c-0.679-0.088-2.715-0.132-6.108-0.132h-6.533V159.033z"/>
	<rect x="240.133" y="142.589" fill="#FFFFFF" width="8.371" height="38.885"/>
	<path fill="#FFFFFF" d="M280.709,168.821l8.144-0.743c0.49,2.564,1.486,4.448,2.983,5.65c1.499,1.205,3.521,1.804,6.067,1.804
		c2.694,0,4.729-0.534,6.095-1.602c1.364-1.073,2.05-2.323,2.05-3.757c0-0.918-0.29-1.699-0.863-2.345
		c-0.574-0.646-1.578-1.205-3.013-1.684c-0.98-0.319-3.215-0.885-6.702-1.7c-4.489-1.041-7.635-2.325-9.445-3.845
		c-2.545-2.138-3.818-4.745-3.818-7.823c0-1.981,0.6-3.834,1.796-5.557c1.197-1.724,2.921-3.037,5.175-3.938
		c2.255-0.903,4.972-1.355,8.159-1.355c5.203,0,9.121,1.071,11.749,3.209c2.633,2.141,4.01,4.997,4.142,8.568l-8.368,0.346
		c-0.361-2-1.125-3.437-2.306-4.31c-1.179-0.878-2.947-1.316-5.302-1.316c-2.433,0-4.336,0.471-5.713,1.406
		c-0.885,0.603-1.329,1.409-1.329,2.416c0,0.919,0.415,1.705,1.244,2.36c1.055,0.832,3.621,1.696,7.692,2.6
		c4.072,0.901,7.085,1.835,9.035,2.797c1.954,0.964,3.48,2.281,4.582,3.953c1.104,1.671,1.655,3.734,1.655,6.192
		c0,2.229-0.658,4.316-1.979,6.263c-1.322,1.943-3.188,3.391-5.598,4.334c-2.413,0.948-5.423,1.42-9.022,1.42
		c-5.24,0-9.268-1.136-12.077-3.408C282.934,176.483,281.254,173.171,280.709,168.821z"/>
	<polygon fill="#FFFFFF" points="351.354,181.474 351.354,149.167 339.051,149.167 339.051,142.589 371.999,142.589 
		371.999,149.167 359.724,149.167 359.724,181.474 	"/>
	<path fill="#FFFFFF" d="M431.046,181.474h-9.104l-3.619-8.832h-16.573l-3.423,8.832h-8.88l16.148-38.885h8.853L431.046,181.474z
		 M415.634,166.09l-5.712-14.428l-5.601,14.428H415.634z"/>
	<polygon fill="#FFFFFF" points="450.339,181.474 450.339,142.589 458.483,142.589 475.451,168.556 475.451,142.589 
		483.227,142.589 483.227,181.474 474.83,181.474 458.115,156.115 458.115,181.474 	"/>
	<path fill="#20005E" d="M282.247,201.864h8.371v22.454c0,3.564,0.105,5.874,0.312,6.929c0.358,1.696,1.21,3.06,2.558,4.086
		c1.349,1.027,3.19,1.543,5.529,1.543c2.376,0,4.165-0.487,5.374-1.456c1.206-0.972,1.93-2.164,2.176-3.579
		c0.248-1.415,0.367-3.761,0.367-7.042v-22.934h8.372v21.775c0,4.977-0.226,8.494-0.679,10.549
		c-0.453,2.056-1.288,3.789-2.502,5.203c-1.215,1.414-2.842,2.54-4.879,3.379c-2.035,0.839-4.693,1.259-7.974,1.259
		c-3.959,0-6.962-0.458-9.007-1.372c-2.045-0.913-3.662-2.101-4.851-3.563c-1.187-1.463-1.971-2.992-2.347-4.595
		c-0.546-2.376-0.82-5.884-0.82-10.521V201.864z"/>
	<path fill="#20005E" d="M319.689,307.03h-9.106l-3.619-9.417h-16.572l-3.422,9.417h-8.88l16.148-41.458h8.851L319.689,307.03z
		 M304.276,290.627l-5.711-15.384l-5.6,15.384H304.276z"/>
	<path fill="#20005E" d="M282.332,370.738v-41.457h17.618c4.43,0,7.65,0.373,9.657,1.117c2.009,0.742,3.615,2.069,4.821,3.973
		c1.209,1.904,1.811,4.08,1.811,6.533c0,3.111-0.912,5.678-2.744,7.706c-1.83,2.028-4.561,3.303-8.201,3.833
		c1.811,1.055,3.303,2.214,4.484,3.478c1.177,1.265,2.765,3.506,4.766,6.731l5.06,8.087h-10.012l-6.051-9.021
		c-2.148-3.223-3.62-5.255-4.412-6.093c-0.791-0.841-1.631-1.416-2.516-1.726c-0.885-0.311-2.29-0.466-4.213-0.466h-1.697v17.307
		H282.332z M290.703,346.815h6.193c4.015,0,6.524-0.17,7.523-0.51c0.997-0.338,1.781-0.923,2.347-1.753
		c0.566-0.828,0.848-1.866,0.848-3.11c0-1.395-0.372-2.524-1.117-3.38c-0.743-0.856-1.796-1.4-3.154-1.626
		c-0.679-0.093-2.714-0.141-6.108-0.141h-6.531V346.815z"/>
	<polygon fill="#20005E" points="283.901,434.448 283.901,392.989 314.64,392.989 314.64,400.003 292.272,400.003 292.272,409.194 
		313.085,409.194 313.085,416.179 292.272,416.179 292.272,427.463 315.434,427.463 315.434,434.448 	"/>
	<polygon fill="#20005E" points="281.936,498.156 281.936,490.605 303.712,463.712 284.396,463.712 284.396,456.697 314.74,456.697 
		314.74,463.202 292.031,491.171 315.618,491.171 315.618,498.156 	"/>
</g>
</svg>
